<svg width="188" height="74" viewBox="0 0 188 74" fill="none" xmlns="http://www.w3.org/2000/svg"><path d="M140.22 62.437c.227.444.598.77 1.071.938.472.169 1.027.174 1.6.014 2.046-.572 4.014-.674 6.034-1.21.229-.066.463-.358.704-.517.24-.158.352-.198.427-.15 1.042.589 2.276-.279 3.438-.569.342-1.291.608-.154.909-.252a42.127 42.127 0 005.45-2.025c1.75-.847 3.478-1.696 5.215-2.571a42.146 42.146 0 006.713-4.474 45.683 45.683 0 006.807-6.793 67.428 67.428 0 004.185-5.875 35.791 35.791 0 003.589-6.69c.705-1.486 1.15-3.013 1.308-4.495.079-.54-.036-1.03-.324-1.377-.288-.348-.729-.53-1.24-.51-1.346-.257-2.798-.257-4.297.001a2.3 2.3 0 00-1.041.429c-.33.236-.613.549-.815.9a2.294 2.294 0 00-.32 1.077c-.008.351.088.665.277.9.069.129.236.308.188.37-1.295 1.685-2.059 3.593-3.295 5.34a295.623 295.623 0 01-3.658 5.084c-3.041 3.994-6.804 7.429-10.95 9.996-1.182.767-2.465 1.242-3.692 1.911-.606.328-1.264.73-.808 1.477.067.1-.166.42-.251.636a1.433 1.433 0 00-.375-.257c-.341-.04-.802-.32-.953-.178-.939.902-1.761.513-2.618.785-.893.344-1.77.831-2.591 1.44-.744.596-1.598.946-2.399.985-.204-.024-.396.22-.65-.01a1.455 1.455 0 00-.907-.312 2.32 2.32 0 00-1.091.278 1.203 1.203 0 00-.592.312 1.325 1.325 0 00-.369.587c-.071.178-.301.31-.458.466.069-.225.097-.448.081-.657-.082-.396-.814-.322-.796-.093.098.504.033 1.123-.455.64-.655-.664-1.158-.656-2.079.022-.35.214-.72.357-1.082.419a1.202 1.202 0 01-.432-.05c.346-.88-.031-.404-.505-.38-1.568.24-3.096.27-4.547.093-.615-.263-1.371-.262-2.142.002-.476.21-1.062-.324-1.555-.462-.494-.138-.888-.104-1.095.604 0 0-.608.182-.727.062-.447-.466-.751-1.114-1.732-.616 0 0-.29-.26-.241-.415.194-.643.027-.583-.501-.298-.199.11-.478-.27-.765-.356a22.895 22.895 0 01-5.562-2.703 1.563 1.563 0 01-.907-.72c-.222-.611.459-.771.717-1.154.216-.363.308-.758.256-1.102-.065-.407-.09-.676.402-1.018.308-.245.608-.503.899-.773l-.603-.43c.292-.262.524-.588.665-.935.056-.14.025-.063.125.015l-.278.194a1.61 1.61 0 01-.078-.316s.12-.092.236.094c.117.187.535.063.595-.09.4-1.285 1.374-2.609 1.144-3.927-.06-.3.311-.79.467-1.184 1.109-2.24 1.064-4.39 1.514-6.588.461-2.58.542-5.094.238-7.456-.057-.58.907-1.758-.321-1.783-.051-.685-.101-1.343-.132-2.08a14.306 14.306 0 00-.128-2.119 11.749 11.749 0 00-.828-1.855c-.275-.63-.517-1.285-.857-1.871-.34-.586-.898-1.224-1.21-1.94-.313-.716-1.354-.611-1.648-1.525-.194-.595-1.46-.464-2.009-.941a7.005 7.005 0 00-2.142-1.45c-.386-.138-.545-.397-1.081-.033-.536.363-.592-.07-.797-.334-.206-.263-.576-.32-.902.387l.035-.089c.098.05.19.11.274.179 0 0-.075.19-.195.283a.637.637 0 01-.124-.347c-.293-.767-1.08-.34-1.636-.378-1.227-.05-2.532.177-3.834.669-.545.176-1.338.043-1.724 1.023a1.45 1.45 0 01-.808.118c-.664-.157-1.163-.07-1.352.894-.162.713-.956.22-1.446 1.162a31.008 31.008 0 00-1.474 2.864l-2.153 5.46c.162.23.266.508.304.816.039.308.012.641-.078.98a3.49 3.49 0 01-.448.993c-.206.317-.46.607-.75.853l-.18.458c.137.043.287.06.444.052.419-.024.85-.104 1.283-.236.08.01.206-.521.236-.81.65-.018.96.884.604 1.668a2.134 2.134 0 00-.136.344l-.195.496c-.194-.023-.444-.052-.503-.205-.058-.153.08-.444.064-.645a.278.278 0 00-.109-.145.314.314 0 00-.183-.05c-.19.058-.477.184-.56.335a8.28 8.28 0 00-.472 1.196c-.216.547.864.647.022 1.454-.842.807.237 1.12.038 1.776-.2.656.196.982.675 1.304.183.142-.149.862-.171 1.312-.013 1.33-.002 1.332 1.309.633.178-.074.358-.125.535-.15-.025.15-.061.301-.107.453a4.444 4.444 0 01-.351.678c-.737 1.085-.818 1.382.007 1.612.643.182.622.446.384 1.11-.047.19-.05.374-.009.537a.747.747 0 00.247.397c.478.176.556.372.366.975-.151.382.046 1.151.197 1.129 1.123-.162.659.956.966 1.445.84 1.19 1.669 2.406 2.542 3.574a4.282 4.282 0 001.489 1.626c.887.344.4 1.006-.015 1.396a35.37 35.37 0 01-2.502 2.544 14.303 14.303 0 00-2.681 2.695c-.662.895-2.056 1.41-3.153 1.961-1.098.55-2.035.694-3.021 1.204-.793.35-1.591.66-2.39.932a6.687 6.687 0 01-2.187.596c-.501.034-1.187.806-1.803 1.253a5.72 5.72 0 01-.44.268c-.317-1.036-1.496-.095-2.244-.343-.725-.305-1.624-.277-2.529.077-1.095.604-1.742-.351-2.851.411-.487.33-1.264-.055-1.906-.117-.932-.109-1.895-.142-2.786-.326-.892-.185-1.866.114-2.5-.693-.465-.6-1.975.181-2.35-.861-1.564-.077-2.667-.992-4.031-1.365-2.14-.61-3.677-2.083-5.6-3a29.149 29.149 0 01-5.16-3.815c-1.34-1.036-2.284-2.598-4.058-3.14-.792-1.824-2.444-2.856-3.613-4.298-1.348-1.65-2.638-3.36-3.975-5.008-.681-.839-1.083-1.871-1.797-2.687a44.514 44.514 0 01-3.908-6.025c-.793-1.279-1.39-2.72-2.238-3.952-.847-1.23-1.567-2.847-2.562-4.095-.771-1.063-1.178-2.536-2.057-3.598a10.437 10.437 0 01-1.774-3.044 18.647 18.647 0 00-1.572-3.048c-.588-1.014-1.008-2.182-1.699-3.115a10.015 10.015 0 00-1.913-2.542c-.091-.01-.061-.207-.078-.315.142-.072.289-.114.429-.123l1.922.225c.527.13 1.12.108 1.727-.064.482-.196 1.057.337 1.56.45.503.112 1.138.133 1.718.2l3.64.428c.66.03 1.307.106 1.933.226.512.06.858.54 1.365.613.507.073 1.502-.37 1.782-.084.413.461 1.138.133 1.457.53.506.5 1.484-.745 1.894.116.212.398 1.263.148 1.842.31 1.467.504 3.174-.295 4.752-.496.137.016.412-.258.51-.446.628-1.112.483-1.528-.34-2.157-.828-.677-1.852-1.106-3.003-1.258a12.325 12.325 0 01-2.429-.75c-.804-.255-1.981.166-2.43-.779-.038-.084-.273-.032-.42-.049-2.66-.471-5.334-.931-7.988-1.442-.914-.188-1.731-.59-2.64-.79-1.03-.021-2.02-.16-2.955-.412-1.26-.668-2.939-.425-4.127-1.004-1.993-.98-4.507-.821-6.764-1.192-1.285-.15-2.719-.319-3.643 1.783-.09.23-.575.373-.828.622-.208.25-.396.513-.56.787.24-.082.48-.147.72-.195 0 0 .11.292.053.379-.202.27-.486.476-.687.745-.498.66-.301 1.55-1.15 2.103.276-.7.45-1.413.652-2.108.025-.064-.032-.19-.06-.18-.027.01-.313.07-.354.145-.701 1.356-1.368 2.716-2.065 4.06-.541 1.041-1.169 2.06-1.659 3.12a17.576 17.576 0 01-1.377 3.315c-1.235 1.653-1.451 3.439-2.417 5.044-1.807 2.984-2.693 6.076-4.022 9.117-.136.343-.702.663-.744.951-.043.288.404.394.569.64.068.008-.12.305-.181.458-.351.89-.037.728.542.316.316-.229.981-.95.62.206-.105.268.191.542.086.81-.376.954-.445 1.399.796.759.683-.346.878.276.382 1.083-.497.807-.542 1.042.504 1.045a.34.34 0 01.26.123c.307.37.342.373.456.054a2.1 2.1 0 01.344-.796c.174-.25.397-.469.647-.633-.55-.717.43-.788.717-1.154.173-.183.321-.386.44-.601 1.387-2.887 3.091-5.67 4.398-8.594a92.276 92.276 0 013.153-6.941 52.498 52.498 0 002.467-5.291c.05-.127.225-.24.344-.36.08.103.141.223.181.355.025.27.137.589.019.828-.572 1.118-.519 2.403-1.714 3.381-.228.187-.246.624-.366.93a66.152 66.152 0 01-3.16 6.687c-.908 1.519-1.314 3.122-2.221 4.547a44.378 44.378 0 00-2.686 5.758 24.28 24.28 0 00-1.587 2.877c-.278.887-.04.555.57.52 1.149-.078 1.638-1.14 2.087-1.673a22.92 22.92 0 001.925-3.557c.613-1.193 1.25-2.383 1.856-3.59.607-1.208.639-2.376 1.76-3.35.11-.094.126-.318.186-.471a1422.72 1422.72 0 013.945-8.86c.216-.433.484-.85.798-1.238.138-.17.686-.625.58-.052-.312 1.575 1.358 1.624 1.463 2.928.046.578.576 1.014.727 1.657.053.26.508.313.872.475l-.102-.012a2.44 2.44 0 01.282-.353s.17.02.226.12c-.134.135-.29.24-.454.306.175 1.605.91 2.928 2.088 3.76l-.091-.01a1.8 1.8 0 01.27-.354s.17.02.227.12a1.33 1.33 0 01-.406.245c-.017.797.084 1.568 1.031 1.639a.41.41 0 01.207.15c.05.07.08.159.085.257.06.666.265 1.268.601 1.765.337.498.797.882 1.353 1.128.125.014.334.119.325.17-.246.625.489.844.434 1.104-.3 1.576 1.158 1.8 1.468 2.915.46.993 1.04 1.896 1.735 2.694.344.546.671 1.104 1.031 1.64.36.534.684.892 1.012 1.356.44.638.674 1.61 1.34 1.822.667.211.108.905.444 1.17.334.27.6.612.79 1.012a6.656 6.656 0 001.986 2.51 10.663 10.663 0 012.018 2.7c.296.573.69 1.068 1.17 1.47a4.453 4.453 0 011.755 2.19 12.282 12.282 0 002.202 2.775 43.657 43.657 0 004.604 4.229c1.069.91 2.18 1.773 3.169 2.768a15.545 15.545 0 003.293 2.33c.647.383.806 1.187 1.683 1.437a14.316 14.316 0 013.484 2.06c1.07.697 2.241 1.287 3.338 1.975.941.417 1.944.73 2.998.938.483.163.872.475 1.355.638a34.99 34.99 0 007.162 1.905c1.433.168 2.585 1.142 4.166.875a34.094 34.094 0 014.075-.015c1.331-.057 2.743-.318 4.057-.39 2.839-.243 5.763-.942 8.67-2.073a59.798 59.798 0 007.596-3.571 12.295 12.295 0 001.685-1.254c.179-.152.299-.458.476-.544 2.149-.982 4.189-2.444 5.938-4.257a134.62 134.62 0 012.3-2.394c.117-.1.245-.18.377-.236.132-.056.266-.085.393-.087 1.372.117 2.528.72 3.297 1.718.217.266.587.322.823-.516.06-.153.03-.076.125.015l-.268.195a1.003 1.003 0 01-.078-.316s.115-.08.221.106a19.61 19.61 0 002.373 2.01.4.4 0 00.191.073c.072.008.151 0 .23-.024.396-.22.784-.48 1.179-.727.079.342-.336.853.37.962 3.372.502 6.446 1.488 9.925 1.63.409.048.941.177 1.28-.05 1.599-1.038 2.53-.622 3.543.07.544.37.703-.425.873-1.097.055-.14.025-.064.125.015l-.279.193a1.611 1.611 0 01-.078-.315s.054-.047.176.127zm-28.494-3.607l-.303-.195c.215-.133.441-.225.665-.269 0 0-.107-.212-.069-.248.329-.38.682-.739 1.054-1.074.035-.09.308-.057.387.045.078.102.186.222.152.337a1.919 1.919 0 01-.766.809c-.159.09-.325.15-.488.179-.163.028-.32.022-.461-.017l-.191.484c.098.046.186.106.263.177 0 0-.075.191-.183.285a.516.516 0 01-.084-.234.752.752 0 01.024-.279zm42.516-1.022l.457-.465c.038.084.14.19.108.239-.162.23-.333.454-.515.672-.023-.123-.03-.257.844-.66-.093-.278-.177-.367-.136-.442a4.91 4.91 0 01.337-.614c.103.013.273.033.243.109-.105.267-.24.518-1.338 1.161zm-38.365-9.025l-.182-.022c.075-.127.166-.247.271-.354 0 0 .171.02.232.107s-.212.175-1.653.419a4.59 4.59 0 01.752-.218c.138.002.271.018.398.046-.162.141-.331.388-.487.423-.157.035-.323-.118.669-.401zm-9.599-14.377c-.009.385.005.56-.015.731-.047.15-.105.299-.175.446-.097-.118-.289-.234-.279-.38.009-.145.223-.386.028.803l.455-.4c.023.123.126.255.086.357a3.635 3.635 0 01-.402.565c-.047-.152-.098-.264.302-2.122zm8.69-8.822l-.623.433-.271.687c.686.373.501 1.204.588 1.92a42.646 42.646 0 01-.387 5.388c-.011.572.185 1.1-.245 1.77-.081.203-.081.203.455.053a.446.446 0 01.23.013.338.338 0 01.167.126c.2.397.219.772 1.047.363.827-.41.043.857.508 1.005.182.021.691-.092.254.443-.272.327-.557.627-.847.94-.044-.1-.173-.194-.149-.285.445-1.372-.904-.425-1.212-.821-.06.153-.231.346-.185.471.067.34.342.64.257.976-.185.71-.562 1.425-.843 2.138-.281.713-.069 1.324-.403 1.658-.711.715.182 1.26-.546 1.867-.228.186-.462.598-.631.605-.58.052-.348-.414-.193-.809l.753-1.909a3.27 3.27 0 00.069-.658c-.171.153-.321.33-.444.521l-.657 1.668a3.43 3.43 0 01-.439.6l-.504-.352-.404.632a.96.96 0 01-.218-.412c-.034-.336-.029-.682-.046-1.03a4.371 4.371 0 00-.285-1.06c-1.232-2.035-1.43-4.642-1.97-7.075-.324-1.843-.361-3.812-.111-5.846.215-2.726.994-5.556 2.287-8.309.211-.534.341-1.105.997-1.44.209-.11.382-.396.558-.601-.085.216-.206.522-.075.643.461.64 1.076 1.165 1.472 1.851.253.667.455 1.367.602 2.095.246.735.544 1.395.777 2.195.446-.304.902-.584 1.365-.839 1.138.134 1.288.418.701 1.241-.03.076-.274.061-.425.083.406-1.03-.345-.786-.832-.91-.079-.009-.097-.144-.119-.24a.634.634 0 01.202-.15c.28-.046.483-.05-.225.36zm-14.702-.26c.13-.388.282-.774.457-1.158.04-.101.368-.21.472-.17a.59.59 0 01.312.356 7.655 7.655 0 00-1.383 2.301s-.136.104-.213.148c-.077.045-.141-.216-.112-.32.15-.381.306-.776 1.262-4.379l.647-1.642c.05-.127.214-.241.321-.362.056.1.169.206.129.308l-1.295 3.284c-.03.077-.185.138-.283.207-.035-.124-.11-.266-.071-.395.238-.451.423-.922-.243 1.823zm13.661 18.808l.848-2.15c.153-.273.336-.533.543-.776.132.235.239.488.321.757.057.329.076.675.057 1.032 0 0-.227.213-.279.194-.614-.192-.795.266-1.001.788l-1.033 2.622c-.051.127-.232.226-.357.331-.018-.135-.093-.277-.043-.404.316-.802.627-1.592 2.549-3.084l.085-.217a.984.984 0 01.27.192s-.071.178-.179.272c-.109.094-.104-.159-1.781.444zm5.408 5.962c-.341.412-.709.862-1.089 1.284-.204.215-.554.56-.652.536a.674.674 0 01-.303-.21.743.743 0 01-.154-.35c-.039-.41.074-.868.319-1.294 1.51-1.808 1.779-3.787 2.659-5.748.221-.56.001-1.451.305-1.709 1.106-.936.82-1.808 1.089-2.762a36.29 36.29 0 001.281-6.722c.055-.14.293-.351.453-.546.15.164.47.348.415.488a5.135 5.135 0 00-.544 1.606 3.652 3.652 0 00.066 1.508c.029.133.027.281-.006.433a1.45 1.45 0 01-.187.45c-.502.82-.13 1.476-.386 2.245-.09.23-.005.466-.072.698-.068.231-.862 3.241-.902 3.463-.097.548.388.978-.428 1.72-.503.461-.562 1.427-1.037 1.997-.215.203-.39.447-.507.707a1.7 1.7 0 00-.16.773c-.014.48-.073.973-.175 1.47l.015-.037zm-13.431-19.54c-.221.32-.4.592-.595.876a2.456 2.456 0 01-.365-.856c.014-.495.053-.997.117-1.504-.058-1.35.203-2.795.762-4.226.221-.367.34-.764.339-1.132-.283-1.032.19-1.509 1.246-1.771.148.017.37-.397.551-.615a2.64 2.64 0 01-.108.666l-1.028 2.61a16.14 16.14 0 00-.517 2.456c-.192 1.243-.267 2.34-.402 3.496zm-1.56-7.574c-.461 1.17-.532 1.349-.911 1.225-.98-.382.76-.63.417-1.057 0 0 .06-.153.007-.199-.429-.543.266-.888.542-.922.645-.097.04.471.047.725.007.254-.072.151-.102.228zM11.197 8.996c.357-.331.1-1.067.857-1.418-.211.535-.308 1.083-.48 1.609-.108.32-.234.638-.376.954 0 0-.232.106-.35.133-.117.026-.085-.117-.06-.18.087-.31.212-.628.398-1.1l.011.002zm173.945 19.328c.137-.197.194-.31.233-.319.039-.009.239.028.284.034.11.227.187.478.23.745-.035.09-.106.268-.223.414-.136-.016-.33-.039-.355-.215a2.556 2.556 0 01-.169-.659zm-82.833 3.713c-.054-.406-.13-.788-.161-1.191.124-.09.259-.152.392-.18.125.014.364.042.345.12-.061.368-.16.74-.295 1.11 0 0-.22.108-.281.14zm44.673 25.32l.58.4c-.267.196-.672.588-.793.534-.121-.054-.322-.45-.464-.694l.677-.24zM12.912 9.384l-.59.53c.002-.21.045-.432.127-.651.148-.228.324-.441.522-.632a6.265 6.265 0 00-.058.753zm89.984 15.943l.424-.563.482.709c-.149.076-.334.214-.42.19a1.681 1.681 0 01-.507-.285l.021-.051zm19.834 6.254a2.986 2.986 0 01.027-.703c.04-.102.216-.214.334-.334l.252.87-.613.167zm-22.762-.005c.251-.304.346-.426.442-.548l.502.658c-.132.065-.318.203-.399.167a2.153 2.153 0 01-.545-.277zm10.339 23.852l.424-.563.482.709c-.144.063-.323.215-.409.192a2.394 2.394 0 01-.497-.338zm27.205 4.52c.024.15.107.333.054.407a3.046 3.046 0 01-.646.523l-.249-.335.841-.594zm-.072 1.724c.239-.305.323-.429.424-.563l.482.709c-.138.077-.323.215-.409.192a2.051 2.051 0 01-.452-.453l-.045.115zm-22.663-39.107c.168-.154.305-.35.357-.331.178.05.346.119.502.205-.102.108-.223.294-.28.287a2.203 2.203 0 01-.488-.27l-.091.109zm.933 10.19c-.133.158-.299.338-.461.506-.023-.123-.109-.266-.053-.38.122-.203.266-.397.43-.575l.084.45zm11.148 29.074l-.457-.32c.151-.119.317-.209.485-.262.102.012.203.117.292.194l-.32.388zm-40.455 9.44l-.002.426c-.113-.013-.32.15-.412.112a1.153 1.153 0 01-.255-.35l.669-.188zm22.86-57.568l-.213.149a1.37 1.37 0 01-.011-.335s.131-.09.202-.15l.022.336zm-95.068-7.63l.284-.3s.087.144.072.182c-.078.108-.166.21-.262.303l-.094-.185zm93.413 13.31l.233-.2a.952.952 0 01.011.334s-.12.093-.197.137l-.047-.272zm8.311 8.498l.213-.148c.018.106.021.218.011.334 0 0-.131.091-.202.15l-.022-.336zm7.56 1.712c-.025.064.086.143.06.18-.074.108-.158.21-.251.304-.057-.007-.103-.132-.076-.169.077-.113.167-.22.267-.315zm-7.195 5.362l.186-.11c.018.105.022.218.011.333l-.196.137c-.066.046-.042-.258-.001-.36zm-16.292-1.657l-.09-.196c.114-.045.227-.08.34-.107 0 0 .068.101.093.157l-.343.147zm17.94 8.523l-.224.147a1.323 1.323 0 01-.011-.335s.131-.09.202-.149l.033.337zm-15.368.861l-.083-.182c.114-.053.23-.094.345-.12l.076.169-.338.134zm12.228 7.227s.167-.153.196-.137c.087.053.166.115.236.188 0 0-.174.14-.208.135a.87.87 0 01-.224-.186zm-6.51 1.421l-.219-.199s.179-.152.208-.135a.637.637 0 01.224.186l-.213.148zm-1.12 1.12l.224-.146c.014.106.014.218 0 .333 0 0-.12.092-.191.15l-.033-.336zm-.869 1.057l.285-.3s.086.144.071.182c-.08.107-.168.208-.262.302l-.094-.184zm42.047 5.782l.224-.147c.014.107.014.218 0 .333 0 0-.12.093-.186.138l-.038-.324zm-9.489-.713l.208.198s-.168.153-.197.136a.884.884 0 01-.224-.186l.213-.148zm.964.966l-.082-.183c.114-.053.229-.093.344-.12 0 0 .051.113.088.17l-.35.133zm3.424 1.307l.284-.3s.087.143.072.181c-.078.108-.166.21-.262.303l-.094-.184zm-11.281.182l.341-.293c-.025.064.086.143.06.18-.07.11-.155.213-.251.304l-.15-.191zm-9.183-.584l.268-.288s.103.132.077.169a2.06 2.06 0 01-.267.315l-.078-.196zm-10.269-.272s.162-.14.191-.124a.62.62 0 01.23.174s-.168.153-.197.136a.882.882 0 01-.19-.182l-.034-.004zm-5.694-.92s.086.143.071.181c-.078.108-.166.21-.262.302 0 0-.091-.13-.076-.168.093-.111.193-.215.301-.311l-.034-.004z" fill="#F1356D"/><path d="M98.355 25.434l.015.627c.218-.302.424-.61.615-.926.055-.14-.01-.308-.018-.469l-.612.768zm.502-2.299l.028.563c.125-.105.316-.23.345-.332a2.1 2.1 0 00.031-.623l-.404.392zm14.366 17.319c-.127.223-.24.45-.34.68-.025.063.126.134.203.21.138-.197.262-.4.371-.61.037-.062-.12-.147-.234-.28zm-2.924 3.16l.298-.271c-.091-.011-.199-.13-.232-.107-.101.11-.192.229-.27.354l.204.024z" fill="#F1356D"/></svg>