<svg width="174" height="85" viewBox="0 0 174 85" fill="none" xmlns="http://www.w3.org/2000/svg"><path d="M161.812 78.458a5.62 5.62 0 013.445-5.204 5.599 5.599 0 016.118 1.201 5.611 5.611 0 011.541 2.874 5.613 5.613 0 01-5.497 6.719 5.601 5.601 0 01-3.956-1.636 5.616 5.616 0 01-1.651-3.954zm-35.87 0a5.62 5.62 0 013.45-5.207 5.601 5.601 0 016.122 1.213 5.616 5.616 0 011.21 6.13 5.608 5.608 0 01-5.199 3.454 5.583 5.583 0 01-5.583-5.59zm-35.894 0a5.62 5.62 0 013.445-5.204 5.6 5.6 0 016.118 1.201 5.612 5.612 0 011.541 2.874 5.613 5.613 0 01-5.497 6.719 5.603 5.603 0 01-3.956-1.636 5.618 5.618 0 01-1.65-3.954zm-35.87 0a5.619 5.619 0 013.45-5.207 5.6 5.6 0 016.122 1.213 5.617 5.617 0 01-7.937 7.947 5.594 5.594 0 01-1.635-3.953zm-35.894 0a5.62 5.62 0 013.445-5.204 5.6 5.6 0 016.118 1.201 5.617 5.617 0 01-3.956 9.593 5.604 5.604 0 01-3.956-1.636 5.618 5.618 0 01-1.65-3.954zM143.53 54.584a5.614 5.614 0 013.382-5.297 5.599 5.599 0 016.17 1.167 5.612 5.612 0 011.219 6.168 5.61 5.61 0 01-9.12 1.813 5.59 5.59 0 01-1.651-3.85zm-35.894 0a5.612 5.612 0 016.61-5.667 5.605 5.605 0 014.483 4.374 5.622 5.622 0 01-2.357 5.807 5.6 5.6 0 01-7.044-.636 5.613 5.613 0 01-1.692-3.878zm-35.87 0a5.62 5.62 0 013.365-5.29 5.6 5.6 0 016.161 1.134 5.616 5.616 0 011.266 6.143 5.613 5.613 0 01-9.115 1.89 5.594 5.594 0 01-1.677-3.877zm-35.894 0a5.62 5.62 0 013.36-5.288 5.6 5.6 0 016.158 1.123 5.617 5.617 0 01-3.911 9.636 5.604 5.604 0 01-3.915-1.593 5.618 5.618 0 01-1.692-3.878zm-35.87 0a5.62 5.62 0 013.365-5.29 5.6 5.6 0 016.161 1.134 5.617 5.617 0 01-3.943 9.627 5.603 5.603 0 01-3.9-1.602 5.618 5.618 0 01-1.683-3.869zm161.81-25.072a5.62 5.62 0 013.445-5.204 5.598 5.598 0 016.118 1.201 5.61 5.61 0 011.541 2.874 5.613 5.613 0 01-5.497 6.719 5.577 5.577 0 01-5.18-3.445 5.598 5.598 0 01-.427-2.145zm-35.87 0a5.62 5.62 0 013.45-5.207 5.601 5.601 0 016.122 1.213 5.616 5.616 0 011.21 6.13 5.608 5.608 0 01-5.199 3.454 5.58 5.58 0 01-3.948-1.637 5.594 5.594 0 01-1.635-3.953zm-35.894 0a5.62 5.62 0 013.445-5.204 5.6 5.6 0 016.118 1.201 5.612 5.612 0 011.541 2.874 5.612 5.612 0 01-5.497 6.719 5.576 5.576 0 01-3.963-1.629 5.59 5.59 0 01-1.644-3.961zm-35.87 0a5.619 5.619 0 013.45-5.207 5.6 5.6 0 016.122 1.213 5.617 5.617 0 01-7.937 7.947 5.594 5.594 0 01-1.635-3.953zm-35.894 0a5.62 5.62 0 013.445-5.204 5.6 5.6 0 016.118 1.201 5.616 5.616 0 01-7.92 7.964 5.592 5.592 0 01-1.643-3.961zM143.53 5.638a5.613 5.613 0 013.467-5.212 5.6 5.6 0 016.13 1.245 5.618 5.618 0 01-4.086 9.558 5.58 5.58 0 01-3.902-1.663 5.592 5.592 0 01-1.609-3.928zm-35.894 0A5.62 5.62 0 01111.08.434a5.601 5.601 0 016.119 1.202 5.618 5.618 0 01-.839 8.645 5.598 5.598 0 01-3.117.948 5.573 5.573 0 01-3.964-1.63 5.588 5.588 0 01-1.643-3.96zm-35.87 0a5.62 5.62 0 013.45-5.206 5.6 5.6 0 016.121 1.212 5.617 5.617 0 01-7.936 7.947 5.594 5.594 0 01-1.635-3.953zm-35.894 0A5.62 5.62 0 0139.316.434a5.6 5.6 0 016.119 1.202 5.617 5.617 0 01-6.1 9.174 5.584 5.584 0 01-3.036-3.027 5.598 5.598 0 01-.427-2.145zm-35.87 0A5.62 5.62 0 013.452.432a5.6 5.6 0 016.121 1.212 5.617 5.617 0 01-3.988 9.585A5.58 5.58 0 011.637 9.59 5.594 5.594 0 01.002 5.638z" fill="#EF1D5C"/></svg>