<svg width="280" height="203" viewBox="0 0 280 203" fill="none" xmlns="http://www.w3.org/2000/svg"><g clip-path="url(#clip0_912_4169)"><path d="M302.5-72.745c.342 0 .68.071.996.209.315.138.602.34.844.595.241.255.433.558.563.89a2.871 2.871 0 01-.563 2.992 2.61 2.61 0 01-.844.595 2.487 2.487 0 01-1.991 0 2.598 2.598 0 01-.844-.595 2.774 2.774 0 01-.564-.89 2.892 2.892 0 010-2.101c.131-.334.323-.636.564-.891.242-.255.528-.457.844-.595.316-.138.654-.209.995-.209zm0 28.583c.342 0 .68.071.996.21.315.137.602.34.844.594.241.255.433.558.563.89a2.871 2.871 0 01-.563 2.992 2.608 2.608 0 01-.844.596 2.487 2.487 0 01-1.991 0 2.597 2.597 0 01-.844-.596 2.774 2.774 0 01-.564-.89 2.893 2.893 0 010-2.101c.131-.333.323-.636.564-.89.242-.256.528-.458.844-.596.316-.138.654-.209.995-.209zm0 28.584c.342 0 .68.07.996.209.315.138.602.34.844.595.241.255.433.557.563.89a2.872 2.872 0 01-.563 2.992 2.61 2.61 0 01-.844.595 2.487 2.487 0 01-1.991 0 2.598 2.598 0 01-.844-.595 2.774 2.774 0 01-.564-.89 2.892 2.892 0 010-2.102c.131-.333.323-.635.564-.89.242-.255.528-.457.844-.595.316-.138.654-.21.995-.21zm0 28.583c.342 0 .68.071.996.209.315.138.602.34.844.595.241.255.433.558.563.89a2.871 2.871 0 01-.563 2.992 2.61 2.61 0 01-.844.595 2.487 2.487 0 01-1.991 0 2.598 2.598 0 01-.844-.595 2.774 2.774 0 01-.564-.89 2.892 2.892 0 010-2.101c.131-.333.323-.636.564-.891.242-.255.528-.457.844-.595.316-.138.654-.209.995-.209zm0 28.583c.342 0 .68.071.996.21.315.137.602.34.844.594.241.255.433.558.563.89a2.872 2.872 0 01-.563 2.992 2.608 2.608 0 01-.844.596 2.485 2.485 0 01-1.991 0 2.597 2.597 0 01-.844-.596 2.774 2.774 0 01-.564-.89 2.893 2.893 0 010-2.101c.131-.333.323-.636.564-.89a2.6 2.6 0 01.844-.596c.316-.138.654-.209.995-.209zm0 28.584c.342 0 .68.07.996.209.315.138.602.34.844.595.241.255.433.557.563.89a2.872 2.872 0 01-.563 2.992 2.607 2.607 0 01-.844.595 2.485 2.485 0 01-1.991 0 2.597 2.597 0 01-.844-.595 2.774 2.774 0 01-.564-.89 2.892 2.892 0 010-2.102c.131-.333.323-.635.564-.89.242-.255.528-.457.844-.595.316-.138.654-.21.995-.21zm0 28.583c.342 0 .68.071.996.209.315.138.602.34.844.595.241.255.433.558.563.891a2.87 2.87 0 01-.563 2.991 2.607 2.607 0 01-.844.595 2.485 2.485 0 01-1.991 0 2.597 2.597 0 01-.844-.595 2.773 2.773 0 01-.564-.89 2.897 2.897 0 010-2.101c.131-.333.323-.636.564-.891.242-.255.528-.457.844-.595.316-.138.654-.209.995-.209zm0 28.583c.342 0 .68.071.996.209.315.138.602.34.844.595.241.255.433.558.563.891a2.87 2.87 0 010 2.101c-.13.333-.322.636-.563.89a2.61 2.61 0 01-.844.596 2.5 2.5 0 01-1.991 0 2.6 2.6 0 01-.844-.596 2.762 2.762 0 01-.564-.89 2.893 2.893 0 010-2.101c.131-.333.323-.636.564-.891.242-.255.528-.457.844-.595.316-.138.654-.209.995-.209zm0 28.584c.342 0 .68.071.996.209.315.138.602.34.844.595.241.255.433.557.563.89a2.872 2.872 0 01-.563 2.992 2.607 2.607 0 01-.844.595 2.485 2.485 0 01-1.991 0 2.597 2.597 0 01-.844-.595 2.778 2.778 0 01-.564-.891 2.892 2.892 0 010-2.101c.131-.333.323-.635.564-.89.242-.255.528-.457.844-.595.316-.138.654-.209.995-.209zm0 28.583c.342 0 .68.071.996.209.315.138.602.34.844.595.241.255.433.558.563.891a2.87 2.87 0 01-.563 2.991 2.607 2.607 0 01-.844.595 2.485 2.485 0 01-1.991 0 2.597 2.597 0 01-.844-.595 2.773 2.773 0 01-.564-.89 2.897 2.897 0 010-2.101c.131-.333.323-.636.564-.891.242-.255.528-.457.844-.595.316-.138.654-.209.995-.209zm0 28.583c.342 0 .68.071.996.209.315.138.602.34.844.595.241.255.433.558.563.891a2.87 2.87 0 01-.563 2.991 2.535 2.535 0 01-1.84.804 2.534 2.534 0 01-1.839-.804 2.822 2.822 0 01-.762-1.941c0-.36.068-.717.198-1.05.131-.333.323-.636.564-.891.242-.255.528-.457.844-.595.316-.138.654-.209.995-.209zm0 28.584c.69 0 1.352.289 1.84.804.487.514.761 1.213.761 1.941s-.274 1.426-.761 1.941a2.535 2.535 0 01-1.84.804 2.534 2.534 0 01-1.839-.804 2.824 2.824 0 01-.762-1.941c0-.728.274-1.427.762-1.941a2.534 2.534 0 011.839-.804zm0 28.583c.69 0 1.352.289 1.84.804.487.515.761 1.213.761 1.941s-.274 1.426-.761 1.941a2.535 2.535 0 01-1.84.804 2.534 2.534 0 01-1.839-.804 2.824 2.824 0 01-.762-1.941c0-.728.274-1.426.762-1.941a2.534 2.534 0 011.839-.804zm-27.083-343c.342 0 .68.071.995.209.316.138.603.34.844.595.242.255.433.558.564.89a2.871 2.871 0 010 2.102 2.757 2.757 0 01-.564.89 2.588 2.588 0 01-.844.595 2.479 2.479 0 01-1.99 0 2.588 2.588 0 01-.844-.595 2.757 2.757 0 01-.564-.89 2.871 2.871 0 010-2.101 2.75 2.75 0 01.564-.891c.241-.255.528-.457.844-.595a2.48 2.48 0 01.995-.209zm0 28.583c.342 0 .68.071.995.21.316.137.603.34.844.594.242.255.433.558.564.89a2.871 2.871 0 010 2.102 2.757 2.757 0 01-.564.89 2.586 2.586 0 01-.844.596 2.479 2.479 0 01-1.99 0 2.586 2.586 0 01-.844-.596 2.757 2.757 0 01-.564-.89 2.872 2.872 0 010-2.101c.131-.333.322-.636.564-.89.241-.256.528-.458.844-.596a2.48 2.48 0 01.995-.209zm0 28.584c.342 0 .68.07.995.209.316.138.603.34.844.595.242.255.433.557.564.89a2.872 2.872 0 010 2.101 2.757 2.757 0 01-.564.89 2.588 2.588 0 01-.844.596 2.479 2.479 0 01-1.99 0 2.588 2.588 0 01-.844-.595 2.757 2.757 0 01-.564-.89 2.871 2.871 0 010-2.102c.131-.333.322-.635.564-.89.241-.255.528-.457.844-.595.315-.138.654-.21.995-.21zm0 28.583c.342 0 .68.071.995.209.316.138.603.34.844.595.242.255.433.558.564.89a2.871 2.871 0 010 2.101 2.757 2.757 0 01-.564.891 2.588 2.588 0 01-.844.595 2.479 2.479 0 01-1.99 0 2.588 2.588 0 01-.844-.595 2.757 2.757 0 01-.564-.89 2.87 2.87 0 010-2.101 2.76 2.76 0 01.564-.891c.241-.255.528-.457.844-.595a2.48 2.48 0 01.995-.209zm0 28.583c.342 0 .68.071.995.21.316.137.603.34.844.594.242.255.433.558.564.89a2.872 2.872 0 010 2.102 2.757 2.757 0 01-.564.89 2.586 2.586 0 01-.844.596 2.477 2.477 0 01-1.99 0 2.586 2.586 0 01-.844-.596 2.757 2.757 0 01-.564-.89 2.872 2.872 0 010-2.101c.131-.333.322-.636.564-.89a2.59 2.59 0 01.844-.596 2.48 2.48 0 01.995-.209zm0 28.584c.342 0 .68.07.995.209.316.138.603.34.844.595.242.255.433.557.564.89a2.872 2.872 0 010 2.101 2.757 2.757 0 01-.564.89 2.586 2.586 0 01-.844.596 2.477 2.477 0 01-1.99 0 2.586 2.586 0 01-.844-.595 2.757 2.757 0 01-.564-.89 2.871 2.871 0 010-2.102c.131-.333.322-.635.564-.89.241-.255.528-.457.844-.595.315-.138.654-.21.995-.21zm0 28.583c.342 0 .68.071.995.209.316.138.603.34.844.595.242.255.433.558.564.891a2.87 2.87 0 010 2.101 2.756 2.756 0 01-.564.89 2.586 2.586 0 01-.844.595 2.477 2.477 0 01-1.99 0 2.586 2.586 0 01-.844-.595 2.756 2.756 0 01-.564-.89 2.876 2.876 0 010-2.101 2.76 2.76 0 01.564-.891c.241-.255.528-.457.844-.595a2.48 2.48 0 01.995-.209zm0 28.583c.342 0 .68.071.995.209.316.138.603.34.844.595.242.255.433.558.564.891a2.87 2.87 0 010 2.101 2.746 2.746 0 01-.564.89 2.59 2.59 0 01-.844.596 2.493 2.493 0 01-1.99 0 2.59 2.59 0 01-.844-.596 2.746 2.746 0 01-.564-.89 2.872 2.872 0 010-2.101 2.76 2.76 0 01.564-.891c.241-.255.528-.457.844-.595a2.48 2.48 0 01.995-.209zm0 28.584c.342 0 .68.071.995.209.316.138.603.34.844.595.242.255.433.557.564.89a2.872 2.872 0 010 2.101 2.76 2.76 0 01-.564.891 2.586 2.586 0 01-.844.595 2.477 2.477 0 01-1.99 0 2.586 2.586 0 01-.844-.595 2.76 2.76 0 01-.564-.891 2.87 2.87 0 010-2.101c.131-.333.322-.635.564-.89.241-.255.528-.457.844-.595a2.48 2.48 0 01.995-.209zm0 28.583c.342 0 .68.071.995.209.316.138.603.34.844.595.242.255.433.558.564.891a2.87 2.87 0 010 2.101 2.756 2.756 0 01-.564.89 2.586 2.586 0 01-.844.595 2.477 2.477 0 01-1.99 0 2.586 2.586 0 01-.844-.595 2.756 2.756 0 01-.564-.89 2.876 2.876 0 010-2.101 2.76 2.76 0 01.564-.891c.241-.255.528-.457.844-.595a2.48 2.48 0 01.995-.209zm0 28.583c.342 0 .68.071.995.209.316.138.603.34.844.595.242.255.433.558.564.891a2.87 2.87 0 010 2.101 2.746 2.746 0 01-.564.89 2.571 2.571 0 01-.844.595 2.477 2.477 0 01-.995.209c-.69 0-1.351-.289-1.839-.804a2.822 2.822 0 01-.762-1.941c0-.36.067-.717.198-1.05a2.76 2.76 0 01.564-.891c.241-.255.528-.457.844-.595a2.48 2.48 0 01.995-.209zm0 28.584c.342 0 .68.071.995.209.316.138.603.34.844.595.242.255.433.557.564.89a2.872 2.872 0 010 2.101 2.76 2.76 0 01-.564.891 2.586 2.586 0 01-.844.595 2.477 2.477 0 01-.995.209c-.69 0-1.351-.289-1.839-.804a2.824 2.824 0 01-.762-1.941c0-.728.274-1.427.762-1.941a2.533 2.533 0 011.839-.804zm0 28.583c.342 0 .68.071.995.209.316.138.603.34.844.595.242.255.433.558.564.891a2.87 2.87 0 010 2.101 2.756 2.756 0 01-.564.89 2.586 2.586 0 01-.844.595 2.477 2.477 0 01-.995.209c-.69 0-1.351-.289-1.839-.804a2.824 2.824 0 01-.762-1.941c0-.728.274-1.426.762-1.941a2.533 2.533 0 011.839-.804zm-27.083-343c.341 0 .68.071.995.209.316.138.602.34.844.595.241.255.433.558.564.89a2.892 2.892 0 010 2.102 2.774 2.774 0 01-.564.89 2.598 2.598 0 01-.844.595 2.482 2.482 0 01-1.991 0 2.594 2.594 0 01-.843-.595 2.74 2.74 0 01-.564-.89 2.871 2.871 0 010-2.101 2.74 2.74 0 01.564-.891c.241-.255.528-.457.843-.595.316-.138.654-.209.996-.209zm0 28.583c.341 0 .68.071.995.21.316.137.602.34.844.594.241.255.433.558.564.89a2.892 2.892 0 010 2.102 2.774 2.774 0 01-.564.89 2.597 2.597 0 01-.844.596 2.482 2.482 0 01-1.991 0 2.593 2.593 0 01-.843-.596 2.74 2.74 0 01-.564-.89 2.872 2.872 0 010-2.101c.13-.333.322-.636.564-.89a2.58 2.58 0 01.843-.596c.316-.138.654-.209.996-.209zm0 28.584c.341 0 .68.07.995.209.316.138.602.34.844.595.241.255.433.557.564.89a2.893 2.893 0 010 2.101 2.774 2.774 0 01-.564.89 2.598 2.598 0 01-.844.596 2.482 2.482 0 01-1.991 0 2.594 2.594 0 01-.843-.595 2.74 2.74 0 01-.564-.89 2.871 2.871 0 010-2.102 2.74 2.74 0 01.564-.89c.241-.255.528-.457.843-.595.316-.138.654-.21.996-.21zm0 28.583c.341 0 .68.071.995.209.316.138.602.34.844.595.241.255.433.558.564.89a2.892 2.892 0 010 2.101 2.774 2.774 0 01-.564.891 2.598 2.598 0 01-.844.595 2.482 2.482 0 01-1.991 0 2.594 2.594 0 01-.843-.595 2.74 2.74 0 01-.564-.89 2.87 2.87 0 010-2.101 2.74 2.74 0 01.564-.891c.241-.255.528-.457.843-.595.316-.138.654-.209.996-.209zm0 28.583c.341 0 .68.071.995.21.316.137.602.34.844.594.241.255.433.558.564.89a2.893 2.893 0 010 2.102 2.774 2.774 0 01-.564.89 2.597 2.597 0 01-.844.596 2.48 2.48 0 01-1.991 0 2.593 2.593 0 01-.843-.596 2.74 2.74 0 01-.564-.89 2.872 2.872 0 010-2.101c.13-.333.322-.636.564-.89.241-.255.528-.458.843-.596.316-.138.654-.209.996-.209zm0 28.584c.341 0 .68.07.995.209.316.138.602.34.844.595.241.255.433.557.564.89a2.893 2.893 0 010 2.101 2.774 2.774 0 01-.564.89 2.597 2.597 0 01-.844.596 2.48 2.48 0 01-1.991 0 2.593 2.593 0 01-.843-.595 2.74 2.74 0 01-.564-.89 2.871 2.871 0 010-2.102 2.74 2.74 0 01.564-.89c.241-.255.528-.457.843-.595.316-.138.654-.21.996-.21zm0 28.583c.341 0 .68.071.995.209.316.138.602.34.844.595.241.255.433.558.564.891a2.892 2.892 0 010 2.101 2.773 2.773 0 01-.564.89 2.597 2.597 0 01-.844.595 2.48 2.48 0 01-1.991 0 2.593 2.593 0 01-.843-.595 2.74 2.74 0 01-.564-.89 2.876 2.876 0 010-2.101c.13-.333.322-.636.564-.891.241-.255.528-.457.843-.595.316-.138.654-.209.996-.209zm0 28.583c.341 0 .68.071.995.209.316.138.602.34.844.595.241.255.433.558.564.891a2.892 2.892 0 010 2.101 2.762 2.762 0 01-.564.89 2.6 2.6 0 01-.844.596 2.497 2.497 0 01-1.991 0 2.596 2.596 0 01-.843-.596 2.729 2.729 0 01-.564-.89 2.872 2.872 0 010-2.101c.13-.333.322-.636.564-.891.241-.255.528-.457.843-.595.316-.138.654-.209.996-.209zm0 28.584c.341 0 .68.071.995.209.316.138.602.34.844.595.241.255.433.557.564.89a2.893 2.893 0 010 2.101 2.778 2.778 0 01-.564.891 2.597 2.597 0 01-.844.595 2.48 2.48 0 01-1.991 0 2.593 2.593 0 01-.843-.595 2.744 2.744 0 01-.564-.891 2.87 2.87 0 010-2.101 2.74 2.74 0 01.564-.89c.241-.255.528-.457.843-.595.316-.138.654-.209.996-.209zm0 28.583c.341 0 .68.071.995.209.316.138.602.34.844.595.241.255.433.558.564.891a2.892 2.892 0 010 2.101 2.773 2.773 0 01-.564.89 2.597 2.597 0 01-.844.595 2.48 2.48 0 01-1.991 0 2.593 2.593 0 01-.843-.595 2.74 2.74 0 01-.564-.89 2.876 2.876 0 010-2.101c.13-.333.322-.636.564-.891.241-.255.528-.457.843-.595.316-.138.654-.209.996-.209zm0 28.583c.341 0 .68.071.995.209.316.138.602.34.844.595.241.255.433.558.564.891a2.892 2.892 0 010 2.101 2.762 2.762 0 01-.564.89 2.582 2.582 0 01-.844.595 2.48 2.48 0 01-1.991 0 2.578 2.578 0 01-.843-.595 2.729 2.729 0 01-.564-.89 2.872 2.872 0 010-2.101c.13-.333.322-.636.564-.891.241-.255.528-.457.843-.595.316-.138.654-.209.996-.209zm0 28.584c.341 0 .68.071.995.209.316.138.602.34.844.595.241.255.433.557.564.89a2.893 2.893 0 010 2.101 2.778 2.778 0 01-.564.891 2.597 2.597 0 01-.844.595 2.48 2.48 0 01-1.991 0 2.593 2.593 0 01-.843-.595 2.744 2.744 0 01-.564-.891 2.87 2.87 0 010-2.101 2.74 2.74 0 01.564-.89c.241-.255.528-.457.843-.595.316-.138.654-.209.996-.209zm0 28.583c.341 0 .68.071.995.209.316.138.602.34.844.595.241.255.433.558.564.891a2.892 2.892 0 010 2.101 2.773 2.773 0 01-.564.89 2.597 2.597 0 01-.844.595 2.48 2.48 0 01-1.991 0 2.593 2.593 0 01-.843-.595 2.74 2.74 0 01-.564-.89 2.876 2.876 0 010-2.101c.13-.333.322-.636.564-.891.241-.255.528-.457.843-.595.316-.138.654-.209.996-.209zm-27.084-343c.342 0 .68.071.996.209.315.138.602.34.844.595.241.255.433.558.563.89a2.871 2.871 0 01-.563 2.992 2.61 2.61 0 01-.844.595 2.487 2.487 0 01-1.991 0 2.598 2.598 0 01-.844-.595 2.774 2.774 0 01-.564-.89 2.892 2.892 0 010-2.101c.131-.334.323-.636.564-.891.242-.255.528-.457.844-.595.316-.138.654-.209.995-.209zm0 28.583c.342 0 .68.071.996.21.315.137.602.34.844.594.241.255.433.558.563.89a2.871 2.871 0 01-.563 2.992 2.608 2.608 0 01-.844.596 2.487 2.487 0 01-1.991 0 2.597 2.597 0 01-.844-.596 2.774 2.774 0 01-.564-.89 2.893 2.893 0 010-2.101c.131-.333.323-.636.564-.89.242-.256.528-.458.844-.596.316-.138.654-.209.995-.209zm0 28.584c.342 0 .68.07.996.209.315.138.602.34.844.595.241.255.433.557.563.89a2.872 2.872 0 01-.563 2.992 2.61 2.61 0 01-.844.595 2.487 2.487 0 01-1.991 0 2.598 2.598 0 01-.844-.595 2.774 2.774 0 01-.564-.89 2.892 2.892 0 010-2.102c.131-.333.323-.635.564-.89.242-.255.528-.457.844-.595.316-.138.654-.21.995-.21zm0 28.583c.342 0 .68.071.996.209.315.138.602.34.844.595.241.255.433.558.563.89a2.871 2.871 0 01-.563 2.992 2.61 2.61 0 01-.844.595 2.487 2.487 0 01-1.991 0 2.598 2.598 0 01-.844-.595 2.774 2.774 0 01-.564-.89 2.892 2.892 0 010-2.101c.131-.333.323-.636.564-.891.242-.255.528-.457.844-.595.316-.138.654-.209.995-.209zm0 28.583c.342 0 .68.071.996.21.315.137.602.34.844.594.241.255.433.558.563.89a2.872 2.872 0 01-.563 2.992 2.608 2.608 0 01-.844.596 2.485 2.485 0 01-1.991 0 2.597 2.597 0 01-.844-.596 2.774 2.774 0 01-.564-.89 2.893 2.893 0 010-2.101c.131-.333.323-.636.564-.89a2.6 2.6 0 01.844-.596c.316-.138.654-.209.995-.209zm0 28.584c.342 0 .68.07.996.209.315.138.602.34.844.595.241.255.433.557.563.89a2.872 2.872 0 01-.563 2.992 2.607 2.607 0 01-.844.595 2.485 2.485 0 01-1.991 0 2.597 2.597 0 01-.844-.595 2.774 2.774 0 01-.564-.89 2.892 2.892 0 010-2.102c.131-.333.323-.635.564-.89.242-.255.528-.457.844-.595.316-.138.654-.21.995-.21zm0 28.583c.342 0 .68.071.996.209.315.138.602.34.844.595.241.255.433.558.563.891a2.87 2.87 0 01-.563 2.991 2.607 2.607 0 01-.844.595 2.485 2.485 0 01-1.991 0 2.597 2.597 0 01-.844-.595 2.773 2.773 0 01-.564-.89 2.897 2.897 0 010-2.101c.131-.333.323-.636.564-.891.242-.255.528-.457.844-.595.316-.138.654-.209.995-.209zm0 28.583c.342 0 .68.071.996.209.315.138.602.34.844.595.241.255.433.558.563.891a2.87 2.87 0 010 2.101c-.13.333-.322.636-.563.89a2.61 2.61 0 01-.844.596 2.5 2.5 0 01-1.991 0 2.6 2.6 0 01-.844-.596 2.762 2.762 0 01-.564-.89 2.893 2.893 0 010-2.101c.131-.333.323-.636.564-.891.242-.255.528-.457.844-.595.316-.138.654-.209.995-.209zm0 28.584c.342 0 .68.071.996.209.315.138.602.34.844.595.241.255.433.557.563.89a2.872 2.872 0 01-.563 2.992 2.607 2.607 0 01-.844.595 2.485 2.485 0 01-1.991 0 2.597 2.597 0 01-.844-.595 2.778 2.778 0 01-.564-.891 2.892 2.892 0 010-2.101c.131-.333.323-.635.564-.89.242-.255.528-.457.844-.595.316-.138.654-.209.995-.209zm0 28.583c.342 0 .68.071.996.209.315.138.602.34.844.595.241.255.433.558.563.891a2.87 2.87 0 01-.563 2.991 2.607 2.607 0 01-.844.595 2.485 2.485 0 01-1.991 0 2.597 2.597 0 01-.844-.595 2.773 2.773 0 01-.564-.89 2.897 2.897 0 010-2.101c.131-.333.323-.636.564-.891.242-.255.528-.457.844-.595.316-.138.654-.209.995-.209zm0 28.583c.342 0 .68.071.996.209.315.138.602.34.844.595.241.255.433.558.563.891a2.87 2.87 0 010 2.101c-.13.333-.322.636-.563.89a2.592 2.592 0 01-.844.595 2.485 2.485 0 01-1.991 0 2.582 2.582 0 01-.844-.595 2.762 2.762 0 01-.564-.89 2.893 2.893 0 010-2.101c.131-.333.323-.636.564-.891.242-.255.528-.457.844-.595.316-.138.654-.209.995-.209zm0 28.584c.342 0 .68.071.996.209.315.138.602.34.844.595.241.255.433.557.563.89a2.872 2.872 0 01-.563 2.992 2.607 2.607 0 01-.844.595 2.485 2.485 0 01-1.991 0 2.597 2.597 0 01-.844-.595 2.778 2.778 0 01-.564-.891 2.892 2.892 0 010-2.101c.131-.333.323-.635.564-.89.242-.255.528-.457.844-.595.316-.138.654-.209.995-.209zm0 28.583c.342 0 .68.071.996.209.315.138.602.34.844.595.241.255.433.558.563.891a2.87 2.87 0 01-.563 2.991 2.607 2.607 0 01-.844.595 2.485 2.485 0 01-1.991 0 2.597 2.597 0 01-.844-.595 2.773 2.773 0 01-.564-.89 2.897 2.897 0 010-2.101c.131-.333.323-.636.564-.891.242-.255.528-.457.844-.595.316-.138.654-.209.995-.209zm-27.083-343c.342 0 .68.071.995.209.316.138.603.34.844.595.242.255.433.558.564.89a2.871 2.871 0 010 2.102 2.757 2.757 0 01-.564.89 2.588 2.588 0 01-.844.595 2.479 2.479 0 01-1.99 0 2.588 2.588 0 01-.844-.595 2.757 2.757 0 01-.564-.89 2.871 2.871 0 010-2.101 2.75 2.75 0 01.564-.891c.241-.255.528-.457.844-.595a2.48 2.48 0 01.995-.209zm0 28.583c.342 0 .68.071.995.21.316.137.603.34.844.594.242.255.433.558.564.89a2.871 2.871 0 010 2.102 2.757 2.757 0 01-.564.89 2.586 2.586 0 01-.844.596 2.479 2.479 0 01-1.99 0 2.586 2.586 0 01-.844-.596 2.757 2.757 0 01-.564-.89 2.872 2.872 0 010-2.101c.131-.333.322-.636.564-.89.241-.256.528-.458.844-.596a2.48 2.48 0 01.995-.209zm0 28.584c.342 0 .68.07.995.209.316.138.603.34.844.595.242.255.433.557.564.89a2.872 2.872 0 010 2.101 2.757 2.757 0 01-.564.89 2.588 2.588 0 01-.844.596 2.479 2.479 0 01-1.99 0 2.588 2.588 0 01-.844-.595 2.757 2.757 0 01-.564-.89 2.871 2.871 0 010-2.102c.131-.333.322-.635.564-.89.241-.255.528-.457.844-.595.315-.138.654-.21.995-.21zm0 28.583c.342 0 .68.071.995.209.316.138.603.34.844.595.242.255.433.558.564.89a2.871 2.871 0 010 2.101 2.757 2.757 0 01-.564.891 2.588 2.588 0 01-.844.595 2.479 2.479 0 01-1.99 0 2.588 2.588 0 01-.844-.595 2.757 2.757 0 01-.564-.89 2.87 2.87 0 010-2.101 2.76 2.76 0 01.564-.891c.241-.255.528-.457.844-.595a2.48 2.48 0 01.995-.209zm0 28.583c.342 0 .68.071.995.21.316.137.603.34.844.594.242.255.433.558.564.89a2.872 2.872 0 010 2.102 2.757 2.757 0 01-.564.89 2.586 2.586 0 01-.844.596 2.477 2.477 0 01-1.99 0 2.586 2.586 0 01-.844-.596 2.757 2.757 0 01-.564-.89 2.872 2.872 0 010-2.101c.131-.333.322-.636.564-.89a2.59 2.59 0 01.844-.596 2.48 2.48 0 01.995-.209zm0 28.584c.342 0 .68.07.995.209.316.138.603.34.844.595.242.255.433.557.564.89a2.872 2.872 0 010 2.101 2.757 2.757 0 01-.564.89 2.586 2.586 0 01-.844.596 2.477 2.477 0 01-1.99 0 2.586 2.586 0 01-.844-.595 2.757 2.757 0 01-.564-.89 2.871 2.871 0 010-2.102c.131-.333.322-.635.564-.89.241-.255.528-.457.844-.595.315-.138.654-.21.995-.21zm0 28.583c.342 0 .68.071.995.209.316.138.603.34.844.595.242.255.433.558.564.891a2.87 2.87 0 010 2.101 2.756 2.756 0 01-.564.89 2.586 2.586 0 01-.844.595 2.477 2.477 0 01-1.99 0 2.586 2.586 0 01-.844-.595 2.756 2.756 0 01-.564-.89 2.876 2.876 0 010-2.101 2.76 2.76 0 01.564-.891c.241-.255.528-.457.844-.595a2.48 2.48 0 01.995-.209zm0 28.583c.342 0 .68.071.995.209.316.138.603.34.844.595.242.255.433.558.564.891a2.87 2.87 0 010 2.101 2.746 2.746 0 01-.564.89 2.59 2.59 0 01-.844.596 2.493 2.493 0 01-1.99 0 2.59 2.59 0 01-.844-.596 2.746 2.746 0 01-.564-.89 2.872 2.872 0 010-2.101 2.76 2.76 0 01.564-.891c.241-.255.528-.457.844-.595a2.48 2.48 0 01.995-.209zm0 28.584c.342 0 .68.071.995.209.316.138.603.34.844.595.242.255.433.557.564.89a2.872 2.872 0 010 2.101 2.76 2.76 0 01-.564.891 2.586 2.586 0 01-.844.595 2.477 2.477 0 01-1.99 0 2.586 2.586 0 01-.844-.595 2.76 2.76 0 01-.564-.891 2.87 2.87 0 010-2.101c.131-.333.322-.635.564-.89.241-.255.528-.457.844-.595a2.48 2.48 0 01.995-.209zm0 28.583c.342 0 .68.071.995.209.316.138.603.34.844.595.242.255.433.558.564.891a2.87 2.87 0 010 2.101 2.756 2.756 0 01-.564.89 2.586 2.586 0 01-.844.595 2.477 2.477 0 01-1.99 0 2.586 2.586 0 01-.844-.595 2.756 2.756 0 01-.564-.89 2.876 2.876 0 010-2.101 2.76 2.76 0 01.564-.891c.241-.255.528-.457.844-.595a2.48 2.48 0 01.995-.209zm0 28.583c.342 0 .68.071.995.209.316.138.603.34.844.595.242.255.433.558.564.891a2.87 2.87 0 010 2.101 2.746 2.746 0 01-.564.89 2.571 2.571 0 01-.844.595 2.477 2.477 0 01-1.99 0 2.571 2.571 0 01-.844-.595 2.746 2.746 0 01-.564-.89 2.872 2.872 0 010-2.101 2.76 2.76 0 01.564-.891c.241-.255.528-.457.844-.595a2.48 2.48 0 01.995-.209zm0 28.584c.342 0 .68.071.995.209.316.138.603.34.844.595.242.255.433.557.564.89a2.872 2.872 0 010 2.101 2.76 2.76 0 01-.564.891 2.586 2.586 0 01-.844.595 2.477 2.477 0 01-1.99 0 2.586 2.586 0 01-.844-.595 2.76 2.76 0 01-.564-.891 2.87 2.87 0 010-2.101c.131-.333.322-.635.564-.89.241-.255.528-.457.844-.595a2.48 2.48 0 01.995-.209zm0 28.583c.342 0 .68.071.995.209.316.138.603.34.844.595.242.255.433.558.564.891a2.87 2.87 0 010 2.101 2.756 2.756 0 01-.564.89 2.586 2.586 0 01-.844.595 2.477 2.477 0 01-1.99 0 2.586 2.586 0 01-.844-.595 2.756 2.756 0 01-.564-.89 2.876 2.876 0 010-2.101 2.76 2.76 0 01.564-.891c.241-.255.528-.457.844-.595a2.48 2.48 0 01.995-.209zm-27.083-343c.341 0 .68.071.995.209.316.138.602.34.844.595.241.255.433.558.564.89a2.892 2.892 0 010 2.102 2.774 2.774 0 01-.564.89 2.598 2.598 0 01-.844.595 2.482 2.482 0 01-1.991 0 2.594 2.594 0 01-.843-.595 2.74 2.74 0 01-.564-.89 2.871 2.871 0 010-2.101 2.74 2.74 0 01.564-.891c.241-.255.528-.457.843-.595.316-.138.654-.209.996-.209zm0 28.583c.341 0 .68.071.995.21.316.137.602.34.844.594.241.255.433.558.564.89a2.892 2.892 0 010 2.102 2.774 2.774 0 01-.564.89 2.597 2.597 0 01-.844.596 2.482 2.482 0 01-1.991 0 2.593 2.593 0 01-.843-.596 2.74 2.74 0 01-.564-.89 2.872 2.872 0 010-2.101c.13-.333.322-.636.564-.89a2.58 2.58 0 01.843-.596c.316-.138.654-.209.996-.209zm0 28.584c.341 0 .68.07.995.209.316.138.602.34.844.595.241.255.433.557.564.89a2.893 2.893 0 010 2.101 2.774 2.774 0 01-.564.89 2.598 2.598 0 01-.844.596 2.482 2.482 0 01-1.991 0 2.594 2.594 0 01-.843-.595 2.74 2.74 0 01-.564-.89 2.871 2.871 0 010-2.102 2.74 2.74 0 01.564-.89c.241-.255.528-.457.843-.595.316-.138.654-.21.996-.21zm0 28.583c.341 0 .68.071.995.209.316.138.602.34.844.595.241.255.433.558.564.89a2.892 2.892 0 010 2.101 2.774 2.774 0 01-.564.891 2.598 2.598 0 01-.844.595 2.482 2.482 0 01-1.991 0 2.594 2.594 0 01-.843-.595 2.74 2.74 0 01-.564-.89 2.87 2.87 0 010-2.101 2.74 2.74 0 01.564-.891c.241-.255.528-.457.843-.595.316-.138.654-.209.996-.209zm0 28.583c.341 0 .68.071.995.21.316.137.602.34.844.594.241.255.433.558.564.89a2.893 2.893 0 010 2.102 2.774 2.774 0 01-.564.89 2.597 2.597 0 01-.844.596 2.48 2.48 0 01-1.991 0 2.593 2.593 0 01-.843-.596 2.74 2.74 0 01-.564-.89 2.872 2.872 0 010-2.101c.13-.333.322-.636.564-.89.241-.255.528-.458.843-.596.316-.138.654-.209.996-.209zm0 28.584c.341 0 .68.07.995.209.316.138.602.34.844.595.241.255.433.557.564.89a2.893 2.893 0 010 2.101 2.774 2.774 0 01-.564.89 2.597 2.597 0 01-.844.596 2.48 2.48 0 01-1.991 0 2.593 2.593 0 01-.843-.595 2.74 2.74 0 01-.564-.89 2.871 2.871 0 010-2.102 2.74 2.74 0 01.564-.89c.241-.255.528-.457.843-.595.316-.138.654-.21.996-.21zm0 28.583c.341 0 .68.071.995.209.316.138.602.34.844.595.241.255.433.558.564.891a2.892 2.892 0 010 2.101 2.773 2.773 0 01-.564.89 2.597 2.597 0 01-.844.595 2.48 2.48 0 01-1.991 0 2.593 2.593 0 01-.843-.595 2.74 2.74 0 01-.564-.89 2.876 2.876 0 010-2.101c.13-.333.322-.636.564-.891.241-.255.528-.457.843-.595.316-.138.654-.209.996-.209zm0 28.583c.341 0 .68.071.995.209.316.138.602.34.844.595.241.255.433.558.564.891a2.892 2.892 0 010 2.101 2.762 2.762 0 01-.564.89 2.6 2.6 0 01-.844.596 2.497 2.497 0 01-1.991 0 2.596 2.596 0 01-.843-.596 2.729 2.729 0 01-.564-.89 2.872 2.872 0 010-2.101c.13-.333.322-.636.564-.891.241-.255.528-.457.843-.595.316-.138.654-.209.996-.209zm0 28.584c.341 0 .68.071.995.209.316.138.602.34.844.595.241.255.433.557.564.89a2.893 2.893 0 010 2.101 2.778 2.778 0 01-.564.891 2.597 2.597 0 01-.844.595 2.48 2.48 0 01-1.991 0 2.593 2.593 0 01-.843-.595 2.744 2.744 0 01-.564-.891 2.87 2.87 0 010-2.101 2.74 2.74 0 01.564-.89c.241-.255.528-.457.843-.595.316-.138.654-.209.996-.209zm0 28.583c.341 0 .68.071.995.209.316.138.602.34.844.595.241.255.433.558.564.891a2.892 2.892 0 010 2.101 2.773 2.773 0 01-.564.89 2.597 2.597 0 01-.844.595 2.48 2.48 0 01-1.991 0 2.593 2.593 0 01-.843-.595 2.74 2.74 0 01-.564-.89 2.876 2.876 0 010-2.101c.13-.333.322-.636.564-.891.241-.255.528-.457.843-.595.316-.138.654-.209.996-.209zm0 28.583c.341 0 .68.071.995.209.316.138.602.34.844.595.241.255.433.558.564.891a2.892 2.892 0 010 2.101 2.762 2.762 0 01-.564.89 2.582 2.582 0 01-.844.595 2.48 2.48 0 01-1.991 0 2.578 2.578 0 01-.843-.595 2.729 2.729 0 01-.564-.89 2.872 2.872 0 010-2.101c.13-.333.322-.636.564-.891.241-.255.528-.457.843-.595.316-.138.654-.209.996-.209zm0 28.584c.341 0 .68.071.995.209.316.138.602.34.844.595.241.255.433.557.564.89a2.893 2.893 0 010 2.101 2.778 2.778 0 01-.564.891 2.597 2.597 0 01-.844.595 2.48 2.48 0 01-1.991 0 2.593 2.593 0 01-.843-.595 2.744 2.744 0 01-.564-.891 2.87 2.87 0 010-2.101 2.74 2.74 0 01.564-.89c.241-.255.528-.457.843-.595.316-.138.654-.209.996-.209zm0 28.583c.341 0 .68.071.995.209.316.138.602.34.844.595.241.255.433.558.564.891a2.892 2.892 0 010 2.101 2.773 2.773 0 01-.564.89 2.597 2.597 0 01-.844.595 2.48 2.48 0 01-1.991 0 2.593 2.593 0 01-.843-.595 2.74 2.74 0 01-.564-.89 2.876 2.876 0 010-2.101c.13-.333.322-.636.564-.891.241-.255.528-.457.843-.595.316-.138.654-.209.996-.209zM140-72.745c.342 0 .68.071.996.209.315.138.602.34.844.595.241.255.433.558.563.89a2.871 2.871 0 01-.563 2.992 2.61 2.61 0 01-.844.595 2.487 2.487 0 01-1.991 0 2.598 2.598 0 01-.844-.595 2.774 2.774 0 01-.564-.89 2.892 2.892 0 010-2.101c.131-.334.323-.636.564-.891.242-.255.528-.457.844-.595.316-.138.654-.209.995-.209zm0 28.583c.342 0 .68.071.996.21.315.137.602.34.844.594.241.255.433.558.563.89a2.871 2.871 0 01-.563 2.992 2.608 2.608 0 01-.844.596 2.487 2.487 0 01-1.991 0 2.597 2.597 0 01-.844-.596 2.774 2.774 0 01-.564-.89 2.893 2.893 0 010-2.101c.131-.333.323-.636.564-.89.242-.256.528-.458.844-.596.316-.138.654-.209.995-.209zm0 28.584c.342 0 .68.07.996.209.315.138.602.34.844.595.241.255.433.557.563.89a2.872 2.872 0 01-.563 2.992 2.61 2.61 0 01-.844.595 2.487 2.487 0 01-1.991 0 2.598 2.598 0 01-.844-.595 2.774 2.774 0 01-.564-.89 2.892 2.892 0 010-2.102c.131-.333.323-.635.564-.89.242-.255.528-.457.844-.595.316-.138.654-.21.995-.21zm0 28.583c.342 0 .68.071.996.209.315.138.602.34.844.595.241.255.433.558.563.89a2.871 2.871 0 01-.563 2.992 2.61 2.61 0 01-.844.595 2.487 2.487 0 01-1.991 0 2.598 2.598 0 01-.844-.595 2.774 2.774 0 01-.564-.89 2.892 2.892 0 010-2.101c.131-.333.323-.636.564-.891.242-.255.528-.457.844-.595.316-.138.654-.209.995-.209zm0 28.583c.342 0 .68.071.996.21.315.137.602.34.844.594.241.255.433.558.563.89a2.872 2.872 0 01-.563 2.992 2.608 2.608 0 01-.844.596 2.485 2.485 0 01-1.991 0 2.597 2.597 0 01-.844-.596 2.774 2.774 0 01-.564-.89 2.893 2.893 0 010-2.101c.131-.333.323-.636.564-.89a2.6 2.6 0 01.844-.596c.316-.138.654-.209.995-.209zm0 28.584c.342 0 .68.07.996.209.315.138.602.34.844.595.241.255.433.557.563.89a2.872 2.872 0 01-.563 2.992 2.607 2.607 0 01-.844.595 2.485 2.485 0 01-1.991 0 2.597 2.597 0 01-.844-.595 2.774 2.774 0 01-.564-.89 2.892 2.892 0 010-2.102c.131-.333.323-.635.564-.89.242-.255.528-.457.844-.595.316-.138.654-.21.995-.21zm0 28.583c.342 0 .68.071.996.209.315.138.602.34.844.595.241.255.433.558.563.891a2.87 2.87 0 01-.563 2.991 2.607 2.607 0 01-.844.595 2.485 2.485 0 01-1.991 0 2.597 2.597 0 01-.844-.595 2.773 2.773 0 01-.564-.89 2.897 2.897 0 010-2.101c.131-.333.323-.636.564-.891.242-.255.528-.457.844-.595.316-.138.654-.209.995-.209zm0 28.583c.342 0 .68.071.996.209.315.138.602.34.844.595.241.255.433.558.563.891a2.87 2.87 0 010 2.101c-.13.333-.322.636-.563.89a2.61 2.61 0 01-.844.596 2.5 2.5 0 01-1.991 0 2.6 2.6 0 01-.844-.596 2.762 2.762 0 01-.564-.89 2.893 2.893 0 010-2.101c.131-.333.323-.636.564-.891.242-.255.528-.457.844-.595.316-.138.654-.209.995-.209zm0 28.584c.342 0 .68.071.996.209.315.138.602.34.844.595.241.255.433.557.563.89a2.872 2.872 0 01-.563 2.992 2.607 2.607 0 01-.844.595 2.485 2.485 0 01-1.991 0 2.597 2.597 0 01-.844-.595 2.778 2.778 0 01-.564-.891 2.892 2.892 0 010-2.101c.131-.333.323-.635.564-.89.242-.255.528-.457.844-.595.316-.138.654-.209.995-.209zm0 28.583c.342 0 .68.071.996.209.315.138.602.34.844.595.241.255.433.558.563.891a2.87 2.87 0 01-.563 2.991 2.607 2.607 0 01-.844.595 2.485 2.485 0 01-1.991 0 2.597 2.597 0 01-.844-.595 2.773 2.773 0 01-.564-.89 2.897 2.897 0 010-2.101c.131-.333.323-.636.564-.891.242-.255.528-.457.844-.595.316-.138.654-.209.995-.209zm0 28.583c.342 0 .68.071.996.209.315.138.602.34.844.595.241.255.433.558.563.891a2.87 2.87 0 010 2.101c-.13.333-.322.636-.563.89a2.592 2.592 0 01-.844.595 2.485 2.485 0 01-1.991 0 2.582 2.582 0 01-.844-.595 2.762 2.762 0 01-.564-.89 2.893 2.893 0 010-2.101c.131-.333.323-.636.564-.891.242-.255.528-.457.844-.595.316-.138.654-.209.995-.209zm0 28.584c.342 0 .68.071.996.209.315.138.602.34.844.595.241.255.433.557.563.89a2.872 2.872 0 01-.563 2.992 2.607 2.607 0 01-.844.595 2.485 2.485 0 01-1.991 0 2.597 2.597 0 01-.844-.595 2.778 2.778 0 01-.564-.891 2.892 2.892 0 010-2.101c.131-.333.323-.635.564-.89.242-.255.528-.457.844-.595.316-.138.654-.209.995-.209zm0 28.583c.342 0 .68.071.996.209.315.138.602.34.844.595.241.255.433.558.563.891a2.87 2.87 0 01-.563 2.991 2.607 2.607 0 01-.844.595 2.485 2.485 0 01-1.991 0 2.597 2.597 0 01-.844-.595 2.773 2.773 0 01-.564-.89 2.897 2.897 0 010-2.101c.131-.333.323-.636.564-.891.242-.255.528-.457.844-.595.316-.138.654-.209.995-.209zm-27.083-343c.342 0 .68.071.995.209.316.138.603.34.844.595.242.255.433.558.564.89a2.871 2.871 0 010 2.102 2.757 2.757 0 01-.564.89 2.588 2.588 0 01-.844.595 2.479 2.479 0 01-1.99 0 2.588 2.588 0 01-.844-.595 2.757 2.757 0 01-.564-.89 2.871 2.871 0 010-2.101 2.75 2.75 0 01.564-.891c.241-.255.528-.457.844-.595a2.48 2.48 0 01.995-.209zm0 28.583c.342 0 .68.071.995.21.316.137.603.34.844.594.242.255.433.558.564.89a2.871 2.871 0 010 2.102 2.757 2.757 0 01-.564.89 2.586 2.586 0 01-.844.596 2.479 2.479 0 01-1.99 0 2.586 2.586 0 01-.844-.596 2.757 2.757 0 01-.564-.89 2.872 2.872 0 010-2.101c.131-.333.322-.636.564-.89.241-.256.528-.458.844-.596a2.48 2.48 0 01.995-.209zm0 28.584c.342 0 .68.07.995.209.316.138.603.34.844.595.242.255.433.557.564.89a2.872 2.872 0 010 2.101 2.757 2.757 0 01-.564.89 2.588 2.588 0 01-.844.596 2.479 2.479 0 01-1.99 0 2.588 2.588 0 01-.844-.595 2.757 2.757 0 01-.564-.89 2.871 2.871 0 010-2.102c.131-.333.322-.635.564-.89.241-.255.528-.457.844-.595.315-.138.654-.21.995-.21zm0 28.583c.342 0 .68.071.995.209.316.138.603.34.844.595.242.255.433.558.564.89a2.871 2.871 0 010 2.101 2.757 2.757 0 01-.564.891 2.588 2.588 0 01-.844.595 2.479 2.479 0 01-1.99 0 2.588 2.588 0 01-.844-.595 2.757 2.757 0 01-.564-.89 2.87 2.87 0 010-2.101 2.76 2.76 0 01.564-.891c.241-.255.528-.457.844-.595a2.48 2.48 0 01.995-.209zm0 28.583c.342 0 .68.071.995.21.316.137.603.34.844.594.242.255.433.558.564.89a2.872 2.872 0 010 2.102 2.757 2.757 0 01-.564.89 2.586 2.586 0 01-.844.596 2.477 2.477 0 01-1.99 0 2.586 2.586 0 01-.844-.596 2.757 2.757 0 01-.564-.89 2.872 2.872 0 010-2.101c.131-.333.322-.636.564-.89a2.59 2.59 0 01.844-.596 2.48 2.48 0 01.995-.209zm0 28.584c.342 0 .68.07.995.209.316.138.603.34.844.595.242.255.433.557.564.89a2.872 2.872 0 010 2.101 2.757 2.757 0 01-.564.89 2.586 2.586 0 01-.844.596 2.477 2.477 0 01-1.99 0 2.586 2.586 0 01-.844-.595 2.757 2.757 0 01-.564-.89 2.871 2.871 0 010-2.102c.131-.333.322-.635.564-.89.241-.255.528-.457.844-.595.315-.138.654-.21.995-.21zm0 28.583c.342 0 .68.071.995.209.316.138.603.34.844.595.242.255.433.558.564.891a2.87 2.87 0 010 2.101 2.756 2.756 0 01-.564.89 2.586 2.586 0 01-.844.595 2.477 2.477 0 01-1.99 0 2.586 2.586 0 01-.844-.595 2.756 2.756 0 01-.564-.89 2.876 2.876 0 010-2.101 2.76 2.76 0 01.564-.891c.241-.255.528-.457.844-.595a2.48 2.48 0 01.995-.209zm0 28.583c.342 0 .68.071.995.209.316.138.603.34.844.595.242.255.433.558.564.891a2.87 2.87 0 010 2.101 2.746 2.746 0 01-.564.89 2.59 2.59 0 01-.844.596 2.493 2.493 0 01-1.99 0 2.59 2.59 0 01-.844-.596 2.746 2.746 0 01-.564-.89 2.872 2.872 0 010-2.101 2.76 2.76 0 01.564-.891c.241-.255.528-.457.844-.595a2.48 2.48 0 01.995-.209zm0 28.584c.342 0 .68.071.995.209.316.138.603.34.844.595.242.255.433.557.564.89a2.872 2.872 0 010 2.101 2.76 2.76 0 01-.564.891 2.586 2.586 0 01-.844.595 2.477 2.477 0 01-1.99 0 2.586 2.586 0 01-.844-.595 2.76 2.76 0 01-.564-.891 2.87 2.87 0 010-2.101c.131-.333.322-.635.564-.89.241-.255.528-.457.844-.595a2.48 2.48 0 01.995-.209zm0 28.583c.342 0 .68.071.995.209.316.138.603.34.844.595.242.255.433.558.564.891a2.87 2.87 0 010 2.101 2.756 2.756 0 01-.564.89 2.586 2.586 0 01-.844.595 2.477 2.477 0 01-1.99 0 2.586 2.586 0 01-.844-.595 2.756 2.756 0 01-.564-.89 2.876 2.876 0 010-2.101 2.76 2.76 0 01.564-.891c.241-.255.528-.457.844-.595a2.48 2.48 0 01.995-.209zm0 28.583c.342 0 .68.071.995.209.316.138.603.34.844.595.242.255.433.558.564.891a2.87 2.87 0 010 2.101 2.746 2.746 0 01-.564.89 2.571 2.571 0 01-.844.595 2.477 2.477 0 01-1.99 0 2.571 2.571 0 01-.844-.595 2.746 2.746 0 01-.564-.89 2.872 2.872 0 010-2.101 2.76 2.76 0 01.564-.891c.241-.255.528-.457.844-.595a2.48 2.48 0 01.995-.209zm0 28.584c.342 0 .68.071.995.209.316.138.603.34.844.595.242.255.433.557.564.89a2.872 2.872 0 010 2.101 2.76 2.76 0 01-.564.891 2.586 2.586 0 01-.844.595 2.477 2.477 0 01-1.99 0 2.586 2.586 0 01-.844-.595 2.76 2.76 0 01-.564-.891 2.87 2.87 0 010-2.101c.131-.333.322-.635.564-.89.241-.255.528-.457.844-.595a2.48 2.48 0 01.995-.209zm0 28.583c.342 0 .68.071.995.209.316.138.603.34.844.595.242.255.433.558.564.891a2.87 2.87 0 010 2.101 2.756 2.756 0 01-.564.89 2.586 2.586 0 01-.844.595 2.477 2.477 0 01-1.99 0 2.586 2.586 0 01-.844-.595 2.756 2.756 0 01-.564-.89 2.876 2.876 0 010-2.101 2.76 2.76 0 01.564-.891c.241-.255.528-.457.844-.595a2.48 2.48 0 01.995-.209zm-27.083-343c.341 0 .68.071.995.209.316.138.602.34.844.595.242.255.433.558.564.89a2.878 2.878 0 010 2.102 2.74 2.74 0 01-.564.89 2.597 2.597 0 01-.844.595 2.484 2.484 0 01-1.99 0 2.597 2.597 0 01-.844-.595 2.76 2.76 0 01-.564-.89 2.877 2.877 0 010-2.101 2.76 2.76 0 01.564-.891c.241-.255.528-.457.843-.595.316-.138.654-.209.996-.209zm0 28.583c.341 0 .68.071.995.21.316.137.602.34.844.594.242.255.433.558.564.89a2.878 2.878 0 010 2.102c-.13.333-.322.636-.564.89a2.595 2.595 0 01-.844.596 2.484 2.484 0 01-1.99 0 2.595 2.595 0 01-.844-.596 2.76 2.76 0 01-.564-.89 2.878 2.878 0 010-2.101c.13-.333.322-.636.564-.89a2.58 2.58 0 01.843-.596c.316-.138.654-.209.996-.209zm0 28.584c.341 0 .68.07.995.209.316.138.602.34.844.595.242.255.433.557.564.89a2.878 2.878 0 010 2.101c-.13.333-.322.636-.564.89a2.597 2.597 0 01-.844.596 2.484 2.484 0 01-1.99 0 2.597 2.597 0 01-.844-.595 2.76 2.76 0 01-.564-.89 2.878 2.878 0 010-2.102 2.76 2.76 0 01.564-.89c.241-.255.528-.457.843-.595.316-.138.654-.21.996-.21zm0 28.583c.341 0 .68.071.995.209.316.138.602.34.844.595.242.255.433.558.564.89a2.878 2.878 0 010 2.101c-.13.334-.322.636-.564.891a2.597 2.597 0 01-.844.595 2.484 2.484 0 01-1.99 0 2.597 2.597 0 01-.844-.595 2.76 2.76 0 01-.564-.89 2.877 2.877 0 010-2.101 2.76 2.76 0 01.564-.891c.241-.255.528-.457.843-.595.316-.138.654-.209.996-.209zm0 28.583c.341 0 .68.071.995.21.316.137.602.34.844.594.242.255.433.558.564.89a2.878 2.878 0 010 2.102c-.13.333-.322.636-.564.89a2.595 2.595 0 01-.844.596 2.482 2.482 0 01-1.99 0 2.595 2.595 0 01-.844-.596 2.76 2.76 0 01-.564-.89 2.878 2.878 0 010-2.101c.13-.333.322-.636.564-.89.241-.255.528-.458.843-.596.316-.138.654-.209.996-.209zm0 28.584c.341 0 .68.07.995.209.316.138.602.34.844.595.242.255.433.557.564.89a2.878 2.878 0 010 2.101c-.13.333-.322.636-.564.89a2.595 2.595 0 01-.844.596 2.482 2.482 0 01-1.99 0 2.595 2.595 0 01-.844-.595 2.76 2.76 0 01-.564-.89 2.878 2.878 0 010-2.102 2.76 2.76 0 01.564-.89c.241-.255.528-.457.843-.595.316-.138.654-.21.996-.21zm0 28.583c.341 0 .68.071.995.209.316.138.602.34.844.595.242.255.433.558.564.891a2.877 2.877 0 010 2.101 2.74 2.74 0 01-.564.89 2.595 2.595 0 01-.844.595 2.482 2.482 0 01-1.99 0 2.595 2.595 0 01-.844-.595 2.76 2.76 0 01-.564-.89 2.882 2.882 0 010-2.101c.13-.333.322-.636.564-.891.241-.255.528-.457.843-.595.316-.138.654-.209.996-.209zm0 28.583c.341 0 .68.071.995.209.316.138.602.34.844.595.242.255.433.558.564.891a2.877 2.877 0 010 2.101c-.13.333-.322.636-.564.89a2.598 2.598 0 01-.844.596 2.498 2.498 0 01-1.99 0 2.598 2.598 0 01-.844-.596 2.749 2.749 0 01-.564-.89 2.878 2.878 0 010-2.101c.13-.333.322-.636.564-.891.241-.255.528-.457.843-.595.316-.138.654-.209.996-.209zm0 28.584c.341 0 .68.071.995.209.316.138.602.34.844.595.242.255.433.557.564.89a2.878 2.878 0 010 2.101c-.13.333-.322.636-.564.891a2.595 2.595 0 01-.844.595 2.482 2.482 0 01-1.99 0 2.595 2.595 0 01-.844-.595 2.764 2.764 0 01-.564-.891 2.877 2.877 0 010-2.101 2.76 2.76 0 01.564-.89c.241-.255.528-.457.843-.595.316-.138.654-.209.996-.209zm0 28.583c.341 0 .68.071.995.209.316.138.602.34.844.595.242.255.433.558.564.891a2.877 2.877 0 010 2.101 2.74 2.74 0 01-.564.89 2.595 2.595 0 01-.844.595 2.482 2.482 0 01-1.99 0 2.595 2.595 0 01-.844-.595 2.76 2.76 0 01-.564-.89 2.882 2.882 0 010-2.101c.13-.333.322-.636.564-.891.241-.255.528-.457.843-.595.316-.138.654-.209.996-.209zm0 28.583c.341 0 .68.071.995.209.316.138.602.34.844.595.242.255.433.558.564.891a2.877 2.877 0 010 2.101c-.13.333-.322.636-.564.89a2.58 2.58 0 01-.844.595 2.482 2.482 0 01-1.99 0 2.58 2.58 0 01-.844-.595 2.75 2.75 0 01-.564-.89 2.878 2.878 0 010-2.101c.13-.333.322-.636.564-.891.241-.255.528-.457.843-.595.316-.138.654-.209.996-.209zm0 28.584c.341 0 .68.071.995.209.316.138.602.34.844.595.242.255.433.557.564.89a2.878 2.878 0 010 2.101c-.13.333-.322.636-.564.891a2.595 2.595 0 01-.844.595 2.482 2.482 0 01-1.99 0 2.595 2.595 0 01-.844-.595 2.765 2.765 0 01-.564-.891 2.877 2.877 0 010-2.101 2.74 2.74 0 01.564-.89c.241-.255.528-.457.843-.595.316-.138.654-.209.996-.209zm0 28.583c.341 0 .68.071.995.209.316.138.602.34.844.595.242.255.433.558.564.891a2.877 2.877 0 010 2.101 2.74 2.74 0 01-.564.89 2.595 2.595 0 01-.844.595 2.482 2.482 0 01-1.99 0 2.595 2.595 0 01-.844-.595 2.761 2.761 0 01-.564-.89 2.882 2.882 0 010-2.101c.13-.333.322-.636.564-.891.241-.255.528-.457.843-.595.316-.138.654-.209.996-.209zm-27.084-343c.342 0 .68.071.996.209.315.138.602.34.844.595.241.255.433.558.563.89a2.876 2.876 0 010 2.102 2.76 2.76 0 01-.563.89 2.597 2.597 0 01-.844.595 2.484 2.484 0 01-1.99 0 2.598 2.598 0 01-.845-.595 2.76 2.76 0 01-.564-.89 2.878 2.878 0 010-2.101 2.76 2.76 0 01.564-.891c.242-.255.529-.457.844-.595.316-.138.654-.209.995-.209zm0 28.583c.342 0 .68.071.996.21.315.137.602.34.844.594.241.255.433.558.563.89a2.876 2.876 0 010 2.102 2.76 2.76 0 01-.563.89 2.595 2.595 0 01-.844.596 2.484 2.484 0 01-1.99 0 2.597 2.597 0 01-.845-.596 2.76 2.76 0 01-.564-.89 2.878 2.878 0 010-2.101 2.76 2.76 0 01.564-.89c.242-.256.529-.458.844-.596.316-.138.654-.209.995-.209zm0 28.584c.342 0 .68.07.996.209.315.138.602.34.844.595.241.255.433.557.563.89a2.876 2.876 0 010 2.101 2.76 2.76 0 01-.563.89 2.597 2.597 0 01-.844.596 2.484 2.484 0 01-1.99 0 2.598 2.598 0 01-.845-.595 2.76 2.76 0 01-.564-.89 2.878 2.878 0 010-2.102 2.76 2.76 0 01.564-.89c.242-.255.529-.457.844-.595.316-.138.654-.21.995-.21zm0 28.583c.342 0 .68.071.996.209.315.138.602.34.844.595.241.255.433.558.563.89a2.876 2.876 0 010 2.101 2.76 2.76 0 01-.563.891 2.597 2.597 0 01-.844.595 2.484 2.484 0 01-1.99 0 2.598 2.598 0 01-.845-.595 2.76 2.76 0 01-.564-.89 2.877 2.877 0 010-2.101 2.76 2.76 0 01.564-.891c.242-.255.529-.457.844-.595.316-.138.654-.209.995-.209zm0 28.583c.342 0 .68.071.996.21.315.137.602.34.844.594.241.255.433.558.563.89a2.876 2.876 0 010 2.102 2.76 2.76 0 01-.563.89 2.595 2.595 0 01-.844.596 2.482 2.482 0 01-1.99 0 2.597 2.597 0 01-.845-.596 2.76 2.76 0 01-.564-.89 2.878 2.878 0 010-2.101 2.76 2.76 0 01.564-.89 2.61 2.61 0 01.844-.596c.316-.138.654-.209.995-.209zm0 28.584c.342 0 .68.07.996.209.315.138.602.34.844.595.241.255.433.557.563.89a2.876 2.876 0 010 2.101 2.76 2.76 0 01-.563.89 2.595 2.595 0 01-.844.596 2.482 2.482 0 01-1.99 0 2.596 2.596 0 01-.845-.595 2.76 2.76 0 01-.564-.89 2.878 2.878 0 010-2.102 2.76 2.76 0 01.564-.89c.242-.255.529-.457.844-.595.316-.138.654-.21.995-.21zm0 28.583c.342 0 .68.071.996.209.315.138.602.34.844.595.241.255.433.558.563.891a2.875 2.875 0 010 2.101 2.76 2.76 0 01-.563.89 2.595 2.595 0 01-.844.595 2.482 2.482 0 01-1.99 0 2.596 2.596 0 01-.845-.595 2.76 2.76 0 01-.564-.89 2.882 2.882 0 010-2.101c.131-.333.323-.636.564-.891.242-.255.529-.457.844-.595.316-.138.654-.209.995-.209zm0 28.583c.342 0 .68.071.996.209.315.138.602.34.844.595.241.255.433.558.563.891a2.875 2.875 0 010 2.101c-.13.333-.322.636-.563.89a2.598 2.598 0 01-.844.596 2.498 2.498 0 01-1.99 0 2.6 2.6 0 01-.845-.596 2.748 2.748 0 01-.564-.89 2.878 2.878 0 010-2.101c.131-.333.323-.636.564-.891.242-.255.529-.457.844-.595.316-.138.654-.209.995-.209zm0 28.584c.342 0 .68.071.996.209.315.138.602.34.844.595.241.255.433.557.563.89a2.876 2.876 0 010 2.101c-.13.333-.322.636-.563.891a2.595 2.595 0 01-.844.595 2.482 2.482 0 01-1.99 0 2.596 2.596 0 01-.845-.595 2.764 2.764 0 01-.564-.891 2.877 2.877 0 010-2.101 2.76 2.76 0 01.564-.89c.242-.255.529-.457.844-.595.316-.138.654-.209.995-.209zm0 28.583c.342 0 .68.071.996.209.315.138.602.34.844.595.241.255.433.558.563.891a2.875 2.875 0 010 2.101 2.76 2.76 0 01-.563.89 2.595 2.595 0 01-.844.595 2.482 2.482 0 01-1.99 0 2.596 2.596 0 01-.845-.595 2.76 2.76 0 01-.564-.89 2.882 2.882 0 010-2.101c.131-.333.323-.636.564-.891.242-.255.529-.457.844-.595.316-.138.654-.209.995-.209zm0 28.583c.342 0 .68.071.996.209.315.138.602.34.844.595.241.255.433.558.563.891a2.875 2.875 0 010 2.101c-.13.333-.322.636-.563.89a2.58 2.58 0 01-.844.595 2.482 2.482 0 01-1.99 0 2.581 2.581 0 01-.845-.595 2.748 2.748 0 01-.564-.89 2.878 2.878 0 010-2.101c.131-.333.323-.636.564-.891.242-.255.529-.457.844-.595.316-.138.654-.209.995-.209zm0 28.584c.342 0 .68.071.996.209.315.138.602.34.844.595.241.255.433.557.563.89a2.876 2.876 0 010 2.101c-.13.333-.322.636-.563.891a2.595 2.595 0 01-.844.595 2.482 2.482 0 01-1.99 0 2.596 2.596 0 01-.845-.595 2.764 2.764 0 01-.564-.891 2.877 2.877 0 010-2.101 2.76 2.76 0 01.564-.89c.242-.255.529-.457.844-.595.316-.138.654-.209.995-.209zm0 28.583c.342 0 .68.071.996.209.315.138.602.34.844.595.241.255.433.558.563.891a2.875 2.875 0 010 2.101 2.76 2.76 0 01-.563.89 2.595 2.595 0 01-.844.595 2.482 2.482 0 01-1.99 0 2.596 2.596 0 01-.845-.595 2.76 2.76 0 01-.564-.89 2.882 2.882 0 010-2.101c.131-.333.323-.636.564-.891.242-.255.529-.457.844-.595.316-.138.654-.209.995-.209zm-27.083-343c.342 0 .68.071.995.209.316.138.603.34.844.595.242.255.433.558.564.89a2.878 2.878 0 010 2.102 2.76 2.76 0 01-.564.89 2.598 2.598 0 01-.843.595 2.484 2.484 0 01-1.991 0 2.598 2.598 0 01-.844-.595 2.76 2.76 0 01-.564-.89 2.878 2.878 0 010-2.101 2.76 2.76 0 01.564-.891c.241-.255.528-.457.844-.595a2.48 2.48 0 01.995-.209zm0 28.583c.342 0 .68.071.995.21.316.137.603.34.844.594.242.255.433.558.564.89a2.878 2.878 0 010 2.102 2.76 2.76 0 01-.564.89 2.596 2.596 0 01-.843.596 2.484 2.484 0 01-1.991 0 2.596 2.596 0 01-.844-.596 2.76 2.76 0 01-.564-.89 2.878 2.878 0 010-2.101 2.76 2.76 0 01.564-.89c.241-.256.528-.458.844-.596a2.48 2.48 0 01.995-.209zm0 28.584c.342 0 .68.07.995.209.316.138.603.34.844.595.242.255.433.557.564.89a2.878 2.878 0 010 2.101 2.76 2.76 0 01-.564.89 2.598 2.598 0 01-.843.596 2.484 2.484 0 01-1.991 0 2.598 2.598 0 01-.844-.595 2.76 2.76 0 01-.564-.89 2.878 2.878 0 010-2.102 2.76 2.76 0 01.564-.89c.241-.255.528-.457.844-.595.315-.138.654-.21.995-.21zm0 28.583c.342 0 .68.071.995.209.316.138.603.34.844.595.242.255.433.558.564.89a2.878 2.878 0 010 2.101 2.76 2.76 0 01-.564.891 2.598 2.598 0 01-.843.595 2.484 2.484 0 01-1.991 0 2.598 2.598 0 01-.844-.595 2.76 2.76 0 01-.564-.89 2.877 2.877 0 010-2.101 2.76 2.76 0 01.564-.891c.241-.255.528-.457.844-.595a2.48 2.48 0 01.995-.209zm0 28.583c.342 0 .68.071.995.21.316.137.603.34.844.594.242.255.433.558.564.89a2.878 2.878 0 010 2.102 2.76 2.76 0 01-.564.89 2.596 2.596 0 01-.843.596 2.482 2.482 0 01-1.991 0 2.596 2.596 0 01-.844-.596 2.76 2.76 0 01-.564-.89 2.878 2.878 0 010-2.101 2.76 2.76 0 01.564-.89 2.59 2.59 0 01.844-.596 2.48 2.48 0 01.995-.209zm0 28.584c.342 0 .68.07.995.209.316.138.603.34.844.595.242.255.433.557.564.89a2.878 2.878 0 010 2.101 2.76 2.76 0 01-.564.89 2.596 2.596 0 01-.843.596 2.482 2.482 0 01-1.991 0 2.596 2.596 0 01-.844-.595 2.76 2.76 0 01-.564-.89 2.878 2.878 0 010-2.102 2.76 2.76 0 01.564-.89c.241-.255.528-.457.844-.595.315-.138.654-.21.995-.21zm0 28.583c.342 0 .68.071.995.209.316.138.603.34.844.595.242.255.433.558.564.891a2.877 2.877 0 010 2.101 2.76 2.76 0 01-.564.89 2.596 2.596 0 01-.843.595 2.482 2.482 0 01-1.991 0 2.596 2.596 0 01-.844-.595 2.76 2.76 0 01-.564-.89 2.882 2.882 0 010-2.101c.13-.333.322-.636.564-.891.241-.255.528-.457.844-.595a2.48 2.48 0 01.995-.209zm0 28.583c.342 0 .68.071.995.209.316.138.603.34.844.595.242.255.433.558.564.891a2.877 2.877 0 010 2.101c-.13.333-.322.636-.564.89a2.599 2.599 0 01-.843.596 2.498 2.498 0 01-1.991 0 2.599 2.599 0 01-.844-.596 2.748 2.748 0 01-.564-.89 2.878 2.878 0 010-2.101c.13-.333.322-.636.564-.891.241-.255.528-.457.844-.595a2.48 2.48 0 01.995-.209zm0 28.584c.342 0 .68.071.995.209.316.138.603.34.844.595.242.255.433.557.564.89a2.878 2.878 0 010 2.101c-.13.333-.322.636-.564.891a2.596 2.596 0 01-.843.595 2.482 2.482 0 01-1.991 0 2.596 2.596 0 01-.844-.595 2.764 2.764 0 01-.564-.891 2.877 2.877 0 010-2.101 2.76 2.76 0 01.564-.89c.241-.255.528-.457.844-.595a2.48 2.48 0 01.995-.209zm0 28.583c.342 0 .68.071.995.209.316.138.603.34.844.595.242.255.433.558.564.891a2.877 2.877 0 010 2.101 2.76 2.76 0 01-.564.89 2.596 2.596 0 01-.843.595 2.482 2.482 0 01-1.991 0 2.596 2.596 0 01-.844-.595 2.76 2.76 0 01-.564-.89 2.882 2.882 0 010-2.101c.13-.333.322-.636.564-.891.241-.255.528-.457.844-.595a2.48 2.48 0 01.995-.209zm0 28.583c.342 0 .68.071.995.209.316.138.603.34.844.595.242.255.433.558.564.891a2.877 2.877 0 010 2.101c-.13.333-.322.636-.564.89a2.58 2.58 0 01-.843.595 2.482 2.482 0 01-1.991 0 2.58 2.58 0 01-.844-.595 2.748 2.748 0 01-.564-.89 2.878 2.878 0 010-2.101c.13-.333.322-.636.564-.891.241-.255.528-.457.844-.595a2.48 2.48 0 01.995-.209zm0 28.584c.342 0 .68.071.995.209.316.138.603.34.844.595.242.255.433.557.564.89a2.878 2.878 0 010 2.101c-.13.333-.322.636-.564.891a2.596 2.596 0 01-.843.595 2.482 2.482 0 01-1.991 0 2.596 2.596 0 01-.844-.595 2.764 2.764 0 01-.564-.891 2.877 2.877 0 010-2.101 2.76 2.76 0 01.564-.89c.241-.255.528-.457.844-.595a2.48 2.48 0 01.995-.209zm0 28.583c.342 0 .68.071.995.209.316.138.603.34.844.595.242.255.433.558.564.891a2.877 2.877 0 010 2.101 2.76 2.76 0 01-.564.89 2.596 2.596 0 01-.843.595 2.482 2.482 0 01-1.991 0 2.596 2.596 0 01-.844-.595 2.76 2.76 0 01-.564-.89 2.882 2.882 0 010-2.101c.13-.333.322-.636.564-.891.241-.255.528-.457.844-.595a2.48 2.48 0 01.995-.209zm-27.083-343c.341 0 .68.071.995.209.316.138.602.34.844.595.241.255.433.558.564.89a2.877 2.877 0 010 2.102 2.76 2.76 0 01-.564.89 2.597 2.597 0 01-.844.595 2.484 2.484 0 01-1.99 0 2.597 2.597 0 01-.844-.595 2.76 2.76 0 01-.564-.89 2.877 2.877 0 010-2.101 2.76 2.76 0 01.564-.891c.241-.255.528-.457.843-.595.316-.138.654-.209.996-.209zm0 28.583c.341 0 .68.071.995.21.316.137.602.34.844.594.241.255.433.558.564.89a2.877 2.877 0 010 2.102 2.76 2.76 0 01-.564.89 2.596 2.596 0 01-.844.596 2.484 2.484 0 01-1.99 0 2.596 2.596 0 01-.844-.596 2.76 2.76 0 01-.564-.89 2.877 2.877 0 010-2.101 2.76 2.76 0 01.564-.89 2.58 2.58 0 01.843-.596c.316-.138.654-.209.996-.209zm0 28.584c.341 0 .68.07.995.209.316.138.602.34.844.595.241.255.433.557.564.89a2.878 2.878 0 010 2.101 2.76 2.76 0 01-.564.89 2.597 2.597 0 01-.844.596 2.484 2.484 0 01-1.99 0 2.597 2.597 0 01-.844-.595 2.76 2.76 0 01-.564-.89 2.877 2.877 0 010-2.102 2.76 2.76 0 01.564-.89c.241-.255.528-.457.843-.595.316-.138.654-.21.996-.21zm0 28.583c.341 0 .68.071.995.209.316.138.602.34.844.595.241.255.433.558.564.89a2.877 2.877 0 010 2.101 2.76 2.76 0 01-.564.891 2.597 2.597 0 01-.844.595 2.484 2.484 0 01-1.99 0 2.597 2.597 0 01-.844-.595 2.76 2.76 0 01-.564-.89 2.877 2.877 0 010-2.101 2.76 2.76 0 01.564-.891c.241-.255.528-.457.843-.595.316-.138.654-.209.996-.209zm0 28.583c.341 0 .68.071.995.21.316.137.602.34.844.594.241.255.433.558.564.89a2.878 2.878 0 010 2.102 2.76 2.76 0 01-.564.89 2.596 2.596 0 01-.844.596 2.482 2.482 0 01-1.99 0 2.596 2.596 0 01-.844-.596 2.76 2.76 0 01-.564-.89 2.877 2.877 0 010-2.101 2.76 2.76 0 01.564-.89c.241-.255.528-.458.843-.596.316-.138.654-.209.996-.209zm0 28.584c.341 0 .68.07.995.209.316.138.602.34.844.595.241.255.433.557.564.89a2.878 2.878 0 010 2.101 2.76 2.76 0 01-.564.89 2.596 2.596 0 01-.844.596 2.482 2.482 0 01-1.99 0 2.596 2.596 0 01-.844-.595 2.76 2.76 0 01-.564-.89 2.877 2.877 0 010-2.102 2.76 2.76 0 01.564-.89c.241-.255.528-.457.843-.595.316-.138.654-.21.996-.21zm0 28.583c.341 0 .68.071.995.209.316.138.602.34.844.595.241.255.433.558.564.891a2.877 2.877 0 010 2.101c-.13.333-.323.635-.564.89a2.596 2.596 0 01-.844.595 2.482 2.482 0 01-1.99 0 2.596 2.596 0 01-.844-.595 2.759 2.759 0 01-.564-.89 2.882 2.882 0 010-2.101c.13-.333.322-.636.564-.891.241-.255.528-.457.843-.595.316-.138.654-.209.996-.209zm0 28.583c.341 0 .68.071.995.209.316.138.602.34.844.595.241.255.433.558.564.891a2.877 2.877 0 010 2.101c-.13.333-.323.636-.564.89a2.598 2.598 0 01-.844.596 2.498 2.498 0 01-1.99 0 2.599 2.599 0 01-.844-.596 2.748 2.748 0 01-.564-.89 2.878 2.878 0 010-2.101c.13-.333.322-.636.564-.891.241-.255.528-.457.843-.595.316-.138.654-.209.996-.209zm0 28.584c.341 0 .68.071.995.209.316.138.602.34.844.595.241.255.433.557.564.89a2.878 2.878 0 010 2.101 2.76 2.76 0 01-.564.891 2.596 2.596 0 01-.844.595 2.482 2.482 0 01-1.99 0 2.596 2.596 0 01-.844-.595 2.763 2.763 0 01-.564-.891 2.876 2.876 0 010-2.101 2.74 2.74 0 01.564-.89c.241-.255.528-.457.843-.595.316-.138.654-.209.996-.209zm0 28.583c.341 0 .68.071.995.209.316.138.602.34.844.595.241.255.433.558.564.891a2.877 2.877 0 010 2.101c-.13.333-.323.635-.564.89a2.596 2.596 0 01-.844.595 2.482 2.482 0 01-1.99 0 2.596 2.596 0 01-.844-.595 2.759 2.759 0 01-.564-.89 2.882 2.882 0 010-2.101c.13-.333.322-.636.564-.891.241-.255.528-.457.843-.595.316-.138.654-.209.996-.209zm0 28.583c.341 0 .68.071.995.209.316.138.602.34.844.595.241.255.433.558.564.891a2.877 2.877 0 010 2.101c-.13.333-.323.636-.564.89a2.58 2.58 0 01-.844.595 2.482 2.482 0 01-1.99 0 2.58 2.58 0 01-.844-.595 2.748 2.748 0 01-.564-.89 2.878 2.878 0 010-2.101c.13-.333.322-.636.564-.891.241-.255.528-.457.843-.595.316-.138.654-.209.996-.209zm0 28.584c.341 0 .68.071.995.209.316.138.602.34.844.595.241.255.433.557.564.89a2.878 2.878 0 010 2.101 2.76 2.76 0 01-.564.891 2.596 2.596 0 01-.844.595 2.482 2.482 0 01-1.99 0 2.596 2.596 0 01-.844-.595 2.763 2.763 0 01-.564-.891 2.877 2.877 0 010-2.101 2.74 2.74 0 01.564-.89c.241-.255.528-.457.843-.595.316-.138.654-.209.996-.209zm0 28.583c.341 0 .68.071.995.209.316.138.602.34.844.595.241.255.433.558.564.891a2.877 2.877 0 010 2.101c-.13.333-.323.635-.564.89a2.596 2.596 0 01-.844.595 2.482 2.482 0 01-1.99 0 2.596 2.596 0 01-.844-.595 2.759 2.759 0 01-.564-.89 2.882 2.882 0 010-2.101c.13-.333.322-.636.564-.891.241-.255.528-.457.843-.595.316-.138.654-.209.996-.209zm-27.084-343c.342 0 .68.071.996.209.315.138.602.34.844.595.241.255.433.558.563.89a2.876 2.876 0 010 2.102c-.13.333-.322.635-.563.89a2.597 2.597 0 01-.844.595 2.484 2.484 0 01-1.99 0 2.598 2.598 0 01-.845-.595 2.76 2.76 0 01-.564-.89 2.878 2.878 0 010-2.101 2.76 2.76 0 01.564-.891c.242-.255.528-.457.844-.595.316-.138.654-.209.995-.209zm0 28.583c.342 0 .68.071.996.21.315.137.602.34.844.594.241.255.433.558.563.89a2.876 2.876 0 010 2.102c-.13.333-.322.636-.563.89a2.595 2.595 0 01-.844.596 2.484 2.484 0 01-1.99 0 2.597 2.597 0 01-.845-.596 2.76 2.76 0 01-.564-.89 2.878 2.878 0 010-2.101 2.76 2.76 0 01.564-.89c.242-.256.528-.458.844-.596.316-.138.654-.209.995-.209zm0 28.584c.342 0 .68.07.996.209.315.138.602.34.844.595.241.255.433.557.563.89a2.876 2.876 0 010 2.101c-.13.333-.322.636-.563.89a2.597 2.597 0 01-.844.596 2.484 2.484 0 01-1.99 0 2.598 2.598 0 01-.845-.595 2.76 2.76 0 01-.564-.89 2.878 2.878 0 010-2.102 2.76 2.76 0 01.564-.89c.242-.255.528-.457.844-.595.316-.138.654-.21.995-.21zm0 28.583c.342 0 .68.071.996.209.315.138.602.34.844.595.241.255.433.558.563.89a2.876 2.876 0 010 2.101c-.13.334-.322.636-.563.891a2.597 2.597 0 01-.844.595 2.484 2.484 0 01-1.99 0 2.598 2.598 0 01-.845-.595 2.76 2.76 0 01-.564-.89 2.877 2.877 0 010-2.101 2.76 2.76 0 01.564-.891c.242-.255.528-.457.844-.595.316-.138.654-.209.995-.209zm0 28.583c.342 0 .68.071.996.21.315.137.602.34.844.594.241.255.433.558.563.89a2.876 2.876 0 010 2.102c-.13.333-.322.636-.563.89a2.595 2.595 0 01-.844.596 2.482 2.482 0 01-1.99 0 2.597 2.597 0 01-.845-.596 2.76 2.76 0 01-.564-.89 2.878 2.878 0 010-2.101 2.76 2.76 0 01.564-.89 2.6 2.6 0 01.844-.596c.316-.138.654-.209.995-.209zm0 28.584c.342 0 .68.07.996.209.315.138.602.34.844.595.241.255.433.557.563.89a2.876 2.876 0 010 2.101c-.13.333-.322.636-.563.89a2.595 2.595 0 01-.844.596 2.482 2.482 0 01-1.99 0 2.596 2.596 0 01-.845-.595 2.76 2.76 0 01-.564-.89 2.878 2.878 0 010-2.102 2.76 2.76 0 01.564-.89c.242-.255.528-.457.844-.595.316-.138.654-.21.995-.21zm0 28.583c.342 0 .68.071.996.209.315.138.602.34.844.595.241.255.433.558.563.891a2.875 2.875 0 010 2.101c-.13.333-.322.635-.563.89a2.595 2.595 0 01-.844.595 2.482 2.482 0 01-1.99 0 2.596 2.596 0 01-.845-.595 2.76 2.76 0 01-.564-.89 2.882 2.882 0 010-2.101c.131-.333.323-.636.564-.891.242-.255.528-.457.844-.595.316-.138.654-.209.995-.209zm0 28.583c.342 0 .68.071.996.209.315.138.602.34.844.595.241.255.433.558.563.891a2.875 2.875 0 010 2.101c-.13.333-.322.636-.563.89a2.598 2.598 0 01-.844.596 2.498 2.498 0 01-1.99 0 2.6 2.6 0 01-.845-.596 2.748 2.748 0 01-.564-.89 2.878 2.878 0 010-2.101c.131-.333.323-.636.564-.891.242-.255.528-.457.844-.595.316-.138.654-.209.995-.209zm0 28.584c.342 0 .68.071.996.209.315.138.602.34.844.595.241.255.433.557.563.89a2.876 2.876 0 010 2.101c-.13.333-.322.636-.563.891a2.595 2.595 0 01-.844.595 2.482 2.482 0 01-1.99 0 2.596 2.596 0 01-.845-.595 2.764 2.764 0 01-.564-.891 2.877 2.877 0 010-2.101 2.76 2.76 0 01.564-.89c.242-.255.528-.457.844-.595.316-.138.654-.209.995-.209zm0 28.583c.342 0 .68.071.996.209.315.138.602.34.844.595.241.255.433.558.563.891a2.875 2.875 0 010 2.101c-.13.333-.322.635-.563.89a2.595 2.595 0 01-.844.595 2.482 2.482 0 01-1.99 0 2.596 2.596 0 01-.845-.595 2.76 2.76 0 01-.564-.89 2.882 2.882 0 010-2.101c.131-.333.323-.636.564-.891.242-.255.528-.457.844-.595.316-.138.654-.209.995-.209zm0 28.583c.342 0 .68.071.996.209.315.138.602.34.844.595.241.255.433.558.563.891a2.875 2.875 0 010 2.101c-.13.333-.322.636-.563.89a2.58 2.58 0 01-.844.595 2.482 2.482 0 01-1.99 0 2.581 2.581 0 01-.845-.595 2.748 2.748 0 01-.564-.89 2.878 2.878 0 010-2.101c.131-.333.323-.636.564-.891.242-.255.528-.457.844-.595.316-.138.654-.209.995-.209zm0 28.584c.342 0 .68.071.996.209.315.138.602.34.844.595.241.255.433.557.563.89a2.876 2.876 0 010 2.101c-.13.333-.322.636-.563.891a2.595 2.595 0 01-.844.595 2.482 2.482 0 01-1.99 0 2.596 2.596 0 01-.845-.595 2.764 2.764 0 01-.564-.891 2.877 2.877 0 010-2.101 2.76 2.76 0 01.564-.89c.242-.255.528-.457.844-.595.316-.138.654-.209.995-.209zm0 28.583c.342 0 .68.071.996.209.315.138.602.34.844.595.241.255.433.558.563.891a2.875 2.875 0 010 2.101c-.13.333-.322.635-.563.89a2.595 2.595 0 01-.844.595 2.482 2.482 0 01-1.99 0 2.596 2.596 0 01-.845-.595 2.76 2.76 0 01-.564-.89 2.882 2.882 0 010-2.101c.131-.333.323-.636.564-.891.242-.255.528-.457.844-.595.316-.138.654-.209.995-.209z" fill="#EF1D5C"/></g><defs><clipPath id="clip0_912_4169"><path fill="#fff" transform="matrix(0 -1 1 0 0 203)" d="M0 0h203v280H0z"/></clipPath></defs></svg>