<svg width="203" height="280" viewBox="0 0 203 280" fill="none" xmlns="http://www.w3.org/2000/svg"><g clip-path="url(#clip0_912_4088)"><path d="M275.745 302.5c0 .341-.071.68-.209.995-.138.316-.34.603-.595.844a2.76 2.76 0 01-.891.564 2.87 2.87 0 01-2.101 0 2.756 2.756 0 01-.89-.564 2.586 2.586 0 01-.595-.844 2.48 2.48 0 010-1.99c.138-.316.34-.603.595-.844.255-.242.557-.433.89-.564a2.876 2.876 0 012.101 0c.333.131.636.322.891.564.255.241.457.528.595.844.138.315.209.653.209.995zm-28.583 0c0 .341-.071.68-.209.995-.138.316-.34.603-.595.844a2.76 2.76 0 01-.891.564 2.87 2.87 0 01-2.101 0 2.746 2.746 0 01-.89-.564 2.571 2.571 0 01-.595-.844 2.48 2.48 0 010-1.99c.137-.316.34-.603.595-.844.254-.242.557-.433.89-.564a2.872 2.872 0 012.101 0c.333.131.636.322.891.564.255.241.457.528.595.844.138.315.209.653.209.995zm-28.584 0c0 .341-.071.68-.209.995-.138.316-.34.603-.595.844a2.756 2.756 0 01-.89.564 2.872 2.872 0 01-2.101 0 2.76 2.76 0 01-.891-.564 2.586 2.586 0 01-.595-.844 2.48 2.48 0 010-1.99c.138-.316.34-.603.595-.844a2.76 2.76 0 01.891-.564 2.87 2.87 0 012.101 0c.333.131.635.322.89.564.255.241.457.528.595.844.138.315.209.653.209.995zm-28.583 0c0 .341-.071.68-.209.995-.138.316-.34.603-.595.844a2.76 2.76 0 01-.891.564 2.87 2.87 0 01-2.101 0 2.756 2.756 0 01-.89-.564 2.586 2.586 0 01-.595-.844 2.48 2.48 0 010-1.99c.138-.316.34-.603.595-.844.255-.242.557-.433.89-.564a2.876 2.876 0 012.101 0c.333.131.636.322.891.564.255.241.457.528.595.844.138.315.209.653.209.995zm-28.583 0c0 .341-.071.68-.209.995-.138.316-.34.603-.595.844a2.76 2.76 0 01-.891.564 2.87 2.87 0 01-2.101 0 2.746 2.746 0 01-.89-.564 2.59 2.59 0 01-.596-.844 2.497 2.497 0 010-1.99 2.59 2.59 0 01.596-.844c.254-.242.557-.433.89-.564a2.872 2.872 0 012.101 0c.333.131.636.322.891.564.255.241.457.528.595.844.138.315.209.653.209.995zm-28.584 0c0 .341-.071.68-.209.995-.138.316-.34.603-.595.844a2.756 2.756 0 01-.89.564 2.872 2.872 0 01-2.101 0 2.76 2.76 0 01-.891-.564 2.586 2.586 0 01-.595-.844 2.48 2.48 0 010-1.99c.138-.316.34-.603.595-.844a2.76 2.76 0 01.891-.564 2.87 2.87 0 012.101 0c.333.131.635.322.89.564.255.241.457.528.595.844.138.315.209.653.209.995zm-28.583 0c0 .341-.071.68-.209.995-.138.316-.34.603-.595.844a2.76 2.76 0 01-.891.564 2.87 2.87 0 01-2.101 0 2.756 2.756 0 01-.89-.564 2.588 2.588 0 01-.595-.844 2.482 2.482 0 010-1.99c.138-.316.34-.603.595-.844.255-.242.557-.433.89-.564a2.876 2.876 0 012.101 0c.333.131.636.322.891.564.255.241.457.528.595.844.138.315.209.653.209.995zm-28.583 0c0 .341-.071.68-.21.995-.137.316-.34.603-.594.844a2.758 2.758 0 01-.89.564 2.872 2.872 0 01-2.102 0 2.757 2.757 0 01-.89-.564 2.585 2.585 0 01-.596-.844 2.48 2.48 0 010-1.99c.138-.316.34-.603.596-.844.255-.242.557-.433.89-.564a2.872 2.872 0 012.101 0c.333.131.636.322.89.564.256.241.458.528.596.844.138.315.209.653.209.995zm-28.584 0c0 .341-.07.68-.209.995-.138.316-.34.603-.595.844a2.757 2.757 0 01-.89.564 2.872 2.872 0 01-2.101 0 2.757 2.757 0 01-.89-.564 2.586 2.586 0 01-.596-.844 2.48 2.48 0 010-1.99c.138-.316.34-.603.595-.844.255-.242.558-.433.89-.564a2.871 2.871 0 012.102 0c.333.131.635.322.89.564.255.241.457.528.595.844.138.315.21.653.21.995zm-28.583 0c0 .341-.071.68-.209.995-.138.316-.34.603-.595.844a2.757 2.757 0 01-.89.564 2.871 2.871 0 01-2.101 0 2.757 2.757 0 01-.891-.564 2.588 2.588 0 01-.595-.844 2.482 2.482 0 010-1.99c.138-.316.34-.603.595-.844.255-.242.557-.433.89-.564a2.871 2.871 0 012.101 0c.334.131.636.322.891.564.255.241.457.528.595.844.138.315.209.653.209.995zm-28.583 0c0 .341-.071.68-.21.995-.137.316-.34.603-.594.844a2.758 2.758 0 01-.89.564c-.334.131-.69.198-1.051.198a2.823 2.823 0 01-1.941-.762 2.533 2.533 0 01-.805-1.839c0-.69.29-1.352.805-1.839a2.823 2.823 0 011.94-.762c.361 0 .718.067 1.051.198.333.131.636.322.89.564.256.241.458.528.596.844.138.315.209.653.209.995zm-28.584 0c0 .69-.289 1.351-.804 1.839a2.823 2.823 0 01-1.94.762 2.823 2.823 0 01-1.942-.762 2.533 2.533 0 01-.804-1.839c0-.69.29-1.352.804-1.839a2.823 2.823 0 011.941-.762c.728 0 1.427.274 1.941.762a2.53 2.53 0 01.804 1.839zm-28.583 0c0 .69-.29 1.351-.804 1.839a2.823 2.823 0 01-1.941.762 2.823 2.823 0 01-1.941-.762 2.533 2.533 0 01-.804-1.839c0-.69.29-1.352.804-1.839a2.823 2.823 0 011.94-.762c.729 0 1.427.274 1.942.762a2.53 2.53 0 01.804 1.839zm343-27.083c0 .341-.071.679-.209.995-.138.316-.34.602-.595.844a2.778 2.778 0 01-.891.564 2.892 2.892 0 01-2.101 0 2.773 2.773 0 01-.89-.564 2.597 2.597 0 01-.595-.844 2.484 2.484 0 010-1.991c.138-.315.34-.602.595-.844.255-.241.557-.433.89-.563a2.876 2.876 0 012.101 0c.333.13.636.322.891.563.255.242.457.529.595.844.138.316.209.654.209.996zm-28.583 0c0 .341-.071.679-.209.995-.138.316-.34.602-.595.844a2.778 2.778 0 01-.891.564 2.892 2.892 0 01-2.101 0 2.762 2.762 0 01-.89-.564 2.582 2.582 0 01-.595-.844 2.484 2.484 0 010-1.991c.137-.315.34-.602.595-.844.254-.241.557-.433.89-.563a2.872 2.872 0 012.992.563c.255.242.457.529.595.844.138.316.209.654.209.996zm-28.584 0c0 .341-.071.679-.209.995-.138.316-.34.602-.595.844a2.773 2.773 0 01-.89.564 2.893 2.893 0 01-2.101 0 2.778 2.778 0 01-.891-.564 2.597 2.597 0 01-.595-.844 2.484 2.484 0 010-1.991c.138-.315.34-.602.595-.844.255-.241.558-.433.891-.563a2.87 2.87 0 012.991.563c.255.242.457.529.595.844.138.316.209.654.209.996zm-28.583 0c0 .341-.071.679-.209.995-.138.316-.34.602-.595.844a2.778 2.778 0 01-.891.564 2.892 2.892 0 01-2.101 0 2.773 2.773 0 01-.89-.564 2.597 2.597 0 01-.595-.844 2.484 2.484 0 010-1.991c.138-.315.34-.602.595-.844.255-.241.557-.433.89-.563a2.876 2.876 0 012.101 0c.333.13.636.322.891.563.255.242.457.529.595.844.138.316.209.654.209.996zm-28.583 0c0 .341-.071.679-.209.995-.138.316-.34.602-.595.844a2.778 2.778 0 01-.891.564 2.892 2.892 0 01-2.101 0 2.762 2.762 0 01-.89-.564 2.6 2.6 0 01-.596-.844 2.5 2.5 0 010-1.991 2.61 2.61 0 01.596-.844c.254-.241.557-.433.89-.563a2.872 2.872 0 012.992.563c.255.242.457.529.595.844.138.316.209.654.209.996zm-28.584 0c0 .341-.071.679-.209.995-.138.316-.34.602-.595.844a2.773 2.773 0 01-.89.564 2.893 2.893 0 01-2.101 0 2.778 2.778 0 01-.891-.564 2.597 2.597 0 01-.595-.844 2.484 2.484 0 010-1.991c.138-.315.34-.602.595-.844.255-.241.558-.433.891-.563a2.87 2.87 0 012.991.563c.255.242.457.529.595.844.138.316.209.654.209.996zm-28.583 0c0 .341-.071.679-.209.995-.138.316-.34.602-.595.844a2.778 2.778 0 01-.891.564 2.892 2.892 0 01-2.101 0 2.773 2.773 0 01-.89-.564 2.598 2.598 0 01-.595-.844 2.486 2.486 0 010-1.991 2.61 2.61 0 01.595-.844c.255-.241.557-.433.89-.563a2.876 2.876 0 012.101 0c.333.13.636.322.891.563.255.242.457.529.595.844.138.316.209.654.209.996zm-28.583 0c0 .341-.071.679-.21.995-.137.316-.34.602-.594.844a2.775 2.775 0 01-.89.564 2.893 2.893 0 01-2.102 0 2.774 2.774 0 01-.89-.564 2.595 2.595 0 01-.596-.844 2.484 2.484 0 010-1.991c.138-.315.34-.602.596-.844.255-.241.557-.433.89-.563a2.872 2.872 0 012.992.563c.255.242.457.529.595.844.138.316.209.654.209.996zm-28.584 0c0 .341-.07.679-.209.995-.138.316-.34.602-.595.844a2.774 2.774 0 01-.89.564 2.893 2.893 0 01-2.101 0 2.774 2.774 0 01-.89-.564 2.597 2.597 0 01-.596-.844 2.484 2.484 0 010-1.991c.138-.315.34-.602.595-.844.255-.241.558-.433.89-.563a2.871 2.871 0 012.992.563c.255.242.457.529.595.844.138.316.21.654.21.996zm-28.583 0c0 .341-.071.679-.209.995-.138.316-.34.602-.595.844a2.774 2.774 0 01-.89.564 2.892 2.892 0 01-2.101 0 2.774 2.774 0 01-.891-.564 2.598 2.598 0 01-.595-.844 2.486 2.486 0 010-1.991 2.61 2.61 0 01.595-.844c.255-.241.557-.433.89-.563a2.871 2.871 0 012.992.563c.255.242.457.529.595.844.138.316.209.654.209.996zm-28.583 0c0 .341-.071.679-.21.995-.137.316-.34.602-.594.844a2.775 2.775 0 01-.89.564 2.892 2.892 0 01-2.102 0 2.774 2.774 0 01-.89-.564 2.598 2.598 0 01-.596-.844 2.484 2.484 0 01-.209-.995c0-.69.29-1.352.805-1.84a2.871 2.871 0 012.992-.563c.332.13.635.322.89.563.255.242.457.529.595.844.138.316.209.654.209.996zm-28.584 0c0 .341-.07.679-.209.995-.138.316-.34.602-.595.844a2.774 2.774 0 01-.89.564 2.893 2.893 0 01-2.101 0 2.774 2.774 0 01-.89-.564 2.597 2.597 0 01-.596-.844 2.484 2.484 0 01-.209-.995c0-.69.29-1.352.804-1.84a2.827 2.827 0 011.941-.761c.728 0 1.427.274 1.941.761.515.488.804 1.15.804 1.84zm-28.583 0c0 .341-.071.679-.209.995-.138.316-.34.602-.595.844a2.774 2.774 0 01-.89.564 2.892 2.892 0 01-2.102 0 2.774 2.774 0 01-.89-.564 2.598 2.598 0 01-.595-.844 2.486 2.486 0 01-.21-.995c0-.69.29-1.352.805-1.84a2.827 2.827 0 011.94-.761c.729 0 1.427.274 1.942.761.515.488.804 1.15.804 1.84zm343-27.084c0 .342-.071.68-.209.996-.138.315-.34.602-.595.843a2.744 2.744 0 01-.891.564 2.87 2.87 0 01-2.101 0 2.74 2.74 0 01-.89-.564 2.593 2.593 0 01-.595-.843 2.485 2.485 0 010-1.991c.138-.316.34-.602.595-.844.255-.241.557-.433.89-.564a2.897 2.897 0 012.101 0c.333.131.636.323.891.564.255.242.457.528.595.844.138.315.209.654.209.995zm-28.583 0c0 .342-.071.68-.209.996-.138.315-.34.602-.595.843a2.744 2.744 0 01-.891.564 2.87 2.87 0 01-2.101 0 2.729 2.729 0 01-.89-.564 2.578 2.578 0 01-.595-.843 2.485 2.485 0 010-1.991c.137-.316.34-.602.595-.844.254-.241.557-.433.89-.564a2.893 2.893 0 012.101 0c.333.131.636.323.891.564.255.242.457.528.595.844.138.315.209.654.209.995zm-28.584 0c0 .342-.071.68-.209.996-.138.315-.34.602-.595.843a2.74 2.74 0 01-.89.564 2.872 2.872 0 01-2.101 0 2.744 2.744 0 01-.891-.564 2.593 2.593 0 01-.595-.843 2.485 2.485 0 010-1.991c.138-.316.34-.602.595-.844.255-.241.558-.433.891-.564a2.892 2.892 0 012.101 0c.333.131.635.323.89.564.255.242.457.528.595.844.138.315.209.654.209.995zm-28.583 0c0 .342-.071.68-.209.996-.138.315-.34.602-.595.843a2.744 2.744 0 01-.891.564 2.87 2.87 0 01-2.101 0 2.74 2.74 0 01-.89-.564 2.593 2.593 0 01-.595-.843 2.485 2.485 0 010-1.991c.138-.316.34-.602.595-.844.255-.241.557-.433.89-.564a2.897 2.897 0 012.101 0c.333.131.636.323.891.564.255.242.457.528.595.844.138.315.209.654.209.995zm-28.583 0c0 .342-.071.68-.209.996-.138.315-.34.602-.595.843a2.744 2.744 0 01-.891.564 2.87 2.87 0 01-2.101 0 2.729 2.729 0 01-.89-.564 2.596 2.596 0 01-.596-.843 2.497 2.497 0 010-1.991 2.6 2.6 0 01.596-.844c.254-.241.557-.433.89-.564a2.893 2.893 0 012.101 0c.333.131.636.323.891.564.255.242.457.528.595.844.138.315.209.654.209.995zm-28.584 0c0 .342-.071.68-.209.996-.138.315-.34.602-.595.843a2.74 2.74 0 01-.89.564 2.872 2.872 0 01-2.101 0 2.744 2.744 0 01-.891-.564 2.593 2.593 0 01-.595-.843 2.485 2.485 0 010-1.991c.138-.316.34-.602.595-.844.255-.241.558-.433.891-.564a2.892 2.892 0 012.101 0c.333.131.635.323.89.564.255.242.457.528.595.844.138.315.209.654.209.995zm-28.583 0c0 .342-.071.68-.209.996-.138.315-.34.602-.595.843a2.744 2.744 0 01-.891.564 2.87 2.87 0 01-2.101 0 2.739 2.739 0 01-.89-.564 2.594 2.594 0 01-.595-.843 2.487 2.487 0 010-1.991c.138-.316.34-.602.595-.844.255-.241.557-.433.89-.564a2.897 2.897 0 012.101 0c.333.131.636.323.891.564.255.242.457.528.595.844.138.315.209.654.209.995zm-28.583 0c0 .342-.071.68-.21.996a2.59 2.59 0 01-.594.843 2.741 2.741 0 01-.89.564 2.872 2.872 0 01-2.102 0 2.74 2.74 0 01-.89-.564 2.591 2.591 0 01-.596-.843 2.485 2.485 0 010-1.991c.138-.316.34-.602.596-.844.255-.241.557-.433.89-.564a2.893 2.893 0 012.101 0c.333.131.636.323.89.564.256.242.458.528.596.844.138.315.209.654.209.995zm-28.584 0c0 .342-.07.68-.209.996-.138.315-.34.602-.595.843a2.74 2.74 0 01-.89.564 2.872 2.872 0 01-2.101 0 2.74 2.74 0 01-.89-.564 2.593 2.593 0 01-.596-.843 2.485 2.485 0 010-1.991c.138-.316.34-.602.595-.844.255-.241.558-.433.89-.564a2.892 2.892 0 012.102 0c.333.131.635.323.89.564.255.242.457.528.595.844.138.315.21.654.21.995zm-28.583 0c0 .342-.071.68-.209.996-.138.315-.34.602-.595.843a2.74 2.74 0 01-.89.564 2.871 2.871 0 01-2.101 0 2.74 2.74 0 01-.891-.564 2.594 2.594 0 01-.595-.843 2.487 2.487 0 010-1.991c.138-.316.34-.602.595-.844.255-.241.557-.433.89-.564a2.892 2.892 0 012.101 0c.334.131.636.323.891.564.255.242.457.528.595.844.138.315.209.654.209.995zm-28.583 0c0 .342-.071.68-.21.996a2.59 2.59 0 01-.594.843 2.741 2.741 0 01-.89.564 2.871 2.871 0 01-2.102 0 2.74 2.74 0 01-.89-.564 2.594 2.594 0 01-.596-.843 2.485 2.485 0 010-1.991c.138-.316.34-.602.596-.844.254-.241.557-.433.89-.564a2.893 2.893 0 012.101 0c.333.131.636.323.89.564.256.242.458.528.596.844.138.315.209.654.209.995zm-28.584 0c0 .342-.07.68-.209.996-.138.315-.34.602-.595.843a2.74 2.74 0 01-.89.564 2.872 2.872 0 01-2.101 0 2.74 2.74 0 01-.89-.564 2.593 2.593 0 01-.596-.843 2.485 2.485 0 010-1.991c.138-.316.34-.602.595-.844.255-.241.558-.433.89-.564a2.892 2.892 0 012.102 0c.333.131.635.323.89.564.255.242.457.528.595.844.138.315.21.654.21.995zm-28.583 0c0 .342-.071.68-.209.996-.138.315-.34.602-.595.843a2.74 2.74 0 01-.89.564 2.871 2.871 0 01-2.102 0 2.74 2.74 0 01-.89-.564 2.594 2.594 0 01-.595-.843 2.487 2.487 0 010-1.991c.138-.316.34-.602.595-.844.255-.241.557-.433.89-.564a2.892 2.892 0 012.101 0c.334.131.636.323.891.564.255.242.457.528.595.844.138.315.209.654.209.995zm343-27.083c0 .341-.071.68-.209.995-.138.316-.34.603-.595.844a2.76 2.76 0 01-.891.564 2.87 2.87 0 01-2.101 0 2.756 2.756 0 01-.89-.564 2.586 2.586 0 01-.595-.844 2.48 2.48 0 010-1.99c.138-.316.34-.603.595-.844.255-.242.557-.433.89-.564a2.876 2.876 0 012.101 0c.333.131.636.322.891.564.255.241.457.528.595.844.138.315.209.653.209.995zm-28.583 0c0 .341-.071.68-.209.995-.138.316-.34.603-.595.844a2.76 2.76 0 01-.891.564 2.87 2.87 0 01-2.101 0 2.746 2.746 0 01-.89-.564 2.571 2.571 0 01-.595-.844 2.48 2.48 0 010-1.99c.137-.316.34-.603.595-.844.254-.242.557-.433.89-.564a2.872 2.872 0 012.101 0c.333.131.636.322.891.564.255.241.457.528.595.844.138.315.209.653.209.995zm-28.584 0c0 .341-.071.68-.209.995-.138.316-.34.603-.595.844a2.756 2.756 0 01-.89.564 2.872 2.872 0 01-2.101 0 2.76 2.76 0 01-.891-.564 2.586 2.586 0 01-.595-.844 2.48 2.48 0 010-1.99c.138-.316.34-.603.595-.844a2.76 2.76 0 01.891-.564 2.87 2.87 0 012.101 0c.333.131.635.322.89.564.255.241.457.528.595.844.138.315.209.653.209.995zm-28.583 0c0 .341-.071.68-.209.995-.138.316-.34.603-.595.844a2.76 2.76 0 01-.891.564 2.87 2.87 0 01-2.101 0 2.756 2.756 0 01-.89-.564 2.586 2.586 0 01-.595-.844 2.48 2.48 0 010-1.99c.138-.316.34-.603.595-.844.255-.242.557-.433.89-.564a2.876 2.876 0 012.101 0c.333.131.636.322.891.564.255.241.457.528.595.844.138.315.209.653.209.995zm-28.583 0c0 .341-.071.68-.209.995-.138.316-.34.603-.595.844a2.76 2.76 0 01-.891.564 2.87 2.87 0 01-2.101 0 2.746 2.746 0 01-.89-.564 2.59 2.59 0 01-.596-.844 2.497 2.497 0 010-1.99 2.59 2.59 0 01.596-.844c.254-.242.557-.433.89-.564a2.872 2.872 0 012.101 0c.333.131.636.322.891.564.255.241.457.528.595.844.138.315.209.653.209.995zm-28.584 0c0 .341-.071.68-.209.995-.138.316-.34.603-.595.844a2.756 2.756 0 01-.89.564 2.872 2.872 0 01-2.101 0 2.76 2.76 0 01-.891-.564 2.586 2.586 0 01-.595-.844 2.48 2.48 0 010-1.99c.138-.316.34-.603.595-.844a2.76 2.76 0 01.891-.564 2.87 2.87 0 012.101 0c.333.131.635.322.89.564.255.241.457.528.595.844.138.315.209.653.209.995zm-28.583 0c0 .341-.071.68-.209.995-.138.316-.34.603-.595.844a2.76 2.76 0 01-.891.564 2.87 2.87 0 01-2.101 0 2.756 2.756 0 01-.89-.564 2.588 2.588 0 01-.595-.844 2.482 2.482 0 010-1.99c.138-.316.34-.603.595-.844.255-.242.557-.433.89-.564a2.876 2.876 0 012.101 0c.333.131.636.322.891.564.255.241.457.528.595.844.138.315.209.653.209.995zm-28.583 0c0 .341-.071.68-.21.995-.137.316-.34.603-.594.844a2.758 2.758 0 01-.89.564 2.872 2.872 0 01-2.102 0 2.757 2.757 0 01-.89-.564 2.585 2.585 0 01-.596-.844 2.48 2.48 0 010-1.99c.138-.316.34-.603.596-.844.255-.242.557-.433.89-.564a2.872 2.872 0 012.101 0c.333.131.636.322.89.564.256.241.458.528.596.844.138.315.209.653.209.995zm-28.584 0c0 .341-.07.68-.209.995-.138.316-.34.603-.595.844a2.757 2.757 0 01-.89.564 2.872 2.872 0 01-2.101 0 2.757 2.757 0 01-.89-.564 2.586 2.586 0 01-.596-.844 2.48 2.48 0 010-1.99c.138-.316.34-.603.595-.844.255-.242.558-.433.89-.564a2.871 2.871 0 012.102 0c.333.131.635.322.89.564.255.241.457.528.595.844.138.315.21.653.21.995zm-28.583 0c0 .341-.071.68-.209.995-.138.316-.34.603-.595.844a2.757 2.757 0 01-.89.564 2.871 2.871 0 01-2.101 0 2.757 2.757 0 01-.891-.564 2.588 2.588 0 01-.595-.844 2.482 2.482 0 010-1.99c.138-.316.34-.603.595-.844.255-.242.557-.433.89-.564a2.871 2.871 0 012.101 0c.334.131.636.322.891.564.255.241.457.528.595.844.138.315.209.653.209.995zm-28.583 0c0 .341-.071.68-.21.995-.137.316-.34.603-.594.844a2.758 2.758 0 01-.89.564 2.871 2.871 0 01-2.102 0 2.757 2.757 0 01-.89-.564 2.588 2.588 0 01-.596-.844 2.48 2.48 0 010-1.99c.138-.316.34-.603.596-.844.254-.242.557-.433.89-.564a2.872 2.872 0 012.101 0c.333.131.636.322.89.564.256.241.458.528.596.844.138.315.209.653.209.995zm-28.584 0c0 .341-.07.68-.209.995-.138.316-.34.603-.595.844a2.757 2.757 0 01-.89.564 2.872 2.872 0 01-2.101 0 2.757 2.757 0 01-.89-.564 2.586 2.586 0 01-.596-.844 2.48 2.48 0 010-1.99c.138-.316.34-.603.595-.844.255-.242.558-.433.89-.564a2.871 2.871 0 012.102 0c.333.131.635.322.89.564.255.241.457.528.595.844.138.315.21.653.21.995zm-28.583 0c0 .341-.071.68-.209.995-.138.316-.34.603-.595.844a2.757 2.757 0 01-.89.564 2.871 2.871 0 01-2.102 0 2.757 2.757 0 01-.89-.564 2.588 2.588 0 01-.595-.844 2.482 2.482 0 010-1.99c.138-.316.34-.603.595-.844.255-.242.557-.433.89-.564a2.871 2.871 0 012.101 0c.334.131.636.322.891.564.255.241.457.528.595.844.138.315.209.653.209.995zm343-27.083c0 .341-.071.679-.209.995-.138.316-.34.602-.595.844a2.778 2.778 0 01-.891.564 2.892 2.892 0 01-2.101 0 2.773 2.773 0 01-.89-.564 2.597 2.597 0 01-.595-.844 2.484 2.484 0 010-1.991c.138-.315.34-.602.595-.844.255-.241.557-.433.89-.563a2.876 2.876 0 012.101 0c.333.13.636.322.891.563.255.242.457.529.595.844.138.316.209.654.209.996zm-28.583 0c0 .341-.071.679-.209.995-.138.316-.34.602-.595.844a2.778 2.778 0 01-.891.564 2.892 2.892 0 01-2.101 0 2.762 2.762 0 01-.89-.564 2.582 2.582 0 01-.595-.844 2.484 2.484 0 010-1.991c.137-.315.34-.602.595-.844.254-.241.557-.433.89-.563a2.872 2.872 0 012.992.563c.255.242.457.529.595.844.138.316.209.654.209.996zm-28.584 0c0 .341-.071.679-.209.995-.138.316-.34.602-.595.844a2.773 2.773 0 01-.89.564 2.893 2.893 0 01-2.101 0 2.778 2.778 0 01-.891-.564 2.597 2.597 0 01-.595-.844 2.484 2.484 0 010-1.991c.138-.315.34-.602.595-.844.255-.241.558-.433.891-.563a2.87 2.87 0 012.991.563c.255.242.457.529.595.844.138.316.209.654.209.996zm-28.583 0c0 .341-.071.679-.209.995-.138.316-.34.602-.595.844a2.778 2.778 0 01-.891.564 2.892 2.892 0 01-2.101 0 2.773 2.773 0 01-.89-.564 2.597 2.597 0 01-.595-.844 2.484 2.484 0 010-1.991c.138-.315.34-.602.595-.844.255-.241.557-.433.89-.563a2.876 2.876 0 012.101 0c.333.13.636.322.891.563.255.242.457.529.595.844.138.316.209.654.209.996zm-28.583 0c0 .341-.071.679-.209.995-.138.316-.34.602-.595.844a2.778 2.778 0 01-.891.564 2.892 2.892 0 01-2.101 0 2.762 2.762 0 01-.89-.564 2.6 2.6 0 01-.596-.844 2.5 2.5 0 010-1.991 2.61 2.61 0 01.596-.844c.254-.241.557-.433.89-.563a2.872 2.872 0 012.992.563c.255.242.457.529.595.844.138.316.209.654.209.996zm-28.584 0c0 .341-.071.679-.209.995-.138.316-.34.602-.595.844a2.773 2.773 0 01-.89.564 2.893 2.893 0 01-2.101 0 2.778 2.778 0 01-.891-.564 2.597 2.597 0 01-.595-.844 2.484 2.484 0 010-1.991c.138-.315.34-.602.595-.844.255-.241.558-.433.891-.563a2.87 2.87 0 012.991.563c.255.242.457.529.595.844.138.316.209.654.209.996zm-28.583 0c0 .341-.071.679-.209.995-.138.316-.34.602-.595.844a2.778 2.778 0 01-.891.564 2.892 2.892 0 01-2.101 0 2.773 2.773 0 01-.89-.564 2.598 2.598 0 01-.595-.844 2.486 2.486 0 010-1.991 2.61 2.61 0 01.595-.844c.255-.241.557-.433.89-.563a2.876 2.876 0 012.101 0c.333.13.636.322.891.563.255.242.457.529.595.844.138.316.209.654.209.996zm-28.583 0c0 .341-.071.679-.21.995-.137.316-.34.602-.594.844a2.775 2.775 0 01-.89.564 2.893 2.893 0 01-2.102 0 2.774 2.774 0 01-.89-.564 2.595 2.595 0 01-.596-.844 2.484 2.484 0 010-1.991c.138-.315.34-.602.596-.844.255-.241.557-.433.89-.563a2.872 2.872 0 012.992.563c.255.242.457.529.595.844.138.316.209.654.209.996zm-28.584 0c0 .341-.07.679-.209.995-.138.316-.34.602-.595.844a2.774 2.774 0 01-.89.564 2.893 2.893 0 01-2.101 0 2.774 2.774 0 01-.89-.564 2.597 2.597 0 01-.596-.844 2.484 2.484 0 010-1.991c.138-.315.34-.602.595-.844.255-.241.558-.433.89-.563a2.871 2.871 0 012.992.563c.255.242.457.529.595.844.138.316.21.654.21.996zm-28.583 0c0 .341-.071.679-.209.995-.138.316-.34.602-.595.844a2.774 2.774 0 01-.89.564 2.892 2.892 0 01-2.101 0 2.774 2.774 0 01-.891-.564 2.598 2.598 0 01-.595-.844 2.486 2.486 0 010-1.991 2.61 2.61 0 01.595-.844c.255-.241.557-.433.89-.563a2.871 2.871 0 012.992.563c.255.242.457.529.595.844.138.316.209.654.209.996zm-28.583 0c0 .341-.071.679-.21.995-.137.316-.34.602-.594.844a2.775 2.775 0 01-.89.564 2.892 2.892 0 01-2.102 0 2.774 2.774 0 01-.89-.564 2.598 2.598 0 01-.596-.844 2.484 2.484 0 010-1.991 2.61 2.61 0 01.596-.844c.254-.241.557-.433.89-.563a2.872 2.872 0 012.992.563c.255.242.457.529.595.844.138.316.209.654.209.996zm-28.584 0c0 .341-.07.679-.209.995-.138.316-.34.602-.595.844a2.774 2.774 0 01-.89.564 2.893 2.893 0 01-2.101 0 2.774 2.774 0 01-.89-.564 2.597 2.597 0 01-.596-.844 2.484 2.484 0 010-1.991c.138-.315.34-.602.595-.844.255-.241.558-.433.89-.563a2.871 2.871 0 012.992.563c.255.242.457.529.595.844.138.316.21.654.21.996zm-28.583 0c0 .341-.071.679-.209.995-.138.316-.34.602-.595.844a2.774 2.774 0 01-.89.564 2.892 2.892 0 01-2.102 0 2.774 2.774 0 01-.89-.564 2.598 2.598 0 01-.595-.844 2.486 2.486 0 010-1.991 2.61 2.61 0 01.595-.844c.255-.241.557-.433.89-.563a2.871 2.871 0 012.992.563c.255.242.457.529.595.844.138.316.209.654.209.996zm343-27.084c0 .342-.071.68-.209.996-.138.315-.34.602-.595.843a2.744 2.744 0 01-.891.564 2.87 2.87 0 01-2.101 0 2.74 2.74 0 01-.89-.564 2.593 2.593 0 01-.595-.843 2.485 2.485 0 010-1.991c.138-.316.34-.602.595-.844.255-.241.557-.433.89-.564a2.897 2.897 0 012.101 0c.333.131.636.323.891.564.255.242.457.528.595.844.138.315.209.654.209.995zm-28.583 0c0 .342-.071.68-.209.996-.138.315-.34.602-.595.843a2.744 2.744 0 01-.891.564 2.87 2.87 0 01-2.101 0 2.729 2.729 0 01-.89-.564 2.578 2.578 0 01-.595-.843 2.485 2.485 0 010-1.991c.137-.316.34-.602.595-.844.254-.241.557-.433.89-.564a2.893 2.893 0 012.101 0c.333.131.636.323.891.564.255.242.457.528.595.844.138.315.209.654.209.995zm-28.584 0c0 .342-.071.68-.209.996-.138.315-.34.602-.595.843a2.74 2.74 0 01-.89.564 2.872 2.872 0 01-2.101 0 2.744 2.744 0 01-.891-.564 2.593 2.593 0 01-.595-.843 2.485 2.485 0 010-1.991c.138-.316.34-.602.595-.844.255-.241.558-.433.891-.564a2.892 2.892 0 012.101 0c.333.131.635.323.89.564.255.242.457.528.595.844.138.315.209.654.209.995zm-28.583 0c0 .342-.071.68-.209.996-.138.315-.34.602-.595.843a2.744 2.744 0 01-.891.564 2.87 2.87 0 01-2.101 0 2.74 2.74 0 01-.89-.564 2.593 2.593 0 01-.595-.843 2.485 2.485 0 010-1.991c.138-.316.34-.602.595-.844.255-.241.557-.433.89-.564a2.897 2.897 0 012.101 0c.333.131.636.323.891.564.255.242.457.528.595.844.138.315.209.654.209.995zm-28.583 0c0 .342-.071.68-.209.996-.138.315-.34.602-.595.843a2.744 2.744 0 01-.891.564 2.87 2.87 0 01-2.101 0 2.729 2.729 0 01-.89-.564 2.596 2.596 0 01-.596-.843 2.497 2.497 0 010-1.991 2.6 2.6 0 01.596-.844c.254-.241.557-.433.89-.564a2.893 2.893 0 012.101 0c.333.131.636.323.891.564.255.242.457.528.595.844.138.315.209.654.209.995zm-28.584 0c0 .342-.071.68-.209.996-.138.315-.34.602-.595.843a2.74 2.74 0 01-.89.564 2.872 2.872 0 01-2.101 0 2.744 2.744 0 01-.891-.564 2.593 2.593 0 01-.595-.843 2.485 2.485 0 010-1.991c.138-.316.34-.602.595-.844.255-.241.558-.433.891-.564a2.892 2.892 0 012.101 0c.333.131.635.323.89.564.255.242.457.528.595.844.138.315.209.654.209.995zm-28.583 0c0 .342-.071.68-.209.996-.138.315-.34.602-.595.843a2.744 2.744 0 01-.891.564 2.87 2.87 0 01-2.101 0 2.739 2.739 0 01-.89-.564 2.594 2.594 0 01-.595-.843 2.487 2.487 0 010-1.991c.138-.316.34-.602.595-.844.255-.241.557-.433.89-.564a2.897 2.897 0 012.101 0c.333.131.636.323.891.564.255.242.457.528.595.844.138.315.209.654.209.995zm-28.583 0c0 .342-.071.68-.21.996a2.59 2.59 0 01-.594.843 2.741 2.741 0 01-.89.564 2.872 2.872 0 01-2.102 0 2.74 2.74 0 01-.89-.564 2.591 2.591 0 01-.596-.843 2.485 2.485 0 010-1.991c.138-.316.34-.602.596-.844.255-.241.557-.433.89-.564a2.893 2.893 0 012.101 0c.333.131.636.323.89.564.256.242.458.528.596.844.138.315.209.654.209.995zm-28.584 0c0 .342-.07.68-.209.996-.138.315-.34.602-.595.843a2.74 2.74 0 01-.89.564 2.872 2.872 0 01-2.101 0 2.74 2.74 0 01-.89-.564 2.593 2.593 0 01-.596-.843 2.485 2.485 0 010-1.991c.138-.316.34-.602.595-.844.255-.241.558-.433.89-.564a2.892 2.892 0 012.102 0c.333.131.635.323.89.564.255.242.457.528.595.844.138.315.21.654.21.995zm-28.583 0c0 .342-.071.68-.209.996-.138.315-.34.602-.595.843a2.74 2.74 0 01-.89.564 2.871 2.871 0 01-2.101 0 2.74 2.74 0 01-.891-.564 2.594 2.594 0 01-.595-.843 2.487 2.487 0 010-1.991c.138-.316.34-.602.595-.844.255-.241.557-.433.89-.564a2.892 2.892 0 012.101 0c.334.131.636.323.891.564.255.242.457.528.595.844.138.315.209.654.209.995zm-28.583 0c0 .342-.071.68-.21.996a2.59 2.59 0 01-.594.843 2.741 2.741 0 01-.89.564 2.871 2.871 0 01-2.102 0 2.74 2.74 0 01-.89-.564 2.594 2.594 0 01-.596-.843 2.485 2.485 0 010-1.991c.138-.316.34-.602.596-.844.254-.241.557-.433.89-.564a2.893 2.893 0 012.101 0c.333.131.636.323.89.564.256.242.458.528.596.844.138.315.209.654.209.995zm-28.584 0c0 .342-.07.68-.209.996-.138.315-.34.602-.595.843a2.74 2.74 0 01-.89.564 2.872 2.872 0 01-2.101 0 2.74 2.74 0 01-.89-.564 2.593 2.593 0 01-.596-.843 2.485 2.485 0 010-1.991c.138-.316.34-.602.595-.844.255-.241.558-.433.89-.564a2.892 2.892 0 012.102 0c.333.131.635.323.89.564.255.242.457.528.595.844.138.315.21.654.21.995zm-28.583 0c0 .342-.071.68-.209.996-.138.315-.34.602-.595.843a2.74 2.74 0 01-.89.564 2.871 2.871 0 01-2.102 0 2.74 2.74 0 01-.89-.564 2.594 2.594 0 01-.595-.843 2.487 2.487 0 010-1.991c.138-.316.34-.602.595-.844.255-.241.557-.433.89-.564a2.892 2.892 0 012.101 0c.334.131.636.323.891.564.255.242.457.528.595.844.138.315.209.654.209.995zm343-27.083c0 .342-.071.68-.209.995-.138.316-.34.603-.595.844a2.76 2.76 0 01-.891.564 2.87 2.87 0 01-2.101 0 2.756 2.756 0 01-.89-.564 2.586 2.586 0 01-.595-.844 2.477 2.477 0 010-1.99c.138-.316.34-.603.595-.844.255-.242.557-.433.89-.564a2.876 2.876 0 012.101 0c.333.131.636.322.891.564.255.241.457.528.595.844.138.315.209.653.209.995zm-28.583 0c0 .342-.071.68-.209.995-.138.316-.34.603-.595.844a2.76 2.76 0 01-.891.564 2.87 2.87 0 01-2.101 0 2.746 2.746 0 01-.89-.564 2.571 2.571 0 01-.595-.844 2.477 2.477 0 010-1.99c.137-.316.34-.603.595-.844.254-.242.557-.433.89-.564a2.872 2.872 0 012.101 0c.333.131.636.322.891.564.255.241.457.528.595.844.138.315.209.653.209.995zm-28.584 0c0 .342-.071.68-.209.995-.138.316-.34.603-.595.844a2.756 2.756 0 01-.89.564 2.872 2.872 0 01-2.101 0 2.76 2.76 0 01-.891-.564 2.586 2.586 0 01-.595-.844 2.477 2.477 0 010-1.99c.138-.316.34-.603.595-.844a2.76 2.76 0 01.891-.564 2.87 2.87 0 012.101 0c.333.131.635.322.89.564.255.241.457.528.595.844.138.315.209.653.209.995zm-28.583 0c0 .342-.071.68-.209.995-.138.316-.34.603-.595.844a2.76 2.76 0 01-.891.564 2.87 2.87 0 01-2.101 0 2.756 2.756 0 01-.89-.564 2.586 2.586 0 01-.595-.844 2.477 2.477 0 010-1.99c.138-.316.34-.603.595-.844.255-.242.557-.433.89-.564a2.876 2.876 0 012.101 0c.333.131.636.322.891.564.255.241.457.528.595.844.138.315.209.653.209.995zm-28.583 0c0 .342-.071.68-.209.995-.138.316-.34.603-.595.844a2.76 2.76 0 01-.891.564 2.87 2.87 0 01-2.101 0 2.746 2.746 0 01-.89-.564 2.59 2.59 0 01-.596-.844 2.493 2.493 0 010-1.99 2.59 2.59 0 01.596-.844c.254-.242.557-.433.89-.564a2.872 2.872 0 012.101 0c.333.131.636.322.891.564.255.241.457.528.595.844.138.315.209.653.209.995zm-28.584 0c0 .342-.071.68-.209.995-.138.316-.34.603-.595.844a2.756 2.756 0 01-.89.564 2.872 2.872 0 01-2.101 0 2.76 2.76 0 01-.891-.564 2.586 2.586 0 01-.595-.844 2.477 2.477 0 010-1.99c.138-.316.34-.603.595-.844a2.76 2.76 0 01.891-.564 2.87 2.87 0 012.101 0c.333.131.635.322.89.564.255.241.457.528.595.844.138.315.209.653.209.995zm-28.583 0c0 .342-.071.68-.209.995-.138.316-.34.603-.595.844a2.76 2.76 0 01-.891.564 2.87 2.87 0 01-2.101 0 2.756 2.756 0 01-.89-.564 2.588 2.588 0 01-.595-.844 2.479 2.479 0 010-1.99c.138-.316.34-.603.595-.844.255-.242.557-.433.89-.564a2.876 2.876 0 012.101 0c.333.131.636.322.891.564.255.241.457.528.595.844.138.315.209.653.209.995zm-28.583 0c0 .342-.071.68-.21.995-.137.316-.34.603-.594.844a2.758 2.758 0 01-.89.564 2.872 2.872 0 01-2.102 0 2.757 2.757 0 01-.89-.564 2.585 2.585 0 01-.596-.844 2.477 2.477 0 010-1.99c.138-.316.34-.603.596-.844.255-.242.557-.433.89-.564a2.872 2.872 0 012.101 0c.333.131.636.322.89.564.256.241.458.528.596.844.138.315.209.653.209.995zm-28.584 0c0 .342-.07.68-.209.995-.138.316-.34.603-.595.844a2.757 2.757 0 01-.89.564 2.872 2.872 0 01-2.101 0 2.757 2.757 0 01-.89-.564 2.586 2.586 0 01-.596-.844 2.477 2.477 0 010-1.99c.138-.316.34-.603.595-.844.255-.242.558-.433.89-.564a2.871 2.871 0 012.102 0c.333.131.635.322.89.564.255.241.457.528.595.844.138.315.21.653.21.995zm-28.583 0c0 .342-.071.68-.209.995-.138.316-.34.603-.595.844a2.757 2.757 0 01-.89.564 2.871 2.871 0 01-2.101 0 2.757 2.757 0 01-.891-.564 2.588 2.588 0 01-.595-.844 2.479 2.479 0 010-1.99c.138-.316.34-.603.595-.844.255-.242.557-.433.89-.564a2.871 2.871 0 012.101 0c.334.131.636.322.891.564.255.241.457.528.595.844.138.315.209.653.209.995zm-28.583 0c0 .342-.071.68-.21.995-.137.316-.34.603-.594.844a2.758 2.758 0 01-.89.564 2.871 2.871 0 01-2.102 0 2.757 2.757 0 01-.89-.564 2.588 2.588 0 01-.596-.844 2.477 2.477 0 010-1.99c.138-.316.34-.603.596-.844.254-.242.557-.433.89-.564a2.872 2.872 0 012.101 0c.333.131.636.322.89.564.256.241.458.528.596.844.138.315.209.653.209.995zm-28.584 0c0 .342-.07.68-.209.995-.138.316-.34.603-.595.844a2.757 2.757 0 01-.89.564 2.872 2.872 0 01-2.101 0 2.757 2.757 0 01-.89-.564 2.586 2.586 0 01-.596-.844 2.477 2.477 0 010-1.99c.138-.316.34-.603.595-.844.255-.242.558-.433.89-.564a2.871 2.871 0 012.102 0c.333.131.635.322.89.564.255.241.457.528.595.844.138.315.21.653.21.995zm-28.583 0c0 .342-.071.68-.209.995-.138.316-.34.603-.595.844a2.757 2.757 0 01-.89.564 2.871 2.871 0 01-2.102 0 2.757 2.757 0 01-.89-.564 2.588 2.588 0 01-.595-.844 2.479 2.479 0 010-1.99c.138-.316.34-.603.595-.844.255-.242.557-.433.89-.564a2.871 2.871 0 012.101 0c.334.131.636.322.891.564.255.241.457.528.595.844.138.315.209.653.209.995zm343-27.083c0 .341-.071.679-.209.995-.138.316-.34.602-.595.844a2.778 2.778 0 01-.891.564 2.892 2.892 0 01-2.101 0 2.773 2.773 0 01-.89-.564 2.597 2.597 0 01-.595-.844 2.484 2.484 0 010-1.991c.138-.315.34-.602.595-.844.255-.241.557-.433.89-.563a2.876 2.876 0 012.101 0c.333.13.636.322.891.563.255.242.457.529.595.844.138.316.209.654.209.996zm-28.583 0c0 .341-.071.679-.209.995-.138.316-.34.602-.595.844a2.778 2.778 0 01-.891.564 2.892 2.892 0 01-2.101 0 2.762 2.762 0 01-.89-.564 2.582 2.582 0 01-.595-.844 2.484 2.484 0 010-1.991c.137-.315.34-.602.595-.844.254-.241.557-.433.89-.563a2.872 2.872 0 012.992.563c.255.242.457.529.595.844.138.316.209.654.209.996zm-28.584 0c0 .341-.071.679-.209.995-.138.316-.34.602-.595.844a2.773 2.773 0 01-.89.564 2.893 2.893 0 01-2.101 0 2.778 2.778 0 01-.891-.564 2.597 2.597 0 01-.595-.844 2.484 2.484 0 010-1.991c.138-.315.34-.602.595-.844.255-.241.558-.433.891-.563a2.87 2.87 0 012.991.563c.255.242.457.529.595.844.138.316.209.654.209.996zm-28.583 0c0 .341-.071.679-.209.995-.138.316-.34.602-.595.844a2.778 2.778 0 01-.891.564 2.892 2.892 0 01-2.101 0 2.773 2.773 0 01-.89-.564 2.597 2.597 0 01-.595-.844 2.484 2.484 0 010-1.991c.138-.315.34-.602.595-.844.255-.241.557-.433.89-.563a2.876 2.876 0 012.101 0c.333.13.636.322.891.563.255.242.457.529.595.844.138.316.209.654.209.996zm-28.583 0c0 .341-.071.679-.209.995-.138.316-.34.602-.595.844a2.778 2.778 0 01-.891.564 2.892 2.892 0 01-2.101 0 2.762 2.762 0 01-.89-.564 2.6 2.6 0 01-.596-.844 2.5 2.5 0 010-1.991 2.61 2.61 0 01.596-.844c.254-.241.557-.433.89-.563a2.872 2.872 0 012.992.563c.255.242.457.529.595.844.138.316.209.654.209.996zm-28.584 0c0 .341-.071.679-.209.995-.138.316-.34.602-.595.844a2.773 2.773 0 01-.89.564 2.893 2.893 0 01-2.101 0 2.778 2.778 0 01-.891-.564 2.597 2.597 0 01-.595-.844 2.484 2.484 0 010-1.991c.138-.315.34-.602.595-.844.255-.241.558-.433.891-.563a2.87 2.87 0 012.991.563c.255.242.457.529.595.844.138.316.209.654.209.996zm-28.583 0c0 .341-.071.679-.209.995-.138.316-.34.602-.595.844a2.778 2.778 0 01-.891.564 2.892 2.892 0 01-2.101 0 2.773 2.773 0 01-.89-.564 2.598 2.598 0 01-.595-.844 2.486 2.486 0 010-1.991 2.61 2.61 0 01.595-.844c.255-.241.557-.433.89-.563a2.876 2.876 0 012.101 0c.333.13.636.322.891.563.255.242.457.529.595.844.138.316.209.654.209.996zm-28.583 0c0 .341-.071.679-.21.995-.137.316-.34.602-.594.844a2.775 2.775 0 01-.89.564 2.893 2.893 0 01-2.102 0 2.774 2.774 0 01-.89-.564 2.595 2.595 0 01-.596-.844 2.484 2.484 0 010-1.991c.138-.315.34-.602.596-.844.255-.241.557-.433.89-.563a2.872 2.872 0 012.992.563c.255.242.457.529.595.844.138.316.209.654.209.996zm-28.584 0c0 .341-.07.679-.209.995-.138.316-.34.602-.595.844a2.774 2.774 0 01-.89.564 2.893 2.893 0 01-2.101 0 2.774 2.774 0 01-.89-.564 2.597 2.597 0 01-.596-.844 2.484 2.484 0 010-1.991c.138-.315.34-.602.595-.844.255-.241.558-.433.89-.563a2.871 2.871 0 012.992.563c.255.242.457.529.595.844.138.316.21.654.21.996zm-28.583 0c0 .341-.071.679-.209.995-.138.316-.34.602-.595.844a2.774 2.774 0 01-.89.564 2.892 2.892 0 01-2.101 0 2.774 2.774 0 01-.891-.564 2.598 2.598 0 01-.595-.844 2.486 2.486 0 010-1.991 2.61 2.61 0 01.595-.844c.255-.241.557-.433.89-.563a2.871 2.871 0 012.992.563c.255.242.457.529.595.844.138.316.209.654.209.996zm-28.583 0c0 .341-.071.679-.21.995-.137.316-.34.602-.594.844a2.775 2.775 0 01-.89.564 2.892 2.892 0 01-2.102 0 2.774 2.774 0 01-.89-.564 2.598 2.598 0 01-.596-.844 2.484 2.484 0 010-1.991 2.61 2.61 0 01.596-.844c.254-.241.557-.433.89-.563a2.872 2.872 0 012.992.563c.255.242.457.529.595.844.138.316.209.654.209.996zm-28.584 0c0 .341-.07.679-.209.995-.138.316-.34.602-.595.844a2.774 2.774 0 01-.89.564 2.893 2.893 0 01-2.101 0 2.774 2.774 0 01-.89-.564 2.597 2.597 0 01-.596-.844 2.484 2.484 0 010-1.991c.138-.315.34-.602.595-.844.255-.241.558-.433.89-.563a2.871 2.871 0 012.992.563c.255.242.457.529.595.844.138.316.21.654.21.996zm-28.583 0c0 .341-.071.679-.209.995-.138.316-.34.602-.595.844a2.774 2.774 0 01-.89.564 2.892 2.892 0 01-2.102 0 2.774 2.774 0 01-.89-.564 2.598 2.598 0 01-.595-.844 2.486 2.486 0 010-1.991 2.61 2.61 0 01.595-.844c.255-.241.557-.433.89-.563a2.871 2.871 0 012.992.563c.255.242.457.529.595.844.138.316.209.654.209.996zm343-27.084c0 .342-.071.68-.209.996-.138.315-.34.602-.595.844a2.764 2.764 0 01-.891.563 2.877 2.877 0 01-2.101 0 2.76 2.76 0 01-.89-.564 2.596 2.596 0 01-.595-.843 2.482 2.482 0 010-1.991c.138-.316.34-.602.595-.844a2.76 2.76 0 01.89-.564 2.88 2.88 0 012.101 0c.333.131.636.323.891.564.255.242.457.528.595.844.138.316.209.654.209.995zm-28.583 0c0 .342-.071.68-.209.996-.138.315-.34.602-.595.844a2.764 2.764 0 01-.891.563 2.877 2.877 0 01-2.101 0 2.748 2.748 0 01-.89-.564 2.581 2.581 0 01-.595-.843 2.482 2.482 0 010-1.991 2.58 2.58 0 01.595-.844c.254-.241.557-.433.89-.564a2.876 2.876 0 012.101 0c.333.131.636.323.891.564.255.242.457.528.595.844.138.316.209.654.209.995zm-28.584 0c0 .342-.071.68-.209.996-.138.315-.34.602-.595.844a2.76 2.76 0 01-.89.563 2.878 2.878 0 01-2.101 0 2.764 2.764 0 01-.891-.564 2.596 2.596 0 01-.595-.843 2.482 2.482 0 010-1.991c.138-.316.34-.602.595-.844.255-.241.558-.433.891-.564a2.875 2.875 0 012.101 0c.333.131.635.323.89.564.255.242.457.528.595.844.138.316.209.654.209.995zm-28.583 0c0 .342-.071.68-.209.996-.138.315-.34.602-.595.844a2.764 2.764 0 01-.891.563 2.877 2.877 0 01-2.101 0 2.76 2.76 0 01-.89-.564 2.596 2.596 0 01-.595-.843 2.482 2.482 0 010-1.991c.138-.316.34-.602.595-.844a2.76 2.76 0 01.89-.564 2.88 2.88 0 012.101 0c.333.131.636.323.891.564.255.242.457.528.595.844.138.316.209.654.209.995zm-28.583 0c0 .342-.071.68-.209.996-.138.315-.34.602-.595.844a2.764 2.764 0 01-.891.563 2.877 2.877 0 01-2.101 0 2.748 2.748 0 01-.89-.564 2.6 2.6 0 01-.596-.843 2.498 2.498 0 010-1.991 2.6 2.6 0 01.596-.844c.254-.241.557-.433.89-.564a2.876 2.876 0 012.101 0c.333.131.636.323.891.564.255.242.457.528.595.844.138.316.209.654.209.995zm-28.584 0c0 .342-.071.68-.209.996-.138.315-.34.602-.595.844a2.76 2.76 0 01-.89.563 2.878 2.878 0 01-2.101 0 2.764 2.764 0 01-.891-.564 2.596 2.596 0 01-.595-.843 2.482 2.482 0 010-1.991c.138-.316.34-.602.595-.844.255-.241.558-.433.891-.564a2.875 2.875 0 012.101 0c.333.131.635.323.89.564.255.242.457.528.595.844.138.316.209.654.209.995zm-28.583 0c0 .342-.071.68-.209.996-.138.315-.34.602-.595.844a2.764 2.764 0 01-.891.563 2.877 2.877 0 01-2.101 0 2.758 2.758 0 01-.89-.564 2.598 2.598 0 01-.595-.843 2.484 2.484 0 010-1.991c.138-.316.34-.602.595-.844.255-.241.557-.433.89-.564a2.88 2.88 0 012.101 0c.333.131.636.323.891.564.255.242.457.528.595.844.138.316.209.654.209.995zm-28.583 0c0 .342-.071.68-.21.996-.137.315-.34.602-.594.844a2.76 2.76 0 01-.89.563 2.878 2.878 0 01-2.102 0 2.76 2.76 0 01-.89-.564 2.595 2.595 0 01-.596-.843 2.482 2.482 0 010-1.991c.138-.316.34-.602.596-.844a2.76 2.76 0 01.89-.564 2.876 2.876 0 012.101 0c.333.131.636.323.89.564.256.242.458.528.596.844.138.316.209.654.209.995zm-28.584 0c0 .342-.07.68-.209.996-.138.315-.34.602-.595.844a2.76 2.76 0 01-.89.563 2.878 2.878 0 01-2.101 0 2.76 2.76 0 01-.89-.564 2.596 2.596 0 01-.596-.843 2.482 2.482 0 010-1.991c.138-.316.34-.602.595-.844a2.76 2.76 0 01.89-.564 2.876 2.876 0 012.102 0c.333.131.635.323.89.564.255.242.457.528.595.844.138.316.21.654.21.995zm-28.583 0c0 .342-.071.68-.209.996-.138.315-.34.602-.595.844a2.76 2.76 0 01-.89.563 2.878 2.878 0 01-2.101 0 2.76 2.76 0 01-.891-.564 2.598 2.598 0 01-.595-.843 2.484 2.484 0 010-1.991c.138-.316.34-.602.595-.844a2.76 2.76 0 01.89-.564 2.875 2.875 0 012.101 0c.334.131.636.323.891.564.255.242.457.528.595.844.138.316.209.654.209.995zm-28.583 0c0 .342-.071.68-.21.996-.137.315-.34.602-.594.844a2.76 2.76 0 01-.89.563 2.878 2.878 0 01-2.102 0 2.76 2.76 0 01-.89-.564 2.598 2.598 0 01-.596-.843 2.482 2.482 0 010-1.991c.138-.316.34-.602.596-.844a2.76 2.76 0 01.89-.564 2.876 2.876 0 012.101 0c.333.131.636.323.89.564.256.242.458.528.596.844.138.316.209.654.209.995zm-28.584 0c0 .342-.07.68-.209.996-.138.315-.34.602-.595.844a2.76 2.76 0 01-.89.563 2.878 2.878 0 01-2.101 0 2.76 2.76 0 01-.89-.564 2.596 2.596 0 01-.596-.843 2.482 2.482 0 010-1.991c.138-.316.34-.602.595-.844a2.76 2.76 0 01.89-.564 2.876 2.876 0 012.102 0c.333.131.635.323.89.564.255.242.457.528.595.844.138.316.21.654.21.995zm-28.583 0c0 .342-.071.68-.209.996-.138.315-.34.602-.595.844a2.76 2.76 0 01-.89.563 2.878 2.878 0 01-2.102 0 2.76 2.76 0 01-.89-.564 2.598 2.598 0 01-.595-.843 2.484 2.484 0 010-1.991c.138-.316.34-.602.595-.844a2.76 2.76 0 01.89-.564 2.875 2.875 0 012.101 0c.334.131.636.323.891.564.255.242.457.528.595.844.138.316.209.654.209.995zm343-27.083c0 .342-.071.68-.209.995-.138.316-.34.603-.595.844a2.764 2.764 0 01-.891.564 2.877 2.877 0 01-2.101 0 2.76 2.76 0 01-.89-.564 2.595 2.595 0 01-.595-.844 2.482 2.482 0 010-1.99c.138-.316.34-.603.595-.844.255-.242.557-.433.89-.564a2.882 2.882 0 012.101 0c.333.13.636.322.891.564.255.241.457.528.595.844.138.315.209.653.209.995zm-28.583 0c0 .342-.071.68-.209.995-.138.316-.34.603-.595.844a2.764 2.764 0 01-.891.564 2.877 2.877 0 01-2.101 0 2.749 2.749 0 01-.89-.564 2.58 2.58 0 01-.595-.844 2.482 2.482 0 010-1.99 2.58 2.58 0 01.595-.844c.254-.242.557-.433.89-.564a2.878 2.878 0 012.101 0c.333.13.636.322.891.564.255.241.457.528.595.844.138.315.209.653.209.995zm-28.584 0c0 .342-.071.68-.209.995-.138.316-.34.603-.595.844a2.76 2.76 0 01-.89.564 2.878 2.878 0 01-2.101 0 2.764 2.764 0 01-.891-.564 2.595 2.595 0 01-.595-.844 2.482 2.482 0 010-1.99c.138-.316.34-.603.595-.844a2.76 2.76 0 01.891-.564 2.877 2.877 0 012.101 0c.333.13.635.322.89.564.255.241.457.528.595.844.138.315.209.653.209.995zm-28.583 0c0 .342-.071.68-.209.995-.138.316-.34.603-.595.844a2.764 2.764 0 01-.891.564 2.877 2.877 0 01-2.101 0 2.76 2.76 0 01-.89-.564 2.595 2.595 0 01-.595-.844 2.482 2.482 0 010-1.99c.138-.316.34-.603.595-.844.255-.242.557-.433.89-.564a2.882 2.882 0 012.101 0c.333.13.636.322.891.564.255.241.457.528.595.844.138.315.209.653.209.995zm-28.583 0c0 .342-.071.68-.209.995-.138.316-.34.603-.595.844a2.764 2.764 0 01-.891.564 2.877 2.877 0 01-2.101 0 2.749 2.749 0 01-.89-.564 2.598 2.598 0 01-.596-.844 2.498 2.498 0 010-1.99 2.59 2.59 0 01.596-.844c.254-.242.557-.433.89-.564a2.878 2.878 0 012.101 0c.333.13.636.322.891.564.255.241.457.528.595.844.138.315.209.653.209.995zm-28.584 0c0 .342-.071.68-.209.995-.138.316-.34.603-.595.844a2.76 2.76 0 01-.89.564 2.878 2.878 0 01-2.101 0 2.764 2.764 0 01-.891-.564 2.595 2.595 0 01-.595-.844 2.482 2.482 0 010-1.99c.138-.316.34-.603.595-.844a2.76 2.76 0 01.891-.564 2.877 2.877 0 012.101 0c.333.13.635.322.89.564.255.241.457.528.595.844.138.315.209.653.209.995zm-28.583 0c0 .342-.071.68-.209.995-.138.316-.34.603-.595.844a2.764 2.764 0 01-.891.564 2.877 2.877 0 01-2.101 0 2.759 2.759 0 01-.89-.564 2.597 2.597 0 01-.595-.844 2.484 2.484 0 010-1.99c.138-.316.34-.603.595-.844.255-.242.557-.433.89-.564a2.882 2.882 0 012.101 0c.333.13.636.322.891.564.255.241.457.528.595.844.138.315.209.653.209.995zm-28.583 0c0 .342-.071.68-.21.995-.137.316-.34.603-.594.844a2.761 2.761 0 01-.89.564 2.878 2.878 0 01-2.102 0 2.76 2.76 0 01-.89-.564 2.594 2.594 0 01-.596-.844 2.482 2.482 0 010-1.99c.138-.316.34-.603.596-.844.255-.242.557-.433.89-.564a2.878 2.878 0 012.101 0c.333.13.636.322.89.564.256.241.458.528.596.844.138.315.209.653.209.995zm-28.584 0c0 .342-.07.68-.209.995-.138.316-.34.603-.595.844a2.76 2.76 0 01-.89.564 2.878 2.878 0 01-2.101 0 2.76 2.76 0 01-.89-.564 2.595 2.595 0 01-.596-.844 2.482 2.482 0 010-1.99c.138-.316.34-.603.595-.844.255-.242.558-.433.89-.564a2.878 2.878 0 012.102 0c.333.13.635.322.89.564.255.241.457.528.595.844.138.315.21.653.21.995zm-28.583 0c0 .342-.071.68-.209.995-.138.316-.34.603-.595.844a2.76 2.76 0 01-.89.564 2.878 2.878 0 01-2.101 0 2.76 2.76 0 01-.891-.564 2.597 2.597 0 01-.595-.844 2.484 2.484 0 010-1.99c.138-.316.34-.603.595-.844.255-.242.557-.433.89-.564a2.878 2.878 0 012.101 0c.334.13.636.322.891.564.255.241.457.528.595.844.138.315.209.653.209.995zm-28.583 0c0 .342-.071.68-.21.995-.137.316-.34.603-.594.844a2.761 2.761 0 01-.89.564 2.878 2.878 0 01-2.102 0 2.76 2.76 0 01-.89-.564 2.597 2.597 0 01-.596-.844 2.482 2.482 0 010-1.99c.138-.316.34-.603.596-.844.254-.242.557-.433.89-.564a2.878 2.878 0 012.101 0c.333.13.636.322.89.564.256.241.458.528.596.844.138.315.209.653.209.995zm-28.584 0c0 .342-.07.68-.209.995-.138.316-.34.603-.595.844a2.76 2.76 0 01-.89.564 2.878 2.878 0 01-2.101 0 2.76 2.76 0 01-.89-.564 2.595 2.595 0 01-.596-.844 2.482 2.482 0 010-1.99c.138-.316.34-.603.595-.844.255-.242.558-.433.89-.564a2.878 2.878 0 012.102 0c.333.13.635.322.89.564.255.241.457.528.595.844.138.315.21.653.21.995zm-28.583 0c0 .342-.071.68-.209.995-.138.316-.34.603-.595.844a2.76 2.76 0 01-.89.564 2.878 2.878 0 01-2.102 0 2.76 2.76 0 01-.89-.564 2.597 2.597 0 01-.595-.844 2.484 2.484 0 010-1.99c.138-.316.34-.603.595-.844.255-.242.557-.433.89-.564a2.878 2.878 0 012.101 0c.334.13.636.322.891.564.255.241.457.528.595.844.138.315.209.653.209.995zm343-27.083c0 .341-.071.68-.209.995-.138.316-.34.602-.595.844a2.764 2.764 0 01-.891.564 2.877 2.877 0 01-2.101 0 2.76 2.76 0 01-.89-.564 2.596 2.596 0 01-.595-.844 2.482 2.482 0 010-1.99 2.6 2.6 0 01.595-.845 2.76 2.76 0 01.89-.563 2.882 2.882 0 012.101 0c.333.13.636.322.891.563.255.242.457.529.595.844.138.316.209.654.209.996zm-28.583 0c0 .341-.071.68-.209.995-.138.316-.34.602-.595.844a2.764 2.764 0 01-.891.564 2.877 2.877 0 01-2.101 0 2.748 2.748 0 01-.89-.564 2.58 2.58 0 01-.595-.844 2.482 2.482 0 010-1.99c.137-.316.34-.603.595-.845.254-.241.557-.433.89-.563a2.878 2.878 0 012.101 0c.333.13.636.322.891.563.255.242.457.529.595.844.138.316.209.654.209.996zm-28.584 0c0 .341-.071.68-.209.995-.138.316-.34.602-.595.844a2.76 2.76 0 01-.89.564 2.878 2.878 0 01-2.101 0 2.764 2.764 0 01-.891-.564 2.596 2.596 0 01-.595-.844 2.482 2.482 0 010-1.99 2.6 2.6 0 01.595-.845c.255-.241.558-.433.891-.563a2.877 2.877 0 012.101 0c.333.13.635.322.89.563.255.242.457.529.595.844.138.316.209.654.209.996zm-28.583 0c0 .341-.071.68-.209.995-.138.316-.34.602-.595.844a2.764 2.764 0 01-.891.564 2.877 2.877 0 01-2.101 0 2.76 2.76 0 01-.89-.564 2.596 2.596 0 01-.595-.844 2.482 2.482 0 010-1.99 2.6 2.6 0 01.595-.845 2.76 2.76 0 01.89-.563 2.882 2.882 0 012.101 0c.333.13.636.322.891.563.255.242.457.529.595.844.138.316.209.654.209.996zm-28.583 0c0 .341-.071.68-.209.995-.138.316-.34.602-.595.844a2.764 2.764 0 01-.891.564 2.877 2.877 0 01-2.101 0 2.748 2.748 0 01-.89-.564 2.599 2.599 0 01-.596-.844 2.498 2.498 0 010-1.99 2.6 2.6 0 01.596-.845c.254-.241.557-.433.89-.563a2.878 2.878 0 012.101 0c.333.13.636.322.891.563.255.242.457.529.595.844.138.316.209.654.209.996zm-28.584 0c0 .341-.071.68-.209.995-.138.316-.34.602-.595.844a2.76 2.76 0 01-.89.564 2.878 2.878 0 01-2.101 0 2.764 2.764 0 01-.891-.564 2.596 2.596 0 01-.595-.844 2.482 2.482 0 010-1.99 2.6 2.6 0 01.595-.845c.255-.241.558-.433.891-.563a2.877 2.877 0 012.101 0c.333.13.635.322.89.563.255.242.457.529.595.844.138.316.209.654.209.996zm-28.583 0c0 .341-.071.68-.209.995-.138.316-.34.602-.595.844a2.764 2.764 0 01-.891.564 2.877 2.877 0 01-2.101 0 2.758 2.758 0 01-.89-.564 2.598 2.598 0 01-.595-.844 2.484 2.484 0 010-1.99 2.6 2.6 0 01.595-.845c.255-.241.557-.433.89-.563a2.882 2.882 0 012.101 0c.333.13.636.322.891.563.255.242.457.529.595.844.138.316.209.654.209.996zm-28.583 0c0 .341-.071.68-.21.995-.137.316-.34.602-.594.844a2.76 2.76 0 01-.89.564 2.878 2.878 0 01-2.102 0 2.76 2.76 0 01-.89-.564 2.595 2.595 0 01-.596-.844 2.482 2.482 0 010-1.99c.138-.316.34-.603.596-.845a2.76 2.76 0 01.89-.563 2.878 2.878 0 012.101 0c.333.13.636.322.89.563.256.242.458.529.596.844.138.316.209.654.209.996zm-28.584 0c0 .341-.07.68-.209.995-.138.316-.34.602-.595.844a2.76 2.76 0 01-.89.564 2.878 2.878 0 01-2.101 0 2.76 2.76 0 01-.89-.564 2.596 2.596 0 01-.596-.844 2.482 2.482 0 010-1.99 2.6 2.6 0 01.595-.845 2.76 2.76 0 01.89-.563 2.878 2.878 0 012.102 0c.333.13.635.322.89.563.255.242.457.529.595.844.138.316.21.654.21.996zm-28.583 0c0 .341-.071.68-.209.995-.138.316-.34.602-.595.844a2.76 2.76 0 01-.89.564 2.878 2.878 0 01-2.101 0 2.76 2.76 0 01-.891-.564 2.598 2.598 0 01-.595-.844 2.484 2.484 0 010-1.99 2.6 2.6 0 01.595-.845 2.76 2.76 0 01.89-.563 2.878 2.878 0 012.101 0c.334.13.636.322.891.563.255.242.457.529.595.844.138.316.209.654.209.996zm-28.583 0c0 .341-.071.68-.21.995-.137.316-.34.602-.594.844a2.76 2.76 0 01-.89.564 2.878 2.878 0 01-2.102 0 2.76 2.76 0 01-.89-.564 2.598 2.598 0 01-.596-.844 2.482 2.482 0 010-1.99c.138-.316.34-.603.596-.845a2.76 2.76 0 01.89-.563 2.878 2.878 0 012.101 0c.333.13.636.322.89.563.256.242.458.529.596.844.138.316.209.654.209.996zm-28.584 0c0 .341-.07.68-.209.995-.138.316-.34.602-.595.844a2.76 2.76 0 01-.89.564 2.878 2.878 0 01-2.101 0 2.76 2.76 0 01-.89-.564 2.596 2.596 0 01-.596-.844 2.482 2.482 0 010-1.99 2.6 2.6 0 01.595-.845 2.76 2.76 0 01.89-.563 2.878 2.878 0 012.102 0c.333.13.635.322.89.563.255.242.457.529.595.844.138.316.21.654.21.996zm-28.583 0c0 .341-.071.68-.209.995-.138.316-.34.602-.595.844a2.76 2.76 0 01-.89.564 2.878 2.878 0 01-2.102 0 2.76 2.76 0 01-.89-.564 2.598 2.598 0 01-.595-.844 2.484 2.484 0 010-1.99 2.6 2.6 0 01.595-.845 2.76 2.76 0 01.89-.563 2.878 2.878 0 012.101 0c.334.13.636.322.891.563.255.242.457.529.595.844.138.316.209.654.209.996zm343-27.084c0 .342-.071.68-.209.996-.138.315-.34.602-.595.843a2.763 2.763 0 01-.891.564 2.877 2.877 0 01-2.101 0 2.759 2.759 0 01-.89-.564 2.596 2.596 0 01-.595-.843 2.482 2.482 0 010-1.991c.138-.316.34-.602.595-.844.255-.241.557-.433.89-.564a2.882 2.882 0 012.101 0c.333.131.636.323.891.564.255.242.457.528.595.844.138.315.209.654.209.995zm-28.583 0c0 .342-.071.68-.209.996-.138.315-.34.602-.595.843a2.763 2.763 0 01-.891.564 2.877 2.877 0 01-2.101 0 2.748 2.748 0 01-.89-.564 2.58 2.58 0 01-.595-.843 2.482 2.482 0 010-1.991 2.58 2.58 0 01.595-.844c.254-.241.557-.433.89-.564a2.878 2.878 0 012.101 0c.333.131.636.323.891.564.255.242.457.528.595.844.138.315.209.654.209.995zm-28.584 0c0 .342-.071.68-.209.996-.138.315-.34.602-.595.843a2.759 2.759 0 01-.89.564 2.878 2.878 0 01-2.101 0 2.763 2.763 0 01-.891-.564 2.596 2.596 0 01-.595-.843 2.482 2.482 0 010-1.991c.138-.316.34-.602.595-.844.255-.241.558-.433.891-.564a2.877 2.877 0 012.101 0c.333.131.635.323.89.564.255.242.457.528.595.844.138.315.209.654.209.995zm-28.583 0c0 .342-.071.68-.209.996-.138.315-.34.602-.595.843a2.763 2.763 0 01-.891.564 2.877 2.877 0 01-2.101 0 2.759 2.759 0 01-.89-.564 2.596 2.596 0 01-.595-.843 2.482 2.482 0 010-1.991c.138-.316.34-.602.595-.844.255-.241.557-.433.89-.564a2.882 2.882 0 012.101 0c.333.131.636.323.891.564.255.242.457.528.595.844.138.315.209.654.209.995zm-28.583 0c0 .342-.071.68-.209.996-.138.315-.34.602-.595.843a2.763 2.763 0 01-.891.564 2.877 2.877 0 01-2.101 0 2.748 2.748 0 01-.89-.564 2.599 2.599 0 01-.596-.843 2.498 2.498 0 010-1.991 2.6 2.6 0 01.596-.844c.254-.241.557-.433.89-.564a2.878 2.878 0 012.101 0c.333.131.636.323.891.564.255.242.457.528.595.844.138.315.209.654.209.995zm-28.584 0c0 .342-.071.68-.209.996-.138.315-.34.602-.595.843a2.759 2.759 0 01-.89.564 2.878 2.878 0 01-2.101 0 2.763 2.763 0 01-.891-.564 2.596 2.596 0 01-.595-.843 2.482 2.482 0 010-1.991c.138-.316.34-.602.595-.844.255-.241.558-.433.891-.564a2.877 2.877 0 012.101 0c.333.131.635.323.89.564.255.242.457.528.595.844.138.315.209.654.209.995zm-28.583 0c0 .342-.071.68-.209.996-.138.315-.34.602-.595.843a2.763 2.763 0 01-.891.564 2.877 2.877 0 01-2.101 0 2.758 2.758 0 01-.89-.564 2.597 2.597 0 01-.595-.843 2.484 2.484 0 010-1.991c.138-.316.34-.602.595-.844.255-.241.557-.433.89-.564a2.882 2.882 0 012.101 0c.333.131.636.323.891.564.255.242.457.528.595.844.138.315.209.654.209.995zm-28.583 0c0 .342-.071.68-.21.996a2.59 2.59 0 01-.594.843 2.76 2.76 0 01-.89.564 2.878 2.878 0 01-2.102 0 2.76 2.76 0 01-.89-.564 2.594 2.594 0 01-.596-.843 2.482 2.482 0 010-1.991c.138-.316.34-.602.596-.844a2.76 2.76 0 01.89-.564 2.878 2.878 0 012.101 0c.333.131.636.323.89.564.256.242.458.528.596.844.138.315.209.654.209.995zm-28.584 0c0 .342-.07.68-.209.996-.138.315-.34.602-.595.843a2.76 2.76 0 01-.89.564 2.878 2.878 0 01-2.101 0 2.76 2.76 0 01-.89-.564 2.596 2.596 0 01-.596-.843 2.482 2.482 0 010-1.991c.138-.316.34-.602.595-.844a2.76 2.76 0 01.89-.564 2.877 2.877 0 012.102 0c.333.131.635.323.89.564.255.242.457.528.595.844.138.315.21.654.21.995zm-28.583 0c0 .342-.071.68-.209.996-.138.315-.34.602-.595.843a2.76 2.76 0 01-.89.564 2.877 2.877 0 01-2.101 0 2.76 2.76 0 01-.891-.564 2.597 2.597 0 01-.595-.843 2.484 2.484 0 010-1.991c.138-.316.34-.602.595-.844a2.76 2.76 0 01.89-.564 2.877 2.877 0 012.101 0c.334.131.636.323.891.564.255.242.457.528.595.844.138.315.209.654.209.995zm-28.583 0c0 .342-.071.68-.21.996a2.59 2.59 0 01-.594.843 2.76 2.76 0 01-.89.564 2.877 2.877 0 01-2.102 0 2.76 2.76 0 01-.89-.564 2.597 2.597 0 01-.596-.843 2.482 2.482 0 010-1.991c.138-.316.34-.602.596-.844a2.76 2.76 0 01.89-.564 2.878 2.878 0 012.101 0c.333.131.636.323.89.564.256.242.458.528.596.844.138.315.209.654.209.995zm-28.584 0c0 .342-.07.68-.209.996-.138.315-.34.602-.595.843a2.76 2.76 0 01-.89.564 2.878 2.878 0 01-2.101 0 2.76 2.76 0 01-.89-.564 2.596 2.596 0 01-.596-.843 2.482 2.482 0 010-1.991c.138-.316.34-.602.595-.844a2.76 2.76 0 01.89-.564 2.877 2.877 0 012.102 0c.333.131.635.323.89.564.255.242.457.528.595.844.138.315.21.654.21.995zm-28.583 0c0 .342-.071.68-.209.996-.138.315-.34.602-.595.843a2.76 2.76 0 01-.89.564 2.877 2.877 0 01-2.102 0 2.76 2.76 0 01-.89-.564 2.597 2.597 0 01-.595-.843 2.484 2.484 0 010-1.991c.138-.316.34-.602.595-.844a2.76 2.76 0 01.89-.564 2.877 2.877 0 012.101 0c.334.131.636.323.891.564.255.242.457.528.595.844.138.315.209.654.209.995zm343-27.083c0 .341-.071.68-.209.995-.138.316-.34.603-.595.844a2.764 2.764 0 01-.891.564 2.877 2.877 0 01-2.101 0 2.76 2.76 0 01-.89-.564 2.595 2.595 0 01-.595-.844 2.482 2.482 0 010-1.99c.138-.316.34-.603.595-.844a2.76 2.76 0 01.89-.564 2.882 2.882 0 012.101 0c.333.13.636.322.891.564.255.241.457.528.595.844.138.315.209.653.209.995zm-28.583 0c0 .341-.071.68-.209.995-.138.316-.34.603-.595.844a2.764 2.764 0 01-.891.564 2.877 2.877 0 01-2.101 0 2.749 2.749 0 01-.89-.564 2.58 2.58 0 01-.595-.844 2.482 2.482 0 010-1.99c.137-.316.34-.603.595-.844.254-.242.557-.433.89-.564a2.878 2.878 0 012.101 0c.333.13.636.322.891.564.255.241.457.528.595.844.138.315.209.653.209.995zm-28.584 0c0 .341-.071.68-.209.995-.138.316-.34.603-.595.844a2.76 2.76 0 01-.89.564 2.878 2.878 0 01-2.101 0 2.764 2.764 0 01-.891-.564 2.595 2.595 0 01-.595-.844 2.482 2.482 0 010-1.99c.138-.316.34-.603.595-.844a2.76 2.76 0 01.891-.564 2.877 2.877 0 012.101 0c.333.13.635.322.89.564.255.241.457.528.595.844.138.315.209.653.209.995zm-28.583 0c0 .341-.071.68-.209.995-.138.316-.34.603-.595.844a2.764 2.764 0 01-.891.564 2.877 2.877 0 01-2.101 0 2.76 2.76 0 01-.89-.564 2.595 2.595 0 01-.595-.844 2.482 2.482 0 010-1.99c.138-.316.34-.603.595-.844a2.76 2.76 0 01.89-.564 2.882 2.882 0 012.101 0c.333.13.636.322.891.564.255.241.457.528.595.844.138.315.209.653.209.995zm-28.583 0c0 .341-.071.68-.209.995-.138.316-.34.603-.595.844a2.764 2.764 0 01-.891.564 2.877 2.877 0 01-2.101 0 2.749 2.749 0 01-.89-.564 2.598 2.598 0 01-.596-.844 2.498 2.498 0 010-1.99 2.6 2.6 0 01.596-.844c.254-.242.557-.433.89-.564a2.878 2.878 0 012.101 0c.333.13.636.322.891.564.255.241.457.528.595.844.138.315.209.653.209.995zm-28.584 0c0 .341-.071.68-.209.995-.138.316-.34.603-.595.844a2.76 2.76 0 01-.89.564 2.878 2.878 0 01-2.101 0 2.764 2.764 0 01-.891-.564 2.595 2.595 0 01-.595-.844 2.482 2.482 0 010-1.99c.138-.316.34-.603.595-.844a2.76 2.76 0 01.891-.564 2.877 2.877 0 012.101 0c.333.13.635.322.89.564.255.241.457.528.595.844.138.315.209.653.209.995zm-28.583 0c0 .341-.071.68-.209.995-.138.316-.34.603-.595.844a2.764 2.764 0 01-.891.564 2.877 2.877 0 01-2.101 0 2.759 2.759 0 01-.89-.564 2.597 2.597 0 01-.595-.844 2.484 2.484 0 010-1.99c.138-.316.34-.603.595-.844.255-.242.557-.433.89-.564a2.882 2.882 0 012.101 0c.333.13.636.322.891.564.255.241.457.528.595.844.138.315.209.653.209.995zm-28.583 0c0 .341-.071.68-.21.995-.137.316-.34.603-.594.844a2.761 2.761 0 01-.89.564 2.878 2.878 0 01-2.102 0 2.76 2.76 0 01-.89-.564 2.594 2.594 0 01-.596-.844 2.482 2.482 0 010-1.99c.138-.316.34-.603.596-.844a2.76 2.76 0 01.89-.564 2.878 2.878 0 012.101 0c.333.13.636.322.89.564.256.241.458.528.596.844.138.315.209.653.209.995zm-28.584 0c0 .341-.07.68-.209.995-.138.316-.34.603-.595.844a2.76 2.76 0 01-.89.564 2.878 2.878 0 01-2.101 0 2.76 2.76 0 01-.89-.564 2.595 2.595 0 01-.596-.844 2.482 2.482 0 010-1.99c.138-.316.34-.603.595-.844a2.76 2.76 0 01.89-.564 2.878 2.878 0 012.102 0c.333.13.635.322.89.564.255.241.457.528.595.844.138.315.21.653.21.995zm-28.583 0c0 .341-.071.68-.209.995-.138.316-.34.603-.595.844a2.76 2.76 0 01-.89.564 2.878 2.878 0 01-2.101 0 2.76 2.76 0 01-.891-.564 2.597 2.597 0 01-.595-.844 2.484 2.484 0 010-1.99c.138-.316.34-.603.595-.844a2.76 2.76 0 01.89-.564 2.878 2.878 0 012.101 0c.334.13.636.322.891.564.255.241.457.528.595.844.138.315.209.653.209.995zm-28.583 0c0 .341-.071.68-.21.995-.137.316-.34.603-.594.844a2.761 2.761 0 01-.89.564 2.878 2.878 0 01-2.102 0 2.76 2.76 0 01-.89-.564 2.597 2.597 0 01-.596-.844 2.482 2.482 0 010-1.99c.138-.316.34-.603.596-.844a2.76 2.76 0 01.89-.564 2.878 2.878 0 012.101 0c.333.13.636.322.89.564.256.241.458.528.596.844.138.315.209.653.209.995zm-28.584 0c0 .341-.07.68-.209.995-.138.316-.34.603-.595.844a2.76 2.76 0 01-.89.564 2.878 2.878 0 01-2.101 0 2.76 2.76 0 01-.89-.564 2.595 2.595 0 01-.596-.844 2.482 2.482 0 010-1.99c.138-.316.34-.603.595-.844a2.76 2.76 0 01.89-.564 2.878 2.878 0 012.102 0c.333.13.635.322.89.564.255.241.457.528.595.844.138.315.21.653.21.995zm-28.583 0c0 .341-.071.68-.209.995-.138.316-.34.603-.595.844a2.76 2.76 0 01-.89.564 2.878 2.878 0 01-2.102 0 2.76 2.76 0 01-.89-.564 2.597 2.597 0 01-.595-.844 2.484 2.484 0 010-1.99c.138-.316.34-.603.595-.844a2.76 2.76 0 01.89-.564 2.878 2.878 0 012.101 0c.334.13.636.322.891.564.255.241.457.528.595.844.138.315.209.653.209.995z" fill="#EF1D5C"/></g><defs><clipPath id="clip0_912_4088"><path fill="#fff" d="M0 0h203v280H0z"/></clipPath></defs></svg>