<svg width="85" height="174" viewBox="0 0 85 174" fill="none" xmlns="http://www.w3.org/2000/svg"><path d="M5.631 161.812a5.69 5.69 0 013.149.933 5.625 5.625 0 012.094 2.512 5.561 5.561 0 01.331 3.241 5.59 5.59 0 01-1.542 2.877 5.692 5.692 0 01-6.166 1.226 5.643 5.643 0 01-2.542-2.064A5.575 5.575 0 010 167.419c0-1.483.593-2.905 1.648-3.956a5.678 5.678 0 013.983-1.651zm0-35.87a5.69 5.69 0 013.151.935 5.62 5.62 0 012.094 2.515 5.563 5.563 0 01.327 3.245 5.594 5.594 0 01-1.549 2.877 5.7 5.7 0 01-6.174 1.211 5.649 5.649 0 01-2.537-2.076A5.573 5.573 0 010 131.525c0-.733.146-1.459.429-2.136a5.582 5.582 0 011.22-1.812 5.648 5.648 0 013.982-1.635zm0-35.894a5.691 5.691 0 013.149.933 5.618 5.618 0 012.094 2.512 5.563 5.563 0 01.331 3.241 5.592 5.592 0 01-1.542 2.877 5.675 5.675 0 01-2.895 1.542 5.71 5.71 0 01-3.271-.315 5.649 5.649 0 01-2.542-2.065 5.573 5.573 0 01.693-7.074 5.68 5.68 0 013.983-1.65zm0-35.87a5.69 5.69 0 013.151.935 5.619 5.619 0 012.094 2.515 5.562 5.562 0 01.327 3.245 5.592 5.592 0 01-1.549 2.877 5.671 5.671 0 01-2.901 1.535 5.701 5.701 0 01-3.273-.324 5.645 5.645 0 01-2.537-2.076A5.573 5.573 0 010 59.761c0-1.48.593-2.9 1.65-3.948a5.656 5.656 0 013.981-1.635zm0-35.894a5.69 5.69 0 013.149.934 5.62 5.62 0 012.094 2.511 5.563 5.563 0 01.331 3.241 5.593 5.593 0 01-1.542 2.878 5.67 5.67 0 01-2.895 1.54 5.701 5.701 0 01-3.271-.314 5.646 5.646 0 01-2.542-2.065 5.572 5.572 0 01.693-7.074 5.68 5.68 0 013.983-1.65zM29.68 143.53a5.687 5.687 0 013.19.881 5.623 5.623 0 012.146 2.501 5.564 5.564 0 01-1.175 6.17 5.666 5.666 0 01-2.919 1.553 5.7 5.7 0 01-3.294-.334 5.636 5.636 0 01-2.542-2.105 5.57 5.57 0 01-.916-3.155 5.559 5.559 0 011.631-3.86 5.656 5.656 0 013.88-1.651zm0-35.894a5.692 5.692 0 013.18.874 5.618 5.618 0 012.147 2.486 5.562 5.562 0 01.382 3.25 5.593 5.593 0 01-1.513 2.908 5.671 5.671 0 01-2.893 1.575 5.702 5.702 0 01-3.287-.294 5.646 5.646 0 01-2.562-2.063 5.572 5.572 0 01.64-7.044 5.678 5.678 0 013.906-1.692zm0-35.87a5.692 5.692 0 013.183.876 5.62 5.62 0 012.147 2.49 5.564 5.564 0 01.377 3.253 5.59 5.59 0 01-1.52 2.907 5.67 5.67 0 01-2.899 1.57 5.7 5.7 0 01-3.29-.304 5.646 5.646 0 01-2.556-2.073 5.573 5.573 0 01-.952-3.136c0-1.46.576-2.863 1.606-3.906a5.655 5.655 0 013.904-1.677zm0-35.894a5.692 5.692 0 013.18.874 5.62 5.62 0 012.147 2.486 5.564 5.564 0 01.382 3.25 5.591 5.591 0 01-1.513 2.908 5.67 5.67 0 01-2.893 1.575 5.702 5.702 0 01-3.287-.294 5.645 5.645 0 01-2.562-2.063 5.573 5.573 0 01.64-7.044 5.679 5.679 0 013.906-1.692zm0-35.87a5.692 5.692 0 013.183.876 5.62 5.62 0 012.147 2.49 5.564 5.564 0 01.377 3.253 5.59 5.59 0 01-1.52 2.908 5.67 5.67 0 01-2.899 1.57 5.702 5.702 0 01-3.29-.304 5.647 5.647 0 01-2.556-2.074 5.573 5.573 0 01.66-7.035A5.679 5.679 0 0129.68.002zm25.256 161.81a5.69 5.69 0 013.149.933 5.624 5.624 0 012.093 2.512 5.561 5.561 0 01.332 3.241 5.59 5.59 0 01-1.542 2.877 5.692 5.692 0 01-6.166 1.226 5.643 5.643 0 01-2.542-2.064 5.575 5.575 0 01-.955-3.118 5.541 5.541 0 011.64-3.963 5.634 5.634 0 011.83-1.217 5.675 5.675 0 012.161-.427zm0-35.87a5.69 5.69 0 013.151.935 5.618 5.618 0 012.094 2.515 5.563 5.563 0 01.327 3.245 5.594 5.594 0 01-1.549 2.877 5.7 5.7 0 01-6.174 1.211 5.649 5.649 0 01-2.537-2.076 5.573 5.573 0 01-.943-3.124c0-1.481.593-2.901 1.65-3.948a5.656 5.656 0 013.981-1.635zm0-35.894a5.691 5.691 0 013.149.933 5.618 5.618 0 012.093 2.512 5.563 5.563 0 01.332 3.241 5.591 5.591 0 01-1.542 2.877 5.675 5.675 0 01-2.895 1.542 5.71 5.71 0 01-3.271-.315 5.649 5.649 0 01-2.542-2.065 5.573 5.573 0 01-.955-3.118 5.54 5.54 0 01.422-2.144 5.581 5.581 0 011.219-1.82 5.634 5.634 0 011.83-1.216 5.673 5.673 0 012.16-.427zm0-35.87a5.69 5.69 0 013.151.935 5.617 5.617 0 012.094 2.515 5.562 5.562 0 01.327 3.245 5.592 5.592 0 01-1.549 2.877 5.672 5.672 0 01-2.901 1.535 5.701 5.701 0 01-3.273-.324 5.645 5.645 0 01-2.537-2.076 5.572 5.572 0 01-.943-3.124c0-1.48.593-2.9 1.65-3.948a5.656 5.656 0 013.981-1.635zm0-35.894a5.69 5.69 0 013.149.934 5.619 5.619 0 012.093 2.511 5.563 5.563 0 01.332 3.241 5.592 5.592 0 01-1.542 2.878 5.671 5.671 0 01-2.895 1.54 5.702 5.702 0 01-3.271-.314 5.645 5.645 0 01-2.542-2.065 5.572 5.572 0 01-.955-3.118 5.54 5.54 0 01.422-2.144 5.58 5.58 0 011.219-1.819 5.634 5.634 0 011.83-1.216 5.675 5.675 0 012.16-.428zM78.983 143.53a5.683 5.683 0 013.158.94 5.619 5.619 0 012.093 2.527 5.562 5.562 0 01.315 3.254 5.595 5.595 0 01-1.57 2.876 5.698 5.698 0 01-6.199 1.164 5.641 5.641 0 01-2.52-2.107 5.57 5.57 0 01-.908-3.143 5.561 5.561 0 011.674-3.902 5.659 5.659 0 013.957-1.609zm0-35.894a5.69 5.69 0 013.149.933 5.617 5.617 0 012.093 2.511 5.565 5.565 0 01.332 3.242 5.595 5.595 0 01-1.542 2.877 5.672 5.672 0 01-2.896 1.541 5.7 5.7 0 01-3.27-.315 5.645 5.645 0 01-2.542-2.065 5.57 5.57 0 01-.955-3.117 5.545 5.545 0 01.421-2.144 5.585 5.585 0 011.22-1.82 5.633 5.633 0 011.83-1.216 5.675 5.675 0 012.16-.427zm0-35.87a5.69 5.69 0 013.151.935 5.618 5.618 0 012.094 2.515 5.563 5.563 0 01.327 3.245 5.592 5.592 0 01-1.549 2.876 5.67 5.67 0 01-2.901 1.536 5.7 5.7 0 01-3.273-.325 5.645 5.645 0 01-2.537-2.075 5.573 5.573 0 01-.943-3.124c0-1.48.593-2.901 1.65-3.948a5.656 5.656 0 013.981-1.635zm0-35.894a5.691 5.691 0 013.149.933 5.618 5.618 0 012.093 2.511 5.563 5.563 0 01.332 3.242 5.592 5.592 0 01-1.542 2.877 5.67 5.67 0 01-2.896 1.541 5.7 5.7 0 01-3.27-.315 5.645 5.645 0 01-2.542-2.065 5.573 5.573 0 01-.955-3.117 5.544 5.544 0 011.64-3.963 5.634 5.634 0 011.83-1.217 5.673 5.673 0 012.161-.427zm0-35.87a5.69 5.69 0 013.151.935 5.619 5.619 0 012.094 2.515 5.563 5.563 0 01.327 3.245 5.592 5.592 0 01-1.549 2.877 5.671 5.671 0 01-2.901 1.535 5.701 5.701 0 01-3.273-.325 5.645 5.645 0 01-2.537-2.075 5.573 5.573 0 01-.943-3.124c0-1.48.593-2.9 1.65-3.948a5.656 5.656 0 013.98-1.635z" fill="#F1356D"/></svg>