<svg width="92" height="92" viewBox="0 0 92 92" fill="none" xmlns="http://www.w3.org/2000/svg"><path d="M55.23 3.08L90.309 0c.205 3.56.461 7.256.769 11.09.205 3.285.41 7.05.615 11.294.205 4.107.308 8.351.308 12.732 0 14.923-2.615 26.97-7.846 36.143-5.129 9.036-13.642 15.95-25.54 20.741l-4.154-16.634c3.59-.684 6.718-1.985 9.385-3.902 2.667-2.053 4.872-4.45 6.616-7.187 1.743-2.738 3.025-5.75 3.846-9.036.923-3.422 1.384-6.777 1.384-10.062H55.231V3.08zm-54.46 0L36 0c.205 3.56.462 7.256.77 11.09.204 3.285.358 7.05.46 11.294.206 4.107.309 8.351.309 12.732 0 14.923-2.616 26.97-7.847 36.143C24.564 80.295 16.052 87.209 4.154 92L0 75.366c3.59-.684 6.667-1.985 9.23-3.902 2.667-2.053 4.873-4.45 6.616-7.187a33.257 33.257 0 003.846-9.241 40.55 40.55 0 001.231-9.857H.77V3.08z" fill="#F1356D"/></svg>