<svg width="130" height="136" viewBox="0 0 130 136" fill="none" xmlns="http://www.w3.org/2000/svg"><path d="M3.143 39.112a3.125 3.125 0 002.219-.906L38.206 5.362A3.138 3.138 0 1033.768.924L.924 33.768a3.125 3.125 0 002.22 5.344zm0 35.562a3.127 3.127 0 002.219-.906L73.768 5.362A3.138 3.138 0 1069.331.924L.924 69.331a3.125 3.125 0 002.22 5.343zm0 35.5a3.12 3.12 0 002.219-.781L109.393 5.362a3.135 3.135 0 000-4.438 3.136 3.136 0 00-4.437 0L.924 104.831A3.118 3.118 0 000 107.049a3.125 3.125 0 003.143 3.125zm0 35.563a3.142 3.142 0 002.219-.906L144.83 5.361a3.148 3.148 0 00.919-2.218 3.15 3.15 0 00-.919-2.219 3.152 3.152 0 00-2.219-.919 3.14 3.14 0 00-2.219.92L.924 140.392a3.128 3.128 0 000 4.438 3.142 3.142 0 002.22.906zM180.362.924a3.128 3.128 0 00-4.438 0l-175 175A3.139 3.139 0 000 178.143a3.125 3.125 0 00.924 2.219 3.129 3.129 0 003.42.684 3.126 3.126 0 001.018-.684l175-175a3.129 3.129 0 00.684-3.42 3.129 3.129 0 00-.684-1.018zm-4.438 35.532L36.456 175.924a3.138 3.138 0 00-.925 2.219 3.124 3.124 0 00.925 2.219 3.129 3.129 0 003.42.684 3.122 3.122 0 001.017-.684L180.362 40.893a3.14 3.14 0 00-2.219-5.356c-.832 0-1.63.33-2.219.919zm0 35.437L71.894 175.924a3.138 3.138 0 00-.925 2.219 3.124 3.124 0 00.924 2.219 3.129 3.129 0 003.42.684 3.126 3.126 0 001.018-.684L180.362 76.456a3.183 3.183 0 00-4.438-4.563zm0 35.625l-68.406 68.406a3.122 3.122 0 00-.684 3.421c.159.381.391.726.684 1.017a3.132 3.132 0 002.219.924 3.122 3.122 0 002.219-.924l68.406-68.406a3.142 3.142 0 000-4.438 3.142 3.142 0 00-4.438 0zm0 35.563l-32.843 32.843a3.127 3.127 0 000 4.438 3.122 3.122 0 004.437 0l32.844-32.844a3.138 3.138 0 10-4.438-4.437z" fill="#EF1D5C"/></svg>