<svg width="80" height="70" viewBox="0 0 80 70" fill="none" xmlns="http://www.w3.org/2000/svg"><path d="M3.407 36.356C.593 35.333-.743 32.501.42 30.03L17.798 2.992C18.962.521 22.187-.653 25 .37c2.813 1.023 4.15 3.855 2.986 6.326L10.61 33.733c-1.165 2.471-4.39 3.646-7.203 2.623zM23.3 48.796c-2.052-1.975-1.892-5.038.357-6.841L70.77 4.195c2.249-1.804 5.736-1.664 7.789.312 2.053 1.975 1.893 5.038-.356 6.841L31.09 49.11c-2.25 1.803-5.736 1.663-7.79-.313zm13.979 11.836c-2.845.953-4.272 3.751-3.186 6.25 1.085 2.499 4.271 3.752 7.116 2.799l31.67-9.434c2.845-.953 4.271-3.752 3.186-6.25-1.085-2.5-4.272-3.752-7.117-2.8-2.845.954-31.669 9.435-31.669 9.435z" fill="#EF1D5C"/></svg>