<svg width="75" height="83" viewBox="0 0 75 83" fill="none" xmlns="http://www.w3.org/2000/svg"><path d="M29.199 32.782c10.541-.347 19.844 7.222 22.25 19.65-.016 1.075.03 2.15.137 3.218.07.601.837.853.971.139.931-6.45 2.073-12.645 6.041-17.436 2.04-2.46 4.471-4.4 7.15-5.709 2.68-1.308 5.553-1.958 8.451-1.91a.447.447 0 00.266-.079.574.574 0 00.194-.232.72.72 0 00-.01-.637c.146-.051.182-.319-.007-.335-.19-.016-.313-.063-.461-.08l-.082.002c-5.462-.969-11.519-1.313-16.012-5.61-5.322-5.1-6.015-13.561-6.042-21.167a1.42 1.42 0 00-.132-.62 1.151 1.151 0 00-.374-.456l-.002-.1c.033-.82-1.029-.967-1.193-.153.002.089-.038.178-.052.297a1.13 1.13 0 00-.37.456 1.41 1.41 0 00-.126.62l.027 1.344c-1.082 5.454-1.977 10.835-5.006 15.41-3.787 5.646-9.281 8.817-15.197 9.764a1.105 1.105 0 00-.728.482 1.563 1.563 0 00-.262.95 1.22 1.22 0 00-.356.596 1.45 1.45 0 00-.003.736c.063.24.186.453.352.607a.919.919 0 00.576.253zm-9.671 34.31c-4.408-.002-8.11 5.03-8.878 13.017.041.684.055 1.37.04 2.054.008.385-.341.57-.4.107-.524-4.099-1.135-8.008-2.894-11.016-1.76-3.008-4.197-4.658-6.657-4.54-.205.004-.261-.331-.209-.589-.057.001-.078-.206-.004-.217.064-.015.126-.036.187-.063l.05-.001c2.259-.736 4.788-1.083 6.57-3.933 2.11-3.371 2.215-8.786 2.078-13.644-.015-.256.053-.51.191-.705v-.05c-.011-.532.405-.63.49-.127l.003.187a.94.94 0 01.176.31c.04.116.06.241.059.367l.017.86c.561 3.455 1.048 6.893 2.41 9.74 1.712 3.552 4.048 5.462 6.553 5.936.28.053.436.485.444.89.287.39.233 1.418-.226 1.417z" fill="#EF1D5C"/></svg>