<?xml version="1.0" standalone="no"?>
<!DOCTYPE svg PUBLIC "-//W3C//DTD SVG 20010904//EN"
 "http://www.w3.org/TR/2001/REC-SVG-20010904/DTD/svg10.dtd">
<svg version="1.0" xmlns="http://www.w3.org/2000/svg"
 width="1055.000000pt" height="377.000000pt" viewBox="0 0 1055.000000 377.000000"
 preserveAspectRatio="xMidYMid meet">

<g transform="translate(0.000000,377.000000) scale(0.100000,-0.100000)"
fill="#000000" stroke="none">
<path d="M207 3363 c-4 -3 -7 -511 -7 -1128 0 -887 3 -1125 13 -1133 26 -22
122 -53 240 -78 166 -34 387 -43 510 -20 266 51 452 182 552 391 109 228 123
480 40 730 -42 128 -92 212 -169 289 -216 213 -537 245 -810 81 -32 -19 -60
-35 -62 -35 -2 0 -4 205 -4 455 l0 455 -148 0 c-82 0 -152 -3 -155 -7z m827
-1086 c110 -51 205 -176 243 -320 21 -81 21 -242 -1 -324 -42 -166 -159 -294
-305 -337 -71 -21 -233 -21 -342 0 -133 25 -119 -27 -119 446 l0 410 36 33
c44 40 140 93 203 111 75 22 216 12 285 -19z"/>
<path d="M3907 3363 c-4 -3 -7 -532 -7 -1175 l0 -1168 168 2 167 3 3 542 2
543 458 2 457 3 3 143 c2 125 1 143 -14 149 -9 3 -215 7 -458 7 l-441 1 -3
327 -2 328 457 2 458 3 0 145 0 145 -621 3 c-341 1 -624 -1 -627 -5z"/>
<path d="M5487 3364 c-4 -4 -7 -533 -7 -1176 l0 -1168 155 0 155 0 -2 1173 -3
1172 -146 3 c-80 1 -148 -1 -152 -4z"/>
<path d="M2058 3210 c-95 -29 -153 -132 -126 -224 41 -136 220 -175 311 -66
80 95 48 229 -68 281 -43 20 -74 22 -117 9z"/>
<path d="M2766 2597 c-185 -181 -287 -287 -282 -295 5 -8 47 -12 137 -12 97 0
129 -3 129 -12 -1 -7 1 -213 4 -458 3 -369 7 -455 20 -504 45 -165 159 -271
333 -312 141 -33 382 -1 491 66 l32 20 0 139 0 140 -72 -34 c-133 -61 -277
-83 -360 -56 -45 15 -101 75 -119 127 -11 31 -14 129 -14 459 l0 420 243 3
243 2 -3 138 -3 137 -230 2 c-126 1 -236 2 -242 2 -9 1 -13 42 -15 156 l-3
155 -289 -283z"/>
<path d="M8300 2590 c-318 -33 -557 -271 -616 -612 -20 -112 -14 -321 11 -412
86 -318 304 -524 600 -566 138 -19 312 -8 454 31 80 21 220 85 264 119 l27 21
0 145 c0 79 -2 144 -4 144 -2 0 -37 -20 -77 -45 -142 -88 -311 -135 -478 -135
-105 1 -155 12 -241 52 -78 37 -167 122 -203 194 -29 57 -57 157 -57 203 l0
31 543 2 542 3 -3 107 c-8 329 -183 601 -443 688 -53 18 -210 43 -244 38 -5 0
-39 -4 -75 -8z m236 -287 c122 -47 198 -152 219 -301 l7 -52 -387 0 -388 0 6
40 c8 63 64 171 115 223 82 85 171 119 297 113 47 -2 101 -12 131 -23z"/>
<path d="M10138 2589 c-104 -16 -238 -124 -348 -282 l-55 -79 -3 166 -2 166
-155 0 -155 0 0 -770 c0 -609 3 -770 13 -771 13 -1 278 -1 289 0 4 1 8 211 10
469 3 454 4 469 25 525 43 115 127 218 212 259 36 18 63 23 121 23 90 0 154
-26 242 -98 l58 -47 14 23 c58 92 146 241 146 247 0 15 -124 103 -188 133 -70
33 -153 46 -224 36z"/>
<path d="M1961 2561 c-8 -5 -10 -200 -9 -772 l3 -764 153 -3 152 -3 -2 773 -3
773 -141 2 c-77 0 -146 -2 -153 -6z"/>
<path d="M6163 2563 c-79 -2 -143 -5 -143 -8 0 -2 84 -174 186 -382 103 -208
235 -478 295 -601 l109 -224 -39 -86 c-22 -48 -60 -132 -86 -187 -232 -489
-395 -840 -395 -847 0 -14 314 -10 333 5 13 10 128 250 464 967 22 47 173 369
337 716 163 348 296 635 296 638 0 4 -77 5 -171 4 l-172 -3 -123 -270 c-68
-148 -156 -341 -196 -427 -39 -87 -74 -158 -77 -158 -3 1 -96 190 -206 421
-111 234 -208 427 -219 435 -11 8 -27 13 -36 12 -8 -1 -79 -4 -157 -5z"/>
</g>
</svg>
