<?xml version="1.0" standalone="no"?>
<!DOCTYPE svg PUBLIC "-//W3C//DTD SVG 20010904//EN"
 "http://www.w3.org/TR/2001/REC-SVG-20010904/DTD/svg10.dtd">
<svg version="1.0" xmlns="http://www.w3.org/2000/svg"
 width="773.000000pt" height="200.000000pt" viewBox="0 0 773.000000 200.000000"
 preserveAspectRatio="xMidYMid meet">

<g transform="translate(0.000000,200.000000) scale(0.100000,-0.100000)"
fill="#000000" stroke="none">
<path d="M548 1773 c-153 -49 -278 -90 -278 -93 0 -3 34 -29 75 -58 l74 -53
293 92 c161 51 315 94 342 97 l49 5 -24 19 c-56 44 -124 71 -189 75 -59 3 -90
-5 -342 -84z"/>
<path d="M725 1627 l-290 -93 -3 -507 c-2 -386 1 -507 10 -507 6 0 42 10 80
22 l68 22 0 125 0 126 268 83 c258 81 268 83 307 70 25 -8 48 -26 62 -47 20
-30 23 -46 23 -131 0 -88 -3 -102 -30 -158 -33 -65 -86 -119 -148 -151 -21
-11 -104 -40 -183 -65 -496 -154 -605 -189 -612 -195 -7 -7 108 -96 138 -107
17 -7 704 210 767 242 149 75 216 198 225 409 6 152 -11 208 -87 279 l-49 46
34 63 c42 78 59 162 53 274 -5 95 -17 130 -73 198 -47 58 -114 89 -200 92 -64
2 -94 -5 -360 -90z m402 -76 c59 -27 76 -65 74 -165 -2 -126 -32 -190 -109
-241 -29 -18 -470 -165 -496 -165 -3 0 -6 99 -6 220 l0 219 188 60 c223 71
284 89 297 90 6 0 29 -8 52 -18z"/>
<path d="M1033 1520 c-21 -8 -23 -16 -23 -81 0 -83 -17 -121 -66 -144 -18 -8
-95 -35 -171 -58 l-138 -43 -3 -83 c-2 -65 0 -82 10 -79 7 3 96 31 198 63 102
32 201 66 222 76 67 34 108 121 108 230 0 50 -4 63 -27 89 -30 33 -75 45 -110
30z"/>
<path d="M240 956 c0 -550 3 -696 13 -696 6 0 189 56 406 124 425 134 449 145
508 230 52 76 68 226 31 286 -18 28 -60 42 -102 35 l-36 -7 0 -84 c0 -93 -13
-136 -53 -172 -17 -16 -115 -52 -308 -113 -156 -49 -287 -89 -291 -89 -4 0 -8
240 -8 533 l0 533 -27 20 c-16 11 -52 37 -80 58 l-53 38 0 -696z"/>
<path d="M2771 1426 c-13 -7 -30 -24 -37 -37 -57 -102 77 -198 157 -113 73 78
-26 202 -120 150z"/>
<path d="M1993 1407 l-63 -21 0 -468 0 -469 73 3 c70 3 72 4 75 30 l3 27 36
-25 c50 -34 108 -47 179 -41 284 22 412 376 214 591 -100 108 -283 136 -394
61 l-36 -24 0 179 c0 138 -3 180 -12 179 -7 0 -41 -10 -75 -22z m334 -418
c147 -55 166 -304 29 -384 -75 -44 -192 -30 -251 29 -24 24 -25 30 -25 156 0
127 1 132 25 154 56 52 152 72 222 45z"/>
<path d="M6588 1407 l-68 -20 0 -158 c0 -88 -2 -159 -5 -159 -2 0 -20 11 -40
24 -20 14 -61 30 -92 36 -147 31 -295 -46 -361 -187 -23 -50 -27 -71 -27 -153
0 -82 4 -103 26 -151 36 -75 89 -133 154 -165 98 -47 233 -42 307 12 l33 25 3
-30 3 -31 69 0 c53 0 69 4 74 16 9 23 7 952 -1 957 -5 3 -38 -5 -75 -16z
m-151 -428 c75 -36 83 -54 83 -189 0 -133 -9 -154 -81 -190 -52 -27 -152 -27
-195 -1 -62 38 -104 117 -104 195 0 45 37 132 66 157 61 53 156 64 231 28z"/>
<path d="M3235 1295 l-70 -22 -3 -77 -3 -76 -85 0 -85 0 3 -62 3 -63 82 -3 82
-3 3 -197 c4 -231 11 -256 93 -307 40 -24 61 -30 122 -34 70 -3 158 12 168 29
3 5 -5 34 -17 65 -16 43 -25 54 -37 49 -9 -4 -39 -9 -68 -12 -48 -4 -55 -2
-83 26 l-30 30 0 176 0 176 100 0 100 0 0 65 0 65 -100 0 -99 0 -3 98 -3 99
-70 -22z"/>
<path d="M3909 1127 c-25 -7 -60 -23 -77 -36 l-32 -22 0 25 c0 26 -1 26 -75
26 l-75 0 0 -485 0 -485 28 6 c15 4 47 14 72 23 l45 17 3 156 3 157 36 -24
c109 -75 286 -52 388 50 69 69 114 201 100 293 -18 123 -99 240 -193 280 -63
27 -163 36 -223 19z m174 -157 c84 -58 114 -194 63 -290 -60 -114 -222 -138
-318 -47 -28 26 -28 27 -28 154 1 143 2 148 71 188 59 35 157 32 212 -5z"/>
<path d="M4660 1124 c-243 -64 -321 -391 -141 -587 95 -103 279 -127 390 -51
l36 24 3 -30 3 -30 70 0 69 0 0 335 0 335 -70 0 c-68 0 -70 -1 -70 -25 0 -31
-1 -31 -45 -1 -36 25 -114 47 -163 45 -15 0 -52 -7 -82 -15z m207 -145 c75
-36 83 -54 83 -189 0 -133 -9 -154 -82 -191 -49 -25 -143 -27 -186 -5 -65 34
-112 119 -112 202 0 43 37 130 66 156 59 52 155 64 231 27z"/>
<path d="M5518 1127 c-26 -8 -63 -26 -82 -41 l-36 -27 0 30 0 31 -75 0 -75 0
2 -332 3 -333 73 -3 72 -3 0 224 c0 216 1 225 23 257 63 92 221 94 268 3 10
-21 15 -87 19 -253 l5 -225 73 -3 72 -3 0 229 c0 263 -8 308 -68 374 -64 72
-176 102 -274 75z"/>
<path d="M7050 1126 c-165 -44 -275 -230 -240 -402 24 -117 91 -208 188 -255
67 -33 208 -33 269 -1 23 12 45 27 50 34 5 9 9 3 13 -17 5 -30 6 -30 78 -33
l72 -3 0 336 0 335 -75 0 c-73 0 -75 -1 -75 -25 l0 -25 -37 24 c-66 44 -157
56 -243 32z m193 -142 c18 -9 44 -28 60 -42 27 -25 27 -27 27 -154 0 -128 0
-129 -27 -155 -64 -59 -174 -72 -248 -29 -135 80 -123 318 20 382 42 18 129
17 168 -2z"/>
<path d="M2742 788 l3 -333 73 -3 72 -3 0 336 0 335 -75 0 -75 0 2 -332z"/>
</g>
</svg>
