<?xml version="1.0" standalone="no"?>
<!DOCTYPE svg PUBLIC "-//W3C//DTD SVG 20010904//EN"
 "http://www.w3.org/TR/2001/REC-SVG-20010904/DTD/svg10.dtd">
<svg version="1.0" xmlns="http://www.w3.org/2000/svg"
 width="240.000000pt" height="122.000000pt" viewBox="0 0 240.000000 122.000000"
 preserveAspectRatio="xMidYMid meet">

<g transform="translate(0.000000,122.000000) scale(0.100000,-0.100000)"
fill="#000000" stroke="none">
<path d="M386 1181 c-10 -11 -16 -28 -13 -38 4 -15 5 -15 6 3 1 30 26 47 56
40 20 -5 25 -13 25 -36 0 -17 -7 -33 -17 -39 -10 -6 -13 -11 -7 -11 35 -1 47
72 15 90 -29 15 -46 12 -65 -9z"/>
<path d="M290 1068 c-33 -27 -74 -71 -91 -99 -18 -27 -38 -49 -44 -49 -17 0
-45 -33 -45 -53 0 -9 8 -25 17 -35 10 -10 25 -38 33 -62 10 -27 21 -44 29 -42
8 2 11 -3 8 -12 -6 -16 67 -89 120 -121 43 -25 48 -60 14 -105 -80 -105 -185
-298 -172 -318 9 -15 68 104 63 127 -2 9 -1 13 3 9 4 -4 39 40 77 97 61 93 72
105 98 105 16 0 31 4 34 8 2 4 -11 6 -29 4 -31 -4 -35 -1 -43 29 -5 19 -7 36
-6 38 2 2 21 8 41 12 37 8 37 8 -7 4 -33 -3 -51 1 -69 15 -14 10 -32 15 -40
12 -9 -3 -13 -2 -9 3 4 4 -12 30 -37 57 -24 27 -49 65 -56 86 -7 20 -23 45
-36 55 -37 29 -29 63 19 80 12 4 23 -2 34 -18 15 -23 15 -27 0 -50 -9 -14 -14
-25 -11 -25 2 0 12 11 21 25 15 23 15 27 0 49 -15 24 -14 27 20 71 61 80 146
147 173 138 9 -4 13 -3 9 1 -3 4 -18 9 -33 10 -19 3 -42 -9 -85 -46z m35 10
c-50 -41 -84 -75 -113 -113 -28 -36 -17 -12 12 28 21 28 123 117 134 117 4 0
-11 -15 -33 -32z m-85 -403 c19 -19 32 -35 29 -35 -3 0 -20 16 -39 35 -19 19
-32 35 -29 35 3 0 20 -16 39 -35z m99 -200 c-18 -25 -34 -45 -36 -45 -6 0 6
19 35 58 37 49 38 38 1 -13z m-89 -135 c-6 -11 -13 -20 -16 -20 -2 0 0 9 6 20
6 11 13 20 16 20 2 0 0 -9 -6 -20z"/>
<path d="M1170 983 c14 -3 32 -11 42 -20 10 -9 30 -13 55 -10 l38 4 -41 1
c-23 1 -47 9 -54 17 -7 8 -24 14 -39 14 l-26 -2 25 -4z"/>
<path d="M1127 965 c-4 -8 -19 -15 -34 -15 l-28 -1 31 -13 c17 -8 34 -21 37
-30 9 -24 64 -21 79 4 11 17 24 20 93 21 44 0 89 5 100 10 13 6 -14 7 -80 4
-84 -5 -102 -9 -114 -25 -18 -27 -63 -26 -79 1 -10 16 -11 24 -1 35 6 8 10 17
7 20 -3 3 -8 -2 -11 -11z"/>
<path d="M1020 930 c8 -5 29 -9 45 -9 26 0 27 2 10 9 -11 5 -31 9 -45 9 -20 1
-22 -1 -10 -9z"/>
<path d="M1415 930 c-17 -7 -16 -9 10 -9 17 0 37 4 45 9 12 8 10 10 -10 9 -14
0 -34 -4 -45 -9z"/>
<path d="M965 920 c4 -7 -3 -9 -22 -5 -21 5 -24 4 -12 -4 9 -6 33 -8 53 -4 26
4 33 9 24 14 -19 12 -50 11 -43 -1z"/>
<path d="M1483 922 c-8 -5 11 -13 48 -21 39 -8 65 -9 71 -3 12 12 -37 25 -64
16 -14 -4 -18 -2 -14 5 8 13 -22 15 -41 3z"/>
<path d="M895 900 c3 -5 14 -10 23 -10 15 0 15 2 2 10 -20 13 -33 13 -25 0z"/>
<path d="M798 873 c-33 -14 -55 -30 -51 -36 4 -6 0 -8 -10 -4 -21 8 -120 -53
-215 -135 -73 -61 -79 -69 -80 -107 -1 -22 3 -43 8 -46 6 -4 8 -10 5 -15 -7
-11 52 -30 72 -23 10 4 14 2 10 -4 -8 -13 60 -39 71 -28 11 10 -21 25 -42 19
-11 -4 -16 -2 -12 4 8 13 -49 33 -71 25 -10 -4 -14 -2 -10 4 4 6 0 13 -8 17
-65 24 85 175 275 275 49 26 87 51 83 56 -5 4 3 4 16 0 17 -5 21 -4 16 5 -5 9
-1 10 15 5 15 -5 20 -4 16 4 -10 16 -24 14 -88 -16z m-108 -68 c0 -2 -10 -9
-22 -15 -22 -11 -22 -10 -4 4 21 17 26 19 26 11z m-70 -46 c-14 -11 -47 -39
-75 -62 -27 -23 -43 -33 -35 -23 16 21 122 106 130 106 3 -1 -6 -10 -20 -21z
m-147 -123 c-10 -13 -20 -22 -22 -20 -4 4 29 44 36 44 2 0 -4 -11 -14 -24z"/>
<path d="M1616 893 c-9 -10 123 -55 136 -47 16 10 -15 24 -36 18 -11 -4 -16
-2 -12 4 8 13 -22 24 -47 16 -13 -4 -17 -2 -13 5 8 12 -16 15 -28 4z"/>
<path d="M1766 842 c-3 -5 7 -15 22 -21 15 -7 34 -26 42 -44 20 -43 62 -49 86
-12 13 21 15 31 6 50 -7 14 -16 25 -22 25 -7 0 -4 -7 4 -16 19 -18 20 -28 6
-55 -18 -32 -59 -25 -75 14 -12 30 -12 33 7 43 19 10 19 11 -8 11 -16 0 -36 3
-45 7 -10 4 -20 3 -23 -2z"/>
<path d="M2240 614 l0 -136 -41 36 c-66 56 -164 66 -244 24 -158 -83 -163
-398 -7 -485 81 -46 161 -42 242 12 l50 34 0 -35 c0 -33 1 -34 40 -34 l40 0 0
360 0 360 -40 0 -40 0 0 -136z m-107 -125 c21 -5 53 -24 73 -41 l35 -31 -3
-130 -3 -131 -43 -31 c-38 -26 -53 -30 -107 -30 -75 0 -107 19 -145 86 -48 86
-23 239 47 284 51 34 90 40 146 24z"/>
<path d="M867 559 c-58 -14 -91 -34 -134 -83 -48 -54 -63 -101 -63 -193 0
-154 110 -263 265 -263 56 0 134 25 170 54 29 23 29 24 11 51 -16 24 -19 25
-34 12 -57 -50 -166 -66 -227 -35 -58 31 -105 97 -105 149 0 18 9 19 211 19
l212 0 -6 56 c-10 102 -72 194 -149 223 -40 15 -111 20 -151 10z m127 -73 c44
-18 86 -76 93 -126 l6 -40 -173 0 -173 0 6 36 c8 50 48 107 88 127 42 20 109
22 153 3z"/>
<path d="M1497 559 c-94 -15 -168 -80 -197 -173 -20 -64 -9 -185 23 -239 79
-134 269 -170 375 -72 l37 34 -23 23 c-19 19 -25 21 -40 10 -76 -55 -125 -66
-189 -41 -133 50 -155 284 -34 366 66 44 159 37 217 -18 20 -19 21 -19 44 6
l23 25 -23 25 c-41 44 -132 67 -213 54z"/>
<path d="M96 154 c-9 -8 -16 -23 -15 -32 0 -12 3 -10 9 6 5 12 20 27 32 32 16
6 18 9 6 9 -9 1 -24 -6 -32 -15z"/>
<path d="M177 129 c4 -13 8 -18 11 -10 2 7 -1 18 -6 23 -8 8 -9 4 -5 -13z"/>
<path d="M99 88 c7 -10 24 -18 36 -18 12 0 29 8 36 18 11 14 11 15 -1 5 -18
-17 -52 -17 -70 0 -12 10 -12 9 -1 -5z"/>
</g>
</svg>
