<?xml version="1.0" standalone="no"?>
<!DOCTYPE svg PUBLIC "-//W3C//DTD SVG 20010904//EN"
 "http://www.w3.org/TR/2001/REC-SVG-20010904/DTD/svg10.dtd">
<svg version="1.0" xmlns="http://www.w3.org/2000/svg"
 width="2000.000000pt" height="533.000000pt" viewBox="0 0 2000.000000 533.000000"
 preserveAspectRatio="xMidYMid meet">

<g transform="translate(0.000000,533.000000) scale(0.100000,-0.100000)"
fill="#000000" stroke="none">
<path d="M12035 5158 c-66 -35 -192 -78 -319 -109 -66 -16 -124 -33 -130 -39
-15 -15 10 -33 91 -64 80 -30 119 -66 128 -119 3 -18 4 -329 3 -692 -3 -580
-5 -660 -18 -658 -8 1 -60 11 -115 22 -146 29 -247 35 -355 21 -253 -31 -454
-120 -616 -273 -108 -102 -165 -179 -225 -302 -78 -159 -93 -228 -93 -435 -1
-153 2 -186 22 -260 86 -316 274 -513 565 -595 240 -68 466 -17 714 161 41 30
79 54 85 54 8 0 9 -37 5 -120 -6 -145 -4 -149 88 -115 76 29 215 67 364 100
79 17 124 33 148 51 33 25 44 61 20 70 -7 2 -73 -11 -147 -30 -142 -36 -162
-36 -176 6 -18 54 -1 2653 22 3178 7 166 1 180 -61 148z m-658 -1744 c184 -38
333 -145 388 -278 33 -80 45 -488 25 -886 -11 -229 -24 -278 -88 -338 -91 -85
-222 -132 -372 -132 -166 0 -282 46 -401 158 -120 112 -191 248 -230 436 -18
86 -20 125 -16 266 6 198 32 315 101 455 132 265 332 373 593 319z"/>
<path d="M19427 5144 c-32 -13 -113 -40 -180 -60 -201 -59 -201 -59 -95 -131
124 -84 113 7 111 -913 -2 -747 -6 -1073 -18 -1575 -13 -520 -31 -644 -102
-690 -14 -10 -60 -27 -102 -39 -63 -18 -77 -26 -79 -44 -3 -18 2 -22 25 -22
199 -4 749 0 764 5 21 7 26 30 8 41 -6 3 -45 15 -87 25 -87 22 -117 45 -135
103 -9 32 -12 332 -12 1311 0 699 2 1437 5 1640 l5 370 -25 2 c-14 1 -51 -9
-83 -23z"/>
<path d="M7715 5093 c-123 -45 -251 -81 -418 -118 -89 -20 -168 -43 -176 -50
-20 -20 -9 -39 51 -83 136 -101 130 -71 136 -757 7 -875 -17 -1986 -49 -2248
-8 -67 -8 -91 1 -102 7 -8 16 -13 20 -10 4 2 33 11 64 19 56 15 57 15 144 -19
329 -127 668 -143 950 -44 346 122 573 350 666 672 155 534 -126 1057 -629
1168 -35 8 -117 13 -195 13 -117 -1 -147 -4 -225 -28 -49 -15 -123 -45 -165
-67 -42 -21 -82 -39 -89 -39 -12 0 -13 92 -7 588 4 323 11 699 16 835 8 233 5
298 -17 297 -5 -1 -39 -12 -78 -27z m459 -1751 c130 -47 245 -142 318 -263 77
-126 138 -376 138 -558 0 -304 -78 -588 -192 -702 -70 -70 -143 -102 -227
-101 -178 4 -336 105 -379 244 -51 163 -57 249 -57 778 0 534 2 554 52 587 72
47 238 54 347 15z"/>
<path d="M1992 4865 c-12 -15 -24 -36 -28 -48 -20 -65 -156 -202 -243 -247
-43 -22 -51 -35 -51 -89 0 -21 -7 -62 -16 -92 -36 -123 -365 -983 -596 -1559
-264 -659 -365 -866 -474 -973 -58 -57 -109 -84 -219 -113 -120 -31 -135 -39
-135 -64 0 -29 37 -34 189 -24 148 10 452 11 682 4 114 -4 150 -2 162 9 12 9
14 18 7 31 -11 20 -32 29 -152 65 -224 66 -234 166 -66 660 78 230 162 442
184 466 16 18 37 19 464 19 l447 0 20 -22 c31 -35 233 -583 303 -824 60 -206
22 -278 -170 -320 -82 -18 -120 -36 -120 -59 0 -30 39 -37 169 -31 291 14 725
18 886 8 208 -13 276 -3 259 41 -3 10 -33 25 -69 36 -149 46 -187 85 -285 286
-158 324 -489 1145 -830 2060 -157 422 -201 547 -221 638 -39 170 -56 195 -97
142z m-241 -860 c143 -344 331 -860 327 -895 -3 -23 -8 -26 -63 -31 -78 -9
-668 -11 -689 -3 -9 3 -16 13 -16 22 0 28 296 867 345 979 14 30 30 53 36 51
6 -2 33 -57 60 -123z"/>
<path d="M9780 4431 c-75 -15 -139 -67 -171 -136 -22 -48 -25 -161 -6 -208 62
-146 239 -183 362 -75 58 51 78 106 73 196 -3 55 -10 79 -34 118 -49 79 -139
122 -224 105z"/>
<path d="M12885 4376 c-117 -52 -130 -229 -23 -297 25 -15 45 -19 81 -16 84 7
147 74 147 156 0 123 -104 202 -205 157z"/>
<path d="M15712 4373 c-82 -40 -116 -148 -73 -232 82 -160 314 -62 281 119
-19 103 -119 157 -208 113z"/>
<path d="M16509 3761 c-9 -3 -45 -41 -79 -85 -85 -105 -195 -197 -298 -249
-125 -62 -122 -81 17 -111 44 -9 87 -24 96 -32 13 -14 15 -90 15 -612 1 -654
4 -707 57 -803 46 -85 106 -145 186 -184 217 -105 535 -55 707 112 37 37 60
67 60 81 0 12 -1 22 -3 22 -2 0 -37 -17 -78 -39 -178 -92 -420 -78 -543 31
-105 92 -111 136 -121 953 -4 281 -2 435 4 445 9 13 56 15 344 11 377 -4 350
-9 369 82 10 48 9 58 -6 81 l-17 27 -237 -7 c-130 -4 -282 -8 -337 -8 l-100
-1 0 142 c0 143 -3 157 -36 144z"/>
<path d="M4275 3582 c-34 -29 -348 -155 -465 -186 -142 -38 -149 -50 -62 -121
100 -82 92 -35 91 -570 -1 -540 -10 -838 -28 -876 -16 -34 -51 -53 -131 -73
-36 -9 -74 -26 -85 -37 -20 -20 -20 -20 -1 -35 11 -8 29 -14 40 -14 12 0 199
-3 416 -6 217 -3 417 -6 443 -6 52 -1 84 19 74 45 -3 8 -34 24 -69 36 -109 36
-134 66 -149 180 -5 36 -13 326 -19 644 -8 482 -8 583 4 610 40 97 234 174
377 148 121 -21 214 -83 260 -173 47 -91 50 -129 59 -633 9 -512 12 -541 63
-644 53 -106 193 -206 325 -232 77 -15 241 -6 327 16 119 32 306 142 416 244
l24 22 3 -149 c2 -114 6 -153 16 -162 11 -9 34 -4 103 19 117 40 294 83 481
115 84 15 164 31 178 36 30 12 32 50 4 75 -19 18 -26 18 -93 5 -40 -7 -91 -15
-115 -18 -41 -4 -43 -3 -58 34 -15 35 -16 108 -9 759 4 396 7 756 8 800 l2 80
-55 -1 c-30 0 -103 -8 -161 -17 -72 -12 -169 -17 -301 -17 -196 0 -258 -9
-258 -36 0 -18 45 -40 100 -49 25 -4 64 -15 88 -26 53 -23 68 -55 82 -176 12
-110 13 -798 0 -990 -10 -166 -26 -212 -88 -261 -72 -57 -126 -76 -237 -80
-117 -5 -184 15 -253 73 -85 73 -102 178 -102 639 0 521 -37 673 -201 833
-101 99 -218 143 -380 143 -175 0 -333 -61 -509 -195 -47 -35 -91 -65 -99 -65
-12 0 -13 23 -7 136 5 99 4 139 -5 150 -13 16 -30 18 -44 6z"/>
<path d="M9899 3535 c-113 -47 -296 -104 -419 -130 -131 -28 -136 -49 -30
-130 93 -72 90 -57 89 -417 0 -172 -4 -461 -8 -643 -6 -327 -7 -330 -31 -375
-29 -51 -83 -86 -148 -96 -23 -3 -53 -15 -65 -25 -22 -19 -22 -19 -3 -34 11
-8 27 -15 35 -15 9 -1 171 -2 361 -4 190 -2 386 -6 435 -11 74 -6 94 -4 110 8
30 24 10 46 -70 79 -38 15 -77 38 -87 50 -41 55 -42 79 -43 947 -1 499 -5 836
-11 837 -5 2 -57 -17 -115 -41z"/>
<path d="M14065 3544 c-38 -8 -116 -37 -173 -65 -86 -42 -116 -63 -185 -132
-98 -96 -148 -180 -177 -292 -24 -96 -27 -245 -5 -330 21 -79 74 -191 123
-257 45 -61 182 -192 222 -213 15 -8 30 -21 33 -29 12 -31 -230 -262 -382
-366 -56 -38 -61 -44 -61 -78 0 -123 176 -302 355 -362 36 -12 65 -27 65 -34
0 -13 -89 -132 -272 -366 -118 -150 -140 -196 -146 -293 -12 -213 96 -391 301
-492 122 -60 223 -85 377 -92 216 -10 381 26 585 127 304 151 526 399 601 671
13 45 18 100 18 184 0 103 -4 131 -27 200 -47 141 -129 234 -262 296 -99 47
-174 53 -542 41 -460 -15 -596 -2 -704 66 -82 52 -102 142 -50 223 41 65 222
235 257 243 16 3 63 2 104 -4 171 -22 278 -6 416 60 148 72 250 176 325 335
72 153 82 205 84 432 0 111 5 206 9 210 4 4 88 6 186 5 l178 -4 16 31 c21 39
20 78 -2 121 l-17 35 -270 0 -270 0 -66 32 c-218 103 -447 138 -644 97z m320
-83 c113 -56 223 -195 276 -348 47 -138 62 -354 33 -472 -38 -150 -146 -298
-261 -357 -53 -27 -67 -29 -164 -29 -101 0 -108 1 -180 37 -139 69 -215 172
-275 373 -24 80 -27 107 -28 245 -1 133 2 166 22 233 44 153 112 248 221 306
79 42 122 51 215 47 62 -3 91 -10 141 -35z m458 -2076 c200 -52 307 -190 307
-394 -1 -310 -209 -582 -507 -663 -63 -17 -108 -21 -238 -21 -232 -1 -331 28
-473 135 -290 219 -296 577 -13 871 74 76 120 84 561 86 242 1 318 -2 363 -14z"/>
<path d="M12920 3507 c-46 -23 -141 -62 -210 -87 -150 -55 -157 -67 -65 -117
33 -19 75 -49 93 -68 l32 -35 -1 -232 c0 -128 -4 -417 -9 -643 -8 -455 -13
-491 -71 -539 -17 -14 -64 -36 -106 -48 -72 -21 -96 -39 -77 -58 5 -5 153 -12
329 -15 176 -3 330 -6 343 -6 72 -3 100 39 41 60 -18 6 -39 11 -47 11 -9 0
-35 9 -58 20 -80 39 -78 30 -84 570 -3 261 -3 639 0 840 3 201 4 371 2 378 -6
18 -19 15 -112 -31z"/>
<path d="M15738 3501 c-53 -26 -141 -62 -195 -81 -99 -33 -141 -59 -129 -79 4
-6 38 -27 77 -47 117 -62 109 -31 108 -438 -1 -531 -14 -953 -30 -999 -22 -58
-63 -95 -127 -113 -85 -23 -112 -35 -112 -49 0 -24 34 -27 270 -26 129 0 276
-3 325 -8 153 -14 218 27 100 62 -125 38 -143 59 -156 178 -5 46 -9 435 -7
864 1 667 -1 780 -13 782 -8 1 -58 -20 -111 -46z"/>
<path d="M17995 3507 c-190 -64 -426 -228 -540 -377 -60 -78 -69 -103 -46
-131 16 -20 20 -21 57 -9 65 22 159 66 177 84 10 10 17 33 17 54 0 62 20 112
60 156 117 127 294 141 453 35 100 -66 141 -220 135 -506 -3 -155 -5 -175 -24
-200 -18 -24 -60 -42 -272 -114 -328 -113 -446 -161 -507 -207 -56 -42 -109
-115 -125 -170 -34 -125 20 -294 125 -391 176 -162 444 -135 701 70 34 27 66
49 72 49 6 0 20 -19 31 -43 86 -178 267 -233 456 -141 84 42 165 130 165 182
0 27 0 27 -58 0 -37 -18 -64 -23 -133 -23 -78 0 -89 2 -121 27 -22 17 -43 46
-54 74 -17 44 -17 73 -5 498 12 465 8 601 -24 774 -26 134 -101 234 -222 294
-57 28 -78 33 -157 35 -74 3 -104 -1 -161 -20z m298 -1194 c-3 -351 -27 -416
-179 -485 -40 -19 -66 -23 -149 -23 -115 0 -164 17 -234 81 -66 59 -86 105
-86 199 0 105 35 183 101 224 78 50 488 203 529 198 19 -2 20 -9 18 -194z"/>
</g>
</svg>
