<?xml version="1.0" standalone="no"?>
<!DOCTYPE svg PUBLIC "-//W3C//DTD SVG 20010904//EN"
 "http://www.w3.org/TR/2001/REC-SVG-20010904/DTD/svg10.dtd">
<svg version="1.0" xmlns="http://www.w3.org/2000/svg"
 width="2501.000000pt" height="834.000000pt" viewBox="0 0 2501.000000 834.000000"
 preserveAspectRatio="xMidYMid meet">

<g transform="translate(0.000000,834.000000) scale(0.100000,-0.100000)"
fill="#000000" stroke="none">
<path d="M7540 4175 l0 -1665 250 0 250 0 0 100 c0 55 2 100 5 100 3 0 41 -20
83 -45 87 -51 201 -97 312 -127 112 -30 347 -36 477 -13 689 123 1116 788 942
1468 -50 196 -156 377 -313 533 -186 185 -395 292 -643 329 -281 42 -549 -8
-787 -149 l-76 -45 0 589 0 590 -250 0 -250 0 0 -1665z m1344 165 c123 -31
209 -81 306 -179 63 -64 95 -106 123 -161 101 -203 101 -414 0 -620 -54 -110
-179 -233 -293 -289 -111 -53 -194 -74 -305 -74 -255 0 -487 145 -598 373
-101 206 -101 391 0 599 62 130 170 240 294 299 46 23 111 48 144 56 89 21
237 20 329 -4z"/>
<path d="M10350 5375 l0 -255 250 0 250 0 0 255 0 255 -250 0 -250 0 0 -255z"/>
<path d="M2868 4065 l-926 -1555 631 0 632 1 920 1544 c506 850 921 1549 923
1555 3 7 -207 10 -625 10 l-628 0 -927 -1555z"/>
<path d="M11918 5461 l-248 -86 0 -252 0 -253 -210 0 -210 0 0 -255 0 -255
210 0 209 0 3 -697 3 -698 23 -62 c62 -166 200 -304 365 -364 59 -22 78 -23
395 -27 l332 -3 0 249 0 250 -222 4 c-206 3 -226 5 -265 25 -48 26 -94 79
-113 131 -11 29 -15 159 -17 614 l-4 578 355 2 354 3 -88 250 -87 250 -267 3
-266 2 -2 339 -3 339 -247 -87z"/>
<path d="M10350 3690 l0 -1180 250 0 250 0 0 1180 0 1180 -250 0 -250 0 0
-1180z"/>
<path d="M13052 4856 c2 -8 208 -539 458 -1180 l455 -1166 266 0 266 0 438
1123 c241 617 449 1148 461 1180 l23 57 -256 -2 -257 -3 -335 -857 c-184 -472
-337 -858 -340 -858 -3 0 -157 387 -341 860 l-335 860 -253 0 c-214 0 -253 -2
-250 -14z"/>
<path d="M16506 4855 c-505 -96 -886 -487 -962 -985 -57 -379 61 -746 326
-1010 149 -149 349 -264 547 -317 144 -38 375 -44 523 -13 122 25 253 74 361
136 42 24 79 44 82 44 4 0 7 -45 7 -100 l0 -100 250 0 250 0 0 1180 0 1180
-250 0 -250 0 0 -100 c0 -108 -3 -113 -51 -80 -59 43 -241 122 -336 146 -126
33 -372 42 -497 19z m428 -530 c192 -67 345 -221 412 -414 131 -375 -87 -776
-476 -876 -85 -22 -235 -22 -319 0 -425 110 -637 581 -435 965 90 172 238 289
427 341 107 29 283 22 391 -16z"/>
<path d="M18230 4868 c0 -2 207 -532 459 -1178 l459 -1175 267 0 267 0 459
1175 c252 646 459 1176 459 1178 0 1 -114 2 -254 2 l-254 0 -24 -62 c-246
-633 -652 -1667 -654 -1665 -2 2 -562 1431 -646 1650 l-30 77 -254 0 c-140 0
-254 -1 -254 -2z"/>
<path d="M21698 4855 c-428 -70 -791 -383 -927 -802 -42 -129 -56 -222 -55
-373 1 -243 60 -436 201 -653 57 -90 206 -243 296 -305 474 -327 1115 -272
1516 129 166 166 283 387 328 618 20 105 22 317 4 421 -81 463 -444 847 -899
951 -116 27 -346 34 -464 14z m366 -515 c218 -55 396 -223 472 -445 25 -71 28
-94 28 -205 0 -111 -3 -134 -28 -205 -41 -118 -80 -181 -170 -271 -130 -130
-289 -197 -471 -197 -469 0 -799 480 -628 913 79 200 253 357 455 410 100 26
241 26 342 0z"/>
<path d="M4936 4048 c-32 -51 -906 -1531 -906 -1534 0 -2 283 -4 629 -4 l628
0 448 758 c247 416 455 767 463 780 l14 22 -631 0 -631 0 -14 -22z"/>
</g>
</svg>
