<svg width="130" height="189" viewBox="0 0 130 189" fill="none" xmlns="http://www.w3.org/2000/svg">
<path fill-rule="evenodd" clip-rule="evenodd" d="M91.3247 80.82C97.5567 80.82 103.202 83.37 107.297 87.47C111.392 91.59 113.907 97.25 113.907 103.54C113.907 108.12 112.545 112.4 110.23 115.97L120 126.68L113.261 132.88L103.838 122.45C100.26 124.85 95.9564 126.25 91.3346 126.25C85.1026 126.25 79.4569 123.7 75.3718 119.6C71.2768 115.48 68.7621 109.82 68.7621 103.54C68.7621 97.27 71.2966 91.59 75.3718 87.47C79.447 83.35 85.0827 80.82 91.3247 80.82ZM15.7549 50.86V97.95C15.7549 98.22 15.8543 98.47 16.0233 98.64C16.1923 98.81 16.4308 98.92 16.7091 98.92H58.9817C61.8939 99.22 61.9834 104.29 58.9817 104.73H31.9264V115.53C31.9264 115.81 32.0258 116.05 32.2048 116.22C32.3737 116.39 32.6123 116.49 32.8906 116.49H58.9916C61.0988 116.73 61.7846 121.55 58.9916 122.3H32.9204C31.0717 122.3 29.3621 121.54 28.1693 120.3C26.9368 119.06 26.1814 117.38 26.1814 115.52V104.72H16.739C14.8902 104.72 13.1806 103.96 11.9879 102.72C10.7554 101.48 10 99.8 10 97.94V16.78C10.0099 14.92 10.7653 13.2 11.9978 12C13.2303 10.76 14.9002 10 16.7489 10H87.6371C89.4859 10 91.1954 10.76 92.3882 11.99C93.6207 13.23 94.3661 14.92 94.3661 16.77V27.57H103.809C105.657 27.57 107.367 28.33 108.56 29.56C109.792 30.8 110.548 32.49 110.548 34.34V71.37C110.349 73.49 105.17 73.52 104.733 71.37V34.36C104.733 34.08 104.634 33.84 104.465 33.67C104.296 33.5 104.057 33.39 103.779 33.39H94.3363V71.38C93.8294 73.3 89.5256 73.59 88.5615 71.38V50.86H15.7549ZM15.7549 45.51H88.5615V16.78C88.5615 16.5 88.4621 16.26 88.2832 16.09C88.1142 15.92 87.8757 15.81 87.5974 15.81H16.7091C16.4308 15.81 16.1923 15.91 16.0233 16.09C15.8543 16.26 15.7549 16.5 15.7549 16.78V45.51ZM48.7341 31.54H53.4255C53.674 31.54 53.8429 31.71 53.8429 31.96V42.42C53.8429 42.67 53.674 42.84 53.4255 42.84H48.7341C48.4856 42.84 48.3166 42.67 48.3166 42.42V31.96C48.3166 31.8 48.4856 31.54 48.7341 31.54ZM71.8533 31.54H76.5447C76.7932 31.54 76.9621 31.71 76.9621 31.96V42.42C76.9621 42.67 76.7932 42.84 76.5447 42.84H71.8533C71.6048 42.84 71.4358 42.67 71.4358 42.42V31.96C71.4358 31.8 71.6048 31.54 71.8533 31.54ZM60.2937 22.69H64.9851C65.2435 22.69 65.4025 22.86 65.4025 23.11V42.5C65.4025 42.75 65.2336 42.92 64.9851 42.92H60.2937C60.0452 42.92 59.8762 42.75 59.8762 42.5V23.11C59.8762 22.86 60.0452 22.69 60.2937 22.69ZM25.6248 25.89H30.3163C30.5647 25.89 30.7337 26.06 30.7337 26.31V42.5C30.7337 42.75 30.5647 42.92 30.3163 42.92H25.6248C25.3763 42.92 25.2074 42.75 25.2074 42.5V26.32C25.1279 26.06 25.3763 25.89 25.6248 25.89ZM37.1745 22.69H41.8659C42.1144 22.69 42.2834 22.86 42.2834 23.11V42.5C42.2834 42.75 42.1144 42.92 41.8659 42.92H37.1745C36.926 42.92 36.757 42.75 36.757 42.5V23.11C36.757 22.86 36.926 22.69 37.1745 22.69ZM52.4415 77.18L65.5119 77.41C65.5119 82.13 63.2059 86.46 59.3594 89.09L52.4415 77.18ZM51.7258 73.16L51.5768 57.84V56.83L52.5806 56.91C53.8131 56.99 55.0456 57.22 56.1986 57.53C57.3516 57.84 58.425 58.3 59.5084 58.84C64.8161 61.63 68.5037 67.2 68.8118 73.54L68.8913 74.55H67.8874L52.7397 74.09H51.8948L51.7258 73.16ZM53.4156 58.76L53.5646 72.23L66.8736 72.62C66.3368 67.36 63.1065 62.79 58.6437 60.4C57.7193 59.93 56.7254 59.54 55.7215 59.23C54.8767 59.07 54.1809 58.92 53.4156 58.76ZM48.0582 75.81L55.5227 88.81C53.2168 90.13 50.6822 90.82 48.0582 90.82C39.8283 90.82 33.1391 84.09 33.1391 75.8C33.1391 67.75 39.4506 61.1 47.4419 60.79L48.0582 75.81ZM103.332 91.45C100.26 88.36 96.0161 86.44 91.3247 86.44C86.6432 86.44 82.3891 88.36 79.3178 91.45C76.2465 94.54 74.3381 98.81 74.3381 103.53C74.3381 108.24 76.2465 112.52 79.3178 115.61C82.3891 118.7 86.6332 120.62 91.3247 120.62C96.0061 120.62 100.26 118.7 103.332 115.61C106.403 112.52 108.311 108.24 108.311 103.53C108.311 98.82 106.403 94.54 103.332 91.45Z" fill="white"/>
<path d="M24.24 167.88L23.136 164.784H15.936L14.856 167.88H12.36L18.432 151.08H20.736L26.784 167.88H24.24ZM19.512 154.536L16.656 162.72H22.416L19.56 154.536H19.512ZM29.4638 167.88V155.16H31.7438V156.384H31.7918C32.1278 155.952 32.6078 155.568 33.2558 155.256C33.8798 154.968 34.5518 154.8 35.2718 154.8C36.6638 154.8 37.7678 155.232 38.6078 156.072C39.4238 156.936 39.8558 158.088 39.8558 159.552V167.88H37.5038V160.224C37.5038 158.064 36.5918 156.96 34.8158 156.96C33.9038 156.96 33.1598 157.224 32.6078 157.752C32.0558 158.28 31.7918 158.976 31.7918 159.888V167.88H29.4638ZM51.2964 167.88V166.536H51.2484C51.0564 166.896 50.6484 167.28 50.0004 167.664C49.3524 168.048 48.5124 168.24 47.5044 168.24C46.0404 168.24 44.9364 167.904 44.2164 167.208C43.4964 166.512 43.1364 165.624 43.1364 164.568C43.1364 163.512 43.4484 162.672 44.0964 162.072C44.7444 161.496 45.8484 160.992 47.4084 160.608C48.7764 160.272 49.7124 159.96 50.1924 159.696C50.6724 159.456 50.9364 159.072 50.9364 158.568C50.9364 158.088 50.7204 157.68 50.3124 157.344C49.8804 157.008 49.2564 156.84 48.4404 156.84C46.8564 156.84 45.8724 157.656 45.4884 159.24L43.4484 158.52C43.6644 157.416 44.1924 156.528 45.0564 155.832C45.8964 155.16 47.0004 154.8 48.3924 154.8C49.8804 154.8 51.0564 155.184 51.9684 155.952C52.8804 156.72 53.3364 157.896 53.3364 159.48V167.88H51.2964ZM47.9364 162.312C46.9284 162.6 46.2564 162.888 45.9204 163.2C45.5844 163.536 45.4164 163.944 45.4164 164.424C45.4164 165.6 46.1844 166.176 47.7204 166.176C48.7764 166.176 49.6164 165.96 50.1924 165.48C50.7684 165.024 51.0564 164.448 51.0564 163.776V160.92H51.0084C50.9364 161.064 50.8404 161.208 50.7204 161.304C50.5764 161.4 50.2884 161.544 49.8324 161.736C49.3524 161.928 48.7284 162.12 47.9364 162.312ZM57.3405 167.88V150.36H59.7405V167.88H57.3405ZM64.7701 173.28L67.2181 166.992L62.4181 155.16H64.8661L68.3461 164.256L71.8021 155.16H74.2021L67.0501 173.28H64.7701ZM77.9177 163.896V157.2H76.0457V155.16H77.9657V152.04H80.1977V155.16H83.3657V157.2H80.2217V163.656C80.2217 164.376 80.3177 164.904 80.5337 165.192C80.7497 165.48 81.1817 165.624 81.8537 165.624H82.8137V167.88H81.6857C80.2937 167.88 79.3337 167.568 78.7577 166.896C78.1817 166.248 77.9177 165.24 77.9177 163.896ZM86.7477 167.88V155.16H89.0757V167.88H86.7477ZM86.6517 152.832V150.36H89.1717V152.832H86.6517ZM101.47 162.912L103.798 163.488C103.558 164.976 102.982 166.128 102.046 166.968C101.086 167.832 99.8625 168.24 98.3745 168.24C96.6465 168.24 95.2545 167.64 94.1745 166.44C93.0945 165.24 92.5665 163.608 92.5665 161.52C92.5665 159.432 93.1185 157.8 94.2465 156.6C95.3505 155.4 96.7425 154.8 98.3985 154.8C99.8385 154.8 101.062 155.256 102.022 156.12C102.982 156.984 103.558 158.112 103.726 159.504L101.446 159.864C101.302 159.024 100.99 158.328 100.486 157.776C99.9825 157.224 99.2865 156.936 98.3985 156.936C97.3185 156.936 96.4545 157.344 95.8305 158.136C95.1825 158.952 94.8705 160.08 94.8705 161.52C94.8705 162.984 95.1825 164.112 95.8065 164.928C96.4305 165.744 97.3185 166.128 98.4225 166.128C99.3105 166.128 100.006 165.84 100.51 165.216C100.99 164.616 101.326 163.848 101.47 162.912ZM106.115 163.608L108.275 163.128C108.515 165.216 109.595 166.248 111.563 166.248C112.475 166.248 113.195 166.08 113.699 165.744C114.179 165.408 114.443 164.976 114.443 164.424C114.443 163.872 114.203 163.464 113.747 163.176C113.267 162.888 112.307 162.552 110.843 162.12C109.307 161.712 108.203 161.232 107.555 160.68C106.883 160.128 106.571 159.384 106.571 158.424C106.571 157.464 106.955 156.6 107.771 155.88C108.587 155.16 109.691 154.8 111.107 154.8C112.523 154.8 113.651 155.136 114.491 155.808C115.307 156.48 115.883 157.392 116.195 158.496L114.179 159.048C113.675 157.536 112.667 156.768 111.131 156.768C110.363 156.768 109.763 156.936 109.355 157.248C108.923 157.56 108.731 157.92 108.731 158.352C108.731 158.832 108.947 159.192 109.379 159.432C109.811 159.672 110.819 160.032 112.403 160.464C113.987 160.92 115.067 161.448 115.667 162.048C116.267 162.648 116.579 163.44 116.579 164.448C116.579 165.456 116.171 166.344 115.355 167.112C114.515 167.88 113.267 168.24 111.635 168.24C109.907 168.24 108.611 167.808 107.699 166.92C106.787 166.056 106.259 164.952 106.115 163.608Z" fill="white"/>
</svg>
