<svg width="114" height="169" viewBox="0 0 114 169" fill="none" xmlns="http://www.w3.org/2000/svg">
<path d="M42.8811 62.3135C42.1341 61.5455 42.1521 60.3175 42.9191 59.5705C43.6871 58.8235 44.9151 58.8405 45.6621 59.6085L52.2201 66.3635L67.3271 50.3785C68.0621 49.5975 69.2901 49.5605 70.0701 50.2955C70.8501 51.0305 70.8881 52.2575 70.1541 53.0385L53.6521 70.4985C53.6321 70.5185 53.6121 70.5395 53.5921 70.5595C52.8241 71.3065 51.5961 71.2895 50.8491 70.5215L42.8811 62.3135ZM44.1311 102.058C42.9931 102.083 41.9921 101.252 41.8321 100.097C41.6651 98.8965 42.4721 97.7845 43.6491 97.5555C42.3451 90.1875 38.7981 86.1265 35.0481 81.8355C32.1291 78.4945 29.0981 75.0255 26.7091 69.9165C24.3551 64.8825 23.0661 59.6865 23.1131 54.2885C23.1591 48.8885 24.5381 43.3275 27.5161 37.5745C27.5351 37.5385 27.5551 37.5025 27.5751 37.4675H27.5741C31.4861 30.8475 36.9511 26.4295 43.0421 23.9435C48.1531 21.8575 53.7041 21.1455 59.1431 21.6435C64.5651 22.1405 69.8721 23.8405 74.5081 26.5815C80.4131 30.0715 85.2581 35.2495 87.9271 41.7875C89.3711 45.3265 90.3481 49.2805 90.4661 53.6035C90.5851 57.9155 89.8451 62.5625 87.8581 67.4825C85.1951 74.0735 81.6781 78.1645 78.3851 81.9955C75.3541 85.5225 72.5311 88.8085 70.9671 93.8345C71.8531 94.0455 72.5621 94.7795 72.6941 95.7345C72.8671 96.9785 71.9981 98.1255 70.7551 98.2975L69.9871 98.4055C69.8461 99.5005 69.7551 100.668 69.7171 101.92L69.9691 101.884C71.2121 101.712 72.3601 102.581 72.5321 103.824C72.7041 105.067 71.8361 106.215 70.5931 106.387L69.8151 106.497C69.8261 106.647 69.8351 106.798 69.8461 106.951L69.8471 106.95C69.9161 107.83 69.9231 108.679 69.8741 109.495L70.0051 109.479C71.2531 109.327 72.3891 110.214 72.5411 111.463C72.6931 112.711 71.8051 113.847 70.5571 113.999L68.8751 114.205C67.6781 117.317 65.5391 119.681 63.0091 121.15C61.2711 122.16 59.3421 122.744 57.3991 122.86C55.4261 122.977 53.4411 122.614 51.6221 121.725C49.5381 120.706 47.6791 119.015 46.3291 116.586C45.6781 116.253 45.1991 115.613 45.1031 114.833C45.0661 114.525 45.0911 114.225 45.1701 113.944C44.7801 112.788 44.4851 111.513 44.3011 110.117L44.2321 110.127C42.9891 110.299 41.8411 109.431 41.6691 108.187C41.4971 106.945 42.3651 105.797 43.6081 105.624L44.1501 105.548C44.1881 104.317 44.1801 103.155 44.1311 102.058ZM2.18108 58.8565C1.01408 58.8935 0.0380814 57.9765 0.00108145 56.8095C-0.0359186 55.6425 0.881082 54.6665 2.04808 54.6295L10.7501 54.3295C11.9171 54.2925 12.8931 55.2095 12.9301 56.3765C12.9671 57.5435 12.0501 58.5195 10.8821 58.5565L2.18108 58.8565ZM110.682 50.2515C111.844 50.1325 112.883 50.9795 113.002 52.1415C113.121 53.3035 112.275 54.3435 111.112 54.4615L102.453 55.3745C101.29 55.4935 100.251 54.6475 100.133 53.4845C100.014 52.3215 100.86 51.2825 102.023 51.1635L110.682 50.2515ZM94.9081 14.7835C95.5581 13.8135 96.8721 13.5535 97.8431 14.2035C98.8131 14.8535 99.0721 16.1665 98.4231 17.1375L93.5871 24.3785C92.9371 25.3485 91.6231 25.6085 90.6521 24.9585C89.6821 24.3085 89.4231 22.9945 90.0721 22.0245L94.9081 14.7835ZM57.6261 2.06445C57.6531 0.897455 58.6221 -0.0265451 59.7891 0.000454893C60.9561 0.0284549 61.8801 0.996455 61.8521 2.16445L61.6321 10.8685C61.6051 12.0355 60.6361 12.9595 59.4691 12.9325C58.3021 12.9055 57.3771 11.9365 57.4061 10.7695L57.6261 2.06445ZM13.8851 15.5285C13.0291 14.7325 12.9811 13.3925 13.7771 12.5365C14.5731 11.6805 15.9131 11.6325 16.7691 12.4295L23.1341 18.3705C23.9901 19.1665 24.0381 20.5065 23.2411 21.3625C22.4451 22.2185 21.1051 22.2665 20.2491 21.4705L13.8851 15.5285ZM47.8811 96.9505L66.3731 94.3255C67.9651 87.6245 71.4261 83.5965 75.1701 79.2405C78.2461 75.6625 81.5321 71.8395 83.9301 65.9045C85.6881 61.5525 86.3431 57.4755 86.2411 53.7165C86.1381 49.9685 85.2761 46.5035 84.0001 43.3765C81.7011 37.7445 77.4951 33.2645 72.3551 30.2265C68.2441 27.7965 63.5501 26.2905 58.7631 25.8525C53.9901 25.4155 49.1191 26.0405 44.6351 27.8715C39.3751 30.0185 34.6451 33.8465 31.2411 39.5895C28.6021 44.7105 27.3821 49.6095 27.3411 54.3205C27.3001 59.0575 28.4461 63.6505 30.5391 68.1255C32.6721 72.6865 35.5041 75.9285 38.2311 79.0495C42.4691 83.9005 46.4751 88.4885 47.8811 96.9505ZM65.6241 99.0235L48.3541 101.474C48.4081 102.572 48.4251 103.727 48.4011 104.944L65.4541 102.523C65.4671 101.288 65.5241 100.124 65.6241 99.0235ZM48.4871 109.522C48.6071 110.443 48.7841 111.288 49.0121 112.059L65.5651 110.023C65.6721 109.165 65.6961 108.25 65.6201 107.28V107.263L65.6081 107.091L48.4871 109.522ZM51.3741 116.358C52.0131 117.028 52.7241 117.544 53.4781 117.912C54.6321 118.476 55.8941 118.706 57.1501 118.632C58.4341 118.556 59.7191 118.164 60.8861 117.486C61.9831 116.849 62.9731 115.957 63.7631 114.834L51.3741 116.358Z" fill="white"/>
<path d="M33.7868 157.882V141.082H36.1868V157.882H33.7868ZM48.927 153.346V149.938C48.927 149.17 48.639 148.474 48.087 147.85C47.511 147.25 46.767 146.938 45.831 146.938C44.679 146.938 43.815 147.346 43.191 148.138C42.567 148.93 42.279 150.058 42.279 151.522C42.279 153.01 42.567 154.138 43.191 154.93C43.791 155.746 44.679 156.13 45.831 156.13C46.743 156.13 47.487 155.866 48.063 155.314C48.639 154.762 48.927 154.114 48.927 153.346ZM49.119 157.882V156.658H49.071C48.135 157.714 46.935 158.242 45.471 158.242C43.791 158.242 42.447 157.642 41.439 156.418C40.431 155.218 39.951 153.586 39.951 151.522C39.951 149.506 40.479 147.874 41.535 146.65C42.591 145.426 43.911 144.802 45.447 144.802C46.815 144.802 47.967 145.33 48.879 146.386H48.927V140.362H51.255V157.882H49.119ZM64.131 153.826L65.883 155.146C65.379 156.058 64.683 156.802 63.819 157.378C62.931 157.954 61.851 158.242 60.603 158.242C58.827 158.242 57.411 157.642 56.307 156.418C55.203 155.194 54.651 153.562 54.651 151.522C54.651 149.506 55.179 147.874 56.283 146.65C57.387 145.426 58.779 144.802 60.483 144.802C62.163 144.802 63.555 145.426 64.635 146.626C65.691 147.826 66.243 149.458 66.243 151.522V152.218H57.027C57.051 153.37 57.363 154.306 57.963 155.05C58.563 155.794 59.427 156.154 60.555 156.154C61.083 156.154 61.539 156.082 61.947 155.938C62.355 155.794 62.715 155.578 63.003 155.29C63.291 155.002 63.507 154.762 63.651 154.57C63.771 154.402 63.939 154.162 64.131 153.826ZM57.051 150.394H63.915C63.867 149.434 63.555 148.594 63.003 147.922C62.427 147.25 61.587 146.89 60.483 146.89C59.403 146.89 58.563 147.274 57.987 147.994C57.387 148.714 57.075 149.53 57.051 150.394ZM76.9721 157.882V156.538H76.9241C76.7321 156.898 76.3241 157.282 75.6761 157.666C75.0281 158.05 74.1881 158.242 73.1801 158.242C71.7161 158.242 70.6121 157.906 69.8921 157.21C69.1721 156.514 68.8121 155.626 68.8121 154.57C68.8121 153.514 69.1241 152.674 69.7721 152.074C70.4201 151.498 71.5241 150.994 73.0841 150.61C74.4521 150.274 75.3881 149.962 75.8681 149.698C76.3481 149.458 76.6121 149.074 76.6121 148.57C76.6121 148.09 76.3961 147.682 75.9881 147.346C75.5561 147.01 74.9321 146.842 74.1161 146.842C72.5321 146.842 71.5481 147.658 71.1641 149.242L69.1241 148.522C69.3401 147.418 69.8681 146.53 70.7321 145.834C71.5721 145.162 72.6761 144.802 74.0681 144.802C75.5561 144.802 76.7321 145.186 77.6441 145.954C78.5561 146.722 79.0121 147.898 79.0121 149.482V157.882H76.9721ZM73.6121 152.314C72.6041 152.602 71.9321 152.89 71.5961 153.202C71.2601 153.538 71.0921 153.946 71.0921 154.426C71.0921 155.602 71.8601 156.178 73.3961 156.178C74.4521 156.178 75.2921 155.962 75.8681 155.482C76.4441 155.026 76.7321 154.45 76.7321 153.778V150.922H76.6841C76.6121 151.066 76.5161 151.21 76.3961 151.306C76.2521 151.402 75.9641 151.546 75.5081 151.738C75.0281 151.93 74.4041 152.122 73.6121 152.314Z" fill="white"/>
</svg>
