<svg width="110" height="127" viewBox="0 0 110 127" fill="none" xmlns="http://www.w3.org/2000/svg">
<path d="M107.105 55.8307H97.5018C95.9033 55.8307 94.6074 56.9569 94.6074 58.3461V78.2667C94.6074 79.6559 95.9033 80.7822 97.5018 80.7822H107.105C108.704 80.7822 110 79.6561 110 78.2667V58.3461C110 56.9569 108.704 55.8307 107.105 55.8307Z" fill="white"/>
<path d="M83.4531 46.2661H73.8496C72.2512 46.2661 70.9551 47.3922 70.9551 48.7814V78.2667C70.9551 79.6559 72.2509 80.7822 73.8496 80.7822H83.4531C85.0516 80.7822 86.3474 79.6561 86.3474 78.2667V48.7816C86.3477 47.3922 85.0518 46.2661 83.4531 46.2661Z" fill="white"/>
<path d="M36.1501 55.8307H26.5467C24.9482 55.8307 23.6523 56.9569 23.6523 58.3461V78.2667C23.6523 79.6559 24.9482 80.7822 26.5467 80.7822H36.1501C37.7486 80.7822 39.0447 79.6561 39.0447 78.2667V58.3461C39.0447 56.9569 37.7486 55.8307 36.1501 55.8307Z" fill="white"/>
<path d="M12.498 46.2661H2.89457C1.29583 46.2661 0 47.3922 0 48.7816V78.2669C0 79.6561 1.29583 80.7824 2.89457 80.7824H12.498C14.0965 80.7824 15.3923 79.6563 15.3923 78.2669V48.7816C15.3923 47.3922 14.0965 46.2661 12.498 46.2661Z" fill="white"/>
<path d="M59.8017 33.5487H50.1983C48.5998 33.5487 47.3037 34.6748 47.3037 36.0642V78.2669C47.3037 79.6561 48.5995 80.7824 50.1983 80.7824H59.8017C61.4002 80.7824 62.6963 79.6563 62.6963 78.2669V36.0642C62.6963 34.6748 61.4002 33.5487 59.8017 33.5487Z" fill="white"/>
<path d="M104.526 43.4569C106.473 43.4569 108.115 42.0777 108.115 40.338V30.2578C108.115 28.5353 106.508 27.1389 104.526 27.1389C102.544 27.1389 100.937 28.5353 100.937 30.2578V32.7777L64.4856 0.919704C63.7324 0.26161 62.6826 -0.0714918 61.6171 0.0127193C60.5534 0.0965146 59.5877 0.587642 58.9826 1.35282L31.5215 36.089L7.40334 22.7366C5.73163 21.8111 3.51296 22.2384 2.44825 23.6914C1.38331 25.1442 1.87499 27.0721 3.54694 27.9976L30.5884 42.9685C31.1854 43.2989 31.8531 43.4574 32.5135 43.4574C33.6579 43.4574 34.7805 42.9822 35.4746 42.1044L62.4478 7.98533L95.8957 37.2191H92.9265C90.9445 37.2191 89.3376 38.6155 89.3376 40.338C89.3376 42.0605 90.9445 43.4569 92.9265 43.4569C94.532 43.4569 102.891 43.4569 104.517 43.4569H104.526Z" fill="white"/>
<path d="M22.4422 116.142C21.4342 116.142 20.5222 115.974 19.6822 115.638C18.8422 115.302 18.0982 114.774 17.4262 114.078C16.7542 113.406 16.2262 112.47 15.8422 111.294C15.4582 110.118 15.2662 108.75 15.2662 107.19C15.2662 105.822 15.4582 104.574 15.8662 103.47C16.2502 102.366 16.8022 101.454 17.4742 100.758C18.1462 100.086 18.8902 99.5584 19.7542 99.1744C20.5942 98.8144 21.4822 98.6224 22.4182 98.6224C24.0742 98.6224 25.4902 99.1504 26.6422 100.158C27.7942 101.19 28.4902 102.534 28.7782 104.214L26.3302 104.646C25.8022 102.15 24.5062 100.878 22.4422 100.878C21.0982 100.878 19.9942 101.43 19.1062 102.51C18.1942 103.59 17.7622 105.15 17.7622 107.19C17.7622 109.398 18.1942 111.078 19.0582 112.206C19.9222 113.334 21.0502 113.886 22.4422 113.886C23.7142 113.886 24.7222 113.502 25.4422 112.734C26.1622 111.966 26.5222 110.91 26.5222 109.518H22.6582V107.382H28.8742V109.206C28.8742 111.366 28.2742 113.07 27.0982 114.294C25.8982 115.542 24.3622 116.142 22.4422 116.142ZM32.3972 115.782V103.062H34.6292V104.43H34.6772C34.9172 103.95 35.3012 103.566 35.7812 103.278C36.2612 102.99 36.7652 102.846 37.2932 102.846C37.7252 102.846 38.0852 102.942 38.4212 103.086L38.0132 105.39C37.7012 105.27 37.3652 105.198 37.0292 105.198C35.4932 105.198 34.7252 106.254 34.7252 108.318V115.782H32.3972ZM45.8784 114.03C46.8864 114.03 47.7264 113.646 48.3744 112.83C48.9984 112.014 49.3344 110.886 49.3344 109.422C49.3344 107.982 48.9984 106.878 48.3744 106.062C47.7264 105.246 46.8864 104.838 45.8784 104.838C44.8224 104.838 43.9584 105.246 43.3104 106.038C42.6624 106.83 42.3504 107.958 42.3504 109.422C42.3504 110.91 42.6624 112.038 43.3344 112.83C43.9824 113.646 44.8224 114.03 45.8784 114.03ZM45.8784 116.142C44.1744 116.142 42.7824 115.566 41.6784 114.366C40.5744 113.19 40.0464 111.534 40.0464 109.422C40.0464 107.358 40.5984 105.702 41.7264 104.502C42.8304 103.302 44.2224 102.702 45.8784 102.702C47.4864 102.702 48.8544 103.302 49.9584 104.502C51.0624 105.702 51.6384 107.358 51.6384 109.422C51.6384 111.534 51.0864 113.19 50.0064 114.366C48.9264 115.566 47.5584 116.142 45.8784 116.142ZM61.5514 103.062H63.6634L66.9034 112.278H66.9514L68.8234 103.062H71.1274L68.3194 115.782H66.0634L62.6314 105.798H62.5834L59.1514 115.782H56.8954L54.0874 103.062H56.3914L58.3114 112.278H58.3594L61.5514 103.062ZM74.9635 111.798V105.102H73.0915V103.062H75.0115V99.9424H77.2435V103.062H80.4115V105.102H77.2675V111.558C77.2675 112.278 77.3635 112.806 77.5795 113.094C77.7955 113.382 78.2275 113.526 78.8995 113.526H79.8595V115.782H78.7315C77.3395 115.782 76.3795 115.47 75.8035 114.798C75.2275 114.15 74.9635 113.142 74.9635 111.798ZM83.6975 115.782V98.2624H86.0255V104.334H86.0735C86.3855 103.878 86.8655 103.494 87.5135 103.182C88.1615 102.87 88.8575 102.702 89.6015 102.702C90.9455 102.702 92.0495 103.134 92.8895 103.95C93.7055 104.79 94.1375 105.942 94.1375 107.43V115.782H91.8095V108.006C91.8095 107.046 91.5695 106.302 91.1135 105.726C90.6335 105.15 89.9615 104.862 89.0495 104.862C88.1375 104.862 87.4175 105.15 86.8655 105.678C86.2895 106.23 86.0255 106.926 86.0255 107.79V115.782H83.6975Z" fill="white"/>
</svg>
