<svg width="188" height="74" viewBox="0 0 188 74" fill="none" xmlns="http://www.w3.org/2000/svg">
<path d="M140.22 62.437C140.447 62.8813 140.818 63.2066 141.291 63.3751C141.763 63.5437 142.318 63.5486 142.891 63.3894C144.937 62.8169 146.905 62.7147 148.925 62.1791C149.154 62.1127 149.388 61.8205 149.629 61.6623C149.869 61.5041 149.981 61.4639 150.056 61.5127C151.098 62.1009 152.332 61.2335 153.494 60.9435C153.836 59.652 154.102 60.7885 154.403 60.6905C156.225 60.1564 158.048 59.4795 159.853 58.6661C161.603 57.8192 163.331 56.9696 165.068 56.0946C167.397 54.8523 169.653 53.3495 171.781 51.6213C174.267 49.6183 176.56 47.3303 178.588 44.8284C180.094 42.9365 181.492 40.9729 182.773 38.9532C184.226 36.8138 185.434 34.5621 186.362 32.2626C187.067 30.7769 187.512 29.2497 187.67 27.7681C187.749 27.2278 187.634 26.7381 187.346 26.3907C187.058 26.0432 186.617 25.8617 186.106 25.8801C184.76 25.6236 183.308 25.6243 181.809 25.8824C181.459 25.9258 181.097 26.0747 180.768 26.3108C180.438 26.5468 180.155 26.8597 179.953 27.211C179.752 27.5623 179.64 27.9366 179.633 28.288C179.625 28.6394 179.721 28.9526 179.91 29.1889C179.979 29.3168 180.146 29.4963 180.098 29.5572C178.803 31.2432 178.039 33.1512 176.803 34.8974C175.568 36.6436 174.395 38.2906 173.145 39.9819C170.104 43.9762 166.341 47.4108 162.195 49.9781C161.013 50.745 159.73 51.2205 158.503 51.889C157.897 52.2175 157.239 52.6198 157.695 53.3657C157.762 53.4668 157.529 53.7858 157.444 54.0022C157.334 53.8978 157.209 53.8115 157.069 53.7452C156.728 53.7052 156.267 53.4247 156.116 53.5668C155.177 54.4689 154.355 54.0795 153.498 54.3519C152.605 54.6958 151.728 55.1831 150.907 55.7927C150.163 56.3884 149.309 56.7384 148.508 56.7767C148.304 56.7527 148.112 56.9966 147.858 56.767C147.615 56.5691 147.302 56.4616 146.951 56.4555C146.6 56.4495 146.223 56.5451 145.86 56.7325C145.654 56.7699 145.444 56.8806 145.268 57.0452C145.092 57.2098 144.961 57.4176 144.899 57.6319C144.828 57.8102 144.598 57.9429 144.441 58.0977C144.51 57.8728 144.538 57.6497 144.522 57.4412C144.44 57.0454 143.708 57.1195 143.726 57.3479C143.824 57.8522 143.759 58.4705 143.271 57.9872C142.616 57.3244 142.113 57.332 141.192 58.0097C140.842 58.2239 140.472 58.367 140.11 58.4289C139.957 58.4376 139.811 58.4205 139.678 58.3783C140.024 57.4999 139.647 57.975 139.173 57.9994C137.605 58.2385 136.077 58.2697 134.626 58.0923C134.011 57.8294 133.255 57.8301 132.484 58.0941C132.008 58.3047 131.422 57.7698 130.929 57.6321C130.435 57.4944 130.041 57.5281 129.834 58.2362C129.834 58.2362 129.226 58.418 129.107 58.2975C128.66 57.8323 128.356 57.1841 127.375 57.6816C127.375 57.6816 127.085 57.4212 127.134 57.2671C127.328 56.624 127.161 56.6844 126.633 56.9686C126.434 57.0786 126.155 56.6996 125.868 56.6127C123.864 55.9497 122 55.0439 120.306 53.9097C119.914 53.7881 119.6 53.539 119.399 53.1908C119.177 52.5787 119.858 52.4189 120.116 52.0363C120.332 51.6727 120.424 51.278 120.372 50.9343C120.307 50.5271 120.282 50.2579 120.774 49.916C121.082 49.6706 121.382 49.4125 121.673 49.1426L121.07 48.7122C121.362 48.4508 121.594 48.1249 121.735 47.7781C121.791 47.6381 121.76 47.7145 121.86 47.7928L121.582 47.9865C121.546 47.8868 121.52 47.7812 121.504 47.6711C121.504 47.6711 121.624 47.5786 121.74 47.7654C121.857 47.9522 122.275 47.8281 122.335 47.6753C122.735 46.3904 123.709 45.0663 123.479 43.7476C123.419 43.4475 123.79 42.9584 123.946 42.5638C125.055 40.3233 125.01 38.1739 125.46 35.976C125.921 33.3963 126.002 30.8819 125.698 28.5196C125.641 27.9402 126.605 26.7615 125.377 26.7374C125.326 26.0522 125.276 25.3938 125.245 24.6577C125.254 23.9328 125.211 23.2246 125.117 22.5385C124.89 21.8868 124.614 21.267 124.289 20.6835C124.014 20.0521 123.772 19.3978 123.432 18.8119C123.092 18.226 122.534 17.5879 122.222 16.8721C121.909 16.1562 120.868 16.2606 120.574 15.3471C120.38 14.7518 119.114 14.8831 118.565 14.4058C117.953 13.798 117.233 13.3102 116.423 12.9561C116.037 12.8177 115.878 12.5592 115.342 12.9226C114.806 13.2859 114.75 12.8532 114.545 12.5894C114.339 12.3256 113.969 12.2689 113.643 12.9764L113.678 12.8873C113.776 12.9376 113.868 12.9973 113.952 13.066C113.952 13.066 113.877 13.2569 113.757 13.3494C113.685 13.2551 113.642 13.1359 113.633 13.0019C113.34 12.2351 112.553 12.6622 111.997 12.6236C110.77 12.5732 109.465 12.8011 108.163 13.2928C107.618 13.4686 106.825 13.3357 106.439 14.3159C106.162 14.4354 105.881 14.4765 105.631 14.4342C104.967 14.2765 104.468 14.3645 104.279 15.3278C104.117 16.0412 103.323 15.5487 102.833 16.49C102.287 17.4284 101.795 18.3851 101.359 19.3536C100.641 21.1739 99.9239 22.9941 99.2064 24.8144C99.3682 25.0444 99.4715 25.3216 99.5102 25.6298C99.5489 25.9381 99.5223 26.2713 99.4319 26.61C99.3416 26.9488 99.1892 27.2865 98.9837 27.6033C98.7782 27.9202 98.5237 28.2101 98.2349 28.456C98.1947 28.5578 98.1145 28.7615 98.0542 28.9143C98.1911 28.9571 98.3408 28.9746 98.4978 28.9663C98.9168 28.9416 99.3477 28.8624 99.7807 28.7305C99.8603 28.7398 99.9865 28.2086 100.017 27.9192C100.667 27.9021 100.977 28.8042 100.621 29.588C100.565 29.701 100.519 29.8162 100.485 29.9317C100.42 30.0972 100.355 30.2627 100.29 30.4282C100.096 30.4055 99.846 30.3762 99.7874 30.2228C99.7289 30.0695 99.867 29.7794 99.8513 29.5777C99.8306 29.5165 99.793 29.4668 99.742 29.4329C99.691 29.399 99.6281 29.3821 99.5589 29.3837C99.3696 29.4414 99.0819 29.5674 98.9989 29.7175C98.8078 30.1114 98.6498 30.5121 98.5272 30.9141C98.3115 31.4614 99.3907 31.5613 98.549 32.3682C97.7073 33.1751 98.7858 33.488 98.5868 34.1439C98.3877 34.7997 98.7828 35.1257 99.2625 35.4483C99.4449 35.5895 99.1133 36.3097 99.0906 36.7599C99.0779 38.0901 99.0892 38.0915 100.4 37.3928C100.578 37.3189 100.758 37.2683 100.935 37.2425C100.91 37.3927 100.874 37.5443 100.828 37.696C100.733 37.9274 100.615 38.1548 100.477 38.374C99.7399 39.4595 99.6586 39.7563 100.484 39.9863C101.127 40.1681 101.106 40.432 100.868 41.0966C100.821 41.2859 100.818 41.4699 100.859 41.6326C100.901 41.7953 100.986 41.9318 101.106 42.0302C101.584 42.2061 101.662 42.4017 101.472 43.0053C101.321 43.3871 101.518 44.156 101.669 44.1338C102.792 43.9724 102.328 45.0899 102.635 45.5787C103.475 46.7692 104.304 47.9851 105.177 49.1528C105.532 49.8259 106.038 50.3778 106.666 50.779C107.553 51.1228 107.066 51.7848 106.651 52.1755C105.859 53.0661 105.023 53.916 104.149 54.7188C103.147 55.486 102.239 56.3995 101.468 57.4142C100.806 58.3088 99.4123 58.8246 98.3147 59.3751C97.2172 59.9256 96.2802 60.0688 95.2936 60.5791C94.5006 60.9288 93.7028 61.2398 92.9034 61.5107C92.175 61.8428 91.4335 62.0449 90.717 62.1067C90.2155 62.1411 89.5304 62.9131 88.9138 63.3602C88.7702 63.457 88.6237 63.5465 88.4749 63.6284C88.1575 62.5924 86.9776 63.5327 86.2303 63.2853C85.5047 62.9803 84.6056 63.0075 83.7012 63.3617C82.6063 63.9658 81.9594 63.011 80.8497 63.7732C80.363 64.1023 79.5862 63.7183 78.9443 63.6563C78.0116 63.547 77.0488 63.514 76.1576 63.3296C75.2665 63.1452 74.292 63.4438 73.6581 62.637C73.1927 62.0365 71.6827 62.8183 71.3083 61.7756C69.7441 61.6987 68.6412 60.7837 67.277 60.4107C65.1377 59.8003 63.5998 58.3282 61.677 57.4103C59.8103 56.3241 58.0847 55.0484 56.5169 53.5958C55.1761 52.5596 54.2331 50.9975 52.4591 50.4565C51.6669 48.6324 50.0154 47.5998 48.8465 46.1576C47.4977 44.508 46.2081 42.7986 44.8707 41.1503C44.1899 40.3114 43.7878 39.2787 43.0743 38.4626C41.6231 36.5808 40.3181 34.5688 39.1663 32.4378C38.3732 31.1595 37.7754 29.7177 36.928 28.4864C36.0807 27.2551 35.3611 25.6392 34.3659 24.3906C33.5948 23.328 33.1877 21.8553 32.3092 20.7934C31.5617 19.9076 30.9653 18.8843 30.5346 17.7488C30.0972 16.6707 29.5721 15.6523 28.9633 14.7013C28.3755 13.6868 27.9554 12.5189 27.2642 11.5856C26.7551 10.6276 26.1128 9.77445 25.3507 9.04401C25.2598 9.03334 25.2895 8.83707 25.2728 8.72857C25.4151 8.6572 25.5616 8.61528 25.702 8.60576C26.3389 8.68043 26.9873 8.75644 27.6242 8.83111C28.1513 8.9605 28.7441 8.93857 29.351 8.76722C29.8331 8.5707 30.4081 9.10424 30.9113 9.21649C31.4144 9.32875 32.0487 9.34985 32.6287 9.41786L36.2684 9.84457C36.9299 9.87543 37.5756 9.95114 38.202 10.0713C38.7138 10.1313 39.06 10.6113 39.5668 10.6841C40.0736 10.7568 41.0692 10.3142 41.3492 10.6001C41.7623 11.0613 42.4866 10.7334 42.8061 11.1304C43.3115 11.6292 44.2897 10.3855 44.7001 11.246C44.9122 11.6437 45.9627 11.394 46.5417 11.5551C48.0086 12.06 49.7157 11.2613 51.2944 11.0602C51.4309 11.0762 51.7055 10.8021 51.8035 10.6138C52.4321 9.50228 52.2869 9.08574 51.464 8.45656C50.6363 7.77981 49.6121 7.35086 48.4612 7.19894C47.6105 7.02768 46.7981 6.77654 46.0322 6.44805C45.228 6.19395 44.0505 6.61523 43.6019 5.67037C43.5638 5.58599 43.3289 5.63837 43.1811 5.62103C40.5229 5.14958 37.8484 4.68952 35.1939 4.17854C34.28 3.99149 33.4627 3.58937 32.5538 3.38959C31.524 3.36761 30.5337 3.22919 29.5989 2.97657C28.3388 2.30945 26.6604 2.55216 25.4725 1.97341C23.4787 0.993882 20.9651 1.15197 18.7077 0.780777C17.4225 0.630092 15.9894 0.462074 15.0654 2.56444C14.9751 2.79357 14.4903 2.9365 14.2371 3.18647C14.029 3.43556 13.8413 3.69923 13.6771 3.97313C13.9174 3.89082 14.1579 3.82555 14.3967 3.77783C14.3967 3.77783 14.5074 4.07048 14.4495 4.15692C14.2481 4.42629 13.9644 4.63274 13.7631 4.90212C13.2646 5.56282 13.4616 6.45155 12.6129 7.0046C12.8889 6.3045 13.0626 5.5924 13.2653 4.89702C13.2904 4.83338 13.2332 4.70682 13.2054 4.71688C13.1776 4.72694 12.8923 4.78671 12.8508 4.86175C12.1496 6.21783 11.4826 7.5779 10.7864 8.92125C10.2448 9.9631 9.61725 10.9815 9.1275 12.0428C8.79519 13.1611 8.33213 14.2749 7.74957 15.3571C6.51482 17.0102 6.29872 18.796 5.33293 20.4007C3.5258 23.3851 2.63996 26.4774 1.31055 29.5177C1.17506 29.8614 0.608711 30.1812 0.566562 30.4692C0.524413 30.7573 0.970669 30.8629 1.13559 31.1086C1.20384 31.1166 1.01515 31.4141 0.95494 31.5669C0.603681 32.4579 0.917817 32.2949 1.49655 31.8834C1.81301 31.6541 2.47805 30.9331 2.11742 32.0893C2.01205 32.3567 2.30844 32.6311 2.20306 32.8984C1.82671 33.8531 1.75846 34.2979 2.99856 33.6576C3.68233 33.3116 3.87737 33.9337 3.3806 34.7411C2.88382 35.5485 2.839 35.783 3.88507 35.7857C3.99311 35.7896 4.08492 35.8332 4.14566 35.9095C4.45242 36.2784 4.48653 36.2824 4.60061 35.9629C4.65204 35.6919 4.77064 35.4175 4.9446 35.1669C5.11857 34.9162 5.34182 34.6981 5.59215 34.5343C5.04186 33.8172 6.02202 33.7457 6.30905 33.3798C6.48159 33.1972 6.63019 32.9939 6.74828 32.7788C8.13624 29.8918 9.84034 27.1085 11.1473 24.1854C12.0916 21.8525 13.144 19.5355 14.3003 17.2438C15.2302 15.5052 16.0545 13.7372 16.7668 11.9529C16.8169 11.8257 16.9922 11.713 17.1107 11.5937C17.191 11.6964 17.2521 11.8157 17.2923 11.948C17.3171 12.2172 17.4291 12.5367 17.311 12.7758C16.7393 13.8941 16.7922 15.1787 15.5973 16.1573C15.3691 16.3436 15.3514 16.781 15.2309 17.0865C14.3173 19.3431 13.2612 21.5781 12.071 23.7743C11.1631 25.2926 10.7569 26.8963 9.85003 28.3215C8.80393 30.2047 7.90476 32.132 7.16375 34.0793C6.56422 35.013 6.03337 35.9758 5.57743 36.9563C5.29944 37.8426 5.53728 37.511 6.14612 37.4758C7.29556 37.3975 7.7853 36.3362 8.23357 35.8028C8.98917 34.6575 9.6353 33.4641 10.1591 32.2464C10.7723 31.0532 11.4082 29.8626 12.0151 28.6552C12.6219 27.4479 12.654 26.2797 13.7757 25.3059C13.8841 25.2121 13.9012 24.9877 13.9614 24.8349C15.2721 21.8723 16.5777 18.9224 17.9061 15.9752C18.1216 15.5421 18.3903 15.1249 18.7037 14.737C18.8422 14.5668 19.3905 14.1117 19.2834 14.6851C18.972 16.26 20.6423 16.3093 20.747 17.6134C20.7928 18.1914 21.3234 18.6265 21.4742 19.2701C21.5267 19.5293 21.9817 19.5826 22.346 19.7452L22.2436 19.7332C22.326 19.608 22.4208 19.4893 22.5256 19.3801C22.5256 19.3801 22.6962 19.4 22.7521 19.4998C22.6184 19.6351 22.4616 19.7409 22.2982 19.8062C22.4727 21.4106 23.2074 22.7341 24.3856 23.5667L24.2946 23.556C24.3686 23.4286 24.4601 23.3088 24.5652 23.2016C24.5652 23.2016 24.7358 23.2216 24.7917 23.3213C24.6673 23.4297 24.5284 23.5136 24.3856 23.5667C24.3689 24.3638 24.4696 25.1347 25.4173 25.2059C25.5026 25.2337 25.5735 25.2851 25.6242 25.3558C25.6749 25.4266 25.704 25.5147 25.709 25.6129C25.7692 26.2794 25.974 26.8806 26.3102 27.3785C26.6465 27.8764 27.107 28.2601 27.6626 28.5055C27.7877 28.5201 27.9965 28.6245 27.9878 28.6768C27.7419 29.3005 28.4765 29.5198 28.4217 29.7797C28.1216 31.3559 29.5801 31.5802 29.8902 32.6953C30.3495 33.6879 30.9309 34.5909 31.6247 35.389C31.9686 35.9354 32.2961 36.4932 32.6564 37.0281C33.0167 37.5631 33.3399 37.9206 33.6684 38.3853C34.1073 39.0227 34.3424 39.9958 35.0088 40.2071C35.6752 40.4184 35.1162 41.112 35.4517 41.3777C35.7855 41.6466 36.0529 41.9886 36.2429 42.3894C36.7076 43.3964 37.3801 44.2466 38.2283 44.8994C39.0321 45.6767 39.7093 46.583 40.2458 47.5997C40.5419 48.1718 40.9362 48.6668 41.416 49.0686C42.2146 49.5818 42.8161 50.3325 43.1706 51.2586C43.7765 52.2976 44.5148 53.228 45.3728 54.0338C46.8057 55.5527 48.3424 56.9641 49.9769 58.2625C51.0457 59.1736 52.1573 60.0364 53.1455 61.0312C54.1318 61.9431 55.2347 62.7235 56.4393 63.3617C57.0859 63.7438 57.2448 64.5481 58.1223 64.7975C59.3935 65.3265 60.5612 66.0169 61.606 66.8573C62.6755 67.5553 63.847 68.1455 64.9443 68.8335C65.885 69.2498 66.8883 69.5635 67.9423 69.7709C68.4254 69.9341 68.8141 70.246 69.2971 70.4092C71.5586 71.2822 73.9549 71.9196 76.4594 72.3143C77.8925 72.4823 79.0436 73.4563 80.6246 73.1888C82.006 73.1025 83.3666 73.0975 84.7001 73.1739C86.0315 73.1169 87.4432 72.8563 88.7569 72.7839C91.596 72.5411 94.5202 71.842 97.4279 70.7108C99.9893 69.7238 102.53 68.5292 105.023 67.14C105.611 66.7772 106.176 66.3564 106.708 65.8859C106.887 65.7337 107.007 65.4282 107.184 65.3424C109.333 64.3604 111.373 62.8979 113.122 61.0846C113.879 60.281 114.631 59.4903 115.422 58.6907C115.539 58.5904 115.667 58.5101 115.799 58.4546C115.931 58.3992 116.065 58.3697 116.192 58.3682C117.564 58.4855 118.72 59.0877 119.489 60.0864C119.706 60.3516 120.076 60.4083 120.312 59.5702C120.372 59.4175 120.342 59.4939 120.437 59.5849L120.169 59.78C120.127 59.6843 120.101 59.578 120.091 59.4645C120.091 59.4645 120.206 59.3848 120.312 59.5702C121.048 60.3012 121.84 60.9721 122.685 61.5797C122.739 61.6194 122.804 61.6442 122.876 61.6527C122.948 61.6612 123.027 61.6531 123.106 61.6291C123.502 61.4092 123.89 61.1484 124.285 60.9017C124.364 61.2439 123.949 61.7546 124.655 61.864C128.027 62.3659 131.101 63.3522 134.58 63.4937C134.989 63.5417 135.521 63.6707 135.86 63.4441C137.459 62.4064 138.39 62.8218 139.403 63.5132C139.947 63.8833 140.106 63.0895 140.276 62.4169C140.331 62.2769 140.301 62.3532 140.401 62.4316L140.122 62.6253C140.086 62.5255 140.06 62.42 140.044 62.3099C140.044 62.3099 140.098 62.2629 140.22 62.437ZM111.726 58.83L111.423 58.6346C111.638 58.5018 111.864 58.4104 112.088 58.3663C112.088 58.3663 111.981 58.1541 112.019 58.1185C112.348 57.7387 112.701 57.3791 113.073 57.0436C113.108 56.9545 113.381 56.9865 113.46 57.0889C113.538 57.1914 113.646 57.3106 113.612 57.4264C113.529 57.5921 113.419 57.7489 113.287 57.8876C113.156 58.0264 113.006 58.1443 112.846 58.2347C112.687 58.325 112.521 58.3859 112.358 58.4138C112.195 58.4417 112.038 58.4361 111.897 58.3973L111.706 58.881C111.804 58.9273 111.892 58.9867 111.969 59.0583C111.969 59.0583 111.894 59.2493 111.786 59.3431C111.741 59.277 111.712 59.1976 111.702 59.1095C111.692 59.0215 111.7 58.9265 111.726 58.83ZM154.242 57.8084L154.699 57.3427C154.737 57.427 154.839 57.5321 154.807 57.5817C154.645 57.812 154.474 58.0364 154.292 58.2538C154.269 58.1313 154.262 57.9973 155.136 57.5936C155.043 57.3163 154.959 57.2266 155 57.1516C155.096 56.9424 155.209 56.7372 155.337 56.5385C155.44 56.5505 155.61 56.5705 155.58 56.6469C155.475 56.9142 155.34 57.1648 154.242 57.8084ZM115.877 48.7826L115.695 48.7613C115.77 48.6339 115.861 48.514 115.966 48.4068C115.966 48.4068 116.137 48.4268 116.198 48.5139C116.259 48.6009 115.986 48.6888 114.545 48.9327C114.796 48.8373 115.048 48.7643 115.297 48.7146C115.435 48.7171 115.568 48.7328 115.695 48.7613C115.533 48.9021 115.364 49.1486 115.208 49.1836C115.051 49.2185 114.885 49.0658 115.877 48.7826ZM106.278 34.4063C106.269 34.7914 106.283 34.9663 106.263 35.1371C106.216 35.2867 106.158 35.4357 106.088 35.5826C105.991 35.4648 105.799 35.349 105.809 35.2036C105.818 35.0583 106.032 34.817 105.837 36.006L106.292 35.6066C106.315 35.7292 106.418 35.8611 106.378 35.9629C106.264 36.1614 106.129 36.3514 105.976 36.5284C105.929 36.3764 105.878 36.2639 106.278 34.4063ZM114.968 25.5835L114.345 26.0166C114.249 26.2584 114.084 26.6785 114.074 26.704C114.76 27.0773 114.575 27.908 114.662 28.624C114.65 30.3896 114.52 32.1894 114.275 34.0122C114.264 34.5835 114.46 35.1126 114.03 35.7813C113.949 35.9849 113.949 35.9849 114.485 35.8346C114.567 35.8193 114.646 35.8239 114.715 35.8482C114.784 35.8725 114.841 35.9157 114.882 35.9744C115.082 36.3708 115.101 36.7459 115.929 36.3368C116.756 35.9278 115.972 37.1942 116.437 37.342C116.619 37.3633 117.128 37.2498 116.691 37.7846C116.419 38.1123 116.134 38.4118 115.844 38.7241C115.8 38.6257 115.671 38.5306 115.695 38.4402C116.14 37.0675 114.791 38.0147 114.483 37.619C114.423 37.7717 114.252 37.9647 114.298 38.09C114.365 38.4309 114.64 38.7294 114.555 39.0657C114.37 39.7765 113.993 40.4914 113.712 41.2042C113.431 41.9171 113.643 42.5278 113.309 42.8616C112.598 43.5773 113.491 44.1214 112.763 44.7286C112.535 44.9149 112.301 45.327 112.132 45.3338C111.552 45.3857 111.784 44.92 111.939 44.5254C112.19 43.889 112.441 43.2525 112.692 42.6161C112.738 42.3925 112.761 42.1719 112.761 41.9583C112.59 42.1111 112.44 42.2876 112.317 42.479C112.097 43.039 111.876 43.5991 111.66 44.1465C111.538 44.3595 111.39 44.562 111.221 44.7475L110.717 44.3955L110.313 45.0273C110.21 44.9144 110.136 44.7747 110.095 44.6155C110.061 44.2786 110.066 43.933 110.049 43.5847C109.996 43.2099 109.9 42.855 109.764 42.5259C108.532 40.4903 108.334 37.8835 107.794 35.4497C107.47 33.6067 107.433 31.638 107.683 29.6037C107.898 26.8782 108.677 24.0484 109.97 21.2954C110.181 20.7608 110.311 20.1901 110.967 19.8541C111.176 19.7455 111.349 19.4594 111.525 19.2537C111.44 19.4701 111.319 19.7756 111.45 19.8974C111.911 20.5375 112.526 21.0623 112.922 21.748C113.175 22.4152 113.377 23.1151 113.524 23.8428C113.77 24.5775 114.068 25.2384 114.301 26.038C114.747 25.7339 115.203 25.4538 115.666 25.1994C116.804 25.3327 116.954 25.6166 116.367 26.4401C116.337 26.5165 116.093 26.5013 115.942 26.5234C116.348 25.4924 115.597 25.7373 115.11 25.6136C115.031 25.6043 115.013 25.469 114.991 25.3732C115.049 25.3093 115.119 25.2577 115.193 25.2237C115.473 25.1767 115.676 25.1739 114.968 25.5835ZM100.266 25.3249C100.396 24.9365 100.548 24.5496 100.723 24.1665C100.763 24.0647 101.091 23.9567 101.195 23.9955C101.344 24.0652 101.453 24.1895 101.507 24.3517C100.903 25.0492 100.43 25.8375 100.124 26.6532C100.124 26.6532 99.9875 26.7571 99.9105 26.8013C99.8336 26.8456 99.7697 26.5851 99.7985 26.4819C99.949 26.1 100.105 25.7054 101.061 22.102C101.277 21.5546 101.493 21.0073 101.708 20.4599C101.758 20.3327 101.922 20.2187 102.029 20.0981C102.085 20.1978 102.198 20.3043 102.158 20.4061C101.726 21.5008 101.295 22.5955 100.863 23.6902C100.833 23.7666 100.678 23.8283 100.58 23.8967C100.545 23.7728 100.47 23.6308 100.509 23.5022C100.747 23.0506 100.932 22.5796 100.266 25.3249ZM113.927 44.1325C114.208 43.4197 114.489 42.7069 114.775 41.9813C114.928 41.7093 115.111 41.4487 115.318 41.206C115.45 41.4411 115.557 41.6943 115.639 41.9628C115.696 42.2916 115.715 42.6377 115.696 42.9949C115.696 42.9949 115.469 43.208 115.417 43.1886C114.803 42.9967 114.622 43.455 114.416 43.9769C114.07 44.8552 113.724 45.7335 113.383 46.5991C113.332 46.7263 113.151 46.8249 113.026 46.9301C113.008 46.7948 112.933 46.6529 112.983 46.5256C113.299 45.7237 113.61 44.9345 115.532 43.4418L115.617 43.2254C115.718 43.2742 115.809 43.3385 115.887 43.4168C115.887 43.4168 115.816 43.595 115.708 43.6888C115.599 43.7827 115.604 43.5301 113.927 44.1325ZM119.335 50.0936C118.994 50.5064 118.626 50.956 118.246 51.3776C118.042 51.5933 117.692 51.9385 117.594 51.9138C117.473 51.8717 117.37 51.8003 117.291 51.704C117.212 51.6077 117.16 51.4886 117.137 51.354C117.098 50.9441 117.211 50.4862 117.456 50.0598C118.966 48.2525 119.235 46.2731 120.115 44.312C120.336 43.752 120.116 42.8606 120.42 42.6032C121.526 41.6675 121.24 40.7949 121.509 39.841C122.159 37.5795 122.589 35.3267 122.79 33.1194C122.845 32.9794 123.083 32.7676 123.243 32.5733C123.393 32.7373 123.713 32.9213 123.658 33.0613C123.381 33.5864 123.196 34.1323 123.114 34.6669C123.032 35.2015 123.055 35.7141 123.18 36.1749C123.209 36.3083 123.207 36.456 123.174 36.6083C123.14 36.7605 123.077 36.9137 122.987 37.0578C122.485 37.8779 122.857 38.5341 122.601 39.3032C122.511 39.5323 122.596 39.7687 122.529 40.0005C122.461 40.2323 121.667 43.2422 121.627 43.4639C121.53 44.0119 122.015 44.4416 121.199 45.1849C120.696 45.6453 120.637 46.6106 120.162 47.1808C119.947 47.3842 119.772 47.6281 119.655 47.8879C119.538 48.1477 119.483 48.4143 119.495 48.6608C119.481 49.1416 119.422 49.6339 119.32 50.1318L119.335 50.0936ZM105.904 30.5537C105.683 30.874 105.504 31.1461 105.309 31.4295C105.138 31.1797 105.015 30.8914 104.944 30.5744C104.958 30.0793 104.997 29.5771 105.061 29.0699C105.003 27.7202 105.264 26.2752 105.823 24.8443C106.044 24.4769 106.163 24.0802 106.162 23.7122C105.879 22.6801 106.352 22.203 107.408 21.9405C107.556 21.9578 107.778 21.5444 107.959 21.326C107.953 21.5426 107.917 21.7669 107.851 21.9925C107.51 22.8581 107.164 23.7364 106.823 24.602C106.583 25.426 106.41 26.2479 106.306 27.0585C106.114 28.3011 106.039 29.3976 105.904 30.5537ZM104.344 22.9797C103.883 24.1508 103.812 24.329 103.433 24.2046C102.453 23.8233 104.193 23.5746 103.85 23.1481C103.85 23.1481 103.91 22.9953 103.857 22.9491C103.428 22.4062 104.123 22.0615 104.399 22.0272C105.044 21.9297 104.439 22.498 104.446 22.7519C104.453 23.0058 104.374 22.9033 104.344 22.9797ZM11.1972 8.99604C11.5538 8.66497 11.2966 7.92898 12.0536 7.57826C11.8429 8.11289 11.7459 8.66084 11.5742 9.18674C11.466 9.50668 11.3403 9.82548 11.1979 10.1414C11.1979 10.1414 10.9657 10.2474 10.8483 10.2736C10.7309 10.2997 10.7633 10.1571 10.7884 10.0934C10.8747 9.78392 11.0002 9.46569 11.1859 8.99471L11.1972 8.99604ZM185.142 28.3241C185.279 28.1271 185.336 28.0138 185.375 28.0051C185.414 27.9964 185.614 28.0331 185.659 28.0385C185.769 28.2665 185.846 28.517 185.889 28.7845C185.854 28.8736 185.783 29.0518 185.666 29.1979C185.53 29.1819 185.336 29.1592 185.311 28.9831C185.227 28.7789 185.171 28.5578 185.142 28.3241ZM102.309 32.0366C102.255 31.6308 102.179 31.249 102.148 30.8458C102.272 30.7562 102.407 30.6942 102.54 30.6654C102.665 30.6801 102.904 30.7081 102.885 30.7858C102.824 31.1537 102.725 31.5259 102.59 31.8965C102.59 31.8965 102.37 32.0038 102.309 32.0366ZM146.982 57.3569L147.562 57.7578C147.295 57.9528 146.89 58.3449 146.769 58.2907C146.648 58.2365 146.447 57.8401 146.305 57.597L146.982 57.3569ZM12.9127 9.38361L12.3229 9.91375C12.324 9.70351 12.3668 9.48237 12.4487 9.26262C12.5971 9.03472 12.7734 8.82176 12.9712 8.63138C12.9391 8.89396 12.9157 9.1043 12.9127 9.38361ZM102.896 25.3268L103.32 24.764L103.802 25.473C103.653 25.5488 103.468 25.6869 103.382 25.6635C103.194 25.5965 103.024 25.5004 102.875 25.3777L102.896 25.3268ZM122.73 31.5809C122.711 31.3551 122.72 31.1193 122.757 30.8782C122.797 30.7764 122.973 30.6638 123.091 30.5445L123.343 31.4131L122.73 31.5809ZM99.9681 31.5757C100.219 31.2722 100.314 31.1502 100.41 31.0283L100.912 31.6864C100.78 31.7508 100.594 31.8889 100.513 31.8527C100.316 31.7851 100.133 31.6922 99.9681 31.5757ZM110.307 55.4275L110.731 54.8646L111.213 55.5737C111.069 55.6367 110.89 55.7889 110.804 55.7655C110.623 55.6731 110.457 55.5599 110.307 55.4275ZM137.512 59.9488C137.536 60.0981 137.619 60.281 137.566 60.3547C137.373 60.5604 137.153 60.7378 136.92 60.8781C136.92 60.8781 136.756 60.6592 136.671 60.5427L137.512 59.9488ZM137.44 61.6716C137.679 61.3667 137.763 61.2434 137.864 61.1087L138.346 61.8178C138.208 61.8949 138.023 62.033 137.937 62.0096C137.764 61.8835 137.612 61.7317 137.485 61.557L137.44 61.6716ZM114.777 22.5648C114.945 22.4113 115.082 22.2143 115.134 22.2337C115.312 22.2843 115.48 22.353 115.636 22.4391C115.534 22.547 115.413 22.7326 115.356 22.7259C115.18 22.6556 115.017 22.565 114.868 22.4556L114.777 22.5648ZM115.71 32.7555C115.577 32.913 115.411 33.0932 115.249 33.2608C115.226 33.1382 115.14 32.9949 115.196 32.8817C115.318 32.6777 115.462 32.4839 115.626 32.3061L115.71 32.7555ZM126.858 61.8293L126.401 61.5094C126.552 61.39 126.718 61.3001 126.886 61.2466C126.988 61.2586 127.089 61.3637 127.178 61.4407L126.858 61.8293ZM86.4029 71.2694L86.4015 71.6954C86.2878 71.682 86.0811 71.8443 85.9887 71.8068C85.8836 71.709 85.7978 71.5914 85.7338 71.4573L86.4029 71.2694ZM109.263 13.7015L109.05 13.8496C109.033 13.7434 109.029 13.6312 109.039 13.5154C109.039 13.5154 109.17 13.4242 109.241 13.3659L109.263 13.7015ZM14.1946 6.07137L14.4793 5.77181C14.4793 5.77181 14.5656 5.9151 14.5505 5.95329C14.4726 6.06117 14.3846 6.16266 14.2886 6.25552L14.1946 6.07137ZM107.608 19.3804L107.841 19.1813C107.864 19.2851 107.868 19.3982 107.852 19.5155C107.852 19.5155 107.732 19.608 107.655 19.6523L107.608 19.3804ZM115.919 27.8791L116.132 27.731C116.15 27.8372 116.153 27.9494 116.143 28.0652C116.143 28.0652 116.012 28.1564 115.941 28.2147L115.919 27.8791ZM123.479 29.5911C123.454 29.6548 123.565 29.7344 123.539 29.7713C123.465 29.8792 123.381 29.9811 123.288 30.0748C123.231 30.0682 123.185 29.9429 123.212 29.9061C123.289 29.7926 123.379 29.6866 123.479 29.5911ZM116.284 34.9535L116.47 34.8422C116.488 34.9484 116.492 35.0606 116.481 35.1764C116.481 35.1764 116.35 35.2676 116.285 35.3132C116.219 35.3588 116.243 35.0553 116.284 34.9535ZM99.9918 33.2965L99.9028 33.0996C100.016 33.0554 100.129 33.0197 100.242 32.9929C100.242 32.9929 100.31 33.094 100.335 33.1503L99.9918 33.2965ZM117.932 41.8188L117.708 41.9657C117.69 41.8595 117.687 41.7472 117.697 41.6314C117.697 41.6314 117.828 41.5403 117.899 41.482L117.932 41.8188ZM102.564 42.6805L102.481 42.4977C102.595 42.4445 102.711 42.4044 102.826 42.3782C102.826 42.3782 102.876 42.4907 102.902 42.547L102.564 42.6805ZM114.792 49.9072C114.792 49.9072 114.959 49.7537 114.988 49.7704C115.075 49.8228 115.154 49.8855 115.224 49.9578C115.224 49.9578 115.05 50.0973 115.016 50.0933C114.931 50.0436 114.855 49.9812 114.792 49.9072ZM108.282 51.328L108.063 51.1292C108.063 51.1292 108.242 50.977 108.271 50.9938C108.36 51.0382 108.435 51.1011 108.495 51.1799L108.282 51.328ZM107.162 52.4485L107.386 52.3017C107.4 52.4079 107.4 52.5197 107.386 52.6346C107.386 52.6346 107.266 52.7271 107.195 52.7854L107.162 52.4485ZM106.293 53.5053L106.578 53.2057C106.578 53.2057 106.664 53.349 106.649 53.3872C106.569 53.4938 106.481 53.595 106.387 53.6894L106.293 53.5053ZM148.34 59.2872L148.564 59.1404C148.578 59.2466 148.578 59.3584 148.564 59.4733C148.564 59.4733 148.444 59.5658 148.378 59.6114L148.34 59.2872ZM138.851 58.5743L139.059 58.7718C139.059 58.7718 138.891 58.9252 138.862 58.9085C138.777 58.8589 138.702 58.7964 138.638 58.7224L138.851 58.5743ZM139.815 59.5396L139.733 59.3568C139.847 59.3037 139.962 59.2636 140.077 59.2374C140.077 59.2374 140.128 59.3499 140.165 59.4075L139.815 59.5396ZM143.239 60.8466L143.523 60.547C143.523 60.547 143.61 60.6903 143.595 60.7285C143.517 60.8364 143.429 60.9379 143.333 61.0307L143.239 60.8466ZM131.958 61.0288L132.299 60.7359C132.274 60.7996 132.385 60.8792 132.359 60.9161C132.289 61.0265 132.204 61.1292 132.108 61.2197L131.958 61.0288ZM122.775 60.445L123.043 60.1569C123.043 60.1569 123.146 60.2888 123.12 60.3256C123.042 60.4391 122.952 60.5451 122.853 60.6406L122.775 60.445ZM112.506 60.1733C112.506 60.1733 112.668 60.0325 112.697 60.0492C112.788 60.0892 112.865 60.1478 112.927 60.2226C112.927 60.2226 112.759 60.3761 112.73 60.3594C112.658 60.3085 112.594 60.2474 112.54 60.1773L112.506 60.1733ZM106.812 59.2527C106.812 59.2527 106.898 59.396 106.883 59.4341C106.805 59.542 106.717 59.6435 106.621 59.7364C106.621 59.7364 106.53 59.6058 106.545 59.5676C106.638 59.4567 106.738 59.3526 106.846 59.2567L106.812 59.2527Z" fill="#F1356D"/>
<path d="M98.3553 25.4338L98.3697 26.0614C98.5885 25.7595 98.7939 25.4502 98.9849 25.1347C99.0401 24.9947 98.9752 24.8272 98.9672 24.6665L98.3553 25.4338Z" fill="#F1356D"/>
<path d="M98.8568 23.1354L98.8849 23.698C99.0097 23.5928 99.2013 23.4687 99.2301 23.3656C99.2716 23.151 99.2821 22.9413 99.2612 22.7433L98.8568 23.1354Z" fill="#F1356D"/>
<path d="M113.223 40.4543C113.096 40.677 112.983 40.904 112.883 41.1337C112.858 41.1973 113.009 41.2682 113.086 41.3439C113.224 41.1472 113.348 40.9434 113.457 40.7348C113.494 40.6725 113.337 40.5875 113.223 40.4543Z" fill="#F1356D"/>
<path d="M110.299 43.614L110.597 43.3426C110.506 43.3319 110.398 43.2128 110.365 43.2356C110.264 43.3458 110.173 43.4649 110.095 43.59L110.299 43.614Z" fill="#F1356D"/>
</svg>
