<svg width="181" height="193" viewBox="0 0 181 193" fill="none" xmlns="http://www.w3.org/2000/svg">
<path fill-rule="evenodd" clip-rule="evenodd" d="M154.083 181.311C153.373 184.694 151.928 187.441 149.695 189.432C134.765 202.748 90.2787 177.234 50.3313 132.446C10.3838 87.6571 -9.89723 40.5542 5.03229 27.2383C7.26506 25.2469 10.1589 24.1239 13.5998 23.804C14.3095 20.422 15.7547 17.6748 17.9875 15.6834C20.2239 13.6887 23.1236 12.5654 26.5718 12.2476C27.2803 8.85792 28.7266 6.10509 30.963 4.11041C45.8925 -9.20541 90.3791 16.3083 130.327 61.0968C170.274 105.885 190.555 152.988 175.626 166.304C173.389 168.299 170.49 169.422 167.041 169.74C166.333 173.13 164.886 175.882 162.65 177.877C160.417 179.869 157.523 180.992 154.083 181.311ZM102.666 85.7678C122.52 108.028 137.42 130.794 145.495 149.547C147.803 154.907 149.535 159.899 150.673 164.428C146.303 162.782 141.541 160.492 136.479 157.589C118.767 147.431 97.8461 130.035 77.9921 107.775C58.138 85.5146 43.2377 62.7489 35.1629 43.995C32.8552 38.6353 31.1225 33.6435 29.9853 29.1148C34.3551 30.7604 39.117 33.0503 44.179 35.9534C61.8912 46.1116 82.8117 63.5078 102.666 85.7678ZM27.3812 28.1951C32.2122 49.3846 49.9812 79.852 76.262 109.318C102.543 138.783 130.788 159.907 151.29 167.12C151.781 169.502 152.092 171.739 152.219 173.815C152.337 175.747 152.294 177.504 152.101 179.09C150.504 179.101 148.753 178.943 146.847 178.606C140.317 177.451 132.371 174.248 123.503 169.162C105.791 159.004 84.8706 141.608 65.0166 119.348C45.1625 97.0876 30.2622 74.3219 22.1874 55.568C18.1449 46.1793 15.867 37.9195 15.4634 31.3002C15.3456 29.3684 15.3883 27.6114 15.5811 26.0255C17.1787 26.0146 18.9292 26.1723 20.8349 26.5093C22.8828 26.8714 25.07 27.4351 27.3812 28.1951ZM29.3682 26.4228C49.8696 33.6358 78.115 54.7591 104.396 84.2248C130.677 113.69 148.446 144.158 153.277 165.347C155.588 166.107 157.775 166.671 159.823 167.033C161.722 167.369 163.466 167.527 165.059 167.517C165.25 165.936 165.292 164.185 165.174 162.26C164.771 155.641 162.493 147.381 158.45 137.993C150.375 119.239 135.475 96.473 115.621 74.2129C95.767 51.9528 74.8465 34.5567 57.1342 24.3985C48.267 19.313 40.3204 16.1092 33.7902 14.9543C31.8916 14.6186 30.1471 14.4608 28.5544 14.4704C28.3635 16.0516 28.3216 17.8027 28.4389 19.7272C28.5655 21.803 28.8764 24.0401 29.3682 26.4228ZM153.813 167.949C154.562 172.028 154.786 175.72 154.45 178.94C157.228 178.59 159.441 177.633 161.107 176.147C162.777 174.658 163.981 172.562 164.645 169.833C161.411 169.798 157.774 169.156 153.813 167.949ZM151.685 181.406C151.02 184.126 149.818 186.216 148.152 187.702C145.177 190.356 140.455 191.322 133.892 190.161C127.362 189.006 119.415 185.802 110.548 180.717C92.8359 170.559 71.9154 153.163 52.0613 130.903C32.2073 108.642 17.307 85.8768 9.23216 67.1229C5.18968 57.7342 2.91175 49.4744 2.50818 42.8551C2.10259 36.2026 3.60028 31.6219 6.57535 28.9684C8.24127 27.4825 10.4548 26.5257 13.2326 26.1752C11.1448 46.1717 30.6538 84.3034 63.2865 120.891C95.9192 157.478 131.581 181.203 151.685 181.406ZM15.9973 23.7093C16.662 20.9895 17.8647 18.8993 19.5306 17.4135C21.2002 15.9243 23.4199 14.9665 26.2064 14.6179C25.8725 17.8349 26.097 21.5207 26.8446 25.5935C22.8771 24.3849 19.2354 23.742 15.9973 23.7093ZM117.351 72.6699C84.727 36.0922 49.0755 12.37 28.9684 12.1545C29.6321 9.42581 30.8364 7.32965 32.5061 5.84047C35.4811 3.18697 40.2027 2.22073 46.7656 3.38135C53.2959 4.53617 61.2425 7.74 70.1097 12.8255C87.822 22.9837 108.742 40.3798 128.597 62.6399C148.451 84.9 163.351 107.666 171.426 126.42C175.468 135.808 177.746 144.068 178.15 150.687C178.555 157.34 177.058 161.921 174.082 164.574C172.413 166.063 170.193 167.021 167.407 167.37C169.483 147.369 149.975 109.248 117.351 72.6699Z" fill="#F1356D"/>
</svg>
