<svg width="174" height="85" viewBox="0 0 174 85" fill="none" xmlns="http://www.w3.org/2000/svg">
<path d="M161.812 78.4576C161.807 77.3462 162.132 76.2583 162.745 75.3319C163.358 74.4055 164.232 73.6821 165.257 73.2535C166.281 72.8249 167.409 72.7103 168.498 72.9242C169.587 73.1381 170.588 73.6709 171.375 74.4551C172.162 75.2394 172.698 76.2397 172.916 77.3294C173.135 78.4192 173.025 79.5493 172.601 80.5766C172.178 81.6039 171.459 82.4821 170.536 83.1001C169.614 83.7181 168.529 84.048 167.419 84.048C165.936 84.048 164.513 83.4598 163.463 82.4121C162.412 81.3644 161.818 79.9425 161.812 78.4576ZM125.942 78.4576C125.937 77.3451 126.263 76.2564 126.877 75.3294C127.491 74.4025 128.367 73.6791 129.392 73.2512C130.418 72.8233 131.547 72.7101 132.637 72.926C133.727 73.1418 134.728 73.6771 135.514 74.4637C136.299 75.2503 136.834 76.2529 137.049 77.3442C137.265 78.4355 137.152 79.5664 136.724 80.5932C136.297 81.6201 135.575 82.4967 134.649 83.1118C133.723 83.7269 132.636 84.0527 131.525 84.048C130.792 84.048 130.066 83.9034 129.388 83.6225C128.711 83.3415 128.096 82.9297 127.577 82.4106C127.059 81.8915 126.648 81.2752 126.367 80.597C126.086 79.9187 125.942 79.1917 125.942 78.4576ZM90.0481 78.4576C90.0434 77.3462 90.3682 76.2583 90.9814 75.3319C91.5946 74.4055 92.4686 73.6821 93.4927 73.2535C94.5168 72.8249 95.6449 72.7103 96.7341 72.9242C97.8233 73.1381 98.8246 73.6709 99.6112 74.4551C100.398 75.2394 100.934 76.2397 101.152 77.3294C101.371 78.4192 101.261 79.5493 100.837 80.5766C100.414 81.6039 99.6951 82.4821 98.7725 83.1001C97.85 83.7181 96.765 84.048 95.655 84.048C94.1721 84.048 92.7496 83.4598 91.6988 82.4121C90.648 81.3644 90.0544 79.9425 90.0481 78.4576ZM54.1782 78.4576C54.1734 77.3451 54.4988 76.2564 55.1131 75.3294C55.7274 74.4025 56.6028 73.6791 57.6283 73.2512C58.6538 72.8233 59.7832 72.7101 60.873 72.926C61.9629 73.1418 62.9642 73.6771 63.7497 74.4637C64.5353 75.2503 65.0698 76.2529 65.2854 77.3442C65.501 78.4355 65.3879 79.5664 64.9606 80.5932C64.5332 81.6201 63.8109 82.4967 62.8852 83.1118C61.9594 83.7269 60.8721 84.0527 59.7611 84.048C58.2804 84.048 56.8604 83.459 55.8134 82.4106C54.7664 81.3622 54.1782 79.9403 54.1782 78.4576ZM18.2843 78.4576C18.2795 77.3462 18.6043 76.2583 19.2175 75.3319C19.8307 74.4055 20.7048 73.6821 21.7288 73.2535C22.753 72.8249 23.8811 72.7103 24.9703 72.9242C26.0595 73.1381 27.0608 73.6709 27.8473 74.4551C28.6339 75.2394 29.1703 76.2397 29.3886 77.3294C29.6069 78.4192 29.4972 79.5493 29.0736 80.5766C28.6499 81.6039 27.9313 82.4821 27.0087 83.1001C26.0861 83.7181 25.0012 84.048 23.8912 84.048C22.4083 84.048 20.9858 83.4598 19.9349 82.4121C18.8841 81.3644 18.2906 79.9425 18.2843 78.4576ZM143.53 54.5844C143.501 53.4643 143.808 52.3612 144.411 51.4171C145.013 50.473 145.885 49.7311 146.912 49.2869C147.939 48.8427 149.076 48.7164 150.175 48.9244C151.275 49.1324 152.287 49.6651 153.082 50.454C153.877 51.2428 154.418 52.2518 154.635 53.351C154.852 54.4502 154.736 55.5894 154.301 56.6219C153.867 57.6545 153.133 58.5332 152.196 59.145C151.258 59.7568 150.16 60.0737 149.041 60.0549C147.593 60.0365 146.209 59.4558 145.181 58.4351C144.153 57.4145 143.56 56.0338 143.53 54.5844ZM107.636 54.5844C107.607 53.4683 107.911 52.369 108.51 51.427C109.108 50.485 109.974 49.743 110.995 49.2959C112.017 48.8488 113.149 48.7169 114.246 48.917C115.343 49.1171 116.355 49.6401 117.154 50.4193C117.952 51.1984 118.501 52.1983 118.729 53.2911C118.957 54.3839 118.855 55.5201 118.435 56.5544C118.015 57.5887 117.297 58.4742 116.372 59.0977C115.447 59.7213 114.358 60.0545 113.243 60.0549C111.78 60.0553 110.375 59.4836 109.328 58.4617C108.28 57.4397 107.673 56.0484 107.636 54.5844ZM71.7657 54.5844C71.7371 53.4673 72.0421 52.367 72.6416 51.4245C73.2411 50.4819 74.1079 49.7399 75.131 49.2935C76.1541 48.8471 77.2869 48.7166 78.3846 48.9186C79.4822 49.1207 80.4946 49.6461 81.2922 50.4277C82.0899 51.2093 82.6365 52.2114 82.862 53.3059C83.0876 54.4003 82.9818 55.5372 82.5583 56.5711C82.1348 57.605 81.4127 58.4889 80.4847 59.1095C79.5566 59.7301 78.4647 60.0593 77.3487 60.0549C75.8885 60.0552 74.4863 59.4827 73.4427 58.4601C72.399 57.4375 71.797 56.0462 71.7657 54.5844ZM35.8718 54.5844C35.8432 53.4683 36.1476 52.369 36.746 51.427C37.3445 50.485 38.2099 49.743 39.2315 49.2959C40.2532 48.8488 41.3848 48.7169 42.4818 48.917C43.5787 49.1171 44.5912 49.6401 45.3897 50.4193C46.1883 51.1984 46.7368 52.1983 46.9651 53.2911C47.1933 54.3839 47.091 55.5201 46.6712 56.5544C46.2514 57.5887 45.5331 58.4742 44.6082 59.0977C43.6833 59.7213 42.5937 60.0545 41.4787 60.0549C40.0162 60.0553 38.6115 59.4836 37.564 58.4617C36.5165 57.4397 35.9093 56.0484 35.8718 54.5844ZM0.00185663 54.5844C-0.0267536 53.4673 0.278224 52.367 0.877726 51.4245C1.47724 50.4819 2.34403 49.7399 3.36712 49.2935C4.39022 48.8471 5.52308 48.7166 6.62069 48.9186C7.71832 49.1207 8.73074 49.6461 9.52839 50.4277C10.326 51.2093 10.8726 52.2114 11.0982 53.3059C11.3237 54.4003 11.2179 55.5372 10.7944 56.5711C10.3709 57.605 9.64889 58.4889 8.72082 59.1095C7.79273 59.7301 6.7008 60.0593 5.5848 60.0549C4.12649 60.0491 2.72779 59.4746 1.68548 58.4533C0.643153 57.432 0.0392407 56.0442 0.00185663 54.5844ZM161.812 29.5116C161.807 28.4002 162.132 27.3123 162.745 26.3859C163.358 25.4595 164.232 24.7361 165.257 24.3075C166.281 23.8789 167.409 23.7642 168.498 23.9782C169.587 24.1921 170.588 24.7249 171.375 25.5091C172.162 26.2933 172.698 27.2937 172.916 28.3834C173.135 29.4732 173.025 30.6033 172.601 31.6306C172.178 32.6578 171.459 33.5361 170.536 34.1541C169.614 34.7721 168.529 35.102 167.419 35.102C166.684 35.1052 165.955 34.9629 165.275 34.6834C164.595 34.4038 163.977 33.9925 163.456 33.4731C162.935 32.9537 162.521 32.3363 162.239 31.6565C161.957 30.9767 161.812 30.2478 161.812 29.5116ZM125.942 29.5116C125.937 28.3991 126.263 27.3103 126.877 26.3834C127.491 25.4564 128.367 24.7331 129.392 24.3052C130.418 23.8773 131.547 23.7641 132.637 23.98C133.727 24.1958 134.728 24.731 135.514 25.5177C136.299 26.3043 136.834 27.3069 137.049 28.3982C137.265 29.4895 137.152 30.6204 136.724 31.6472C136.297 32.6741 135.575 33.5507 134.649 34.1658C133.723 34.7809 132.636 35.1067 131.525 35.102C130.044 35.102 128.624 34.513 127.577 33.4646C126.53 32.4162 125.942 30.9943 125.942 29.5116ZM90.0481 29.5116C90.0434 28.4002 90.3682 27.3123 90.9814 26.3859C91.5946 25.4594 92.4686 24.7361 93.4927 24.3075C94.5168 23.8789 95.6449 23.7642 96.7341 23.9782C97.8233 24.1921 98.8246 24.7249 99.6112 25.5091C100.398 26.2933 100.934 27.2937 101.152 28.3834C101.371 29.4732 101.261 30.6033 100.837 31.6305C100.414 32.6578 99.6951 33.5361 98.7725 34.1541C97.85 34.7721 96.765 35.102 95.655 35.102C94.9199 35.1051 94.1913 34.9629 93.5112 34.6833C92.831 34.4038 92.2127 33.9925 91.6918 33.4731C91.1708 32.9537 90.7574 32.3363 90.4754 31.6565C90.1933 30.9767 90.0481 30.2477 90.0481 29.5116ZM54.1782 29.5116C54.1734 28.3991 54.4988 27.3103 55.1131 26.3834C55.7274 25.4564 56.6028 24.7331 57.6283 24.3052C58.6538 23.8773 59.7832 23.7641 60.873 23.98C61.9629 24.1958 62.9642 24.731 63.7497 25.5177C64.5353 26.3043 65.0698 27.3069 65.2854 28.3982C65.501 29.4895 65.3879 30.6204 64.9606 31.6472C64.5332 32.6741 63.8109 33.5507 62.8852 34.1658C61.9594 34.7809 60.8721 35.1067 59.7611 35.102C58.2804 35.102 56.8604 34.513 55.8134 33.4646C54.7664 32.4162 54.1782 30.9943 54.1782 29.5116ZM18.2843 29.5116C18.2795 28.4001 18.6043 27.3123 19.2175 26.3859C19.8307 25.4594 20.7048 24.7361 21.7288 24.3075C22.753 23.8789 23.8811 23.7642 24.9703 23.9782C26.0595 24.1921 27.0608 24.7249 27.8473 25.5091C28.6339 26.2933 29.1703 27.2937 29.3886 28.3834C29.6069 29.4732 29.4972 30.6033 29.0736 31.6305C28.6499 32.6578 27.9313 33.5361 27.0087 34.1541C26.0861 34.7721 25.0012 35.102 23.8912 35.102C23.156 35.1051 22.4274 34.9629 21.7473 34.6833C21.0672 34.4038 20.4489 33.9925 19.9279 33.4731C19.407 32.9537 18.9936 32.3363 18.7115 31.6565C18.4295 30.9767 18.2842 30.2477 18.2843 29.5116ZM143.53 5.6384C143.525 4.52291 143.852 3.43134 144.47 2.50293C145.087 1.57452 145.967 0.85135 146.997 0.425676C148.027 8.91089e-06 149.16 -0.10887 150.251 0.112939C151.343 0.334749 152.344 0.877183 153.127 1.67105C153.909 2.46492 154.438 3.47424 154.645 4.57024C154.853 5.66625 154.729 6.79926 154.291 7.82474C153.852 8.85022 153.119 9.72168 152.184 10.328C151.249 10.9343 150.154 11.2479 149.041 11.2288C147.572 11.2099 146.171 10.6125 145.139 9.56619C144.108 8.51983 143.529 7.10868 143.53 5.6384ZM107.636 5.6384C107.631 4.52697 107.956 3.43913 108.569 2.5127C109.182 1.58626 110.056 0.862922 111.08 0.434295C112.104 0.00567597 113.232 -0.10894 114.322 0.104973C115.411 0.318893 116.412 0.851715 117.199 1.63594C117.985 2.42017 118.522 3.42049 118.74 4.51023C118.958 5.59997 118.849 6.73007 118.425 7.75737C118.001 8.78466 117.283 9.66293 116.36 10.2809C115.438 10.8989 114.353 11.2288 113.243 11.2288C112.507 11.232 111.779 11.0897 111.099 10.8102C110.419 10.5306 109.8 10.1194 109.279 9.59992C108.758 9.08049 108.345 8.46314 108.063 7.78332C107.781 7.10348 107.636 6.37456 107.636 5.6384ZM71.7657 5.63839C71.761 4.52595 72.0864 3.43716 72.7006 2.51021C73.3149 1.58326 74.1904 0.859938 75.2159 0.432028C76.2414 0.00411803 77.3707 -0.109087 78.4606 0.106779C79.5504 0.322645 80.5517 0.857847 81.3373 1.64448C82.1229 2.4311 82.6573 3.4337 82.8729 4.52502C83.0885 5.61633 82.9755 6.74718 82.5481 7.77405C82.1208 8.80092 81.3984 9.67752 80.4727 10.2926C79.547 10.9077 78.4596 11.2335 77.3487 11.2288C75.868 11.2288 74.4479 10.6398 73.4009 9.59141C72.3539 8.543 71.7657 7.12106 71.7657 5.63839ZM35.8718 5.63839C35.867 4.52697 36.1919 3.43913 36.8051 2.5127C37.4183 1.58626 38.2923 0.862919 39.3164 0.434292C40.3405 0.00567284 41.4686 -0.108944 42.5578 0.104969C43.647 0.31889 44.6483 0.851712 45.4349 1.63594C46.2214 2.42016 46.7578 3.42049 46.9761 4.51023C47.1944 5.59996 47.0848 6.73007 46.6611 7.75737C46.2374 8.78466 45.5188 9.66293 44.5962 10.2809C43.6737 10.8989 42.5887 11.2288 41.4787 11.2288C40.7435 11.232 40.015 11.0897 39.3348 10.8102C38.6547 10.5306 38.0364 10.1193 37.5155 9.59992C36.9945 9.08049 36.5811 8.46314 36.299 7.78331C36.017 7.10348 35.8718 6.37456 35.8718 5.63839ZM0.00185663 5.63839C-0.00288886 4.52594 0.322535 3.43716 0.936793 2.51021C1.55107 1.58325 2.42649 0.859934 3.45201 0.432025C4.4775 0.0041149 5.60684 -0.10909 6.69671 0.106776C7.78657 0.322642 8.78784 0.857844 9.57342 1.64447C10.359 2.4311 10.8935 3.4337 11.1091 4.52501C11.3247 5.61633 11.2116 6.74718 10.7843 7.77405C10.3569 8.80092 9.63456 9.67752 8.70884 10.2926C7.78312 10.9077 6.69578 11.2335 5.5848 11.2288C4.10411 11.2288 2.68408 10.6398 1.63706 9.59141C0.590068 8.543 0.00185663 7.12106 0.00185663 5.63839Z" fill="#EF1D5C"/>
</svg>
