<svg width="85" height="174" viewBox="0 0 85 174" fill="none" xmlns="http://www.w3.org/2000/svg">
<path d="M5.63133 161.812C6.75089 161.807 7.84668 162.132 8.77989 162.745C9.7131 163.359 10.4417 164.233 10.8735 165.257C11.3052 166.281 11.4207 167.409 11.2052 168.498C10.9897 169.587 10.453 170.589 9.66307 171.375C8.87311 172.162 7.86545 172.698 6.76775 172.916C5.67004 173.135 4.53168 173.025 3.49687 172.601C2.46207 172.178 1.57738 171.459 0.954871 170.537C0.332367 169.614 6.16693e-05 168.529 5.1446e-05 167.419C3.77877e-05 165.936 0.59256 164.514 1.64794 163.463C2.70332 162.412 4.13561 161.818 5.63133 161.812ZM5.63133 125.942C6.75192 125.937 7.84867 126.263 8.7824 126.877C9.71612 127.491 10.4447 128.367 10.8758 129.392C11.3068 130.418 11.4209 131.547 11.2034 132.637C10.986 133.727 10.4468 134.728 9.65446 135.514C8.86208 136.299 7.85216 136.834 6.75286 137.049C5.65356 137.265 4.51445 137.152 3.48007 136.725C2.44569 136.297 1.56268 135.575 0.94309 134.649C0.323503 133.723 -0.00472724 132.636 5.1446e-05 131.525C5.1446e-05 130.792 0.145709 130.066 0.428707 129.389C0.711706 128.711 1.1265 128.096 1.64942 127.577C2.17233 127.059 2.79312 126.648 3.47634 126.367C4.15955 126.087 4.89182 125.942 5.63133 125.942ZM5.63133 90.0482C6.75089 90.0435 7.84668 90.3683 8.77989 90.9815C9.7131 91.5947 10.4417 92.4687 10.8735 93.4928C11.3052 94.5169 11.4207 95.645 11.2052 96.7342C10.9897 97.8235 10.453 98.8248 9.66307 99.6113C8.87311 100.398 7.86545 100.934 6.76775 101.153C5.67004 101.371 4.53168 101.261 3.49687 100.838C2.46207 100.414 1.57738 99.6952 0.954871 98.7727C0.332367 97.8501 6.16693e-05 96.7651 5.1446e-05 95.6552C3.77877e-05 94.1722 0.59256 92.7497 1.64794 91.6989C2.70332 90.6481 4.13561 90.0546 5.63133 90.0482ZM5.63133 54.1783C6.75192 54.1735 7.84867 54.499 8.7824 55.1132C9.71612 55.7275 10.4447 56.6029 10.8758 57.6284C11.3068 58.6539 11.4209 59.7833 11.2034 60.8732C10.986 61.963 10.4468 62.9643 9.65446 63.7499C8.86208 64.5354 7.85216 65.0699 6.75286 65.2855C5.65356 65.5011 4.51445 65.388 3.48007 64.9607C2.44569 64.5334 1.56268 63.811 0.94309 62.8853C0.323503 61.9596 -0.00472724 60.8722 5.1446e-05 59.7613C5.1446e-05 58.2806 0.593345 56.8605 1.64942 55.8135C2.70549 54.7665 4.13783 54.1783 5.63133 54.1783ZM5.63133 18.2844C6.75089 18.2796 7.84668 18.6044 8.77989 19.2176C9.7131 19.8309 10.4417 20.7049 10.8735 21.729C11.3052 22.7531 11.4207 23.8812 11.2052 24.9704C10.9897 26.0596 10.453 27.0609 9.66307 27.8475C8.87311 28.634 7.86545 29.1704 6.76775 29.3887C5.67004 29.607 4.53168 29.4973 3.49687 29.0737C2.46207 28.65 1.57738 27.9314 0.954871 27.0088C0.332367 26.0863 6.16693e-05 25.0013 5.1446e-05 23.8913C3.77877e-05 22.4084 0.59256 20.9859 1.64794 19.9351C2.70332 18.8843 4.13561 18.2907 5.63133 18.2844ZM29.6791 143.53C30.8074 143.501 31.9186 143.808 32.8696 144.411C33.8206 145.014 34.5679 145.885 35.0154 146.912C35.4628 147.939 35.59 149.076 35.3805 150.176C35.171 151.275 34.6344 152.287 33.8397 153.082C33.0451 153.877 32.0288 154.418 30.9215 154.635C29.8143 154.852 28.6668 154.736 27.6267 154.301C26.5866 153.867 25.7015 153.134 25.0852 152.196C24.4689 151.259 24.1497 150.16 24.1686 149.041C24.1871 147.593 24.7721 146.209 25.8002 145.181C26.8283 144.153 28.2191 143.561 29.6791 143.53ZM29.6791 107.636C30.8034 107.607 31.9107 107.912 32.8596 108.51C33.8085 109.108 34.5559 109.974 35.0063 110.996C35.4566 112.017 35.5895 113.149 35.388 114.246C35.1864 115.343 34.6595 116.355 33.8747 117.154C33.0899 117.952 32.0827 118.501 30.9818 118.729C29.881 118.957 28.7366 118.855 27.6947 118.435C26.6528 118.015 25.7608 117.297 25.1328 116.372C24.5047 115.447 24.169 114.358 24.1686 113.243C24.1682 111.78 24.7441 110.375 25.7735 109.328C26.8029 108.281 28.2044 107.673 29.6791 107.636ZM29.6791 71.7658C30.8044 71.7372 31.9127 72.0422 32.8621 72.6417C33.8116 73.2412 34.559 74.108 35.0087 75.1311C35.4583 76.1542 35.5898 77.2871 35.3863 78.3847C35.1828 79.4823 34.6535 80.4947 33.8662 81.2924C33.0789 82.09 32.0694 82.6366 30.967 82.8621C29.8646 83.0877 28.7193 82.9819 27.6778 82.5584C26.6364 82.1349 25.7461 81.4129 25.1209 80.4848C24.4958 79.5567 24.1642 78.4648 24.1686 77.3488C24.1683 75.8886 24.745 74.4864 25.7751 73.4428C26.8051 72.3992 28.2066 71.7972 29.6791 71.7658ZM29.6791 35.8719C30.8034 35.8433 31.9107 36.1477 32.8596 36.7462C33.8085 37.3446 34.5559 38.21 35.0063 39.2317C35.4566 40.2533 35.5895 41.385 35.388 42.4819C35.1864 43.5788 34.6595 44.5913 33.8747 45.3899C33.0899 46.1885 32.0827 46.7369 30.9818 46.9652C29.881 47.1934 28.7366 47.0911 27.6947 46.6713C26.6528 46.2515 25.7608 45.5332 25.1328 44.6083C24.5047 43.6834 24.169 42.5938 24.1686 41.4788C24.1682 40.0164 24.7441 38.6116 25.7735 37.5641C26.8029 36.5167 28.2044 35.9094 29.6791 35.8719ZM29.6791 0.0019787C30.8044 -0.0266315 31.9127 0.278331 32.8621 0.877848C33.8116 1.47737 34.559 2.34414 35.0087 3.36724C35.4583 4.39035 35.5898 5.5232 35.3863 6.62081C35.1828 7.71842 34.6535 8.73086 33.8662 9.52851C33.0789 10.3262 32.0694 10.8727 30.967 11.0983C29.8646 11.3238 28.7193 11.2181 27.6778 10.7946C26.6364 10.371 25.7461 9.64903 25.1209 8.72094C24.4958 7.79286 24.1642 6.70092 24.1686 5.58493C24.1745 4.1266 24.7531 2.72793 25.7819 1.6856C26.8107 0.643275 28.2086 0.0393627 29.6791 0.0019787ZM54.9353 161.812C56.0548 161.807 57.1506 162.132 58.0838 162.745C59.017 163.359 59.7457 164.233 60.1774 165.257C60.6092 166.281 60.7246 167.409 60.5092 168.498C60.2937 169.587 59.757 170.589 58.967 171.375C58.177 172.162 57.1694 172.698 56.0717 172.916C54.974 173.135 53.8356 173.025 52.8008 172.601C51.766 172.178 50.8813 171.459 50.2588 170.537C49.6363 169.614 49.304 168.529 49.304 167.419C49.3008 166.684 49.4441 165.955 49.7257 165.275C50.0073 164.595 50.4216 163.977 50.9448 163.456C51.468 162.935 52.0899 162.521 52.7747 162.239C53.4595 161.957 54.1937 161.812 54.9353 161.812ZM54.9353 125.942C56.0559 125.937 57.1526 126.263 58.0863 126.877C59.0201 127.491 59.7487 128.367 60.1797 129.392C60.6108 130.418 60.7248 131.547 60.5073 132.637C60.2899 133.727 59.7508 134.728 58.9584 135.514C58.166 136.299 57.1561 136.834 56.0568 137.049C54.9575 137.265 53.8184 137.152 52.784 136.725C51.7496 136.297 50.8666 135.575 50.247 134.649C49.6274 133.723 49.2992 132.636 49.304 131.525C49.304 130.044 49.8973 128.624 50.9534 127.577C52.0094 126.53 53.4418 125.942 54.9353 125.942ZM54.9353 90.0482C56.0548 90.0435 57.1506 90.3683 58.0838 90.9815C59.017 91.5947 59.7457 92.4687 60.1774 93.4928C60.6092 94.5169 60.7246 95.645 60.5092 96.7342C60.2937 97.8235 59.757 98.8248 58.967 99.6113C58.177 100.398 57.1694 100.934 56.0717 101.153C54.974 101.371 53.8356 101.261 52.8008 100.838C51.766 100.414 50.8813 99.6952 50.2588 98.7727C49.6363 97.8501 49.304 96.7651 49.304 95.6552C49.3008 94.92 49.4441 94.1914 49.7257 93.5113C50.0073 92.8312 50.4216 92.2129 50.9448 91.6919C51.468 91.1709 52.0899 90.7576 52.7747 90.4755C53.4595 90.1934 54.1937 90.0482 54.9353 90.0482ZM54.9353 54.1783C56.0559 54.1735 57.1526 54.499 58.0863 55.1132C59.0201 55.7275 59.7487 56.6029 60.1797 57.6284C60.6108 58.6539 60.7248 59.7833 60.5073 60.8732C60.2899 61.963 59.7508 62.9643 58.9584 63.7499C58.166 64.5354 57.1561 65.0699 56.0568 65.2855C54.9575 65.5011 53.8184 65.388 52.784 64.9607C51.7496 64.5334 50.8666 63.811 50.247 62.8853C49.6274 61.9596 49.2992 60.8722 49.304 59.7613C49.304 58.2806 49.8973 56.8605 50.9534 55.8135C52.0094 54.7665 53.4418 54.1783 54.9353 54.1783ZM54.9353 18.2844C56.0548 18.2796 57.1506 18.6044 58.0838 19.2176C59.017 19.8309 59.7457 20.7049 60.1774 21.729C60.6092 22.7531 60.7246 23.8812 60.5092 24.9704C60.2937 26.0596 59.757 27.0609 58.967 27.8475C58.177 28.634 57.1694 29.1704 56.0717 29.3887C54.974 29.607 53.8356 29.4973 52.8008 29.0737C51.766 28.65 50.8813 27.9314 50.2588 27.0088C49.6363 26.0863 49.304 25.0013 49.304 23.8913C49.3008 23.1561 49.4441 22.4276 49.7257 21.7474C50.0073 21.0673 50.4216 20.449 50.9448 19.9281C51.468 19.4071 52.0899 18.9937 52.7747 18.7116C53.4595 18.4296 54.1937 18.2844 54.9353 18.2844ZM78.983 143.53C80.1067 143.525 81.2062 143.852 82.1414 144.47C83.0766 145.088 83.8051 145.967 84.2339 146.997C84.6627 148.027 84.7723 149.16 84.5489 150.251C84.3255 151.343 83.7791 152.344 82.9794 153.127C82.1797 153.909 81.163 154.438 80.059 154.645C78.955 154.853 77.8137 154.729 76.7807 154.291C75.7477 153.853 74.8699 153.119 74.2592 152.184C73.6485 151.249 73.3325 150.155 73.3517 149.041C73.3708 147.573 73.9725 146.171 75.0265 145.139C76.0805 144.108 77.502 143.53 78.983 143.53ZM78.983 107.636C80.1026 107.631 81.1984 107.956 82.1316 108.569C83.0648 109.182 83.7934 110.056 84.2252 111.08C84.6569 112.104 84.7724 113.233 84.5569 114.322C84.3414 115.411 83.8047 116.412 83.0148 117.199C82.2248 117.985 81.2172 118.522 80.1194 118.74C79.0217 118.958 77.8834 118.849 76.8486 118.425C75.8138 118.001 74.9291 117.283 74.3066 116.36C73.6841 115.438 73.3517 114.353 73.3517 113.243C73.3486 112.508 73.4919 111.779 73.7734 111.099C74.055 110.419 74.4693 109.8 74.9925 109.279C75.5158 108.758 76.1376 108.345 76.8224 108.063C77.5072 107.781 78.2415 107.636 78.983 107.636ZM78.983 71.7658C80.1036 71.7611 81.2004 72.0865 82.1341 72.7008C83.0678 73.315 83.7964 74.1905 84.2275 75.216C84.6585 76.2415 84.7725 77.3708 84.5551 78.4607C84.3377 79.5506 83.7985 80.5518 83.0062 81.3374C82.2138 82.123 81.2039 82.6575 80.1046 82.873C79.0053 83.0886 77.8661 82.9756 76.8318 82.5482C75.7974 82.1209 74.9144 81.3985 74.2948 80.4728C73.6752 79.5471 73.347 78.4598 73.3517 77.3488C73.3517 75.8681 73.945 74.448 75.0011 73.401C76.0572 72.354 77.4895 71.7658 78.983 71.7658ZM78.983 35.8719C80.1026 35.8672 81.1984 36.192 82.1316 36.8052C83.0648 37.4184 83.7934 38.2924 84.2252 39.3165C84.6569 40.3406 84.7724 41.4687 84.5569 42.5579C84.3414 43.6472 83.8047 44.6484 83.0148 45.435C82.2248 46.2215 81.2172 46.7579 80.1194 46.9762C79.0217 47.1945 77.8834 47.0849 76.8486 46.6612C75.8138 46.2376 74.9291 45.5189 74.3066 44.5964C73.6841 43.6738 73.3517 42.5888 73.3517 41.4788C73.3486 40.7437 73.4919 40.0151 73.7734 39.335C74.055 38.6548 74.4693 38.0366 74.9925 37.5156C75.5158 36.9946 76.1376 36.5812 76.8224 36.2992C77.5072 36.0171 78.2415 35.8719 78.983 35.8719ZM78.983 0.0019787C80.1036 -0.00275153 81.2004 0.322642 82.1341 0.936915C83.0678 1.55119 83.7964 2.42663 84.2275 3.45213C84.6585 4.47763 84.7725 5.60697 84.5551 6.69683C84.3377 7.78669 83.7985 8.78796 83.0062 9.57354C82.2138 10.3591 81.2039 10.8936 80.1046 11.1092C79.0053 11.3248 77.8661 11.2117 76.8318 10.7844C75.7974 10.3571 74.9144 9.63468 74.2948 8.70896C73.6752 7.78324 73.347 6.6959 73.3517 5.58493C73.3517 4.10423 73.945 2.6842 75.0011 1.63719C76.0572 0.590174 77.4895 0.0019787 78.983 0.0019787Z" fill="#F1356D"/>
</svg>
