<svg width="92" height="92" viewBox="0 0 92 92" fill="none" xmlns="http://www.w3.org/2000/svg">
<path d="M55.2308 3.08036L90.3077 0C90.5128 3.55952 90.7692 7.25595 91.0769 11.0893C91.2821 14.375 91.4872 18.1399 91.6923 22.3839C91.8974 26.4911 92 30.7351 92 35.1161C92 50.0387 89.3846 62.0863 84.1538 71.2589C79.0256 80.2946 70.5128 87.2083 58.6154 92L54.4615 75.3661C58.0513 74.6815 61.1795 73.381 63.8462 71.4643C66.5128 69.4107 68.7179 67.0149 70.4615 64.2768C72.2051 61.5387 73.4872 58.5268 74.3077 55.2411C75.2308 51.8185 75.6923 48.4643 75.6923 45.1786H55.2308V3.08036ZM0.769231 3.08036L36 0C36.2051 3.55952 36.4615 7.25595 36.7692 11.0893C36.9744 14.375 37.1282 18.1399 37.2308 22.3839C37.4359 26.4911 37.5385 30.7351 37.5385 35.1161C37.5385 50.0387 34.9231 62.0863 29.6923 71.2589C24.5641 80.2946 16.0513 87.2083 4.15385 92L0 75.3661C3.58974 74.6815 6.66667 73.381 9.23077 71.4643C11.8974 69.4107 14.1026 67.0149 15.8462 64.2768C17.5897 61.4018 18.8718 58.3214 19.6923 55.0357C20.5128 51.75 20.9231 48.4643 20.9231 45.1786H0.769231V3.08036Z" fill="#F1356D"/>
</svg>
