<svg width="80" height="70" viewBox="0 0 80 70" fill="none" xmlns="http://www.w3.org/2000/svg">
<path d="M3.40693 36.356C0.593217 35.3334 -0.743908 32.5011 0.420382 30.0299L17.7977 2.99225C18.962 0.521015 22.1868 -0.653362 25.0005 0.369214C27.8142 1.39179 29.1514 4.22409 27.9871 6.69533L10.6098 33.7329C9.44546 36.2042 6.22065 37.3786 3.40693 36.356Z" fill="#EF1D5C"/>
<path d="M23.3009 48.7962C21.2482 46.8207 21.4076 43.7578 23.6569 41.955L70.7697 4.1942C73.019 2.39141 76.5064 2.53141 78.559 4.50692C80.6117 6.48243 80.4522 9.54535 78.203 11.3481L31.0902 49.109C28.8409 50.9117 25.3535 50.7717 23.3009 48.7962Z" fill="#EF1D5C"/>
<path d="M37.279 60.6317C34.4339 61.5849 33.0074 64.3833 34.0927 66.8822C35.178 69.381 38.3643 70.6339 41.2094 69.6807L72.8786 60.2469C75.7237 59.2936 77.1503 56.4952 76.065 53.9964C74.9797 51.4976 71.7934 50.2446 68.9483 51.1979C66.1032 52.1511 37.279 60.6317 37.279 60.6317Z" fill="#EF1D5C"/>
</svg>
