<svg width="75" height="83" viewBox="0 0 75 83" fill="none" xmlns="http://www.w3.org/2000/svg">
<path d="M29.1989 32.7817C39.7402 32.4345 49.0429 40.0043 51.4481 52.4326C51.4329 53.5071 51.4789 54.5821 51.5858 55.6501C51.6552 56.2513 52.4235 56.5027 52.5571 55.7889C53.4883 49.3398 54.6296 43.1435 58.598 38.353C60.6381 35.8933 63.0691 33.9523 65.7482 32.644C68.4273 31.3357 71.3006 30.6863 74.1994 30.7341C74.2926 30.7372 74.3845 30.7099 74.4654 30.6553C74.5464 30.6006 74.6134 30.5205 74.6594 30.4234C74.7055 30.3264 74.7287 30.216 74.7268 30.104C74.7249 29.9919 74.6979 29.8823 74.6486 29.7868C74.7953 29.7345 74.831 29.4671 74.6419 29.4511C74.4528 29.4351 74.3287 29.3881 74.1806 29.3713L74.0986 29.3729C68.637 28.4045 62.5804 28.0602 58.0872 23.7635C52.7654 18.6632 52.0723 10.2016 52.0447 2.59612C52.0476 2.37942 52.0022 2.1653 51.9133 1.976C51.8244 1.7867 51.6952 1.62911 51.5391 1.51956L51.5371 1.42081C51.5701 0.600287 50.5083 0.453398 50.3438 1.26665C50.3456 1.35552 50.3063 1.4452 50.2922 1.56402C50.1368 1.67306 50.0088 1.83045 49.9216 2.01981C49.8344 2.20917 49.7912 2.42357 49.7964 2.64068L49.823 3.98355C48.7409 9.4379 47.8461 14.8194 44.8174 19.3937C41.0302 25.0399 35.5358 28.211 29.6196 29.158C29.3347 29.2031 29.075 29.3752 28.8918 29.6403C28.7086 29.9055 28.6153 30.2444 28.6302 30.5901C28.4629 30.7392 28.3385 30.9474 28.2743 31.1861C28.21 31.4247 28.209 31.6819 28.2714 31.9224C28.3338 32.1628 28.4566 32.3746 28.6227 32.5285C28.7888 32.6824 28.9902 32.7709 29.1989 32.7817ZM19.5278 67.092C15.1197 67.0904 11.4188 72.1225 10.6495 80.1093C10.6915 80.7929 10.7051 81.4784 10.6902 82.1631C10.6978 82.5482 10.3485 82.733 10.2901 82.2698C9.76557 78.171 9.15453 74.2615 7.39572 71.254C5.63692 68.2464 3.19906 66.5957 0.738792 66.7136C0.533655 66.7177 0.477763 66.3829 0.530113 66.1251C0.472675 66.1262 0.452158 65.9192 0.525808 65.9078C0.589607 65.8927 0.652312 65.8716 0.713363 65.8448L0.762594 65.8439C3.02181 65.1076 5.55143 64.7612 7.33368 61.9106C9.44218 58.5399 9.54829 53.1247 9.41098 48.2674C9.39578 48.0107 9.46439 47.7577 9.60222 47.5623L9.60124 47.5129C9.59067 46.9797 10.0074 46.8826 10.0912 47.3847L10.0949 47.5723C10.1709 47.6597 10.231 47.765 10.2714 47.8815C10.3119 47.9981 10.3318 48.1233 10.33 48.2492L10.347 49.1083C10.908 52.5643 11.3948 56.0021 12.7564 58.8496C14.4685 62.4014 16.8048 64.3109 19.3097 64.7848C19.5898 64.8385 19.7461 65.2701 19.7542 65.6749C20.041 66.0644 19.9875 67.0927 19.5278 67.092Z" fill="#EF1D5C"/>
</svg>
