<svg width="75" height="83" viewBox="0 0 75 83" fill="none" xmlns="http://www.w3.org/2000/svg">
<path d="M45.5962 32.5168C35.0549 32.1696 25.7522 39.7394 23.347 52.1677C23.3622 53.2422 23.3162 54.3172 23.2094 55.3852C23.14 55.9864 22.3716 56.2379 22.238 55.524C21.3069 49.075 20.1655 42.8786 16.1972 38.0881C14.157 35.6284 11.7261 33.6874 9.04694 32.3791C6.36782 31.0708 3.49453 30.4214 0.595704 30.4692C0.502575 30.4723 0.410669 30.445 0.329697 30.3904C0.248725 30.3357 0.181695 30.2556 0.135688 30.1586C0.089682 30.0615 0.0664082 29.9511 0.0683259 29.8391C0.0702435 29.727 0.0972817 29.6174 0.146583 29.5219C-0.000136565 29.4696 -0.0358803 29.2022 0.153237 29.1862C0.342354 29.1702 0.466414 29.1232 0.614504 29.1064L0.696559 29.108C6.15811 28.1396 12.2147 27.7953 16.708 23.4986C22.0298 18.3983 22.7228 9.93674 22.7504 2.33123C22.7475 2.11453 22.7929 1.90041 22.8818 1.71111C22.9707 1.52181 23.0999 1.36422 23.2561 1.25467L23.258 1.15592C23.225 0.335394 24.2869 0.188505 24.4513 1.00176C24.4496 1.09063 24.4888 1.18031 24.5029 1.29913C24.6583 1.40816 24.7863 1.56556 24.8735 1.75492C24.9607 1.94427 25.0039 2.15867 24.9987 2.37578L24.9721 3.71866C26.0543 9.17301 26.9491 14.5545 29.9777 19.1288C33.7649 24.775 39.2594 27.9461 45.1755 28.8931C45.4604 28.9382 45.7201 29.1103 45.9033 29.3754C46.0865 29.6406 46.1799 29.9795 46.165 30.3253C46.3323 30.4743 46.4566 30.6825 46.5209 30.9212C46.5851 31.1598 46.5861 31.417 46.5237 31.6575C46.4613 31.8979 46.3386 32.1097 46.1724 32.2636C46.0063 32.4175 45.805 32.506 45.5962 32.5168ZM55.2674 66.8271C59.6755 66.8255 63.3764 71.8576 64.1457 79.8444C64.1036 80.528 64.0901 81.2135 64.105 81.8982C64.0973 82.2833 64.4466 82.4681 64.5051 82.005C65.0296 77.9061 65.6406 73.9966 67.3994 70.9891C69.1582 67.9815 71.5961 66.3308 74.0563 66.4487C74.2615 66.4528 74.3174 66.118 74.265 65.8602C74.3225 65.8613 74.343 65.6543 74.2693 65.6429C74.2055 65.6278 74.1428 65.6067 74.0818 65.58L74.0325 65.579C71.7733 64.8427 69.2437 64.4963 67.4615 61.6457C65.353 58.275 65.2468 52.8598 65.3842 48.0025C65.3994 47.7458 65.3307 47.4928 65.1929 47.2974L65.1939 47.248C65.2045 46.7148 64.7877 46.6177 64.7039 47.1198L64.7002 47.3074C64.6243 47.3948 64.5642 47.5001 64.5237 47.6167C64.4832 47.7332 64.4633 47.8584 64.4651 47.9843L64.4481 48.8434C63.8871 52.2994 63.4003 55.7372 62.0387 58.5847C60.3266 62.1365 57.9903 64.046 55.4855 64.5199C55.2053 64.5737 55.049 65.0052 55.041 65.41C54.7542 65.7995 54.8077 66.8278 55.2674 66.8271Z" fill="#EF1D5C"/>
</svg>
