<svg width="130" height="189" viewBox="0 0 130 189" fill="none" xmlns="http://www.w3.org/2000/svg"><path fill-rule="evenodd" clip-rule="evenodd" d="M91.325 80.82c6.232 0 11.877 2.55 15.972 6.65a22.677 22.677 0 016.61 16.07c0 4.58-1.362 8.86-3.677 12.43l9.77 10.71-6.739 6.2-9.423-10.43a22.377 22.377 0 01-12.503 3.8c-6.232 0-11.878-2.55-15.963-6.65a22.67 22.67 0 01-6.61-16.06c0-6.27 2.535-11.95 6.61-16.07a22.339 22.339 0 0115.953-6.65zm-75.57-29.96v47.09c0 .27.1.52.268.69.17.17.408.28.686.28h42.273c2.912.3 3.001 5.37 0 5.81H31.926v10.8c0 .28.1.52.279.69a.95.95 0 00.686.27h26.1c2.108.24 2.794 5.06 0 5.81h-26.07a6.599 6.599 0 01-4.752-2 6.749 6.749 0 01-1.988-4.78v-10.8H16.74a6.599 6.599 0 01-4.751-2A6.749 6.749 0 0110 97.94V16.78c.01-1.86.765-3.58 1.998-4.78 1.232-1.24 2.902-2 4.75-2h70.89a6.63 6.63 0 014.75 1.99 6.757 6.757 0 011.978 4.78v10.8h9.443c1.848 0 3.558.76 4.751 1.99a6.769 6.769 0 011.988 4.78v37.03c-.199 2.12-5.378 2.15-5.815 0V34.36a.96.96 0 00-.268-.69.958.958 0 00-.686-.28h-9.443v37.99c-.507 1.92-4.81 2.21-5.775 0V50.86H15.755zm0-5.35H88.56V16.78c0-.28-.099-.52-.278-.69a.957.957 0 00-.686-.28H16.71c-.278 0-.517.1-.686.28a.961.961 0 00-.268.69v28.73zm32.98-13.97h4.69c.249 0 .418.17.418.42v10.46c0 .25-.169.42-.418.42h-4.69c-.25 0-.418-.17-.418-.42V31.96c0-.16.169-.42.417-.42zm23.118 0h4.692c.248 0 .417.17.417.42v10.46c0 .25-.169.42-.417.42h-4.692c-.248 0-.417-.17-.417-.42V31.96c0-.16.169-.42.417-.42zm-11.56-8.85h4.692c.258 0 .418.17.418.42V42.5c0 .25-.17.42-.418.42h-4.691c-.249 0-.418-.17-.418-.42V23.11c0-.25.17-.42.418-.42zm-34.668 3.2h4.691c.249 0 .418.17.418.42V42.5c0 .25-.17.42-.418.42h-4.691c-.249 0-.418-.17-.418-.42V26.32c-.08-.26.17-.43.418-.43zm11.55-3.2h4.69c.25 0 .418.17.418.42V42.5c0 .25-.169.42-.417.42h-4.691c-.249 0-.418-.17-.418-.42V23.11c0-.25.169-.42.418-.42zm15.267 54.49l13.07.23c0 4.72-2.306 9.05-6.153 11.68l-6.918-11.91zm-.716-4.02l-.15-15.32v-1.01l1.005.08c1.232.08 2.465.31 3.618.62s2.226.77 3.31 1.31c5.307 2.79 8.995 8.36 9.303 14.7l.08 1.01h-1.005l-15.147-.46h-.845l-.17-.93zm1.69-14.4l.149 13.47 13.309.39c-.537-5.26-3.767-9.83-8.23-12.22-.925-.47-1.919-.86-2.922-1.17-.845-.16-1.541-.31-2.306-.47zm-5.358 17.05l7.465 13c-2.306 1.32-4.84 2.01-7.465 2.01-8.23 0-14.919-6.73-14.919-15.02 0-8.05 6.312-14.7 14.303-15.01l.616 15.02zm55.274 15.64c-3.072-3.09-7.316-5.01-12.007-5.01-4.682 0-8.936 1.92-12.007 5.01a17.087 17.087 0 00-4.98 12.08c0 4.71 1.909 8.99 4.98 12.08 3.071 3.09 7.315 5.01 12.007 5.01 4.681 0 8.935-1.92 12.007-5.01a17.106 17.106 0 004.979-12.08c0-4.71-1.908-8.99-4.979-12.08z" fill="#fff"/><path d="M24.24 167.88l-1.104-3.096h-7.2l-1.08 3.096H12.36l6.072-16.8h2.304l6.048 16.8H24.24zm-4.728-13.344l-2.856 8.184h5.76l-2.856-8.184h-.048zm9.952 13.344v-12.72h2.28v1.224h.048c.336-.432.816-.816 1.464-1.128a4.77 4.77 0 012.016-.456c1.392 0 2.496.432 3.336 1.272.816.864 1.248 2.016 1.248 3.48v8.328h-2.352v-7.656c0-2.16-.912-3.264-2.688-3.264-.912 0-1.656.264-2.208.792-.552.528-.816 1.224-.816 2.136v7.992h-2.328zm21.832 0v-1.344h-.048c-.192.36-.6.744-1.248 1.128-.648.384-1.488.576-2.496.576-1.464 0-2.568-.336-3.288-1.032-.72-.696-1.08-1.584-1.08-2.64s.312-1.896.96-2.496c.648-.576 1.752-1.08 3.312-1.464 1.368-.336 2.304-.648 2.784-.912.48-.24.744-.624.744-1.128 0-.48-.216-.888-.624-1.224-.432-.336-1.056-.504-1.872-.504-1.584 0-2.568.816-2.952 2.4l-2.04-.72c.216-1.104.744-1.992 1.608-2.688.84-.672 1.944-1.032 3.336-1.032 1.488 0 2.664.384 3.576 1.152.912.768 1.368 1.944 1.368 3.528v8.4h-2.04zm-3.36-5.568c-1.008.288-1.68.576-2.016.888a1.666 1.666 0 00-.504 1.224c0 1.176.768 1.752 2.304 1.752 1.056 0 1.896-.216 2.472-.696.576-.456.864-1.032.864-1.704v-2.856h-.048a1.155 1.155 0 01-.288.384c-.144.096-.432.24-.888.432-.48.192-1.104.384-1.896.576zm9.404 5.568v-17.52h2.4v17.52h-2.4zm7.43 5.4l2.448-6.288-4.8-11.832h2.448l3.48 9.096 3.456-9.096h2.4l-7.152 18.12h-2.28zm13.148-9.384V157.2h-1.872v-2.04h1.92v-3.12h2.232v3.12h3.168v2.04h-3.144v6.456c0 .72.096 1.248.312 1.536.216.288.648.432 1.32.432h.96v2.256h-1.128c-1.392 0-2.352-.312-2.928-.984-.576-.648-.84-1.656-.84-3zm8.83 3.984v-12.72h2.328v12.72h-2.328zm-.096-15.048v-2.472h2.52v2.472h-2.52zm14.818 10.08l2.328.576c-.24 1.488-.816 2.64-1.752 3.48-.96.864-2.184 1.272-3.672 1.272-1.727 0-3.12-.6-4.2-1.8-1.08-1.2-1.608-2.832-1.608-4.92s.552-3.72 1.68-4.92c1.105-1.2 2.497-1.8 4.153-1.8 1.44 0 2.663.456 3.623 1.32.96.864 1.536 1.992 1.704 3.384l-2.28.36c-.144-.84-.456-1.536-.96-2.088s-1.2-.84-2.088-.84c-1.08 0-1.944.408-2.567 1.2-.648.816-.96 1.944-.96 3.384 0 1.464.312 2.592.936 3.408.623.816 1.511 1.2 2.615 1.2.889 0 1.584-.288 2.088-.912.48-.6.816-1.368.96-2.304zm4.645.696l2.16-.48c.24 2.088 1.32 3.12 3.288 3.12.912 0 1.632-.168 2.136-.504.48-.336.744-.768.744-1.32s-.24-.96-.696-1.248c-.48-.288-1.44-.624-2.904-1.056-1.536-.408-2.64-.888-3.288-1.44-.672-.552-.984-1.296-.984-2.256 0-.96.384-1.824 1.2-2.544s1.92-1.08 3.336-1.08 2.544.336 3.384 1.008c.816.672 1.392 1.584 1.704 2.688l-2.016.552c-.504-1.512-1.512-2.28-3.048-2.28-.768 0-1.368.168-1.776.48-.432.312-.624.672-.624 1.104 0 .48.216.84.648 1.08.432.24 1.44.6 3.024 1.032 1.584.456 2.664.984 3.264 1.584.6.6.912 1.392.912 2.4s-.408 1.896-1.224 2.664c-.84.768-2.088 1.128-3.72 1.128-1.728 0-3.024-.432-3.936-1.32-.912-.864-1.44-1.968-1.584-3.312z" fill="#fff"/></svg>