<svg width="114" height="169" viewBox="0 0 114 169" fill="none" xmlns="http://www.w3.org/2000/svg"><path d="M42.881 62.313a1.94 1.94 0 012.781-2.705l6.558 6.756 15.107-15.986a1.941 1.941 0 012.827 2.66l-16.502 17.46-.06.061a1.94 1.94 0 01-2.743-.037l-7.968-8.209zm1.25 39.745a2.273 2.273 0 01-.482-4.503c-1.304-7.368-4.85-11.429-8.6-15.72-2.92-3.34-5.95-6.81-8.34-11.918-2.354-5.035-3.643-10.23-3.596-15.629.046-5.4 1.425-10.96 4.403-16.713l.06-.108h-.002c3.912-6.62 9.377-11.037 15.468-13.523 5.111-2.086 10.662-2.799 16.101-2.3 5.422.497 10.73 2.197 15.365 4.938 5.905 3.49 10.75 8.667 13.42 15.206 1.443 3.539 2.42 7.493 2.538 11.816.12 4.312-.62 8.959-2.608 13.879-2.663 6.59-6.18 10.681-9.473 14.513-3.03 3.526-5.854 6.813-7.418 11.839a2.272 2.272 0 01-.212 4.463l-.768.108a36.086 36.086 0 00-.27 3.514l.252-.036a2.274 2.274 0 01.624 4.503l-.778.11.031.454.001-.001c.07.88.076 1.729.027 2.545l.131-.016a2.276 2.276 0 11.552 4.52l-1.682.206c-1.197 3.112-3.336 5.476-5.866 6.945a12.702 12.702 0 01-5.61 1.71 11.553 11.553 0 01-5.777-1.135c-2.084-1.019-3.943-2.71-5.293-5.139a2.278 2.278 0 01-1.159-2.642 20.23 20.23 0 01-.869-3.827l-.069.01a2.273 2.273 0 01-.624-4.503l.542-.076a46.26 46.26 0 00-.019-3.49zM2.181 58.856a2.115 2.115 0 01-.133-4.227l8.702-.3a2.115 2.115 0 11.132 4.227l-8.7.3zm108.501-8.605a2.117 2.117 0 01.43 4.21l-8.659.913a2.116 2.116 0 01-.43-4.211l8.659-.912zM94.908 14.783a2.116 2.116 0 013.515 2.354l-4.836 7.241a2.116 2.116 0 01-3.515-2.354l4.836-7.24zM57.626 2.064a2.114 2.114 0 114.226.1l-.22 8.704a2.114 2.114 0 01-4.226-.098l.22-8.706zm-43.74 13.464a2.117 2.117 0 012.883-3.098l6.365 5.94a2.116 2.116 0 11-2.885 3.1l-6.364-5.941zM47.88 96.951l18.492-2.625c1.592-6.701 5.053-10.73 8.797-15.085 3.076-3.579 6.362-7.401 8.76-13.337 1.758-4.351 2.413-8.428 2.311-12.187-.103-3.748-.965-7.213-2.24-10.34-2.3-5.633-6.506-10.113-11.646-13.15a32.704 32.704 0 00-13.592-4.375c-4.773-.436-9.644.189-14.128 2.02-5.26 2.146-9.99 5.974-13.394 11.718-2.639 5.12-3.859 10.02-3.9 14.73-.04 4.737 1.105 9.33 3.198 13.806 2.133 4.56 4.965 7.802 7.692 10.923 4.238 4.851 8.244 9.44 9.65 17.901zm17.743 2.073l-17.27 2.45c.054 1.098.071 2.253.047 3.47l17.053-2.421c.013-1.235.07-2.399.17-3.5zm-17.137 10.498c.12.921.297 1.766.525 2.537l16.553-2.036a13.57 13.57 0 00.055-2.743v-.017l-.012-.172-17.12 2.431zm2.887 6.836a7.381 7.381 0 002.104 1.554 7.35 7.35 0 003.672.72 8.46 8.46 0 003.736-1.146 9.128 9.128 0 002.877-2.652l-12.389 1.524zm-17.586 41.524v-16.8h2.4v16.8h-2.4zm15.14-4.536v-3.408c0-.768-.288-1.464-.84-2.088-.576-.6-1.32-.912-2.256-.912-1.152 0-2.016.408-2.64 1.2-.624.792-.912 1.92-.912 3.384 0 1.488.288 2.616.912 3.408.6.816 1.488 1.2 2.64 1.2.912 0 1.656-.264 2.232-.816.576-.552.864-1.2.864-1.968zm.192 4.536v-1.224h-.048c-.936 1.056-2.136 1.584-3.6 1.584-1.68 0-3.024-.6-4.032-1.824-1.008-1.2-1.488-2.832-1.488-4.896 0-2.016.528-3.648 1.584-4.872 1.056-1.224 2.376-1.848 3.912-1.848 1.368 0 2.52.528 3.432 1.584h.048v-6.024h2.328v17.52h-2.136zm15.012-4.056l1.752 1.32a6.348 6.348 0 01-2.064 2.232c-.888.576-1.968.864-3.216.864-1.776 0-3.192-.6-4.296-1.824-1.104-1.224-1.656-2.856-1.656-4.896 0-2.016.528-3.648 1.632-4.872 1.104-1.224 2.496-1.848 4.2-1.848 1.68 0 3.072.624 4.152 1.824 1.056 1.2 1.608 2.832 1.608 4.896v.696h-9.216c.024 1.152.336 2.088.936 2.832.6.744 1.464 1.104 2.592 1.104.528 0 .984-.072 1.392-.216.408-.144.768-.36 1.056-.648a7.19 7.19 0 00.648-.72c.12-.168.288-.408.48-.744zm-7.08-3.432h6.864c-.048-.96-.36-1.8-.912-2.472-.576-.672-1.416-1.032-2.52-1.032-1.08 0-1.92.384-2.496 1.104-.6.72-.912 1.536-.936 2.4zm19.921 7.488v-1.344h-.048c-.192.36-.6.744-1.248 1.128-.648.384-1.488.576-2.496.576-1.464 0-2.568-.336-3.288-1.032-.72-.696-1.08-1.584-1.08-2.64s.312-1.896.96-2.496c.648-.576 1.752-1.08 3.312-1.464 1.368-.336 2.304-.648 2.784-.912.48-.24.744-.624.744-1.128 0-.48-.216-.888-.624-1.224-.432-.336-1.056-.504-1.872-.504-1.584 0-2.568.816-2.952 2.4l-2.04-.72c.216-1.104.744-1.992 1.608-2.688.84-.672 1.944-1.032 3.336-1.032 1.488 0 2.664.384 3.576 1.152.912.768 1.368 1.944 1.368 3.528v8.4h-2.04zm-3.36-5.568c-1.008.288-1.68.576-2.016.888a1.666 1.666 0 00-.504 1.224c0 1.176.768 1.752 2.304 1.752 1.056 0 1.896-.216 2.472-.696.576-.456.864-1.032.864-1.704v-2.856h-.048a1.155 1.155 0 01-.288.384c-.144.096-.432.24-.888.432-.48.192-1.104.384-1.896.576z" fill="#fff"/></svg>