<svg width="110" height="127" viewBox="0 0 110 127" fill="none" xmlns="http://www.w3.org/2000/svg"><path d="M107.105 55.83h-9.603c-1.599 0-2.895 1.127-2.895 2.516v19.92c0 1.39 1.296 2.516 2.895 2.516h9.603c1.599 0 2.895-1.126 2.895-2.515v-19.92c0-1.39-1.296-2.516-2.895-2.516zm-23.652-9.564H73.85c-1.599 0-2.895 1.126-2.895 2.515v29.486c0 1.389 1.296 2.515 2.895 2.515h9.603c1.599 0 2.894-1.126 2.894-2.515V48.782c0-1.39-1.295-2.516-2.894-2.516zM36.15 55.83h-9.603c-1.599 0-2.895 1.127-2.895 2.516v19.92c0 1.39 1.296 2.516 2.895 2.516h9.603c1.599 0 2.895-1.126 2.895-2.515v-19.92c0-1.39-1.296-2.516-2.895-2.516zm-23.652-9.564H2.895c-1.6 0-2.895 1.126-2.895 2.516v29.485c0 1.39 1.296 2.515 2.895 2.515h9.603c1.599 0 2.894-1.126 2.894-2.515V48.782c0-1.39-1.295-2.516-2.894-2.516zm47.304-12.717h-9.604c-1.598 0-2.894 1.126-2.894 2.515v42.203c0 1.39 1.295 2.515 2.894 2.515h9.604c1.598 0 2.894-1.126 2.894-2.515V36.064c0-1.39-1.296-2.515-2.894-2.515z" fill="#fff"/><path d="M104.526 43.457c1.947 0 3.589-1.38 3.589-3.119v-10.08c0-1.723-1.607-3.12-3.589-3.12s-3.589 1.397-3.589 3.12v2.52L64.486.92c-.754-.658-1.803-.991-2.869-.907-1.064.084-2.03.575-2.634 1.34L31.522 36.089 7.402 22.737c-1.671-.926-3.89-.499-4.955.954-1.065 1.453-.573 3.381 1.099 4.307l27.041 14.97c.597.33 1.265.49 1.925.49 1.145 0 2.268-.476 2.962-1.354L62.448 7.985 95.896 37.22h-2.97c-1.981 0-3.588 1.396-3.588 3.119 0 1.722 1.607 3.119 3.589 3.119h11.599zm-82.084 72.685c-1.008 0-1.92-.168-2.76-.504-.84-.336-1.584-.864-2.256-1.56-.672-.672-1.2-1.608-1.584-2.784-.384-1.176-.576-2.544-.576-4.104 0-1.368.192-2.616.6-3.72.384-1.104.936-2.016 1.608-2.712a7.487 7.487 0 012.28-1.584 6.702 6.702 0 012.664-.552c1.656 0 3.072.528 4.224 1.536 1.152 1.032 1.848 2.376 2.136 4.056l-2.448.432c-.528-2.496-1.824-3.768-3.888-3.768-1.344 0-2.448.552-3.336 1.632-.912 1.08-1.344 2.64-1.344 4.68 0 2.208.432 3.888 1.296 5.016.864 1.128 1.992 1.68 3.384 1.68 1.272 0 2.28-.384 3-1.152.72-.768 1.08-1.824 1.08-3.216h-3.864v-2.136h6.216v1.824c0 2.16-.6 3.864-1.776 5.088-1.2 1.248-2.736 1.848-4.656 1.848zm9.955-.36v-12.72h2.232v1.368h.048c.24-.48.624-.864 1.104-1.152.48-.288.984-.432 1.512-.432.432 0 .792.096 1.128.24l-.408 2.304a2.76 2.76 0 00-.984-.192c-1.536 0-2.304 1.056-2.304 3.12v7.464h-2.328zm13.481-1.752c1.008 0 1.848-.384 2.496-1.2.624-.816.96-1.944.96-3.408 0-1.44-.336-2.544-.96-3.36-.648-.816-1.488-1.224-2.496-1.224-1.056 0-1.92.408-2.568 1.2-.648.792-.96 1.92-.96 3.384 0 1.488.312 2.616.984 3.408.648.816 1.488 1.2 2.544 1.2zm0 2.112c-1.704 0-3.096-.576-4.2-1.776-1.104-1.176-1.632-2.832-1.632-4.944 0-2.064.552-3.72 1.68-4.92 1.104-1.2 2.496-1.8 4.152-1.8 1.608 0 2.976.6 4.08 1.8 1.104 1.2 1.68 2.856 1.68 4.92 0 2.112-.552 3.768-1.632 4.944-1.08 1.2-2.448 1.776-4.128 1.776zm15.673-13.08h2.112l3.24 9.216h.048l1.872-9.216h2.304l-2.808 12.72h-2.256l-3.432-9.984h-.048l-3.432 9.984h-2.256l-2.808-12.72h2.304l1.92 9.216h.048l3.192-9.216zm13.412 8.736v-6.696h-1.871v-2.04h1.92v-3.12h2.231v3.12h3.169v2.04h-3.145v6.456c0 .72.097 1.248.313 1.536.216.288.648.432 1.32.432h.96v2.256h-1.13c-1.391 0-2.352-.312-2.927-.984-.576-.648-.84-1.656-.84-3zm8.735 3.984v-17.52h2.328v6.072h.047c.313-.456.793-.84 1.44-1.152a4.76 4.76 0 012.088-.48c1.344 0 2.448.432 3.288 1.248.817.84 1.249 1.992 1.249 3.48v8.352h-2.329v-7.776c0-.96-.24-1.704-.695-2.28-.48-.576-1.153-.864-2.065-.864-.912 0-1.632.288-2.184.816-.575.552-.84 1.248-.84 2.112v7.992h-2.328z" fill="#fff"/></svg>