<svg version="1.0" xmlns="http://www.w3.org/2000/svg" width="1030.667" height="266.667" viewBox="0 0 773 200"><path d="M54.8 22.7C39.5 27.6 27 31.7 27 32c0 .3 3.4 2.9 7.5 5.8l7.4 5.3 29.3-9.2c16.1-5.1 31.5-9.4 34.2-9.7l4.9-.5-2.4-1.9c-5.6-4.4-12.4-7.1-18.9-7.5-5.9-.3-9 .5-34.2 8.4zm17.7 14.6l-29 9.3-.3 50.7c-.2 38.6.1 50.7 1 50.7.6 0 4.2-1 8-2.2l6.8-2.2v-25.1l26.8-8.3c25.8-8.1 26.8-8.3 30.7-7 2.5.8 4.8 2.6 6.2 4.7 2 3 2.3 4.6 2.3 13.1 0 8.8-.3 10.2-3 15.8-3.3 6.5-8.6 11.9-14.8 15.1-2.1 1.1-10.4 4-18.3 6.5-49.6 15.4-60.5 18.9-61.2 19.5-.7.7 10.8 9.6 13.8 10.7 1.7.7 70.4-21 76.7-24.2 14.9-7.5 21.6-19.8 22.5-40.9.6-15.2-1.1-20.8-8.7-27.9l-4.9-4.6 3.4-6.3c4.2-7.8 5.9-16.2 5.3-27.4-.5-9.5-1.7-13-7.3-19.8-4.7-5.8-11.4-8.9-20-9.2-6.4-.2-9.4.5-36 9zm40.2 7.6c5.9 2.7 7.6 6.5 7.4 16.5-.2 12.6-3.2 19-10.9 24.1-2.9 1.8-47 16.5-49.6 16.5-.3 0-.6-9.9-.6-22V58.1l18.8-6c22.3-7.1 28.4-8.9 29.7-9 .6 0 2.9.8 5.2 1.8z"/><path d="M103.3 48c-2.1.8-2.3 1.6-2.3 8.1 0 8.3-1.7 12.1-6.6 14.4-1.8.8-9.5 3.5-17.1 5.8l-13.8 4.3-.3 8.3c-.2 6.5 0 8.2 1 7.9.7-.3 9.6-3.1 19.8-6.3 10.2-3.2 20.1-6.6 22.2-7.6 6.7-3.4 10.8-12.1 10.8-23 0-5-.4-6.3-2.7-8.9-3-3.3-7.5-4.5-11-3z"/><path d="M24 104.4c0 55 .3 69.6 1.3 69.6.6 0 18.9-5.6 40.6-12.4 42.5-13.4 44.9-14.5 50.8-23 5.2-7.6 6.8-22.6 3.1-28.6-1.8-2.8-6-4.2-10.2-3.5l-3.6.7v8.4c0 9.3-1.3 13.6-5.3 17.2-1.7 1.6-11.5 5.2-30.8 11.3-15.6 4.9-28.7 8.9-29.1 8.9-.4 0-.8-24-.8-53.3V46.4l-2.7-2c-1.6-1.1-5.2-3.7-8-5.8L24 34.8v69.6zm253.1-47c-1.3.7-3 2.4-3.7 3.7-5.7 10.2 7.7 19.8 15.7 11.3 7.3-7.8-2.6-20.2-12-15zm-77.8 1.9l-6.3 2.1v93.7l7.3-.3c7-.3 7.2-.4 7.5-3l.3-2.7 3.6 2.5c5 3.4 10.8 4.7 17.9 4.1 28.4-2.2 41.2-37.6 21.4-59.1-10-10.8-28.3-13.6-39.4-6.1l-3.6 2.4V75c0-13.8-.3-18-1.2-17.9-.7 0-4.1 1-7.5 2.2zm33.4 41.8c14.7 5.5 16.6 30.4 2.9 38.4-7.5 4.4-19.2 3-25.1-2.9-2.4-2.4-2.5-3-2.5-15.6 0-12.7.1-13.2 2.5-15.4 5.6-5.2 15.2-7.2 22.2-4.5zm426.1-41.8l-6.8 2v15.8c0 8.8-.2 15.9-.5 15.9-.2 0-2-1.1-4-2.4-2-1.4-6.1-3-9.2-3.6-14.7-3.1-29.5 4.6-36.1 18.7-2.3 5-2.7 7.1-2.7 15.3 0 8.2.4 10.3 2.6 15.1 3.6 7.5 8.9 13.3 15.4 16.5 9.8 4.7 23.3 4.2 30.7-1.2l3.3-2.5.3 3 .3 3.1h6.9c5.3 0 6.9-.4 7.4-1.6.9-2.3.7-95.2-.1-95.7-.5-.3-3.8.5-7.5 1.6zm-15.1 42.8c7.5 3.6 8.3 5.4 8.3 18.9 0 13.3-.9 15.4-8.1 19-5.2 2.7-15.2 2.7-19.5.1-6.2-3.8-10.4-11.7-10.4-19.5 0-4.5 3.7-13.2 6.6-15.7 6.1-5.3 15.6-6.4 23.1-2.8zM323.5 70.5l-7 2.2-.3 7.7-.3 7.6h-17l.3 6.2.3 6.3 8.2.3 8.2.3.3 19.7c.4 23.1 1.1 25.6 9.3 30.7 4 2.4 6.1 3 12.2 3.4 7 .3 15.8-1.2 16.8-2.9.3-.5-.5-3.4-1.7-6.5-1.6-4.3-2.5-5.4-3.7-4.9-.9.4-3.9.9-6.8 1.2-4.8.4-5.5.2-8.3-2.6l-3-3V101h20V88h-19.9l-.3-9.8-.3-9.9-7 2.2zm67.4 16.8c-2.5.7-6 2.3-7.7 3.6l-3.2 2.2v-2.5c0-2.6-.1-2.6-7.5-2.6H365v97l2.8-.6c1.5-.4 4.7-1.4 7.2-2.3l4.5-1.7.3-15.6.3-15.7 3.6 2.4c10.9 7.5 28.6 5.2 38.8-5 6.9-6.9 11.4-20.1 10-29.3-1.8-12.3-9.9-24-19.3-28-6.3-2.7-16.3-3.6-22.3-1.9zm17.4 15.7c8.4 5.8 11.4 19.4 6.3 29-6 11.4-22.2 13.8-31.8 4.7-2.8-2.6-2.8-2.7-2.8-15.4.1-14.3.2-14.8 7.1-18.8 5.9-3.5 15.7-3.2 21.2.5zM466 87.6c-24.3 6.4-32.1 39.1-14.1 58.7 9.5 10.3 27.9 12.7 39 5.1l3.6-2.4.3 3 .3 3H509V88h-7c-6.8 0-7 .1-7 2.5 0 3.1-.1 3.1-4.5.1-3.6-2.5-11.4-4.7-16.3-4.5-1.5 0-5.2.7-8.2 1.5zm20.7 14.5c7.5 3.6 8.3 5.4 8.3 18.9 0 13.3-.9 15.4-8.2 19.1-4.9 2.5-14.3 2.7-18.6.5-6.5-3.4-11.2-11.9-11.2-20.2 0-4.3 3.7-13 6.6-15.6 5.9-5.2 15.5-6.4 23.1-2.7zm65.1-14.8c-2.6.8-6.3 2.6-8.2 4.1l-3.6 2.7V88h-15l.2 33.2.3 33.3 7.3.3 7.2.3v-22.4c0-21.6.1-22.5 2.3-25.7 6.3-9.2 22.1-9.4 26.8-.3 1 2.1 1.5 8.7 1.9 25.3l.5 22.5 7.3.3 7.2.3v-22.9c0-26.3-.8-30.8-6.8-37.4-6.4-7.2-17.6-10.2-27.4-7.5zm153.2.1c-16.5 4.4-27.5 23-24 40.2 2.4 11.7 9.1 20.8 18.8 25.5 6.7 3.3 20.8 3.3 26.9.1 2.3-1.2 4.5-2.7 5-3.4.5-.9.9-.3 1.3 1.7.5 3 .6 3 7.8 3.3l7.2.3V88h-7.5c-7.3 0-7.5.1-7.5 2.5V93l-3.7-2.4c-6.6-4.4-15.7-5.6-24.3-3.2zm19.3 14.2c1.8.9 4.4 2.8 6 4.2 2.7 2.5 2.7 2.7 2.7 15.4 0 12.8 0 12.9-2.7 15.5-6.4 5.9-17.4 7.2-24.8 2.9-13.5-8-12.3-31.8 2-38.2 4.2-1.8 12.9-1.7 16.8.2zm-450.1 19.6l.3 33.3 7.3.3 7.2.3V88h-15l.2 33.2z"/></svg>