<svg version="1.0" xmlns="http://www.w3.org/2000/svg" width="1406.667" height="502.667" viewBox="0 0 1055 377"><path d="M20.7 40.7c-.4.3-.7 51.1-.7 112.8 0 88.7.3 112.5 1.3 113.3 2.6 2.2 12.2 5.3 24 7.8 16.6 3.4 38.7 4.3 51 2 26.6-5.1 45.2-18.2 55.2-39.1 10.9-22.8 12.3-48 4-73-4.2-12.8-9.2-21.2-16.9-28.9-21.6-21.3-53.7-24.5-81-8.1-3.2 1.9-6 3.5-6.2 3.5-.2 0-.4-20.5-.4-45.5V40H36.2c-8.2 0-15.2.3-15.5.7zm82.7 108.6c11 5.1 20.5 17.6 24.3 32 2.1 8.1 2.1 24.2-.1 32.4-4.2 16.6-15.9 29.4-30.5 33.7-7.1 2.1-23.3 2.1-34.2 0-13.3-2.5-11.9 2.7-11.9-44.6v-41l3.6-3.3c4.4-4 14-9.3 20.3-11.1 7.5-2.2 21.6-1.2 28.5 1.9zM390.7 40.7c-.4.3-.7 53.2-.7 117.5V275l16.8-.2 16.7-.3.3-54.2.2-54.3 45.8-.2 45.7-.3.3-14.3c.2-12.5.1-14.3-1.4-14.9-.9-.3-21.5-.7-45.8-.7l-44.1-.1-.3-32.7L424 70l45.7-.2 45.8-.3v-29l-62.1-.3c-34.1-.1-62.4.1-62.7.5zm158-.1c-.4.4-.7 53.3-.7 117.6V275h31l-.2-117.3-.3-117.2-14.6-.3c-8-.1-14.8.1-15.2.4zM205.8 56c-9.5 2.9-15.3 13.2-12.6 22.4 4.1 13.6 22 17.5 31.1 6.6 8-9.5 4.8-22.9-6.8-28.1-4.3-2-7.4-2.2-11.7-.9zm70.8 61.3c-18.5 18.1-28.7 28.7-28.2 29.5.5.8 4.7 1.2 13.7 1.2 9.7 0 12.9.3 12.9 1.2-.1.7.1 21.3.4 45.8.3 36.9.7 45.5 2 50.4 4.5 16.5 15.9 27.1 33.3 31.2 14.1 3.3 38.2.1 49.1-6.6l3.2-2v-27.9l-7.2 3.4c-13.3 6.1-27.7 8.3-36 5.6-4.5-1.5-10.1-7.5-11.9-12.7-1.1-3.1-1.4-12.9-1.4-45.9v-42l24.3-.3 24.3-.2-.3-13.8-.3-13.7-23-.2c-12.6-.1-23.6-.2-24.2-.2-.9-.1-1.3-4.2-1.5-15.6l-.3-15.5-28.9 28.3zm553.4.7c-31.8 3.3-55.7 27.1-61.6 61.2-2 11.2-1.4 32.1 1.1 41.2 8.6 31.8 30.4 52.4 60 56.6 13.8 1.9 31.2.8 45.4-3.1 8-2.1 22-8.5 26.4-11.9l2.7-2.1v-14.5c0-7.9-.2-14.4-.4-14.4s-3.7 2-7.7 4.5c-14.2 8.8-31.1 13.5-47.8 13.5-10.5-.1-15.5-1.2-24.1-5.2-7.8-3.7-16.7-12.2-20.3-19.4-2.9-5.7-5.7-15.7-5.7-20.3V201l54.3-.2 54.2-.3-.3-10.7c-.8-32.9-18.3-60.1-44.3-68.8-5.3-1.8-21-4.3-24.4-3.8-.5 0-3.9.4-7.5.8zm23.6 28.7c12.2 4.7 19.8 15.2 21.9 30.1l.7 5.2h-77.5l.6-4c.8-6.3 6.4-17.1 11.5-22.3 8.2-8.5 17.1-11.9 29.7-11.3 4.7.2 10.1 1.2 13.1 2.3zm160.2-28.6c-10.4 1.6-23.8 12.4-34.8 28.2l-5.5 7.9-.3-16.6-.2-16.6h-31v77c0 60.9.3 77 1.3 77.1 1.3.1 27.8.1 28.9 0 .4-.1.8-21.1 1-46.9.3-45.4.4-46.9 2.5-52.5 4.3-11.5 12.7-21.8 21.2-25.9 3.6-1.8 6.3-2.3 12.1-2.3 9 0 15.4 2.6 24.2 9.8l5.8 4.7 1.4-2.3c5.8-9.2 14.6-24.1 14.6-24.7 0-1.5-12.4-10.3-18.8-13.3-7-3.3-15.3-4.6-22.4-3.6zm-817.7 2.8c-.8.5-1 20-.9 77.2l.3 76.4 15.3.3 15.2.3-.2-77.3-.3-77.3-14.1-.2c-7.7 0-14.6.2-15.3.6zm420.2-.2c-7.9.2-14.3.5-14.3.8 0 .2 8.4 17.4 18.6 38.2 10.3 20.8 23.5 47.8 29.5 60.1l10.9 22.4-3.9 8.6c-2.2 4.8-6 13.2-8.6 18.7-23.2 48.9-39.5 84-39.5 84.7 0 1.4 31.4 1 33.3-.5 1.3-1 12.8-25 46.4-96.7 2.2-4.7 17.3-36.9 33.7-71.6 16.3-34.8 29.6-63.5 29.6-63.8 0-.4-7.7-.5-17.1-.4l-17.2.3-12.3 27c-6.8 14.8-15.6 34.1-19.6 42.7-3.9 8.7-7.4 15.8-7.7 15.8-.3-.1-9.6-19-20.6-42.1-11.1-23.4-20.8-42.7-21.9-43.5-1.1-.8-2.7-1.3-3.6-1.2-.8.1-7.9.4-15.7.5z"/></svg>