<svg version="1.0" xmlns="http://www.w3.org/2000/svg" width="3334.667" height="1112" viewBox="0 0 2501 834"><path d="M754 416.5V583h50v-10c0-5.5.2-10 .5-10s4.1 2 8.3 4.5c8.7 5.1 20.1 9.7 31.2 12.7 11.2 3 34.7 3.6 47.7 1.3 68.9-12.3 111.6-78.8 94.2-146.8-5-19.6-15.6-37.7-31.3-53.3-18.6-18.5-39.5-29.2-64.3-32.9-28.1-4.2-54.9.8-78.7 14.9l-7.6 4.5V250h-50v166.5zM888.4 400c12.3 3.1 20.9 8.1 30.6 17.9 6.3 6.4 9.5 10.6 12.3 16.1 10.1 20.3 10.1 41.4 0 62-5.4 11-17.9 23.3-29.3 28.9-11.1 5.3-19.4 7.4-30.5 7.4-25.5 0-48.7-14.5-59.8-37.3-10.1-20.6-10.1-39.1 0-59.9 6.2-13 17-24 29.4-29.9 4.6-2.3 11.1-4.8 14.4-5.6 8.9-2.1 23.7-2 32.9.4zM1035 296.5V322h50v-51h-50v25.5zm-748.2 131L194.2 583h63.1l63.2-.1 92-154.4c50.6-85 92.1-154.9 92.3-155.5.3-.7-20.7-1-62.5-1h-62.8l-92.7 155.5zm905-139.6l-24.8 8.6V347h-42v51h41.9l.3 69.7.3 69.8 2.3 6.2c6.2 16.6 20 30.4 36.5 36.4 5.9 2.2 7.8 2.3 39.5 2.7l33.2.3v-49.9l-22.2-.4c-20.6-.3-22.6-.5-26.5-2.5-4.8-2.6-9.4-7.9-11.3-13.1-1.1-2.9-1.5-15.9-1.7-61.4l-.4-57.8 35.5-.2 35.4-.3-8.8-25-8.7-25-26.7-.3-26.6-.2-.2-33.9-.3-33.9-24.7 8.7zM1035 465v118h50V347h-50v118zm270.2-116.6c.2.8 20.8 53.9 45.8 118l45.5 116.6h53.2l43.8-112.3c24.1-61.7 44.9-114.8 46.1-118l2.3-5.7-25.6.2-25.7.3-33.5 85.7c-18.4 47.2-33.7 85.8-34 85.8-.3 0-15.7-38.7-34.1-86l-33.5-86h-25.3c-21.4 0-25.3.2-25 1.4zm345.4.1c-50.5 9.6-88.6 48.7-96.2 98.5-5.7 37.9 6.1 74.6 32.6 101 14.9 14.9 34.9 26.4 54.7 31.7 14.4 3.8 37.5 4.4 52.3 1.3 12.2-2.5 25.3-7.4 36.1-13.6 4.2-2.4 7.9-4.4 8.2-4.4.4 0 .7 4.5.7 10v10h50V347h-50v10c0 10.8-.3 11.3-5.1 8-5.9-4.3-24.1-12.2-33.6-14.6-12.6-3.3-37.2-4.2-49.7-1.9zm42.8 53c19.2 6.7 34.5 22.1 41.2 41.4 13.1 37.5-8.7 77.6-47.6 87.6-8.5 2.2-23.5 2.2-31.9 0-42.5-11-63.7-58.1-43.5-96.5 9-17.2 23.8-28.9 42.7-34.1 10.7-2.9 28.3-2.2 39.1 1.6zm129.6-54.3c0 .2 20.7 53.2 45.9 117.8l45.9 117.5h53.4l45.9-117.5c25.2-64.6 45.9-117.6 45.9-117.8 0-.1-11.4-.2-25.4-.2h-25.4l-2.4 6.2c-24.6 63.3-65.2 166.7-65.4 166.5-.2-.2-56.2-143.1-64.6-165l-3-7.7h-25.4c-14 0-25.4.1-25.4.2zm346.8 1.3c-42.8 7-79.1 38.3-92.7 80.2-4.2 12.9-5.6 22.2-5.5 37.3.1 24.3 6 43.6 20.1 65.3 5.7 9 20.6 24.3 29.6 30.5 47.4 32.7 111.5 27.2 151.6-12.9 16.6-16.6 28.3-38.7 32.8-61.8 2-10.5 2.2-31.7.4-42.1-8.1-46.3-44.4-84.7-89.9-95.1-11.6-2.7-34.6-3.4-46.4-1.4zm36.6 51.5c21.8 5.5 39.6 22.3 47.2 44.5 2.5 7.1 2.8 9.4 2.8 20.5s-.3 13.4-2.8 20.5c-4.1 11.8-8 18.1-17 27.1-13 13-28.9 19.7-47.1 19.7-46.9 0-79.9-48-62.8-91.3 7.9-20 25.3-35.7 45.5-41 10-2.6 24.1-2.6 34.2 0zM493.6 429.2c-3.2 5.1-90.6 153.1-90.6 153.4 0 .2 28.3.4 62.9.4h62.8l44.8-75.8c24.7-41.6 45.5-76.7 46.3-78l1.4-2.2H495l-1.4 2.2z"/></svg>