<svg version="1.0" xmlns="http://www.w3.org/2000/svg" width="2666.667" height="710.667" viewBox="0 0 2000 533"><path d="M1203.5 17.2c-6.6 3.5-19.2 7.8-31.9 10.9-6.6 1.6-12.4 3.3-13 3.9-1.5 1.5 1 3.3 9.1 6.4 8 3 11.9 6.6 12.8 11.9.3 1.8.4 32.9.3 69.2-.3 58-.5 66-1.8 65.8-.8-.1-6-1.1-11.5-2.2-14.6-2.9-24.7-3.5-35.5-2.1-25.3 3.1-45.4 12-61.6 27.3-10.8 10.2-16.5 17.9-22.5 30.2-7.8 15.9-9.3 22.8-9.3 43.5-.1 15.3.2 18.6 2.2 26 8.6 31.6 27.4 51.3 56.5 59.5 24 6.8 46.6 1.7 71.4-16.1 4.1-3 7.9-5.4 8.5-5.4.8 0 .9 3.7.5 12-.6 14.5-.4 14.9 8.8 11.5 7.6-2.9 21.5-6.7 36.4-10 7.9-1.7 12.4-3.3 14.8-5.1 3.3-2.5 4.4-6.1 2-7-.7-.2-7.3 1.1-14.7 3-14.2 3.6-16.2 3.6-17.6-.6-1.8-5.4-.1-265.3 2.2-317.8.7-16.6.1-18-6.1-14.8zm-65.8 174.4c18.4 3.8 33.3 14.5 38.8 27.8 3.3 8 4.5 48.8 2.5 88.6-1.1 22.9-2.4 27.8-8.8 33.8-9.1 8.5-22.2 13.2-37.2 13.2-16.6 0-28.2-4.6-40.1-15.8-12-11.2-19.1-24.8-23-43.6-1.8-8.6-2-12.5-1.6-26.6.6-19.8 3.2-31.5 10.1-45.5 13.2-26.5 33.2-37.3 59.3-31.9zm805-173c-3.2 1.3-11.3 4-18 6-20.1 5.9-20.1 5.9-9.5 13.1 12.4 8.4 11.3-.7 11.1 91.3-.2 74.7-.6 107.3-1.8 157.5-1.3 52-3.1 64.4-10.2 69-1.4 1-6 2.7-10.2 3.9-6.3 1.8-7.7 2.6-7.9 4.4-.3 1.8.2 2.2 2.5 2.2 19.9.4 74.9 0 76.4-.5 2.1-.7 2.6-3 .8-4.1-.6-.3-4.5-1.5-8.7-2.5-8.7-2.2-11.7-4.5-13.5-10.3-.9-3.2-1.2-33.2-1.2-131.1 0-69.9.2-143.7.5-164l.5-37-2.5-.2c-1.4-.1-5.1.9-8.3 2.3zM771.5 23.7c-12.3 4.5-25.1 8.1-41.8 11.8-8.9 2-16.8 4.3-17.6 5-2 2-.9 3.9 5.1 8.3 13.6 10.1 13 7.1 13.6 75.7.7 87.5-1.7 198.6-4.9 224.8-.8 6.7-.8 9.1.1 10.2.7.8 1.6 1.3 2 1 .4-.2 3.3-1.1 6.4-1.9 5.6-1.5 5.7-1.5 14.4 1.9 32.9 12.7 66.8 14.3 95 4.4 34.6-12.2 57.3-35 66.6-67.2 15.5-53.4-12.6-105.7-62.9-116.8-3.5-.8-11.7-1.3-19.5-1.3-11.7.1-14.7.4-22.5 2.8-4.9 1.5-12.3 4.5-16.5 6.7-4.2 2.1-8.2 3.9-8.9 3.9-1.2 0-1.3-9.2-.7-58.8.4-32.3 1.1-69.9 1.6-83.5.8-23.3.5-29.8-1.7-29.7-.5.1-3.9 1.2-7.8 2.7zm45.9 175.1c13 4.7 24.5 14.2 31.8 26.3 7.7 12.6 13.8 37.6 13.8 55.8 0 30.4-7.8 58.8-19.2 70.2-7 7-14.3 10.2-22.7 10.1-17.8-.4-33.6-10.5-37.9-24.4-5.1-16.3-5.7-24.9-5.7-77.8 0-53.4.2-55.4 5.2-58.7 7.2-4.7 23.8-5.4 34.7-1.5zM199.2 46.5c-1.2 1.5-2.4 3.6-2.8 4.8-2 6.5-15.6 20.2-24.3 24.7-4.3 2.2-5.1 3.5-5.1 8.9 0 2.1-.7 6.2-1.6 9.2-3.6 12.3-36.5 98.3-59.6 155.9-26.4 65.9-36.5 86.6-47.4 97.3-5.8 5.7-10.9 8.4-21.9 11.3-12 3.1-13.5 3.9-13.5 6.4 0 2.9 3.7 3.4 18.9 2.4 14.8-1 45.2-1.1 68.2-.4 11.4.4 15 .2 16.2-.9 1.2-.9 1.4-1.8.7-3.1-1.1-2-3.2-2.9-15.2-6.5-22.4-6.6-23.4-16.6-6.6-66 7.8-23 16.2-44.2 18.4-46.6 1.6-1.8 3.7-1.9 46.4-1.9h44.7l2 2.2c3.1 3.5 23.3 58.3 30.3 82.4 6 20.6 2.2 27.8-17 32-8.2 1.8-12 3.6-12 5.9 0 3 3.9 3.7 16.9 3.1 29.1-1.4 72.5-1.8 88.6-.8 20.8 1.3 27.6.3 25.9-4.1-.3-1-3.3-2.5-6.9-3.6-14.9-4.6-18.7-8.5-28.5-28.6-15.8-32.4-48.9-114.5-83-206-15.7-42.2-20.1-54.7-22.1-63.8-3.9-17-5.6-19.5-9.7-14.2zm-24.1 86c14.3 34.4 33.1 86 32.7 89.5-.3 2.3-.8 2.6-6.3 3.1-7.8.9-66.8 1.1-68.9.3-.9-.3-1.6-1.3-1.6-2.2 0-2.8 29.6-86.7 34.5-97.9 1.4-3 3-5.3 3.6-5.1.6.2 3.3 5.7 6 12.3zM978 89.9c-7.5 1.5-13.9 6.7-17.1 13.6-2.2 4.8-2.5 16.1-.6 20.8 6.2 14.6 23.9 18.3 36.2 7.5 5.8-5.1 7.8-10.6 7.3-19.6-.3-5.5-1-7.9-3.4-11.8-4.9-7.9-13.9-12.2-22.4-10.5zm310.5 5.5c-11.7 5.2-13 22.9-2.3 29.7 2.5 1.5 4.5 1.9 8.1 1.6 8.4-.7 14.7-7.4 14.7-15.6 0-12.3-10.4-20.2-20.5-15.7zm282.7.3c-8.2 4-11.6 14.8-7.3 23.2 8.2 16 31.4 6.2 28.1-11.9-1.9-10.3-11.9-15.7-20.8-11.3zm79.7 61.2c-.9.3-4.5 4.1-7.9 8.5-8.5 10.5-19.5 19.7-29.8 24.9-12.5 6.2-12.2 8.1 1.7 11.1 4.4.9 8.7 2.4 9.6 3.2 1.3 1.4 1.5 9 1.5 61.2.1 65.4.4 70.7 5.7 80.3 4.6 8.5 10.6 14.5 18.6 18.4 21.7 10.5 53.5 5.5 70.7-11.2 3.7-3.7 6-6.7 6-8.1 0-1.2-.1-2.2-.3-2.2-.2 0-3.7 1.7-7.8 3.9-17.8 9.2-42 7.8-54.3-3.1-10.5-9.2-11.1-13.6-12.1-95.3-.4-28.1-.2-43.5.4-44.5.9-1.3 5.6-1.5 34.4-1.1 37.7.4 35 .9 36.9-8.2 1-4.8.9-5.8-.6-8.1l-1.7-2.7-23.7.7c-13 .4-28.2.8-33.7.8l-10 .1v-14.2c0-14.3-.3-15.7-3.6-14.4zM427.5 174.8c-3.4 2.9-34.8 15.5-46.5 18.6-14.2 3.8-14.9 5-6.2 12.1 10 8.2 9.2 3.5 9.1 57-.1 54-1 83.8-2.8 87.6-1.6 3.4-5.1 5.3-13.1 7.3-3.6.9-7.4 2.6-8.5 3.7-2 2-2 2-.1 3.5 1.1.8 2.9 1.4 4 1.4 1.2 0 19.9.3 41.6.6 21.7.3 41.7.6 44.3.6 5.2.1 8.4-1.9 7.4-4.5-.3-.8-3.4-2.4-6.9-3.6-10.9-3.6-13.4-6.6-14.9-18-.5-3.6-1.3-32.6-1.9-64.4-.8-48.2-.8-58.3.4-61 4-9.7 23.4-17.4 37.7-14.8 12.1 2.1 21.4 8.3 26 17.3 4.7 9.1 5 12.9 5.9 63.3.9 51.2 1.2 54.1 6.3 64.4 5.3 10.6 19.3 20.6 32.5 23.2 7.7 1.5 24.1.6 32.7-1.6 11.9-3.2 30.6-14.2 41.6-24.4l2.4-2.2.3 14.9c.2 11.4.6 15.3 1.6 16.2 1.1.9 3.4.4 10.3-1.9 11.7-4 29.4-8.3 48.1-11.5 8.4-1.5 16.4-3.1 17.8-3.6 3-1.2 3.2-5 .4-7.5-1.9-1.8-2.6-1.8-9.3-.5-4 .7-9.1 1.5-11.5 1.8-4.1.4-4.3.3-5.8-3.4-1.5-3.5-1.6-10.8-.9-75.9.4-39.6.7-75.6.8-80l.2-8-5.5.1c-3 0-10.3.8-16.1 1.7-7.2 1.2-16.9 1.7-30.1 1.7-19.6 0-25.8.9-25.8 3.6 0 1.8 4.5 4 10 4.9 2.5.4 6.4 1.5 8.8 2.6 5.3 2.3 6.8 5.5 8.2 17.6 1.2 11 1.3 79.8 0 99-1 16.6-2.6 21.2-8.8 26.1-7.2 5.7-12.6 7.6-23.7 8-11.7.5-18.4-1.5-25.3-7.3-8.5-7.3-10.2-17.8-10.2-63.9 0-52.1-3.7-67.3-20.1-83.3-10.1-9.9-21.8-14.3-38-14.3-17.5 0-33.3 6.1-50.9 19.5-4.7 3.5-9.1 6.5-9.9 6.5-1.2 0-1.3-2.3-.7-13.6.5-9.9.4-13.9-.5-15-1.3-1.6-3-1.8-4.4-.6zm562.4 4.7c-11.3 4.7-29.6 10.4-41.9 13-13.1 2.8-13.6 4.9-3 13 9.3 7.2 9 5.7 8.9 41.7 0 17.2-.4 46.1-.8 64.3-.6 32.7-.7 33-3.1 37.5-2.9 5.1-8.3 8.6-14.8 9.6-2.3.3-5.3 1.5-6.5 2.5-2.2 1.9-2.2 1.9-.3 3.4 1.1.8 2.7 1.5 3.5 1.5.9.1 17.1.2 36.1.4s38.6.6 43.5 1.1c7.4.6 9.4.4 11-.8 3-2.4 1-4.6-7-7.9-3.8-1.5-7.7-3.8-8.7-5-4.1-5.5-4.2-7.9-4.3-94.7-.1-49.9-.5-83.6-1.1-83.7-.5-.2-5.7 1.7-11.5 4.1zm416.6-.9c-3.8.8-11.6 3.7-17.3 6.5-8.6 4.2-11.6 6.3-18.5 13.2-9.8 9.6-14.8 18-17.7 29.2-2.4 9.6-2.7 24.5-.5 33 2.1 7.9 7.4 19.1 12.3 25.7 4.5 6.1 18.2 19.2 22.2 21.3 1.5.8 3 2.1 3.3 2.9 1.2 3.1-23 26.2-38.2 36.6-5.6 3.8-6.1 4.4-6.1 7.8 0 12.3 17.6 30.2 35.5 36.2 3.6 1.2 6.5 2.7 6.5 3.4 0 1.3-8.9 13.2-27.2 36.6-11.8 15-14 19.6-14.6 29.3-1.2 21.3 9.6 39.1 30.1 49.2 12.2 6 22.3 8.5 37.7 9.2 21.6 1 38.1-2.6 58.5-12.7 30.4-15.1 52.6-39.9 60.1-67.1 1.3-4.5 1.8-10 1.8-18.4 0-10.3-.4-13.1-2.7-20-4.7-14.1-12.9-23.4-26.2-29.6-9.9-4.7-17.4-5.3-54.2-4.1-46 1.5-59.6.2-70.4-6.6-8.2-5.2-10.2-14.2-5-22.3 4.1-6.5 22.2-23.5 25.7-24.3 1.6-.3 6.3-.2 10.4.4 17.1 2.2 27.8.6 41.6-6 14.8-7.2 25-17.6 32.5-33.5 7.2-15.3 8.2-20.5 8.4-43.2 0-11.1.5-20.6.9-21 .4-.4 8.8-.6 18.6-.5l17.8.4 1.6-3.1c2.1-3.9 2-7.8-.2-12.1l-1.7-3.5h-54l-6.6-3.2c-21.8-10.3-44.7-13.8-64.4-9.7zm32 8.3c11.3 5.6 22.3 19.5 27.6 34.8 4.7 13.8 6.2 35.4 3.3 47.2-3.8 15-14.6 29.8-26.1 35.7-5.3 2.7-6.7 2.9-16.4 2.9-10.1 0-10.8-.1-18-3.7-13.9-6.9-21.5-17.2-27.5-37.3-2.4-8-2.7-10.7-2.8-24.5-.1-13.3.2-16.6 2.2-23.3 4.4-15.3 11.2-24.8 22.1-30.6 7.9-4.2 12.2-5.1 21.5-4.7 6.2.3 9.1 1 14.1 3.5zm45.8 207.6c20 5.2 30.7 19 30.7 39.4-.1 31-20.9 58.2-50.7 66.3-6.3 1.7-10.8 2.1-23.8 2.1-23.2.1-33.1-2.8-47.3-13.5-29-21.9-29.6-57.7-1.3-87.1 7.4-7.6 12-8.4 56.1-8.6 24.2-.1 31.8.2 36.3 1.4zM1292 182.3c-4.6 2.3-14.1 6.2-21 8.7-15 5.5-15.7 6.7-6.5 11.7 3.3 1.9 7.5 4.9 9.3 6.8l3.2 3.5-.1 23.2c0 12.8-.4 41.7-.9 64.3-.8 45.5-1.3 49.1-7.1 53.9-1.7 1.4-6.4 3.6-10.6 4.8-7.2 2.1-9.6 3.9-7.7 5.8.5.5 15.3 1.2 32.9 1.5 17.6.3 33 .6 34.3.6 7.2.3 10-3.9 4.1-6-1.8-.6-3.9-1.1-4.7-1.1-.9 0-3.5-.9-5.8-2-8-3.9-7.8-3-8.4-57-.3-26.1-.3-63.9 0-84s.4-37.1.2-37.8c-.6-1.8-1.9-1.5-11.2 3.1z"/><path d="M1573.8 182.9c-5.3 2.6-14.1 6.2-19.5 8.1-9.9 3.3-14.1 5.9-12.9 7.9.4.6 3.8 2.7 7.7 4.7 11.7 6.2 10.9 3.1 10.8 43.8-.1 53.1-1.4 95.3-3 99.9-2.2 5.8-6.3 9.5-12.7 11.3-8.5 2.3-11.2 3.5-11.2 4.9 0 2.4 3.4 2.7 27 2.6 12.9 0 27.6.3 32.5.8 15.3 1.4 21.8-2.7 10-6.2-12.5-3.8-14.3-5.9-15.6-17.8-.5-4.6-.9-43.5-.7-86.4.1-66.7-.1-78-1.3-78.2-.8-.1-5.8 2-11.1 4.6zm225.7-.6c-19 6.4-42.6 22.8-54 37.7-6 7.8-6.9 10.3-4.6 13.1 1.6 2 2 2.1 5.7.9 6.5-2.2 15.9-6.6 17.7-8.4 1-1 1.7-3.3 1.7-5.4 0-6.2 2-11.2 6-15.6 11.7-12.7 29.4-14.1 45.3-3.5 10 6.6 14.1 22 13.5 50.6-.3 15.5-.5 17.5-2.4 20-1.8 2.4-6 4.2-27.2 11.4-32.8 11.3-44.6 16.1-50.7 20.7-5.6 4.2-10.9 11.5-12.5 17-3.4 12.5 2 29.4 12.5 39.1 17.6 16.2 44.4 13.5 70.1-7 3.4-2.7 6.6-4.9 7.2-4.9.6 0 2 1.9 3.1 4.3 8.6 17.8 26.7 23.3 45.6 14.1 8.4-4.2 16.5-13 16.5-18.2 0-2.7 0-2.7-5.8 0-3.7 1.8-6.4 2.3-13.3 2.3-7.8 0-8.9-.2-12.1-2.7-2.2-1.7-4.3-4.6-5.4-7.4-1.7-4.4-1.7-7.3-.5-49.8 1.2-46.5.8-60.1-2.4-77.4-2.6-13.4-10.1-23.4-22.2-29.4-5.7-2.8-7.8-3.3-15.7-3.5-7.4-.3-10.4.1-16.1 2zm29.8 119.4c-.3 35.1-2.7 41.6-17.9 48.5-4 1.9-6.6 2.3-14.9 2.3-11.5 0-16.4-1.7-23.4-8.1-6.6-5.9-8.6-10.5-8.6-19.9 0-10.5 3.5-18.3 10.1-22.4 7.8-5 48.8-20.3 52.9-19.8 1.9.2 2 .9 1.8 19.4z"/></svg>