<svg version="1.0" xmlns="http://www.w3.org/2000/svg" width="320" height="162.667" viewBox="0 0 240 122"><path d="M38.6 3.9c-1 1.1-1.6 2.8-1.3 3.8.4 1.5.5 1.5.6-.3.1-3 2.6-4.7 5.6-4 2 .5 2.5 1.3 2.5 3.6 0 1.7-.7 3.3-1.7 3.9-1 .6-1.3 1.1-.7 1.1 3.5.1 4.7-7.2 1.5-9-2.9-1.5-4.6-1.2-6.5.9zM29 15.2c-3.3 2.7-7.4 7.1-9.1 9.9-1.8 2.7-3.8 4.9-4.4 4.9-1.7 0-4.5 3.3-4.5 5.3 0 .9.8 2.5 1.7 3.5 1 1 2.5 3.8 3.3 6.2 1 2.7 2.1 4.4 2.9 4.2.8-.2 1.1.3.8 1.2-.6 1.6 6.7 8.9 12 12.1 4.3 2.5 4.8 6 1.4 10.5-8 10.5-18.5 29.8-17.2 31.8.9 1.5 6.8-10.4 6.3-12.7-.2-.9-.1-1.3.3-.9s3.9-4 7.7-9.7C36.3 72.2 37.4 71 40 71c1.6 0 3.1-.4 3.4-.8.2-.4-1.1-.6-2.9-.4-3.1.4-3.5.1-4.3-2.9-.5-1.9-.7-3.6-.6-3.8.2-.2 2.1-.8 4.1-1.2 3.7-.8 3.7-.8-.7-.4-3.3.3-5.1-.1-6.9-1.5-1.4-1-3.2-1.5-4-1.2-.9.3-1.3.2-.9-.3.4-.4-1.2-3-3.7-5.7-2.4-2.7-4.9-6.5-5.6-8.6-.7-2-2.3-4.5-3.6-5.5-3.7-2.9-2.9-6.3 1.9-8 1.2-.4 2.3.2 3.4 1.8 1.5 2.3 1.5 2.7 0 5-.9 1.4-1.4 2.5-1.1 2.5.2 0 1.2-1.1 2.1-2.5 1.5-2.3 1.5-2.7 0-4.9-1.5-2.4-1.4-2.7 2-7.1 6.1-8 14.6-14.7 17.3-13.8.9.4 1.3.3.9-.1-.3-.4-1.8-.9-3.3-1-1.9-.3-4.2.9-8.5 4.6zm3.5-1c-5 4.1-8.4 7.5-11.3 11.3-2.8 3.6-1.7 1.2 1.2-2.8C24.5 19.9 34.7 11 35.8 11c.4 0-1.1 1.5-3.3 3.2zM24 54.5c1.9 1.9 3.2 3.5 2.9 3.5-.3 0-2-1.6-3.9-3.5S19.8 51 20.1 51c.3 0 2 1.6 3.9 3.5zm9.9 20C32.1 77 30.5 79 30.3 79c-.6 0 .6-1.9 3.5-5.8 3.7-4.9 3.8-3.8.1 1.3zM25 88c-.6 1.1-1.3 2-1.6 2-.2 0 0-.9.6-2s1.3-2 1.6-2c.2 0 0 .9-.6 2zm92-64.3c1.4.3 3.2 1.1 4.2 2 1 .9 3 1.3 5.5 1l3.8-.4-4.1-.1c-2.3-.1-4.7-.9-5.4-1.7-.7-.8-2.4-1.4-3.9-1.4l-2.6.2 2.5.4z"/><path d="M112.7 25.5c-.4.8-1.9 1.5-3.4 1.5l-2.8.1 3.1 1.3c1.7.8 3.4 2.1 3.7 3 .9 2.4 6.4 2.1 7.9-.4 1.1-1.7 2.4-2 9.3-2.1 4.4 0 8.9-.5 10-1 1.3-.6-1.4-.7-8-.4-8.4.5-10.2.9-11.4 2.5-1.8 2.7-6.3 2.6-7.9-.1-1-1.6-1.1-2.4-.1-3.5.6-.8 1-1.7.7-2-.3-.3-.8.2-1.1 1.1zM102 29c.8.5 2.9.9 4.5.9 2.6 0 2.7-.2 1-.9-1.1-.5-3.1-.9-4.5-.9-2-.1-2.2.1-1 .9zm39.5 0c-1.7.7-1.6.9 1 .9 1.7 0 3.7-.4 4.5-.9 1.2-.8 1-1-1-.9-1.4 0-3.4.4-4.5.9zm-45 1c.4.7-.3.9-2.2.5-2.1-.5-2.4-.4-1.2.4.9.6 3.3.8 5.3.4 2.6-.4 3.3-.9 2.4-1.4-1.9-1.2-5-1.1-4.3.1zm51.8-.2c-.8.5 1.1 1.3 4.8 2.1 3.9.8 6.5.9 7.1.3 1.2-1.2-3.7-2.5-6.4-1.6-1.4.4-1.8.2-1.4-.5.8-1.3-2.2-1.5-4.1-.3zM89.5 32c.3.5 1.4 1 2.3 1 1.5 0 1.5-.2.2-1-2-1.3-3.3-1.3-2.5 0zm-9.7 2.7c-3.3 1.4-5.5 3-5.1 3.6.4.6 0 .8-1 .4-2.1-.8-12 5.3-21.5 13.5-7.3 6.1-7.9 6.9-8 10.7-.1 2.2.3 4.3.8 4.6.6.4.8 1 .5 1.5-.7 1.1 5.2 3 7.2 2.3 1-.4 1.4-.2 1 .4-.8 1.3 6 3.9 7.1 2.8 1.1-1-2.1-2.5-4.2-1.9-1.1.4-1.6.2-1.2-.4.8-1.3-4.9-3.3-7.1-2.5-1 .4-1.4.2-1-.4.4-.6 0-1.3-.8-1.7C40 65.2 55 50.1 74 40.1c4.9-2.6 8.7-5.1 8.3-5.6-.5-.4.3-.4 1.6 0 1.7.5 2.1.4 1.6-.5s-.1-1 1.5-.5c1.5.5 2 .4 1.6-.4-1-1.6-2.4-1.4-8.8 1.6zM69 41.5c0 .2-1 .9-2.2 1.5-2.2 1.1-2.2 1-.4-.4 2.1-1.7 2.6-1.9 2.6-1.1zm-7 4.6c-1.4 1.1-4.7 3.9-7.5 6.2-2.7 2.3-4.3 3.3-3.5 2.3C52.6 52.5 63.2 44 64 44c.3.1-.6 1-2 2.1zM47.3 58.4c-1 1.3-2 2.2-2.2 2-.4-.4 2.9-4.4 3.6-4.4.2 0-.4 1.1-1.4 2.4zm114.3-25.7c-.9 1 12.3 5.5 13.6 4.7 1.6-1-1.5-2.4-3.6-1.8-1.1.4-1.6.2-1.2-.4.8-1.3-2.2-2.4-4.7-1.6-1.3.4-1.7.2-1.3-.5.8-1.2-1.6-1.5-2.8-.4zm15 5.1c-.3.5.7 1.5 2.2 2.1 1.5.7 3.4 2.6 4.2 4.4 2 4.3 6.2 4.9 8.6 1.2 1.3-2.1 1.5-3.1.6-5-.7-1.4-1.6-2.5-2.2-2.5-.7 0-.4.7.4 1.6 1.9 1.8 2 2.8.6 5.5-1.8 3.2-5.9 2.5-7.5-1.4-1.2-3-1.2-3.3.7-4.3s1.9-1.1-.8-1.1c-1.6 0-3.6-.3-4.5-.7-1-.4-2-.3-2.3.2zM224 60.6v13.6l-4.1-3.6c-6.6-5.6-16.4-6.6-24.4-2.4-15.8 8.3-16.3 39.8-.7 48.5 8.1 4.6 16.1 4.2 24.2-1.2l5-3.4v3.5c0 3.3.1 3.4 4 3.4h4V47h-8v13.6zm-10.7 12.5c2.1.5 5.3 2.4 7.3 4.1l3.5 3.1-.3 13-.3 13.1-4.3 3.1c-3.8 2.6-5.3 3-10.7 3-7.5 0-10.7-1.9-14.5-8.6-4.8-8.6-2.3-23.9 4.7-28.4 5.1-3.4 9-4 14.6-2.4zm-126.6-7c-5.8 1.4-9.1 3.4-13.4 8.3-4.8 5.4-6.3 10.1-6.3 19.3 0 15.4 11 26.3 26.5 26.3 5.6 0 13.4-2.5 17-5.4 2.9-2.3 2.9-2.4 1.1-5.1-1.6-2.4-1.9-2.5-3.4-1.2-5.7 5-16.6 6.6-22.7 3.5-5.8-3.1-10.5-9.7-10.5-14.9 0-1.8.9-1.9 21.1-1.9h21.2l-.6-5.6c-1-10.2-7.2-19.4-14.9-22.3-4-1.5-11.1-2-15.1-1zm12.7 7.3c4.4 1.8 8.6 7.6 9.3 12.6l.6 4H74.7l.6-3.6c.8-5 4.8-10.7 8.8-12.7 4.2-2 10.9-2.2 15.3-.3zm50.3-7.3c-9.4 1.5-16.8 8-19.7 17.3-2 6.4-.9 18.5 2.3 23.9 7.9 13.4 26.9 17 37.5 7.2l3.7-3.4-2.3-2.3c-1.9-1.9-2.5-2.1-4-1-7.6 5.5-12.5 6.6-18.9 4.1-13.3-5-15.5-28.4-3.4-36.6 6.6-4.4 15.9-3.7 21.7 1.8 2 1.9 2.1 1.9 4.4-.6l2.3-2.5-2.3-2.5c-4.1-4.4-13.2-6.7-21.3-5.4zM9.6 106.6c-.9.8-1.6 2.3-1.5 3.2 0 1.2.3 1 .9-.6.5-1.2 2-2.7 3.2-3.2 1.6-.6 1.8-.9.6-.9-.9-.1-2.4.6-3.2 1.5zm8.1 2.5c.4 1.3.8 1.8 1.1 1 .2-.7-.1-1.8-.6-2.3-.8-.8-.9-.4-.5 1.3zm-7.8 4.1c.7 1 2.4 1.8 3.6 1.8 1.2 0 2.9-.8 3.6-1.8 1.1-1.4 1.1-1.5-.1-.5-1.8 1.7-5.2 1.7-7 0-1.2-1-1.2-.9-.1.5z"/></svg>